<?xml version="1.0" encoding="utf-8"?>
<!-- Generator: Adobe Illustrator 24.0.3, SVG Export Plug-In . SVG Version: 6.00 Build 0)  -->
<svg version="1.1" id="Layer_1" xmlns="http://www.w3.org/2000/svg" xmlns:xlink="http://www.w3.org/1999/xlink" x="0px" y="0px"
	 viewBox="0 0 1019 446.4" style="enable-background:new 0 0 1019 446.4;" xml:space="preserve">
<g id="steam" style="opacity:0.1;">
	
		<linearGradient id="steam2_1_" gradientUnits="userSpaceOnUse" x1="422.8311" y1="489.5554" x2="422.8311" y2="543.9578" gradientTransform="matrix(0.9889 0.1488 -0.1488 0.9889 63.7557 -496.2879)">
		<stop  offset="0" style="stop-color:#000000"/>
		<stop  offset="1" style="stop-color:#000000;stop-opacity:0.2"/>
	</linearGradient>
	<path id="steam2" style="opacity:0.2;fill:url(#steam2_1_);enable-background:new    ;" d="M401.4,49.6c9.9,4.8,9.9,17.8,6.8,27.2
		c-3,9-5.5,15.9,0.4,28.9c-9.2-8.4-9-20.9-5.9-29.6C405,69.1,409.1,62.8,401.4,49.6L401.4,49.6z"/>
	
		<linearGradient id="steam1_1_" gradientUnits="userSpaceOnUse" x1="2136.5503" y1="-23.2029" x2="2136.5503" y2="31.2219" gradientTransform="matrix(-0.8938 0.4484 0.4484 0.8938 2308.365 -849.8349)">
		<stop  offset="0" style="stop-color:#000000"/>
		<stop  offset="1" style="stop-color:#000000;stop-opacity:0.2"/>
	</linearGradient>
	<path id="steam1" style="opacity:0.2;fill:url(#steam1_1_);enable-background:new    ;" d="M395.2,84c-7.9,7.6-3.9,20,2,27.9
		c5.6,7.6,10.1,13.4,8.6,27.6c6.1-10.9,2.1-22.6-3.5-29.9C397.8,103.7,391.9,98.9,395.2,84L395.2,84z"/>
</g>
<path id="flag" style="fill:#42BFEC;" d="M708.8,44.8c0,0,0.9-1.4,2.4-1.7s2.7,0.8,4.1,0.3s1.8-1.8,3.1-1.9c1.3-0.1,2.5,1.2,2.5,1.2
	s-0.7-0.1-2.1,0.7c-1.6,0.8-1.2,2.4-2.8,3.6c-1.5,1.2-2.2,0-4.3,1.5s-2.8,4-2.8,4L708.8,44.8L708.8,44.8z"/>
<g>
	<path style="opacity:0.1;enable-background:new    ;" d="M514,352c0,0-28.5,16.6-34.9,16.9c-9.4,0.5-18.5-1.8-25.3-5.7
		c-0.7-0.4-33.1,20.4-36,20.1s-7.2-3.8-6.8-6.1s36.9-18.2,35.6-19.6c-2.4-2.7-3.9-5.8-4-8.9c-0.2-3.3,0.3-5.8,2.3-8.6
		c2-2.9,34-20.1,34-20.1L514,352z"/>
	<path style="fill:#848584;" d="M523.5,337c0.1,11.4-14.7,20.9-33.2,21.1s-33.6-8.9-33.8-20.3c-0.1-11.4,14.8-20.9,33.2-21.1
		C508.3,316.5,523.4,325.6,523.5,337z"/>
	<g>
		<g>
			<defs>
				<path id="SVGID_1_" d="M523.5,337v0.8c0.1,11.4-14.7,20.9-33.2,21.1s-33.6-8.9-33.8-20.3v-0.8c0.1,11.4,15.2,20.5,33.8,20.3
					C508.8,357.8,523.6,348.4,523.5,337z"/>
			</defs>
			<clipPath id="SVGID_2_">
				<use xlink:href="#SVGID_1_"  style="overflow:visible;"/>
			</clipPath>
			<path style="clip-path:url(#SVGID_2_);fill:#616262;" d="M523.5,337v0.8v0.2v-0.8V337"/>
		</g>
	</g>
	<g>
		<g>
			<defs>
				<path id="SVGID_3_" d="M523.5,337v0.8c0.1,11.4-14.7,20.9-33.2,21.1s-33.6-8.9-33.8-20.3v-0.8c0.1,11.4,15.2,20.5,33.8,20.3
					C508.8,357.8,523.6,348.4,523.5,337z"/>
			</defs>
			<clipPath id="SVGID_4_">
				<use xlink:href="#SVGID_3_"  style="overflow:visible;"/>
			</clipPath>
			<path style="clip-path:url(#SVGID_4_);fill:#646565;" d="M523.5,337.1v0.8c0,0.8-0.1,1.5-0.2,2.2v-0.8
				C523.4,338.6,523.5,337.9,523.5,337.1"/>
		</g>
	</g>
	<g>
		<g>
			<defs>
				<path id="SVGID_5_" d="M523.5,337v0.8c0.1,11.4-14.7,20.9-33.2,21.1s-33.6-8.9-33.8-20.3v-0.8c0.1,11.4,15.2,20.5,33.8,20.3
					C508.8,357.8,523.6,348.4,523.5,337z"/>
			</defs>
			<clipPath id="SVGID_6_">
				<use xlink:href="#SVGID_5_"  style="overflow:visible;"/>
			</clipPath>
			<path style="clip-path:url(#SVGID_6_);fill:#666767;" d="M523.3,339.4v0.8c-0.1,0.7-0.3,1.5-0.6,2.2v-0.8
				C523,340.8,523.2,340.1,523.3,339.4"/>
		</g>
	</g>
	<g>
		<g>
			<defs>
				<path id="SVGID_7_" d="M523.5,337v0.8c0.1,11.4-14.7,20.9-33.2,21.1s-33.6-8.9-33.8-20.3v-0.8c0.1,11.4,15.2,20.5,33.8,20.3
					C508.8,357.8,523.6,348.4,523.5,337z"/>
			</defs>
			<clipPath id="SVGID_8_">
				<use xlink:href="#SVGID_7_"  style="overflow:visible;"/>
			</clipPath>
			<path style="clip-path:url(#SVGID_8_);fill:#696A6A;" d="M522.7,341.5v0.8c-0.3,0.8-0.6,1.5-1,2.3v-0.8
				C522.1,343.1,522.5,342.3,522.7,341.5"/>
		</g>
	</g>
	<g>
		<g>
			<defs>
				<path id="SVGID_9_" d="M523.5,337v0.8c0.1,11.4-14.7,20.9-33.2,21.1s-33.6-8.9-33.8-20.3v-0.8c0.1,11.4,15.2,20.5,33.8,20.3
					C508.8,357.8,523.6,348.4,523.5,337z"/>
			</defs>
			<clipPath id="SVGID_10_">
				<use xlink:href="#SVGID_9_"  style="overflow:visible;"/>
			</clipPath>
			<path style="clip-path:url(#SVGID_10_);fill:#6B6C6C;" d="M521.7,343.8v0.8c-0.5,0.9-1,1.7-1.7,2.5v-0.8
				C520.7,345.5,521.3,344.6,521.7,343.8"/>
		</g>
	</g>
	<g>
		<g>
			<defs>
				<path id="SVGID_11_" d="M523.5,337v0.8c0.1,11.4-14.7,20.9-33.2,21.1s-33.6-8.9-33.8-20.3v-0.8c0.1,11.4,15.2,20.5,33.8,20.3
					C508.8,357.8,523.6,348.4,523.5,337z"/>
			</defs>
			<clipPath id="SVGID_12_">
				<use xlink:href="#SVGID_11_"  style="overflow:visible;"/>
			</clipPath>
			<path style="clip-path:url(#SVGID_12_);fill:#6D6E6E;" d="M520.1,346.3v0.8c-0.9,1.1-1.9,2.2-3.1,3.2v-0.8
				C518.1,348.5,519.2,347.4,520.1,346.3"/>
		</g>
	</g>
	<g>
		<g>
			<defs>
				<path id="SVGID_13_" d="M523.5,337v0.8c0.1,11.4-14.7,20.9-33.2,21.1s-33.6-8.9-33.8-20.3v-0.8c0.1,11.4,15.2,20.5,33.8,20.3
					C508.8,357.8,523.6,348.4,523.5,337z"/>
			</defs>
			<clipPath id="SVGID_14_">
				<use xlink:href="#SVGID_13_"  style="overflow:visible;"/>
			</clipPath>
			<path style="clip-path:url(#SVGID_14_);fill:#707171;" d="M517,349.5v0.8c-3,2.5-7,4.7-11.5,6.2v-0.8
				C510,354.1,513.9,352,517,349.5"/>
		</g>
	</g>
	<g>
		<g>
			<defs>
				<path id="SVGID_15_" d="M523.5,337v0.8c0.1,11.4-14.7,20.9-33.2,21.1s-33.6-8.9-33.8-20.3v-0.8c0.1,11.4,15.2,20.5,33.8,20.3
					C508.8,357.8,523.6,348.4,523.5,337z"/>
			</defs>
			<clipPath id="SVGID_16_">
				<use xlink:href="#SVGID_15_"  style="overflow:visible;"/>
			</clipPath>
			<path style="clip-path:url(#SVGID_16_);fill:#6D6E6E;" d="M505.4,355.6v0.8c-1.7,0.6-3.6,1-5.5,1.4V357
				C501.8,356.7,503.7,356.2,505.4,355.6"/>
		</g>
	</g>
	<g>
		<g>
			<g>
				<defs>
					<path id="SVGID_17_" d="M523.5,337v0.8c0.1,11.4-14.7,20.9-33.2,21.1s-33.6-8.9-33.8-20.3v-0.8c0.1,11.4,15.2,20.5,33.8,20.3
						C508.8,357.8,523.6,348.4,523.5,337z"/>
				</defs>
				<clipPath id="SVGID_18_">
					<use xlink:href="#SVGID_17_"  style="overflow:visible;"/>
				</clipPath>
				<path style="clip-path:url(#SVGID_18_);fill:#6B6C6C;" d="M499.9,357v0.8c-1.4,0.3-2.8,0.5-4.3,0.7v-0.8
					C497.1,357.5,498.6,357.3,499.9,357"/>
			</g>
		</g>
	</g>
	<g>
		<g>
			<g>
				<defs>
					<path id="SVGID_19_" d="M523.5,337v0.8c0.1,11.4-14.7,20.9-33.2,21.1s-33.6-8.9-33.8-20.3v-0.8c0.1,11.4,15.2,20.5,33.8,20.3
						C508.8,357.8,523.6,348.4,523.5,337z"/>
				</defs>
				<clipPath id="SVGID_20_">
					<use xlink:href="#SVGID_19_"  style="overflow:visible;"/>
				</clipPath>
				<path style="clip-path:url(#SVGID_20_);fill:#696A6A;" d="M495.7,357.7v0.8c-1.2,0.1-2.5,0.2-3.8,0.3V358
					C493.2,357.9,494.4,357.8,495.7,357.7"/>
			</g>
		</g>
	</g>
	<g>
		<g>
			<g>
				<defs>
					<path id="SVGID_21_" d="M523.5,337v0.8c0.1,11.4-14.7,20.9-33.2,21.1s-33.6-8.9-33.8-20.3v-0.8c0.1,11.4,15.2,20.5,33.8,20.3
						C508.8,357.8,523.6,348.4,523.5,337z"/>
				</defs>
				<clipPath id="SVGID_22_">
					<use xlink:href="#SVGID_21_"  style="overflow:visible;"/>
				</clipPath>
				<path style="clip-path:url(#SVGID_22_);fill:#666767;" d="M491.9,358v0.8c-0.5,0-1.1,0-1.6,0c-0.7,0-1.4,0-2,0V358
					c0.7,0,1.4,0,2,0C490.8,358,491.3,358,491.9,358"/>
			</g>
		</g>
	</g>
	<g>
		<g>
			<g>
				<defs>
					<path id="SVGID_23_" d="M523.5,337v0.8c0.1,11.4-14.7,20.9-33.2,21.1s-33.6-8.9-33.8-20.3v-0.8c0.1,11.4,15.2,20.5,33.8,20.3
						C508.8,357.8,523.6,348.4,523.5,337z"/>
				</defs>
				<clipPath id="SVGID_24_">
					<use xlink:href="#SVGID_23_"  style="overflow:visible;"/>
				</clipPath>
				<path style="clip-path:url(#SVGID_24_);fill:#646565;" d="M488.2,358v0.8c-1.2,0-2.4-0.1-3.5-0.2v-0.8
					C485.9,357.9,487,358,488.2,358"/>
			</g>
		</g>
	</g>
	<g>
		<g>
			<g>
				<defs>
					<path id="SVGID_25_" d="M523.5,337v0.8c0.1,11.4-14.7,20.9-33.2,21.1s-33.6-8.9-33.8-20.3v-0.8c0.1,11.4,15.2,20.5,33.8,20.3
						C508.8,357.8,523.6,348.4,523.5,337z"/>
				</defs>
				<clipPath id="SVGID_26_">
					<use xlink:href="#SVGID_25_"  style="overflow:visible;"/>
				</clipPath>
				<path style="clip-path:url(#SVGID_26_);fill:#616262;" d="M484.7,357.8v0.8c-1.2-0.1-2.4-0.3-3.6-0.5v-0.8
					C482.3,357.5,483.5,357.7,484.7,357.8"/>
			</g>
		</g>
	</g>
	<g>
		<g>
			<g>
				<defs>
					<path id="SVGID_27_" d="M523.5,337v0.8c0.1,11.4-14.7,20.9-33.2,21.1s-33.6-8.9-33.8-20.3v-0.8c0.1,11.4,15.2,20.5,33.8,20.3
						C508.8,357.8,523.6,348.4,523.5,337z"/>
				</defs>
				<clipPath id="SVGID_28_">
					<use xlink:href="#SVGID_27_"  style="overflow:visible;"/>
				</clipPath>
				<path style="clip-path:url(#SVGID_28_);fill:#5F6060;" d="M481.1,357.4v0.8c-1.3-0.2-2.5-0.5-3.8-0.8v-0.8
					C478.6,356.9,479.8,357.1,481.1,357.4"/>
			</g>
		</g>
	</g>
	<g>
		<g>
			<g>
				<defs>
					<path id="SVGID_29_" d="M523.5,337v0.8c0.1,11.4-14.7,20.9-33.2,21.1s-33.6-8.9-33.8-20.3v-0.8c0.1,11.4,15.2,20.5,33.8,20.3
						C508.8,357.8,523.6,348.4,523.5,337z"/>
				</defs>
				<clipPath id="SVGID_30_">
					<use xlink:href="#SVGID_29_"  style="overflow:visible;"/>
				</clipPath>
				<path style="clip-path:url(#SVGID_30_);fill:#5C5E5E;" d="M477.4,356.6v0.8c-1.5-0.4-3-0.8-4.4-1.3v-0.8
					C474.4,355.8,475.8,356.2,477.4,356.6"/>
			</g>
		</g>
	</g>
	<g>
		<g>
			<g>
				<defs>
					<path id="SVGID_31_" d="M523.5,337v0.8c0.1,11.4-14.7,20.9-33.2,21.1s-33.6-8.9-33.8-20.3v-0.8c0.1,11.4,15.2,20.5,33.8,20.3
						C508.8,357.8,523.6,348.4,523.5,337z"/>
				</defs>
				<clipPath id="SVGID_32_">
					<use xlink:href="#SVGID_31_"  style="overflow:visible;"/>
				</clipPath>
				<path style="clip-path:url(#SVGID_32_);fill:#5A5B5B;" d="M473,355.3v0.8c-9.8-3.5-16.4-10-16.4-17.5v-0.8
					C456.6,345.2,463.2,351.8,473,355.3"/>
			</g>
		</g>
	</g>
	<path style="fill:#52C8EB;" d="M488.9,342.9l-15.3-2.9l-7.6-4.5l-1.6-6.2c2.6-7.2,12.9-12.5,25.4-12.5s23,5.4,25.9,12.5
		c0,0.1-1.3,5.6-1.3,5.6l-7.8,5.9L488.9,342.9z"/>
	<path style="fill:#D5C9B4;" d="M498,343.9l-18.9-1.6l-14.4-7.6l-6.9-9.5c0,0-0.1,9.2-0.1,11c0,9.3,12,20.3,32.5,20.3
		c19.7,0,32.1-11,31.9-19.4c-0.1-3.2,0.2-11,0.2-11c0,0.1-3.9,6.3-9.8,10.9C506,341.8,498,343.9,498,343.9z"/>
	<path style="fill:#FFF8EA;" d="M489.6,305.8c17.8,0,32.4,8.9,32.6,19.9s-14,19.9-31.8,19.9s-32.4-8.9-32.6-19.9
		S471.8,305.8,489.6,305.8L489.6,305.8z M490.4,342c14.6,0,26.2-7.3,26-16.3s-12.2-16.3-26.7-16.3c-14.6,0-26.2,7.3-26,16.3
		C463.8,334.7,475.8,342,490.4,342"/>
	<path style="fill:#D5C9B4;" d="M516.4,325.7c-0.2-9-12.2-16.3-26.7-16.3c-14.6,0-26.2,7.3-26,16.3c0,0.6,0.1,1.2,0.2,1.8
		c1.3-8.1,12.3-14.5,25.9-14.5s24.9,6.3,26.5,14.5C516.3,327.5,516.4,326.3,516.4,325.7z"/>
	<path style="fill:#57B3E1;" d="M515.8,329.4c-2.9-7.2-13.5-12.5-25.9-12.5c-12.5,0-22.8,5.4-25.4,12.5c-0.1-0.3-0.2-0.6-0.3-1
		c-0.1-0.3-0.2-0.6-0.2-1c1.3-8.1,12.3-14.5,25.9-14.5s24.9,6.3,26.5,14.5C516.2,328.1,515.8,329.4,515.8,329.4z"/>
	<path id="ring1" style="opacity:0.15;fill:#FFF8EA;enable-background:new    ;" d="M490.3,320.5c5,0,9.1,2.5,9.2,5.6
		s-3.9,5.6-8.9,5.6s-9.1-2.5-9.2-5.6S485.3,320.5,490.3,320.5L490.3,320.5z M490.6,331.1c4.6,0,8.4-2.3,8.3-5.1
		c-0.1-2.8-3.9-5.1-8.5-5.1s-8.4,2.3-8.3,5.1C482.1,328.8,485.9,331.1,490.6,331.1"/>
	<path id="ring2" style="opacity:0.15;fill:#FFF8EA;enable-background:new    ;" d="M490.3,320.5c5,0,9.1,2.5,9.2,5.6
		s-3.9,5.6-8.9,5.6s-9.1-2.5-9.2-5.6S485.3,320.5,490.3,320.5L490.3,320.5z M490.6,331.1c4.6,0,8.4-2.3,8.3-5.1
		c-0.1-2.8-3.9-5.1-8.5-5.1s-8.4,2.3-8.3,5.1C482.1,328.8,485.9,331.1,490.6,331.1"/>
	<path id="ring3" style="opacity:0.15;fill:#FFF8EA;enable-background:new    ;" d="M490.3,320.5c5,0,9.1,2.5,9.2,5.6
		s-3.9,5.6-8.9,5.6s-9.1-2.5-9.2-5.6S485.3,320.5,490.3,320.5L490.3,320.5z M490.6,331.1c4.6,0,8.4-2.3,8.3-5.1
		c-0.1-2.8-3.9-5.1-8.5-5.1s-8.4,2.3-8.3,5.1C482.1,328.8,485.9,331.1,490.6,331.1"/>
	<path style="opacity:0.15;fill:#FFF8EA;enable-background:new    ;" d="M497.6,324.2l-0.2,0.2l-0.1,0.1c0.5,0.7,0.8,1.4,0.9,2.2
		c0.1,2.8-3.6,5.1-8.2,5.1s-8.4-2.3-8.5-5.1c0-0.8,0.3-1.6,0.9-2.3l0,0c-0.1-0.1-0.2-0.2-0.3-0.4c-0.8,0.8-1.2,1.8-1.2,2.8
		c0.1,3,4.1,5.5,9.1,5.5c4.9,0,8.9-2.5,8.8-5.5C498.7,325.9,498.3,325,497.6,324.2z"/>
	
		<linearGradient id="SVGID_33_" gradientUnits="userSpaceOnUse" x1="484.8761" y1="630.15" x2="494.7928" y2="630.15" gradientTransform="matrix(1 0 0 1 0 -302)">
		<stop  offset="0" style="stop-color:#888988"/>
		<stop  offset="0.2201" style="stop-color:#909090"/>
		<stop  offset="0.6352" style="stop-color:#A4A4A4"/>
		<stop  offset="1" style="stop-color:#B7B8B9"/>
	</linearGradient>
	<path style="fill:url(#SVGID_33_);" d="M494.8,323.3c0,0.1,0,0.1,0,0.2v0.1c0,0.1,0,0.1,0,0.2v0.1c0,0.1-0.1,0.1-0.1,0.2
		c0,0,0,0.1-0.1,0.1c-0.1,0.1-0.1,0.2-0.2,0.3l-0.1,0.1l-0.1,0.1l-0.2,0.1l-0.1,0.1c-0.1,0.1-0.2,0.1-0.3,0.2
		c-0.2,0.1-0.5,0.2-0.7,0.4c-0.1,0-0.1,0.1-0.2,0.1c-0.2,0.1-0.3,0.1-0.5,0.2c-0.1,0-0.3,0.1-0.4,0.1c-0.2,0-0.4,0.1-0.6,0.1
		c-0.1,0-0.1,0-0.2,0c-0.3,0-0.5,0-0.8,0H490c-0.3,0-0.5,0-0.8,0h-0.1c-0.3,0-0.5-0.1-0.8-0.1h-0.1c-0.3-0.1-0.5-0.1-0.8-0.2h-0.1
		c-0.2-0.1-0.5-0.2-0.7-0.4c-1-0.6-1.5-1.4-1.5-2.2v7.3c0,0.8,0.5,1.6,1.5,2.2c0.2,0.1,0.5,0.2,0.7,0.4h0.1h0.1
		c0.2,0.1,0.4,0.1,0.6,0.2l0,0h0.1c0.1,0,0.3,0.1,0.4,0.1s0.2,0,0.4,0h0.1c0,0,0,0,0.1,0c0.2,0,0.4,0,0.5,0h0.5c0.2,0,0.4,0,0.6,0
		c0,0,0,0,0.1,0s0.1,0,0.2,0s0.3,0,0.4-0.1c0.1,0,0.1,0,0.2,0s0.3-0.1,0.4-0.1s0.2,0,0.2-0.1s0.2-0.1,0.2-0.1c0.1,0,0.1,0,0.2-0.1
		c0.2-0.1,0.5-0.2,0.7-0.4c0.1-0.1,0.2-0.1,0.3-0.2c0,0,0.1,0,0.1-0.1c0.1,0,0.1-0.1,0.2-0.2l0.1-0.1l0.1-0.1l0,0
		c0.1-0.1,0.2-0.2,0.2-0.3l0,0c0,0,0,0,0-0.1s0.1-0.1,0.1-0.2V331c0,0,0,0,0-0.1s0-0.1,0.1-0.2c0,0,0,0,0-0.1l0,0c0-0.1,0-0.1,0-0.2
		v-0.1l0,0V323C494.8,323.2,494.8,323.3,494.8,323.3L494.8,323.3z"/>
	
		<linearGradient id="SVGID_34_" gradientUnits="userSpaceOnUse" x1="484.8761" y1="631.5001" x2="494.7928" y2="631.5001" gradientTransform="matrix(1 0 0 1 0 -302)">
		<stop  offset="0" style="stop-color:#3B8898"/>
		<stop  offset="0.2201" style="stop-color:#498FA1"/>
		<stop  offset="0.6352" style="stop-color:#67A5B9"/>
		<stop  offset="1" style="stop-color:#83BFD6"/>
	</linearGradient>
	<path style="fill:url(#SVGID_34_);" d="M494.8,326c0,0.1,0,0.1,0,0.2v0.1c0,0.1,0,0.1,0,0.2v0.1c0,0.1-0.1,0.1-0.1,0.2
		c0,0,0,0.1-0.1,0.1c-0.1,0.1-0.1,0.2-0.2,0.3l-0.1,0.1l-0.1,0.1l-0.2,0.1l-0.1,0.1c-0.1,0.1-0.2,0.1-0.3,0.2
		c-0.2,0.1-0.5,0.2-0.7,0.4c-0.1,0-0.1,0.1-0.2,0.1c-0.2,0.1-0.3,0.1-0.5,0.2c-0.1,0-0.3,0.1-0.4,0.1c-0.2,0-0.4,0.1-0.6,0.1
		c-0.1,0-0.1,0-0.2,0c-0.3,0-0.5,0-0.8,0H490c-0.3,0-0.5,0-0.8,0h-0.1c-0.3,0-0.5-0.1-0.8-0.1h-0.1c-0.3-0.1-0.5-0.1-0.8-0.2h-0.1
		c-0.2-0.1-0.5-0.2-0.7-0.4c-1-0.6-1.5-1.4-1.5-2.2v4.6c0,0.8,0.5,1.6,1.5,2.2c0.2,0.1,0.5,0.2,0.7,0.4h0.1h0.1
		c0.2,0.1,0.4,0.1,0.6,0.2l0,0h0.1c0.1,0,0.3,0.1,0.4,0.1s0.2,0,0.4,0h0.1c0,0,0,0,0.1,0c0.2,0,0.4,0,0.5,0h0.5c0.2,0,0.4,0,0.6,0
		c0,0,0,0,0.1,0s0.1,0,0.2,0s0.3,0,0.4-0.1c0.1,0,0.1,0,0.2,0s0.3-0.1,0.4-0.1s0.2,0,0.2-0.1s0.2-0.1,0.2-0.1c0.1,0,0.1,0,0.2-0.1
		c0.2-0.1,0.5-0.2,0.7-0.4c0.1-0.1,0.2-0.1,0.3-0.2c0,0,0.1,0,0.1-0.1c0.1,0,0.1-0.1,0.2-0.2l0.1-0.1l0.1-0.1l0,0
		c0.1-0.1,0.2-0.2,0.2-0.3l0,0c0,0,0,0,0-0.1s0.1-0.1,0.1-0.2V331c0,0,0,0,0-0.1s0-0.1,0.1-0.2c0,0,0,0,0-0.1l0,0c0-0.1,0-0.1,0-0.2
		v-0.1l0,0v-4.6C494.8,326,494.8,326,494.8,326L494.8,326z"/>
	<path style="fill:#E5E5E5;" d="M486.3,321c1.9-1.2,5-1.2,7,0c1.9,1.2,2,3.1,0,4.3c-1.9,1.2-5.1,1.2-7,0
		C484.4,324.1,484.4,322.2,486.3,321z"/>
	
		<linearGradient id="SVGID_35_" gradientUnits="userSpaceOnUse" x1="481.04" y1="624.3" x2="498.7401" y2="624.3" gradientTransform="matrix(1 0 0 1 0 -302)">
		<stop  offset="0" style="stop-color:#999898"/>
		<stop  offset="0.2201" style="stop-color:#A4A3A3"/>
		<stop  offset="0.6352" style="stop-color:#C3C2C1"/>
		<stop  offset="1" style="stop-color:#E5E5E5"/>
	</linearGradient>
	<path style="fill:url(#SVGID_35_);" d="M498.7,317.8c0,0.1,0,0.2,0,0.4c0,0.1,0,0.1,0,0.2s-0.1,0.2-0.1,0.3c0,0.1-0.1,0.1-0.1,0.2
		s-0.1,0.2-0.2,0.4c0,0.1-0.1,0.1-0.1,0.2c-0.1,0.2-0.3,0.4-0.4,0.6c-0.1,0.1-0.1,0.1-0.2,0.2s-0.1,0.2-0.2,0.2
		c-0.1,0.1-0.2,0.2-0.3,0.3c-0.1,0-0.1,0.1-0.2,0.2c-0.2,0.1-0.4,0.3-0.6,0.4c-0.4,0.2-0.8,0.4-1.2,0.6c-0.1,0-0.2,0.1-0.4,0.1
		c-0.3,0.1-0.6,0.2-0.9,0.3c-0.3,0.1-0.5,0.1-0.8,0.2s-0.7,0.1-1,0.2c-0.1,0-0.2,0-0.3,0c-0.5,0-1,0.1-1.4,0.1H490
		c-0.5,0-1,0-1.5-0.1c-0.1,0-0.1,0-0.2,0c-0.5-0.1-0.9-0.1-1.4-0.2c-0.1,0-0.1,0-0.2,0c-0.5-0.1-1-0.3-1.4-0.5
		c-0.1,0-0.1-0.1-0.2-0.1c-0.4-0.2-0.9-0.4-1.3-0.6c-1.7-1.1-2.6-2.5-2.6-3.9v4.1c0,1.4,0.9,2.8,2.6,3.9c0.4,0.2,0.8,0.5,1.3,0.6
		c0.1,0,0.1,0.1,0.2,0.1s0.1,0,0.2,0.1c0.4,0.1,0.8,0.3,1.1,0.4h0.1c0.1,0,0.1,0,0.2,0c0.2,0.1,0.5,0.1,0.7,0.2
		c0.2,0,0.4,0.1,0.6,0.1c0.1,0,0.1,0,0.2,0h0.1c0.3,0,0.6,0.1,1,0.1h1c0.3,0,0.7,0,1-0.1h0.1c0.1,0,0.2,0,0.3,0
		c0.2,0,0.5-0.1,0.7-0.1c0.1,0,0.2-0.1,0.4-0.1c0.3-0.1,0.5-0.1,0.8-0.2c0.1,0,0.3-0.1,0.5-0.1c0.1,0,0.3-0.1,0.4-0.2
		c0.1,0,0.2-0.1,0.4-0.1c0.4-0.2,0.9-0.4,1.2-0.6c0.2-0.1,0.4-0.3,0.6-0.4l0,0c0.1,0,0.1-0.1,0.2-0.1c0.1-0.1,0.2-0.2,0.3-0.3
		c0.1-0.1,0.1-0.1,0.2-0.2s0.2-0.2,0.2-0.3l0,0c0.2-0.2,0.3-0.4,0.4-0.6c0,0,0,0,0-0.1l0.1-0.1c0.1-0.1,0.1-0.2,0.2-0.4V323v-0.1
		c0-0.1,0.1-0.2,0.1-0.3v-0.1c0,0,0,0,0-0.1s0-0.2,0-0.4c0,0,0-0.1,0-0.2v-0.1v-4.1C498.7,317.6,498.7,317.7,498.7,317.8
		L498.7,317.8z"/>
	<path style="fill:#FFF8EA;" d="M483.6,313.6c3.4-2.1,9-2.1,12.5,0s3.5,5.6,0.1,7.7s-9,2.1-12.5,0S480.2,315.8,483.6,313.6
		L483.6,313.6z"/>
	<path style="fill:#97D9EC;" d="M483.6,313.6c1.6-1,3.8-1.5,6-1.6c1.5,0,2.9,0.2,4.3,0.6c0.8,0.2,1.6,0.6,2.2,1
		c0,1.1-2.3,1.5-1.6,2.5c0.5,0.8,3.9,1.1,4.2,1.3v8.9c0,1.3-0.3,1.7-0.8,2.4v-9c-0.6-0.4-1.4-0.3-1.8,0c-0.3,0.2-0.4,0.8,0,1.6v9
		c-0.9,0.6-1.9,1-2.5,1.1c0-0.8,0-7.2,0-9c-0.4-0.6-1.9-2.8-2.8-2.7c-1,0.1-1.8,2.5-2.6,3.1c0,1.1,0.1,8.2,0.1,9
		c-1,0-2.5-0.5-3.3-0.8c0-1.1-0.6-8-0.1-9c0.8-1.9-0.6-1.6-1-1.9c-0.5-0.3,0.7-1.3,0.4-1.6c-0.6-0.6-1.9,0.4-2.9,0.4
		c0-0.1,0.2,8.7,0.2,9.4c-0.2-0.3-0.5-1.1-0.6-1.5c0-0.2,0-7,0-9.4c0-0.7,0.1-0.7,0.1-0.8c0.7-0.4,3.6,0,4-0.6
		C485.6,315.6,483.9,314.6,483.6,313.6L483.6,313.6z"/>
	<g id="splash3">
		<path style="opacity:0.8;fill:#6ECCDE;enable-background:new    ;" d="M489.8,329.6c-0.2-0.2-1,1.7-1.3,1.2
			c-0.2-0.6,1-1.3,0.7-1.8s-1.5,0.9-1.8,1.2c-0.3,0.3-0.4-0.5-0.6-1s-0.1-0.9-0.3-0.6c-0.2,0.3-0.1,1.6-0.3,1.6
			c-0.2-0.1-0.3,0.1-0.4-0.4c-0.1-0.4-0.2-1.8-0.5-1.8c-0.2,0,0,1-0.2,1.1s-0.3,0.9-0.6,0.7s-0.2-0.9-0.3-1.3
			c-0.1-0.4,0.2-1.7-0.1-1.6c-0.4,0.1-0.5,0.7-0.5,0.7v0.9c0,0.3,0.2,0.3,0.2,0.9s-0.1,0.5,0.1,0.6c0.2,0.2-0.1,0.1,0.2,0.2
			c0.3,0,0.4-0.1,0.7,0.1c0.3,0.2,0.9,0.6,1,0.6v-0.1c0,0,0.5,0.4,0.8,0.6s0.4-0.3,0.6-0.1c0.2,0.2,0.3-0.3,0.4-0.3s0.5,0.7,0.5,0.6
			s0.5,0.4,0.7,0.2c0.2-0.2,0.3-0.6,0.6-0.8C489.7,330.8,490.1,330,489.8,329.6L489.8,329.6z"/>
		<path style="opacity:0.9;fill:#E1F3F5;enable-background:new    ;" d="M483,328c0.2-0.1,0.5,2.2,1,1.9c0.4-0.3-0.1-0.1,0.4-0.3
			c0.5-0.2,0.7,0.2,0.9,0.7c0.2,0.5,0.2-0.4,0.6-0.7c0.4-0.3,0.3-0.1,0.4,0.3s0,1.2,0.2,1.3c0.2,0.1,0.3,0.3,0.5,0s0.5-1.1,0.7-0.9
			s0.1,0.6,0.2,0.8c0.1,0.2,0.1,0.2,0.4,0.3s0.5,0.2,0.8,0s0.6-1.4,0.9-1.1s0.2,1.2,0.2,1.2s-0.3-0.1-0.4,0.2
			c-0.1,0.3-0.2-0.2-0.4,0.3c-0.2,0.5-0.5,0.7-0.7,0.7s0.1,0.2-0.2,0c-0.3-0.2-0.3-0.4-0.7-0.5c-0.4-0.1-1.1-0.2-1.2-0.3v-0.1
			c0,0-0.6-0.9-0.9-0.9s-0.3,0.3-0.6,0.3c-0.3,0-0.2-0.4-0.3-0.6c-0.1-0.2-0.7,0.2-0.7,0.1s-0.6,0-0.8-0.4c-0.2-0.4-0.1-0.8-0.3-1.1
			C482.9,329,482.6,328.1,483,328L483,328z"/>
		<path style="opacity:0.8;fill:#6ECCDE;enable-background:new    ;" d="M497,326.3c-0.2,0-0.2,2.1-0.5,1.9
			c-0.4-0.2,0.3-1.7-0.1-1.8c-0.4-0.1-0.8,1.8-0.9,2.3s-0.5,0-0.8-0.2s-0.4-0.6-0.4-0.2c0,0.3,0.5,1.3,0.3,1.4s-0.2,0.3-0.4,0.1
			c-0.2-0.2-0.8-1.1-1-1c-0.2,0.2,0.3,0.8,0.2,1c-0.1,0.2,0.1,0.9-0.2,1c-0.2,0.1-0.4-0.5-0.7-0.7c-0.2-0.2-0.4-1.4-0.7-1
			c-0.2,0.3-0.1,0.9-0.1,0.9l0.3,0.6c0.1,0.2,0.3,0,0.5,0.4s0.1,0.4,0.3,0.4c0.2,0,0,0.2,0.2,0s0.2-0.4,0.5-0.5s0.9-0.3,0.9-0.4
			s0-0.1,0-0.1s0.5-0.2,0.8-0.2c0.3-0.1,0.2-0.5,0.4-0.5s0.1-0.4,0.2-0.5c0.1-0.2,0.6,0.1,0.6,0s0.5-0.1,0.6-0.5s0-0.7,0.1-1
			S497.3,326.4,497,326.3L497,326.3z"/>
		<path style="opacity:0.9;fill:#E1F3F5;enable-background:new    ;" d="M491.3,330.5c0.1-0.2,1.2,1.2,1.4,0.6
			c0.2-0.6-0.1,0,0.2-0.6c0.3-0.6,0.6-0.4,0.9-0.2s0-0.4,0.2-0.9s0.2-0.3,0.4-0.1s0.4,0.8,0.6,0.7c0.2-0.1,0.3,0,0.4-0.4
			s0-1.2,0.2-1.2c0.2-0.1,0.3,0.4,0.5,0.4s0.2,0,0.4-0.2c0.2-0.2,0.5-0.3,0.6-0.7c0.1-0.4,0-1.5,0.3-1.5c0.4,0,0.5,0.7,0.5,0.7
			s-0.3,0.3-0.2,0.5c0,0.3-0.2,0-0.2,0.5s-0.1,0.9-0.3,1.1c-0.2,0.2,0.1,0.1-0.2,0.2c-0.3,0.1-0.4,0-0.7,0.2c-0.3,0.2-0.9,0.8-1,0.7
			v-0.1c0,0-0.8-0.2-1,0.1c-0.2,0.3-0.2,0.5-0.4,0.7c-0.2,0.3-0.3-0.2-0.4-0.2c-0.2,0-0.4,0.7-0.5,0.7c-0.1-0.1-0.5,0.5-0.7,0.3
			c-0.3-0.2-0.3-0.5-0.6-0.6C491.6,331.3,491.1,330.9,491.3,330.5L491.3,330.5z"/>
		<path style="opacity:0.8;fill:#6ECCDE;enable-background:new    ;" d="M497.4,326.3c0.2-0.1,0,1.7,0.3,1.4
			c0.3-0.3-0.1,0.1,0.3-0.2c0.4-0.3,0.3,0.3,0.2-0.1c0-0.5-0.7-0.9-0.4-1.2c0.1-0.2,0.2,0.1,0.3,0.4c0.1,0.3,0,0.3,0.2,0.4
			c0.2,0,0.4-0.2,0.6-0.5s-0.6-1.4-0.4-1.3s0,0.3,0.1,0.4s0,0,0.3,0c0.2,0,0.1-0.3,0.3-0.5c0.2-0.3-0.6-1.8-0.3-1.6
			c0.3,0.2-0.3,0.7-0.3,0.7s0.2,0,0.1,0.2s0.3,0,0.1,0.5c-0.1,0.4-0.2,0.3-0.3,0.3c-0.2,0.1,0.1,0.2-0.2,0.1c-0.3-0.1,0.2,0.5,0,0.5
			c-0.3,0,0.6,1.5,0.6,1.4s-0.2-0.1-0.2-0.1s0.2,0.6,0,0.7c-0.3,0.1,0,0.6-0.3,0.7c-0.2,0.1-0.2-0.3-0.3-0.4s-0.3,0-0.4-0.1
			c0-0.1-0.5,0.7-0.6,0.4c-0.2-0.3,0.3-1,0.2-1.2C497.1,327,497.2,326.5,497.4,326.3L497.4,326.3z"/>
		<path style="opacity:0.9;fill:#E1F3F5;enable-background:new    ;" d="M496.8,326.7c0.2-0.1,0.8,1.4,1.1,1.1
			c0.3-0.4-0.1-0.1,0.3-0.4c0.3-0.4,0.5-0.1,0.8,0.2c0.2,0.3-1-1.6-0.8-2s0.2-0.2,0.4,0.1c0.1,0.3,0.2,0.9,0.4,0.9
			c0.2,0,0.3,0.1,0.4-0.2c0.1-0.3-0.8-2.1-0.6-2c0.2,0.1,0,0.3,0.2,0.4c0.1,0.1,0-0.1,0.3-0.1s0-0.3,0.2-0.6s-0.8-1.6-0.5-1.5
			s-0.2,0.8-0.2,0.8s0.2-0.1,0.2,0.2c0,0.2,0.3,0,0.2,0.4c-0.1,0.5-0.1,0.3-0.3,0.4c-0.2,0.1,0.1,0.1-0.2,0.1
			c-0.3-0.1,0.3,0.5,0,0.5c-0.3,0.1,0.8,2.2,0.8,2.1s-0.3-0.1-0.3-0.1s-0.6-0.4-0.9-0.3s0.9,1.6,0.7,1.7c-0.2,0.1-0.2-0.3-0.3-0.3
			c-0.1-0.1-0.5,0.4-0.5,0.4c0-0.1-0.4,0.4-0.6,0.2c-0.2-0.2-0.3-0.7-0.5-0.9C496.9,327.5,496.5,326.9,496.8,326.7L496.8,326.7z"/>
		<path style="opacity:0.8;fill:#6ECCDE;enable-background:new    ;" d="M482.4,326.4c-0.2-0.1,0,1.8-0.4,1.5
			c-0.4-0.4,0.1,0.1-0.3-0.2c-0.4-0.3-0.3,0.4-0.3,0c0-0.5,0.8-1,0.5-1.3c-0.1-0.1-0.2,0.1-0.3,0.4c-0.1,0.3,0,0.4-0.2,0.4
			s-0.5-0.3-0.6-0.6c-0.2-0.3,0.7-1.5,0.4-1.4c-0.2,0.1,0,0.3-0.2,0.5c-0.1,0.1-0.1,0-0.3,0c-0.3,0-0.1-0.3-0.3-0.5
			c-0.2-0.3,0.7-1.9,0.4-1.7c-0.3,0.2,0.3,0.8,0.3,0.8s-0.2,0-0.2,0.2c0.1,0.2-0.3,0-0.2,0.5c0.2,0.5,0.2,0.3,0.4,0.3
			c0.2,0.1-0.1,0.2,0.2,0.1c0.3-0.1-0.3,0.6,0.1,0.6c0.3,0-0.7,1.6-0.7,1.5s0.3-0.1,0.3-0.1s-0.3,0.7,0,0.8c0.3,0.1,0.1,0.7,0.3,0.7
			c0.3,0.1,0.2-0.3,0.3-0.4c0.1-0.1,0.4,0,0.4-0.1s0.5,0.7,0.7,0.4c0.2-0.3-0.4-1.1-0.2-1.3C482.8,327.1,482.7,326.6,482.4,326.4
			L482.4,326.4z"/>
		<path style="opacity:0.9;fill:#E1F3F5;enable-background:new    ;" d="M483.1,326.8c-0.2-0.1-0.9,1.6-1.2,1.2
			c-0.3-0.4,0.1-0.1-0.3-0.4c-0.4-0.4-0.6-0.1-0.9,0.2c-0.3,0.3,1.2-1.8,0.9-2.2c-0.3-0.4-0.3-0.2-0.4,0.1c-0.1,0.3-0.2,1-0.5,0.9
			c-0.2,0-0.3,0.1-0.5-0.2c-0.2-0.3,0.9-2.2,0.7-2.2c-0.2,0.1,0,0.3-0.2,0.4s-0.1-0.1-0.3-0.1s-0.1-0.3-0.3-0.6
			c-0.2-0.3,0.9-1.8,0.5-1.6c-0.4,0.1,0.2,0.9,0.2,0.9s-0.2-0.1-0.2,0.2c0,0.3-0.3,0-0.2,0.5c0.1,0.5,0.2,0.3,0.4,0.4
			c0.2,0.1-0.1,0.1,0.2,0.1c0.3-0.1-0.3,0.5,0,0.6s-0.9,2.4-0.9,2.3s0.3-0.1,0.3-0.1s0.7-0.5,1-0.4s-1.1,1.8-0.8,1.9
			c0.3,0.1,0.2-0.3,0.4-0.4c0.1-0.1,0.6,0.5,0.6,0.4s0.4,0.4,0.6,0.2c0.2-0.2,0.4-0.8,0.6-1C483.1,327.7,483.4,327,483.1,326.8
			L483.1,326.8z"/>
	</g>
	<g id="splash2">
		<path style="opacity:0.8;fill:#6ECCDE;enable-background:new    ;" d="M491.8,329.2c-0.2,0.4,0.2,1.1,0.4,1.2s0.3,0.5,0.6,0.6
			c0.2,0.1,0.6-0.3,0.7-0.3s0.3-0.6,0.4-0.7s0.2,0.4,0.4,0.2c0.2-0.2,0.3,0.2,0.6-0.1c0.2-0.3,0.7-0.7,0.7-0.7l0.1,0.1
			c0.1,0.1,0.6-0.5,0.9-0.7s0.4-0.1,0.6-0.2c0.3-0.1,0,0,0.2-0.2s0.1,0,0-0.6c0-0.5,0.2-0.6,0.2-0.8l-0.1-0.8c0,0-0.2-0.6-0.5-0.6
			s0.1,1.1,0,1.5s0.1,1.1-0.2,1.2s-0.4-0.5-0.6-0.6s-0.1-1-0.3-1c-0.2,0.1-0.2,1.4-0.3,1.8c-0.1,0.4-0.2,0.3-0.4,0.4
			c-0.2,0.1-0.2-1.2-0.4-1.4c-0.2-0.2-0.1,0.1-0.2,0.6s-0.2,1.2-0.5,1s-1.5-1.3-1.8-0.8s0.9,1,0.8,1.5
			C492.9,330.6,491.9,329,491.8,329.2L491.8,329.2z"/>
		<path style="opacity:0.9;fill:#E1F3F5;enable-background:new    ;" d="M498,326.5c0.4,0,0.2,0.9,0.1,1.2c-0.1,0.3,0,0.7-0.2,1.1
			c-0.1,0.4-0.7,0.4-0.7,0.5s-0.6-0.2-0.7,0s0.1,0.5-0.2,0.6c-0.3,0.1-0.3-0.2-0.6-0.1c-0.3,0.1-0.8,1-0.8,1v0.1
			c0,0.1-0.7,0.3-1.1,0.5c-0.3,0.2-0.4,0.3-0.6,0.5c-0.3,0.2,0,0-0.2,0s-0.5-0.2-0.7-0.6c-0.3-0.4-0.3,0-0.4-0.2s-0.4-0.1-0.4-0.1
			s-0.2-0.8,0.1-1.1c0.3-0.4,0.7,0.7,1,0.8c0.3,0.2,0.5,0,0.8-0.1s0.3-0.1,0.4-0.3c0.1-0.2,0-0.6,0.2-0.8c0.2-0.2,0.5,0.5,0.7,0.7
			s0.3,0,0.5-0.1s0.1-0.9,0.1-1.2c0-0.3,0-0.6,0.3-0.3c0.4,0.2,0.4,1,0.6,0.5s0.3-0.9,0.8-0.8s0,0,0.4,0.2
			C497.6,328.6,497.8,326.5,498,326.5L498,326.5z"/>
		<path style="opacity:0.8;fill:#6ECCDE;enable-background:new    ;" d="M483.8,327.4c-0.4,0.2-0.3,1.2-0.1,1.5
			c0.2,0.3,0.1,0.7,0.3,1.1c0.2,0.4,0.7,0.2,0.8,0.3c0.1,0.1,0.6-0.4,0.7-0.2c0.1,0.1,0,0.6,0.3,0.5c0.3,0,0.3,0.5,0.6,0.5
			c0.3-0.1,1,0,1,0s0,0,0,0.1s0.8,0.1,1.1,0.1c0.4,0.1,0.4,0.2,0.7,0.4c0.3,0.2,0,0,0.2,0s0.1,0,0.3-0.5c0.2-0.5,0.4-0.4,0.5-0.6
			l0.2-0.8c0,0,0.1-0.7-0.3-1c-0.3-0.3-0.4,1.1-0.6,1.4s-0.4,1-0.6,1c-0.3,0-0.2-0.9-0.3-1.1c-0.1-0.2,0.3-1,0.1-1.2
			c-0.2-0.1-0.8,1.1-1,1.5c-0.2,0.3-0.3,0.1-0.5,0.1c-0.2-0.1,0.2-1.3,0.1-1.7s-0.1,0-0.5,0.4c-0.3,0.4-0.7,1-0.9,0.5
			c-0.2-0.5-1-2.6-1.4-2.3c-0.5,0.3,0.5,1.8,0.1,2.1C484.3,329.7,484,327.3,483.8,327.4L483.8,327.4z"/>
		<path style="opacity:0.9;fill:#E1F3F5;enable-background:new    ;" d="M490.8,330.3c0.4,0.4-0.1,1-0.4,1.2s-0.3,0.6-0.6,0.9
			c-0.3,0.2-0.8-0.2-0.9-0.1s-0.5-0.7-0.7-0.6s-0.2,0.6-0.5,0.4s-0.2-0.5-0.5-0.7s-1.2,0.2-1.2,0.2v0.1c0,0.1-0.8-0.4-1.2-0.5
			c-0.4-0.2-0.5,0-0.8,0c-0.4,0,0,0-0.2-0.1s-0.4-0.6-0.5-1.2s-0.3-0.2-0.3-0.5s-0.4-0.5-0.4-0.5s0.1-0.9,0.5-1s0.4,1.2,0.6,1.6
			s0.5,0.4,0.8,0.5s0.3,0.1,0.5,0s0.2-0.6,0.5-0.6s0.3,0.9,0.4,1.4c0.1,0.4,0.3,0.3,0.5,0.4c0.3,0,0.4-0.8,0.6-1.1
			c0.2-0.3,0.2-0.6,0.5,0s0,1.3,0.4,1c0.3-0.3,0.6-0.6,1,0c0.4,0.5,0,0,0.3,0.6C489.7,332,490.6,330.1,490.8,330.3L490.8,330.3z"/>
		<path style="opacity:0.8;fill:#6ECCDE;enable-background:new    ;" d="M497.4,326.9c-0.3,0.2-0.3,0.6-0.2,0.8
			c0.1,0.2-0.3,0.9-0.2,1.2c0.2,0.3,0.6-0.5,0.6-0.4s0.2,0,0.3,0.1c0.1,0.1,0,0.4,0.3,0.4s0-0.6,0.3-0.6s0-0.7,0-0.7s0.2,0,0.2,0.1
			s-0.8-1.3-0.5-1.3s-0.2-0.6,0-0.5s0,0,0.2-0.1s0.2,0.1,0.3-0.3c0.1-0.4-0.2-0.2-0.1-0.4c0-0.2-0.1-0.2-0.1-0.2s0.5-0.5,0.3-0.7
			c-0.3-0.2,0.5,1.3,0.3,1.5s0,0.5-0.3,0.5s-0.2,0.2-0.3,0c-0.1-0.1,0.1-0.3-0.1-0.4s0.5,1,0.4,1.2s-0.3,0.5-0.5,0.5
			s-0.1-0.1-0.2-0.3c-0.1-0.3-0.2-0.5-0.3-0.3c-0.2,0.3,0.4,0.7,0.4,1.2c0,0.3,0.1-0.2-0.2,0c-0.4,0.3,0-0.2-0.2,0.2
			C497.4,328.4,497.6,326.8,497.4,326.9L497.4,326.9z"/>
		<path style="opacity:0.9;fill:#E1F3F5;enable-background:new    ;" d="M496.8,327.2c-0.3,0.2,0,0.8,0.2,0.9
			c0.2,0.2,0.3,0.7,0.5,0.9s0.5-0.2,0.5-0.2c0,0.1,0.4-0.4,0.5-0.4c0.1,0.1,0.1,0.4,0.3,0.3c0.2-0.1-0.9-1.5-0.7-1.6
			c0.2-0.1,0.8,0.3,0.8,0.3s0.2,0,0.2,0.1s-1-1.9-0.7-2s-0.2-0.6,0-0.5s0,0,0.2-0.1s0.2,0.1,0.3-0.4c0.1-0.4-0.2-0.2-0.2-0.4
			c0-0.2-0.1-0.2-0.1-0.2s0.5-0.6,0.2-0.8c-0.3-0.1,0.6,1.1,0.4,1.4s0,0.5-0.2,0.5s-0.1,0.2-0.3,0.1c-0.1-0.1,0-0.3-0.2-0.4
			c-0.2,0,0.7,1.6,0.5,1.9c-0.1,0.3-0.2,0.2-0.4,0.2c-0.2,0-0.3-0.6-0.4-0.8c-0.1-0.2-0.1-0.4-0.3-0.1s1,2.2,0.8,1.9
			c-0.2-0.3-0.4-0.5-0.7-0.2c-0.3,0.3,0,0-0.3,0.4S497,327,496.8,327.2L496.8,327.2z"/>
		<path style="opacity:0.8;fill:#6ECCDE;enable-background:new    ;" d="M482.1,326.7c0.3,0.2,0.3,0.7,0.2,0.8
			c-0.1,0.2,0.4,1,0.2,1.2c-0.2,0.3-0.6-0.5-0.6-0.4s-0.3-0.1-0.4,0.1s0,0.4-0.3,0.4c-0.2-0.1,0-0.6-0.3-0.7s0-0.7,0-0.7l-0.2,0.1
			c0,0.1,0.9-1.4,0.6-1.4s0.2-0.6,0-0.5s0,0-0.2-0.1s-0.2,0.1-0.3-0.3c-0.1-0.4,0.2-0.2,0.1-0.5s0.1-0.2,0.1-0.2s-0.6-0.6-0.3-0.7
			c0.3-0.2-0.5,1.3-0.3,1.6c0.2,0.3,0,0.5,0.3,0.5c0.2,0,0.2,0.2,0.3,0c0.1-0.1-0.1-0.4,0.1-0.4c0.2-0.1-0.5,1-0.4,1.3
			c0.2,0.3,0.4,0.5,0.6,0.5s0.1-0.1,0.2-0.4s0.2-0.5,0.3-0.4c0.3,0.3-0.4,0.8-0.4,1.2c0,0.4-0.1-0.2,0.2,0.1c0.4,0.3,0-0.2,0.3,0.2
			C482.1,328.4,481.9,326.6,482.1,326.7L482.1,326.7z"/>
		<path style="opacity:0.9;fill:#E1F3F5;enable-background:new    ;" d="M482.7,327c0.3,0.2,0,0.8-0.2,1s-0.3,0.7-0.5,0.9
			c-0.2,0.2-0.5-0.2-0.6-0.2c0,0.1-0.4-0.4-0.5-0.4s-0.1,0.4-0.3,0.3c-0.2-0.1,1-1.6,0.7-1.7s-0.9,0.3-0.9,0.3s-0.2,0-0.3,0.1
			c0,0.1,1.1-2,0.8-2.1c-0.3-0.1,0.3-0.6,0-0.5s0,0-0.2-0.1s-0.2,0.1-0.3-0.4c-0.1-0.4,0.2-0.2,0.2-0.4s0.2-0.2,0.2-0.2
			s-0.5-0.7-0.2-0.8c0.3-0.1-0.7,1.2-0.5,1.5s0,0.5,0.2,0.6s0.2,0.2,0.3,0.1c0.1-0.1,0-0.4,0.2-0.4c0.2-0.1-0.7,1.7-0.6,2
			s0.2,0.2,0.4,0.2c0.2,0,0.3-0.6,0.4-0.9c0.1-0.2,0.1-0.5,0.4-0.1c0.2,0.4-1,2.3-0.8,2s0.4-0.5,0.8-0.2c0.3,0.3,0,0,0.3,0.4
			C481.9,328.5,482.6,326.9,482.7,327L482.7,327z"/>
	</g>
	<g id="Splash1">
		<path style="opacity:0.8;fill:#6ECCDE;enable-background:new    ;" d="M489.7,329.9c-0.2-0.2-0.5,0.9-0.8,0.4
			c-0.2-0.6,0.4-1.3,0.1-1.8s-1.4,1.7-1.7,2c-0.3,0.3-0.4-0.5-0.6-1s-0.2-1.5-0.4-1.3c-0.2,0.3,0,2.3-0.3,2.2
			c-0.2-0.1-0.5-0.4-0.6-0.8s-0.8-1.8-1-1.8s0.7,1.6,0.5,1.7s-0.5,0.6-0.8,0.4s0-0.4-0.2-0.7c-0.1-0.4,0.2-1.3-0.2-1.2
			c-0.4,0.1-0.4-0.1-0.4-0.1v0.9c0,0.3,0.2,0.3,0.2,0.9s-0.1,0.5,0.1,0.6c0.2,0.2-0.1,0.1,0.2,0.2c0.3,0,0.4-0.1,0.7,0.1
			c0.3,0.2,0.9,0.6,1,0.6v-0.1c0,0,0.5,0.4,0.8,0.6s0.4-0.3,0.6-0.1c0.2,0.2,0.3-0.3,0.4-0.3s0.5,0.7,0.5,0.6s0.5,0.4,0.7,0.2
			c0.2-0.2,0.7-0.4,0.9-0.5c0.2-0.2,0.8-1.8,0.5-2.2L489.7,329.9z"/>
		<path style="opacity:0.9;fill:#E1F3F5;enable-background:new    ;" d="M483.6,328.4c0.2-0.1,0.2,2,0.6,1.7
			c0.7-1.1,0.3-0.4,0.8-0.6s0.5,0.9,0.7,1.4s-0.3-1.4,0.1-1.7c0.4-0.3,0.3,0.4,0.3,0.7c0.1,0.4,0.4,1.4,0.6,1.5s0,0.1,0.3-0.2
			c0.2-0.3,1.2-1.7,1.4-1.5s-0.6,0.9-0.5,1.1s-0.1,0.5,0.2,0.6s0.7-1.1,1-1.3s0.1,0.2,0.4,0.5s0.7-0.6,0.7-0.6s-0.4,1.1-0.5,1.3
			c-0.1,0.3,1.3-0.6,1.1-0.1c-0.2,0.5-1.1,0.7-1.4,0.7c-0.2,0,1.3,1.1,1,0.9s-1.1,0-1.5-0.1s-1-0.6-1-0.7l-1.8-0.1c0,0-0.6-1-0.9-1
			s0-0.3-0.3-0.3s-0.1,0.9-0.2,0.8c-0.1-0.2-0.4-0.9-0.4-1s-0.9,0.6-1.1,0.2s0.2-1.3,0.1-1.6c-0.2-0.3,0-1.8,0.4-1.9L483.6,328.4z"
			/>
		<path style="opacity:0.8;fill:#6ECCDE;enable-background:new    ;" d="M497.1,326.9c-0.2,0-0.5,2-0.9,1.8s0.9-2.2,0.5-2.3
			c-0.4-0.1-0.7,1.3-0.9,1.8c-0.1,0.5-0.3,0.1-0.6-0.1c-0.3-0.2-0.4-1.3-0.4-1s-0.4,2.9-0.6,3s0.1-0.5-0.1-0.7s-0.5-1.6-0.7-1.4
			s-0.4,1.2-0.5,1.4s0.8,0.9,0.5,1c-0.2,0.1-1,0.2-1.2,0s-0.3-2.3-0.5-1.9c-0.2,0.3,0,1.5,0,1.5l0.1,0.9c0.1,0.2,0.3,0,0.5,0.4
			s0.1,0.4,0.3,0.4c0.2,0,0,0.2,0.2,0s0.2-0.4,0.5-0.5s0.9-0.3,0.9-0.4s0-0.1,0-0.1s0.5-0.2,0.8-0.2c0.3-0.1,0.2-0.5,0.4-0.5
			c0.2-0.1,0.1-0.4,0.2-0.5c0.1-0.2,0.6,0.1,0.6,0s0.5-0.1,0.6-0.5s0.4-0.7,0.5-1s0.4-1.8,0-1.8L497.1,326.9z"/>
		<path style="opacity:0.9;fill:#E1F3F5;enable-background:new    ;" d="M491.2,331.6c0.1-0.2,1.3,0.4,1.6-0.2
			c0.2-0.6,0.5-1.2,0.8-1.8c0.3-0.6-0.2,1.2,0.1,1.4s0.6-2.5,0.8-3.1c0.2-0.5-0.1,1.9,0,2.1c0.2,0.2,0.5,0.4,0.7,0.3s0.3,0,0.4-0.4
			s-0.3-2.4,0-2.5c0.2-0.1,0.5,1.6,0.7,1.7c0.2,0,0.6,0.2,0.9,0c0.2-0.2,0-0.4,0.1-0.8s-1-1.3-0.6-1.4c0.4,0,1-0.6,1-0.6
			s-0.3,0.8-0.3,1.1c0,0.3,1,0.8,1,1.3s-0.6-0.7-0.8-0.5c-0.2,0.2,0.7,1.5,0.4,1.6c-0.3,0.1-0.5-0.5-0.8-0.3s0.2,1.1,0.1,1l-0.9,0.4
			c0,0-0.6-0.7-0.8-0.4c-0.2,0.3-0.8,0-1,0.3s0.4,1.2,0.2,1.2s-1.6,0-1.7,0c-0.1-0.1-0.3,0.8-0.5,0.7c-0.3-0.2-0.2-2.1-0.4-2.2
			c-0.2-0.1-0.1-0.7,0.2-1.1L491.2,331.6z"/>
		<path style="opacity:0.8;fill:#6ECCDE;enable-background:new    ;" d="M497.5,325.9c0.2-0.1,0,1.7,0.3,1.4
			c0.3-0.3-0.1,0.1,0.3-0.2c0.4-0.3,0.3,0.3,0.2-0.1c0-0.5-0.7-0.9-0.4-1.2c0.1-0.2,0.2,0.1,0.3,0.4c0.1,0.3,0,0.3,0.2,0.4
			c0.2,0,0.6-0.3,0.8-0.5c0.2-0.3-0.8-1.3-0.6-1.2c0.2,0.1,0,0.3,0.1,0.4s0.3-0.4,0.6-0.4c0.2,0,0.5,0,0.7-0.2
			c0.2-0.3-1.4-1.7-1.1-1.5s-0.3,0.7-0.3,0.7s-0.4,0-0.4,0.2s0.8,0,0.7,0.5c-0.1,0.4-0.2,0.3-0.3,0.3c-0.2,0.1,0.1,0.2-0.2,0.1
			c-0.3-0.1,0.1,0.6-0.2,0.6c-0.3,0,0.8,1.4,0.8,1.3s-0.2-0.1-0.2-0.1s0.5,1.6,0.2,1.6c-0.3,0.1-0.5,0.1-0.8,0.1
			c-0.2,0.1,0.1-0.7,0-0.8s-0.3,0-0.4-0.1c0-0.1-0.5,1.9-0.7,1.7c-0.2-0.3,0.4-2.3,0.2-2.5c-0.1-0.1,0.4,0.1,0.7-0.1L497.5,325.9z"
			/>
		<path style="opacity:0.9;fill:#E1F3F5;enable-background:new    ;" d="M497.3,327.2c0.2-0.1,0.1,1.3,0.4,0.9s-0.1-0.1,0.3-0.4
			c0.3-0.4,0.6,1,0.8,1.3c0.2,0.3-0.8-1.7-0.6-2.1c0.2-0.4-0.1-1.1,0-0.9c0.1,0.3,0,0.9,0.2,0.9s1.2-0.1,1.3-0.4
			c0.1-0.3-0.9-1.2-0.7-1.2c0.2,0.1-0.6-0.4-0.5-0.3s0.4-1,0.7-1.1c0.2-0.1,0.1,1.6,0.3,1.3s-0.1-3,0.2-2.9c0.3,0.1-0.8,1.3-0.8,1.3
			s-0.3,0-0.3,0.2s0.5-0.3,0.4,0.1c-0.1,0.5-0.2,0.1-0.4,0.2c-0.2,0.1,0,0.6-0.3,0.5s0.4,1,0.1,1.1s0.8,1.6,0.7,1.5
			c0-0.1-0.3-0.1-0.3-0.1s-0.7-0.1-1,0s-0.4-0.8-0.6-0.7c-0.2,0.1,0.6,1.8,0.5,1.7s0.7,0.9,0.7,0.8s-0.6,0.4-0.8,0.2
			c-0.2-0.2-0.4-1.1-0.5-1.2c-0.2-0.2-0.3-0.4,0-0.6L497.3,327.2z"/>
		<path style="opacity:0.8;fill:#6ECCDE;enable-background:new    ;" d="M482,326.9c-0.2-0.1,0.1,1.2-0.2,0.9
			c-0.3-0.3,0.1,0.1-0.2-0.2c-0.4-0.3-0.3,0.3-0.2,0c0-0.4,0.7-0.4,0.5-0.7c-0.1-0.1-0.3-0.4-0.4-0.2c-0.1,0.3,0,0.3-0.2,0.3
			s-0.4-0.2-0.5-0.5s0.6-0.9,0.4-0.8s0-0.1-0.1,0s0,0-0.3,0s-0.2-1.3-0.4-1.5c-0.2-0.2,0.9-1.1,0.6-1c-0.3,0.2,0.1,1.2,0.1,1.2
			s0,0.1,0.1,0.4c0,0.2-0.5-0.1-0.3,0.3c0.1,0.4,0.1,0.2,0.3,0.3c0.2,0.1-0.1,0.8,0.1,0.7c0.2-0.1,0.2-0.1,0.5-0.1s-1,0.8-0.9,0.8
			c-0.1-0.1,0.1,0.7,0.1,0.7s0-0.1,0.3,0c0.2,0.1-0.4,1-0.2,1s0.3,0.4,0.4,0.4s0.3-0.2,0.4-0.3c0-0.1,0.1,1.5,0.3,1.2
			c0.2-0.3,0.1-1.9,0.3-2.1c0.1-0.2,0.1-0.5-0.1-0.7L482,326.9z"/>
		<path style="opacity:0.9;fill:#E1F3F5;enable-background:new    ;" d="M481.7,328c-0.2-0.1,0.4-0.5,0.1-0.9s0.1,0.7-0.3,0.4
			c-0.3-0.3,0.6-1.6,0.4-1.3c-0.2,0.3-0.4,0.7-0.6,0.4s0.1-0.9-0.1-0.7c-0.1,0.2-0.2,0.8-0.4,0.8c-0.2,0-0.1-0.1-0.2-0.4
			s0.1-0.6-0.1-0.6c-0.2,0.1,0.5-0.8,0.3-0.7c-0.1,0.1,0-0.2-0.2-0.3c-0.2-0.1,0.2-0.1,0-0.4s0.4-1.4,0.1-1.3s0.2,0.8,0.2,0.8
			s-0.2-0.1-0.1,0.2c0,0.2,0-0.1,0.1,0.3s-0.1,0.3,0.1,0.4s-0.1,0.1,0.2,0.1c0.2-0.1-0.7,1.1-0.4,1.1c0.3,0.1,0.2,0.1,0.3,0
			s-0.3,1.3-0.3,1.3s0.6-0.4,0.8-0.3c0.2,0.1-0.6,0.4-0.4,0.5s0.1,0.4,0.2,0.4c0.1-0.1,0.3,0.1,0.4,0c0-0.1,0.2,0,0.4-0.2
			s-0.6,1-0.4,0.8s0.1,0.8-0.1,0.5V328z"/>
	</g>
	<g id="watershine">
		<path id="shine4" style="fill:#E1F3F5;" d="M493.7,322.4c0,0-0.4-0.8-0.2-1c0.2-0.2,0.2,0.2,0.4,0.3c0.2,0.1-0.1-0.6,0-0.8
			c0.1-0.1,0.4,0.8,0.6,0.7c0.2-0.1-0.1-0.5,0.1-0.6s0.4,0.4,0.6,0.3c0.1-0.1-0.2-0.7,0.1-0.8s0.8,0.7,0.8,0.7s0.1,1.2-0.1,1.3
			s0-0.7-0.2-0.7s0,1.2-0.1,1.2s-0.1-0.8-0.3-0.8c-0.2,0,0,1-0.2,1c-0.1,0-0.2-0.8-0.4-0.8c-0.2,0,0,1-0.3,1s-0.2-1-0.3-0.9
			c-0.1,0.1-0.1,0.4-0.3,0.5C493.7,323.2,493.7,322.4,493.7,322.4z"/>
		<path id="shine3" style="opacity:0.9;fill:#E1F3F5;enable-background:new    ;" d="M485.7,321.2l-0.8,0.8c0,0-0.2,1.4,0,1.3
			s0.4-0.7,0.4-0.7s0.1,0.3,0.2,0.5c0,0.2,0.6,0.4,0.7,0.2c0.1-0.2,0.4-0.5,0.6-0.4s0,0.5,0.2,0.5s0.5-0.5,0.6-0.4s0.2,0.6,0.4,0.6
			s0.3-0.7,0.3-0.7l0.6-0.9c0,0-0.5,0.5-0.9,0.4c-0.3,0,0.4-0.7,0.1-0.7s-0.6,0.5-0.9,0.4c-0.4-0.1,0.3-0.7-0.1-0.8
			c-0.4,0-0.7,0.8-0.9,0.7S486.3,321.5,485.7,321.2z"/>
		<path id="shine2" style="fill:#E1F3F5;" d="M481.4,319.7c0,0-0.1-0.8-0.2-0.6c-0.1,0.2-0.2,0.8-0.2,0.8l0.1-2.7l0.1-0.5
			c0,0,1.4-0.2,0.9,0s-0.7,0.1-0.7,0.3c0.1,0.1,0.8-0.1,0.8,0c0,0.2-0.8,0.4-0.6,0.5c0.3,0.1,0.5-0.2,0.7,0s-0.8,0.3-0.6,0.5
			s0.9-0.1,0.9,0.2c0,0.3-0.6,0.1-0.6,0.4s-0.5,0.4-0.5,0.4L481.4,319.7z"/>
		<path id="shine1" style="fill:#E1F3F5;" d="M497.9,319.8c0,0,0,0.8,0.1,0.9s0.1-0.7,0.2-0.7s0.1,0.6,0.2,0.6s0-0.9,0.1-0.9
			s0.3,0.9,0.3,0.9v-3c0,0-1.1-0.2-1.2,0.1c-0.1,0.2,0.9,0.2,0.8,0.4c-0.1,0.3-0.8-0.2-0.8,0s0.7,0.3,0.7,0.5s-0.7-0.2-0.7,0
			s0.8,0.3,0.6,0.5c-0.2,0.2-0.6-0.1-0.7,0.2C497.3,319.4,497.9,319.8,497.9,319.8z"/>
	</g>
	<path style="opacity:0.1;enable-background:new    ;" d="M486.2,316l3.5,0.7l2.1,2.4l-4.4,3.6c-1.1-0.3-3.1-0.9-3.7-1.3
		c-1.2-0.7-2-1.6-2.3-2.5L486.2,316L486.2,316z"/>
	<g>
		<path style="fill:#A83F5A;" d="M494.3,276.1l-3.8,2c-2.7,1.8-3.6,5.5-3.7,8.9c0,0-0.1,0.8,0,1.4c0.1,0.8,0.7,1.4,0.7,1.4
			c0.8,1.9,3.2,2.6,5.4,1.5c3-1.5,5.8-5.9,5.9-9.6C498.9,278.6,496.7,275.7,494.3,276.1L494.3,276.1z M487.9,286.6
			c0.1-2.9,2-6.3,4.4-7.9C492.5,280.5,490.3,285,487.9,286.6z"/>
		<path style="fill:#DC6170;" d="M493.1,270c6.7-3.2,12,0.7,11.8,8.8c-0.1,2.4-0.6,5-1.6,7.5c-2,5.1-9.8,27-11.4,31.3
			c-1.3-2.9-8.2-17.6-10-20.9c-0.9-1.7-1.4-3.8-1.3-6.3C480.8,282.3,486.4,273.2,493.1,270z M492.6,290.8c3-1.5,5.6-5.6,5.7-9.3
			c0.1-3.7-2.3-5.5-5.3-4s-5.6,5.6-5.7,9.3C487.2,290.5,489.6,292.3,492.6,290.8"/>
		<path style="fill:#F0717A;" d="M501.1,269L501.1,269c0,0-3.6-2.2-5.6-3c-5.4-1.6-16.6,0.7-20.7,18.3c-0.2,0.7-0.2,1.2-0.3,1.8l0,0
			c0,0.5-0.1,1-0.1,1.5c-0.1,2.5,0.4,4.8,1.4,6.5c2,3.6,10.1,21.2,10.2,21.4l0.2,0.5l5.6,3l0.3-0.7c0.1-0.3,9.5-26.3,11.6-32
			c1-2.6,1.6-5.4,1.6-7.9C505.5,273.8,503.8,270.4,501.1,269L501.1,269z M503.2,286.3c-2,5.1-9.8,27-11.4,31.3
			c-1.3-2.9-8.2-17.6-10-20.9c-0.9-1.7-1.4-3.8-1.3-6.3c0.2-8,5.8-17.2,12.5-20.4c6.7-3.2,12,0.7,11.8,8.8
			C504.8,281.1,504.2,283.7,503.2,286.3L503.2,286.3z"/>
	</g>
</g>
<g>
	<path id="flame1" style="fill:#E9872B;fill-opacity:0.66;" d="M851.9,296.7c0,1.8-0.7,2.3-2.6,2.3s-2.5-0.5-2.5-2.3
		c0-0.9,0.9-1.6,1.3-2.6c0.7-2.1,2.2-1.2,2.6-3.9c0.5,2.1-0.1,3,0.7,5.1C851.8,296.2,851.9,295.7,851.9,296.7z"/>
	<path id="flame2" style="fill:#CE6F21;fill-opacity:0.66;" d="M851.9,296.7c0,1.8-0.7,2.3-2.6,2.3s-2.5-0.5-2.5-2.3
		c0-0.9,0.9-1.6,1.3-2.6c0.7-2.1,0.3-1.6,0.7-4.3c0.2,1.1,0.7,1.9,1.2,2.7c0.1,0.2,1-1.5,1-1.5s-0.6,1.7-0.2,3.1
		c0.3,0.5,0.3,0.6,0.5,1.2C851.8,296.2,851.9,295.7,851.9,296.7z"/>
	<path id="flame3" style="fill:#CE6F21;fill-opacity:0.66;" d="M847.1,295.9c0.2-0.6-0.4,0-0.1-0.5c-0.1-1.8-0.2-4.6-0.2-4.6
		s0.5,2.4,2.2,3.2c0.5-0.8,0.8-3,1.1-4.1c0.4,2.8,0.6,2.8,1.4,4.9c0.3,1,0.4,1,0.4,1.9c0,1.8-0.6,2.3-2.5,2.3s-2.6-0.5-2.6-2.3
		C846.8,295.7,846.7,296.9,847.1,295.9z"/>
	
		<linearGradient id="flamebase_1_" gradientUnits="userSpaceOnUse" x1="845.9385" y1="597.15" x2="852.5451" y2="597.15" gradientTransform="matrix(1 0 0 1 0 -302)">
		<stop  offset="0" style="stop-color:#FAE158"/>
		<stop  offset="1" style="stop-color:#FFD24C"/>
		<stop  offset="1" style="stop-color:#000000"/>
	</linearGradient>
	<path id="flamebase" style="fill:url(#flamebase_1_);" d="M852.5,296.6c0,1.8-1.5,3.3-3.3,3.3s-3.3-1.5-3.3-3.3c0-0.9,1.1-2,1.4-3
		c0.7-2.1,0.7-2.2,0.6-3.2c1.4,2,2.1,1.8,2.9,3.9C851.2,295.4,852.5,295.7,852.5,296.6z"/>
	<path style="fill:#E9872B;fill-opacity:0.66;" d="M847.2,298.7c1.1,1.1,3,1.2,4.1,0c0.3-0.3,0.5-0.6,0.6-1c0.4-1.2-0.2-1.6-1.1-0.2
		c-0.1,0.2-0.3,0.4-0.5,0.6c-1.4,1.5-3.8-0.5-3.8-0.5C846.7,298,846.9,298.4,847.2,298.7z"/>
</g>
</svg>
