<?xml version="1.0" encoding="utf-8"?>
<!-- Generator: Adobe Illustrator 24.0.3, SVG Export Plug-In . SVG Version: 6.00 Build 0)  -->
<svg version="1.1" id="Layer_1" xmlns="http://www.w3.org/2000/svg" xmlns:xlink="http://www.w3.org/1999/xlink" x="0px" y="0px"
	 viewBox="0 0 33.7 33.3" style="enable-background:new 0 0 33.7 33.3;" xml:space="preserve">
<style type="text/css">
	.st0{fill:#324C78;}
</style>
<g>
	<path class="st0" d="M0.6,17.5c0-0.6,0-1.2,0-1.8c0-0.1,0-0.2,0-0.3c0.1-0.6,0.1-1.2,0.2-1.8c1.6-9.1,10.6-15,19.6-12.9
		c10.4,2.4,15.8,14.1,10.7,23.5c-2.5,4.7-6.5,7.5-11.7,8.4c-0.6,0.1-1.2,0.1-1.7,0.2c-0.6,0-1.2,0-1.8,0c-0.4,0-0.7-0.1-1.1-0.1
		c-3.2-0.4-6.1-1.6-8.5-3.7c-3.1-2.7-5-6.1-5.6-10.2C0.7,18.4,0.6,18,0.6,17.5z M26.9,16.7c0-1,0-1.9,0-2.9c0-0.4-0.2-0.7-0.5-1
		c-3-2-5.9-4-8.9-5.9c-0.5-0.3-0.8-0.3-1.2,0c-3,2-5.9,4-8.9,5.9c-0.4,0.2-0.5,0.5-0.5,1c0,1.9,0,3.9,0,5.8c0,0.4,0.2,0.7,0.5,1
		c3,2,5.9,3.9,8.9,5.9c0.5,0.3,0.8,0.3,1.2,0c3-2,5.9-4,8.9-5.9c0.4-0.2,0.5-0.6,0.5-1C26.9,18.6,26.9,17.6,26.9,16.7z"/>
	<path class="st0" d="M12.2,15.6c-1-0.7-2-1.3-3-2c2.3-1.5,4.5-3,6.7-4.5c0,0.1,0,0.2,0,0.3c0,1.1,0,2.3,0,3.4
		c0,0.2-0.1,0.3-0.2,0.4C14.6,14,13.4,14.8,12.2,15.6z"/>
	<path class="st0" d="M21.5,15.6c-1.2-0.8-2.4-1.6-3.6-2.4c-0.1,0-0.1-0.1-0.1-0.2c0-1.2,0-2.5,0-3.7c0,0,0,0,0-0.1
		c2.2,1.5,4.5,3,6.7,4.5C23.5,14.3,22.5,14.9,21.5,15.6z"/>
	<path class="st0" d="M15.9,24.2c-2.2-1.5-4.5-3-6.7-4.5c0.6-0.4,1.2-0.8,1.8-1.2c0.3-0.2,0.7-0.5,1-0.7c0.1,0,0.2,0,0.3,0
		c1.2,0.8,2.3,1.5,3.4,2.3c0.1,0,0.1,0.2,0.1,0.2c0,1.2,0,2.5,0,3.7C16,24.1,16,24.1,15.9,24.2z"/>
	<path class="st0" d="M24.5,19.7c-2.3,1.5-4.5,3-6.7,4.5c0-0.1,0-0.2,0-0.3c0-1.1,0-2.3,0-3.4c0-0.2,0-0.3,0.2-0.4
		c1.1-0.7,2.2-1.5,3.4-2.2c0.1-0.1,0.2-0.1,0.3,0C22.5,18.4,23.5,19,24.5,19.7z"/>
	<path class="st0" d="M13.8,16.7c0.7-0.5,1.3-0.9,2-1.3c0.3-0.2,0.6-0.4,0.9-0.6c0.1,0,0.2-0.1,0.3,0c1,0.6,2,1.3,2.9,2
		c-0.7,0.5-1.3,0.9-2,1.3c-0.3,0.2-0.6,0.4-0.9,0.6c-0.1,0-0.2,0.1-0.3,0C15.8,18,14.8,17.3,13.8,16.7z"/>
	<path class="st0" d="M10.7,16.7c-0.7,0.5-1.4,0.9-2.1,1.4c0-1,0-1.9,0-2.9C9.3,15.7,10,16.2,10.7,16.7z"/>
	<path class="st0" d="M25.1,18.1c-0.7-0.5-1.4-0.9-2.1-1.4c0.7-0.5,1.4-0.9,2.1-1.4C25.1,16.2,25.1,17.1,25.1,18.1z"/>
</g>
</svg>
