<?xml version="1.0" encoding="utf-8"?>
<!-- Generator: Adobe Illustrator 24.0.3, SVG Export Plug-In . SVG Version: 6.00 Build 0)  -->
<svg version="1.1" id="Layer_1" xmlns="http://www.w3.org/2000/svg" xmlns:xlink="http://www.w3.org/1999/xlink" x="0px" y="0px"
	 viewBox="0 0 101.8 145" style="enable-background:new 0 0 101.8 145;" xml:space="preserve">
<g>
	<g id="wrench">
		<path style="fill:#293B67;" d="M45.6,105.9l0.9-1c1-1,4.1-4,12.5-10.6c4.2-3.3,6.3-4.9,7.4-6l-0.9,1c-1.1,1.1-3.2,2.7-7.4,6
			C49.7,101.9,46.6,104.9,45.6,105.9z"/>
		<path style="fill:#293B67;" d="M73.1,82.9l0.9-1c0,0.1-0.5,2.2,0.5,4.3c1,2.1,3.1,3.4,3.2,3.5l-0.9,1c-0.1-0.1-2.2-1.4-3.2-3.5
			C72.6,85.1,73.1,83,73.1,82.9z"/>
		<path style="fill:#293B67;" d="M81.6,91.5l-0.9,1c1.5-1.6,2.4-3,2.3-3.5c0-0.3-0.2-0.4-0.5-0.4c-0.2,0-0.4,0.1-0.7,0.2
			c-1.9,0.8-4.8,1.7-4.9,1.8l0.9-1c0.2-0.1,3-1,4.9-1.8c0.3-0.1,0.5-0.2,0.7-0.2c0.3,0,0.5,0.1,0.5,0.4C84,88.5,83.1,90,81.6,91.5z"
			/>
		<path style="fill:#293B67;" d="M80,78.7c0,0.1-0.1,0.3-0.3,0.5l-0.9,1c0.2-0.2,0.3-0.4,0.3-0.5c-0.1-0.6-2.7-1.3-5.4-1
			c-1.6,0.2-3.3,0.6-4.4,1.6c-0.1,0.1-0.2,0.2-0.3,0.3l0.9-1c0.1-0.1,0.2-0.2,0.3-0.3c1.2-1,2.8-1.5,4.4-1.6
			C77.3,77.4,79.9,78.1,80,78.7z"/>
		<path style="fill:#D5E5F2;" d="M73.6,78.6c2.7-0.3,5.3,0.4,5.4,1c0,0.3-0.4,0.8-1.3,1.2c-1.8,0.9-4.5,2-4.6,2.1
			c0,0.1-0.5,2.2,0.5,4.3c1,2.1,3.1,3.4,3.2,3.5c0.2-0.1,3-1,4.9-1.8c0.3-0.1,0.5-0.2,0.7-0.2c0.3,0,0.5,0.1,0.5,0.4
			c0.1,0.6-1.4,2.9-3.8,4.8c-0.7,0.6-1.6,0.9-2.5,1c-1,0.1-2,0-2.9-0.1c-1-0.1-1.9-0.2-2.6-0.2c-0.1,0-0.2,0-0.3,0
			c-2.6,0.5-3.6,1.2-9.9,5.6c-10.7,7.6-12.8,9.1-12.9,9.2c-0.1,0-1,0.9-2.2,1c-0.6,0.1-1.1-0.1-1.6-0.7c-1.4-1.8,0.8-3.3,0.9-3.4
			c0.1-0.1,2.3-2.7,12.9-11c6.5-5.1,8.2-6.3,8.2-7.5c0.1-1.8,0.5-5.4,2.8-7.5C70.3,79.3,72,78.8,73.6,78.6z"/>
		<path style="fill:#89A9C7;" d="M46.2,106.7c1-1.2,5.2-4.5,7.8-6.6c2.6-2,9-7.1,11.3-8.6c2.5-1.6,4.4,0.4,1.6,2.4
			c-2.8,2.1-17.6,13.3-19.2,14.4C46,109.4,44.8,108.4,46.2,106.7z"/>
	</g>
	<ellipse style="fill:#F3DDC3;" cx="21.9" cy="95.9" rx="2" ry="1.9"/>
	<ellipse style="fill:#F3DDC3;" cx="58.7" cy="93.6" rx="2" ry="1.9"/>
	<path style="fill:#846D5E;" d="M35.5,127.3c-1.6,0.3-2.4-0.3-3.4-1.5c-1-1.2-1.8-3.7-1.7-4.5c0.1-0.9,0.9-1.3,1.2-1.2
		c0.6,0.3,3.6,1.4,3.9,2.7C35.8,123.8,37,127.1,35.5,127.3z"/>
	<path style="opacity:0.2;" d="M33.6,127.1c-0.5-0.3-0.9-0.7-1.4-1.3c-1-1.2-1.8-3.7-1.7-4.5c0.1-0.9,0.9-1.3,1.2-1.2
		c0.2,0.1,1.4,1.1,2.1,2.3C31.8,123.3,33.9,127.2,33.6,127.1z"/>
	<path style="fill:#846D5E;" d="M21.3,123.7c-1.8,0-2.5-0.7-3.4-2.1c-0.9-1.4-1.4-4.2-1.2-5.1c0.2-0.9,1.1-1.3,1.4-1.1
		c0.6,0.5,3.7,2,3.8,3.4C22,120.1,22.9,123.7,21.3,123.7z"/>
	<path style="opacity:0.2;" d="M19.7,123.5c-0.8-0.3-1.3-0.9-1.8-1.9c-0.9-1.4-1.4-4.2-1.2-5.1c0.2-0.9,1.1-1.3,1.4-1.1
		c0.2,0.2,0.9,1.3,1.6,2.7C18.2,119.4,19.2,121.9,19.7,123.5z"/>
	<path style="fill:#FAE658;" d="M30.9,99c0,0-2.3,9-3.4,10.2c-1.1,1.2-8.6,5.4-9.5,5.8c-0.9,0.4,2,4.5,3.3,4.1
		c1.2-0.4,10-4.7,12.1-6.2s3.8-5.1,3.8-5.1l-0.2,5.9c0,0-5.4,5.3-6.2,6.2s3.4,4.5,4.9,2.8c1.1-1.2,8.3-8.1,8.3-8.1L46.5,99L30.9,99z
		"/>
	<path style="opacity:0.1;" d="M30.9,99c0,0-2.3,9-3.4,10.2c-1.1,1.2-8.6,5.4-9.5,5.8c-0.5,0.2,0,1.3,0.8,2.4c0-2,9.8-5.6,11-7.8
		c1.3-2.3,0.6-9.7,3.1-9.1C34.3,100.8,30.9,99,30.9,99z"/>
	<path style="opacity:0.1;" d="M39,104.6c-0.7,1.4-1.8,3.2-1.8,3.2l-0.2,5.9c0,0-5.4,5.3-6.2,6.2c-0.4,0.5,0.5,1.6,1.6,2.4
		c-1.6-2.4,5.5-7.8,5.8-8.2c0.3-0.5,0.3-2.4,0.1-3.5c-0.1-1,0.2-2.4,0.2-3.2C38.6,106.6,38.8,105.9,39,104.6z"/>
	<path style="fill:#293B67;" d="M46.9,75.8c0.9,0.4,6.8,10.3,6.8,10.3s4.3,4.2,5.3,5c1,0.8-1.2,4.2-2.8,3.4c-1.5-0.8-5.1-4-5.1-4
		s-6.9-7.8-7.1-9C43.5,80.4,45.9,75.3,46.9,75.8z"/>
	<path style="opacity:0.2;" d="M57.9,94c-0.6,0.5-1.2,0.8-1.8,0.5c-1.5-0.8-5.1-4-5.1-4s-2.1-2.4-4.1-4.8c-0.2-2.1,3.8,3.7,4.5,4.4
		C53.8,92.5,56.9,94.6,57.9,94z"/>
	<path style="fill:#293B67;" d="M31.4,75.3c-4.7,3-7,6.8-8.2,8.9c-1.1,1.9-2.7,8.5-2.8,9.8c0,1.1,3.2,1.8,3.8,0.6
		c0.8-1.6,3.5-8.4,3.5-8.4s6.5-4.4,6.8-5.6C34.9,79.4,32.8,77.6,31.4,75.3z"/>
	<path style="opacity:0.2;" d="M23.2,84.3c-1.1,1.9-2.7,8.5-2.8,9.8c0,0.8,1.7,1.4,2.8,1.2C20.4,94,24.4,82.2,23.2,84.3z"/>
	<path style="fill:#293B67;" d="M32.1,75c6-1.5,8-2.2,14.7,0.7c0.7,0.3,0.2,5.5,0.1,10c-0.2,5.7,0.3,12-0.4,13.2
		c-1.2,2.2-15.1,2.7-15.7,0c-0.4-2,0.4-9.2,0.5-15.3C31.4,81,28.8,75.9,32.1,75z"/>
	<path style="fill:#FFFFFF;" d="M36,74.1c-0.5,0.5,0,2.1,0.9,2.6c1.3,0.7,3.9,0.7,4.9,0.1c0.9-0.4,1.3-2.2,0.8-2.6
		C42.2,73.8,36.5,73.6,36,74.1z"/>
	<path style="opacity:0.2;" d="M36.9,100.9c-3.1-0.1-5.9-0.6-6.1-1.8c-0.4-2,0.4-9.2,0.5-15.3C33.1,83.5,28.9,99,36.9,100.9z"/>
</g>
<g>
	<path style="fill:#E2CFBB;" d="M35.2,71.3c0,0,0.6,2.5,1,3.4s0.7,2,2.9,2c2.2,0,2.8-0.2,3.1-1.4c0.4-1.1,1.3-3.9,1.3-3.9
		s-2.4,0.7-4.2,1.1C37.5,72.8,35.2,71.3,35.2,71.3"/>
	<path style="opacity:0.1;" d="M36.2,74.8c0.3,1,0.7,2,2.9,2c2.2,0,2.8-0.2,3.1-1.4C41.6,76.4,37.7,77.5,36.2,74.8z"/>
	<path style="fill:#D3C2B2;" d="M35.2,71.3l0.5,1.9c0,0,1.7,0.1,3.6-0.2c1.9-0.3,4.2-1.3,4.2-1.3l0-0.2c-0.2,0.1-0.3,0.1-0.5,0.1
		c-0.5,0.1-1,0.2-1.5,0.3c-0.1,0-0.1,0-0.2,0.1C41.3,72,41.2,72,41,72C39,72.4,37,72.1,35.2,71.3"/>
	<path style="fill:#FFE8CC;" d="M37.5,36.9c-1.7,0.3-4,0.9-5.4,2.3c-2.6,2.1-5,9.6-6.1,12c0.5,14.5,9.1,21.1,18.2,19.5
		c1.4-0.2,3.3-1.2,4.8-1.8l0,0c4.4-2.7,7.3-10.9,7.6-20.5l-0.9-7.2c-0.6,0.1-0.8-3.5-2.5-5c-2-1.8-13.9,0.3-13.9,0.3
		S38.6,36.6,37.5,36.9"/>
	<path style="fill:#F3DDC3;" d="M25,50.1c-1,0.2-1.3,2.4-1.3,3.2c0.7,5.2,2.7,9.2,4.8,12.5c1.2,1.9,3.6,4.3,6.7,5.5
		c1.7,0.7,3.5,0.9,5.7,0.7c2.2-0.2,3.6-0.2,8.3-3.3c-1.7,0.9-3.1,1.2-4.4,1.4c-9.2,1.6-16.1-4.4-16.6-19c-0.2,0.4-0.4,0.2-0.6,0.2
		c-0.2,0.1-0.4-0.1-0.7-0.3C26.1,50.2,25.5,50,25,50.1"/>
	<path style="fill:#F2CF6F;" d="M24.1,40.4c0,0.1-0.1,0.1,0,0.2C24.1,40.5,24.1,40.4,24.1,40.4 M31.1,28.4l0,0.1L31.1,28.4 M37,26.6
		L37,26.6L37,26.6 M37,26.5L37,26.5L37,26.5 M37,26.5L37,26.5L37,26.5 M37.4,26.2c0.2,0-9.8,11.3-11.7,13.7
		c-1.7,2.2-2.2,5.4-2.4,5.5l0,0c-0.1,2.2-0.1,4.9,0.4,8.2c0,0,0-0.1,0-0.3c0.1-0.7,0.4-2.4,1.3-2.7c0.4-0.1,1.1,0.2,1.8,1
		c0.3,0.3,0.5,0.4,0.7,0.3c0.3-0.1,0.5-0.3,0.6-0.7c1-2.4,1.3-9.9,3.9-12c1.3-1.4,7.3-2.6,7.3-2.6s11.3-1.1,13.3,0.8
		c1.7,1.5,3.3,11.2,3.8,11.1l0.1-0.1c0-0.2,0.1-0.7,0.1-1.6c0-4.3-0.7-9.5-1.9-12C54.5,33.8,38.3,26.2,37.4,26.2 M37.3,26.2
		c-0.2,0.1-0.3,0.1-0.3,0.3C37.1,26.4,37.1,26.3,37.3,26.2L37.3,26.2L37.3,26.2"/>
	<path style="fill:#D8B45C;" d="M26.3,35.8c-0.5,0.3-1.1-0.4-1.1-0.4c-0.7,1.1-1.4,3.3-1.7,4.8c-0.2,1.5-0.3,3.2-0.3,4.8
		c0,0.3,0,3,0,3c0.2-0.1,1.3-6,3-8.1"/>
	<path style="fill:#D3BFAE;" d="M43,55.7c-1,0.2-1.9,0.8-1.9,1.4c0,0.6,2.2,0.6,3.6,0.4c0.7-0.1,1.2-0.3,1.1-0.6
		c0-0.8-1-1.4-2.3-1.3C43.4,55.7,43.2,55.7,43,55.7"/>
	<path style="fill:#824446;" d="M39.6,62.7c-0.7,0.1-1.3,0.6-1.3,1.4c-0.2,2,2.1,3.9,4.4,3.9c0.2,0,0.4,0,0.6-0.1
		c2.1-0.3,4.2-2.2,4.4-4.1c0.1-0.9-0.6-1.3-1.4-1.3l-6.3,0.2C39.8,62.7,39.7,62.7,39.6,62.7"/>
	<path style="fill:#F37879;" d="M40.9,67.6c0.6,0.3,1.2,0.4,1.8,0.4c0.2,0,0.4,0,0.6-0.1c0.5-0.1,1-0.2,1.4-0.5
		c0-0.6-0.3-1.6-1.4-1.8c-0.5-0.1-1.3,0-1.9,0.5C40.9,66.7,40.9,67.6,40.9,67.6z"/>
	<path style="fill:#293B67;" d="M35.5,50.8c0.5-0.5,1.3-0.8,2.1-0.8c0.7,0,1.4,0.2,1.9,0.6c0.3,0.2,0.7,0.1,0.9-0.2
		c0.2-0.3,0.1-0.7-0.2-0.9c-0.8-0.5-1.7-0.8-2.6-0.8c-1.1,0-2.2,0.4-3,1.1c-0.2,0.2-0.3,0.6,0,0.9C34.9,51.1,35.3,51.1,35.5,50.8
		L35.5,50.8z"/>
	<path style="fill:#293B67;" d="M47,50.3c0.5-0.5,1.3-0.8,2.1-0.8c0.7,0,1.4,0.2,1.9,0.6c0.3,0.2,0.7,0.1,0.9-0.2
		c0.2-0.3,0.1-0.7-0.2-0.9c-0.8-0.5-1.7-0.8-2.6-0.8c-1.1,0-2.2,0.4-3,1.1c-0.2,0.2-0.3,0.6,0,0.9C46.3,50.5,46.7,50.5,47,50.3
		L47,50.3z"/>
</g>
<g id="Hat">
	<path style="opacity:0.1;" d="M24.1,37.5c0.6-1.2,29.6-4.4,30-3.2c0.8,1.9-2.5,7.4-19.6,8.1C24.7,42.8,23.5,39.4,24.1,37.5z"/>
	<g>
		<defs>
			<path id="SVGID_1_" d="M24.1,37.1c0.6-1.2-0.2-4.6,6.5-9.7c7.9-6,17.6-1.8,20.2,0.3c3.4,2.9,3.7,4.7,4.1,5.8
				c0.8,1.9-2.3,7.9-19.8,8.7C25.3,42.5,23.5,39,24.1,37.1z"/>
		</defs>
		<clipPath id="SVGID_2_">
			<use xlink:href="#SVGID_1_"  style="overflow:visible;"/>
		</clipPath>
		<path style="clip-path:url(#SVGID_2_);fill:#FFFFFF;" d="M23.5,58.3C19.5,49.7,21,39.7,25.4,32c0.9-1.6,3.3-5.8,3.7-6.1
			c0.4-0.4,0.9-0.8,1.4-1.2c9.2-6.9,20.9-3.1,26.1,8.5s2.2,26.7-7,33.6C40.5,73.8,28.8,69.9,23.5,58.3z"/>
		<path style="clip-path:url(#SVGID_2_);fill:#F0717A;" d="M37.6,26.3c-0.2-0.6-1.1-3.1-1.8-3.2c0,0,1.7-0.3,1.8-0.3
			c1.6-0.3,2.6-0.3,4.3-0.1c-0.6,0.2-2.2,1.8-2.3,2.8C38.5,27,37.6,26.3,37.6,26.3z"/>
		<path style="clip-path:url(#SVGID_2_);fill:#F0717A;" d="M39.7,25.8c2.8-0.8,15.2,0.4,15.4,9.8c-1.7,8.9-5.2,11.2-6.4,11.8
			c0.5-3.8,0.3-18.8-9.7-20.7C39.1,25.3,38.9,26.4,39.7,25.8z"/>
		<path style="clip-path:url(#SVGID_2_);fill:#F0717A;" d="M37.7,26c0,0.4,0.8,0.2,0.3,0.6c-4.2,2.5-5.8,7.4-6.5,17
			C29,55,20.4,45.4,22,38.9c0.4-1.7,0.7-1.8,1.4-3.4C26,28,34.1,26,37.7,26z"/>
		<path style="opacity:0.1;clip-path:url(#SVGID_2_);" d="M24.1,37.1c0.3-0.7,0.2-2.2,1.4-4.3c0.8-1.4,2.8-3.8,4.8-4.9
			C24.7,36.3,29.3,38,32,42.2C28.9,42.1,23.2,40.7,24.1,37.1z"/>
	</g>
	
		<ellipse transform="matrix(0.9868 -0.1621 0.1621 0.9868 -3.7319 6.5885)" style="fill:#293B67;" cx="38.5" cy="26.2" rx="1.6" ry="0.7"/>
	<path style="fill:#293B67;" d="M38.6,26.7L38.6,26.7c-0.2,0.1-0.4-0.2-0.5-0.5l-0.2-2.4c-0.1-0.3,0.2-0.6,0.4-0.7l0,0
		c0.2-0.1,0.4,0.2,0.5,0.5L39,26C39.1,26.3,38.9,26.6,38.6,26.7z"/>
	<path style="fill:#293B67;" d="M38.4,24.1c0,0,9.2-2.9,11.3-3.6c2.9-1,6.3-1.4,7.4-0.3s-0.4,2.8-2.9,3.2s-15.7,1.3-15.7,1.3
		s-13.1,4.3-15,4.9c-3.7,1.3-4.8,0.2-5.3-0.8s0.5-2.9,4-3.2C26.2,25.4,38.4,24.1,38.4,24.1z"/>
</g>
</svg>
