<svg xmlns="http://www.w3.org/2000/svg" xmlns:xlink="http://www.w3.org/1999/xlink" viewBox="0 0 414.64 195.09"><path d="M65.66 143.17c-8.33 4.64-18.6 4.49-22.94-.33s-1.11-12.48 7.21-17.12c7.55-4.2 16.69-4.46 21.56-.88l7.92-4.41c1.05-.58 2.35-.56 2.9.04l.39.43c.55.61.14 1.58-.91 2.16l-7.92 4.41c2.68 4.81-.65 11.5-8.21 15.7z" opacity=".12"/><circle cx="80.67" cy="94.32" r="17.59" fill="#c3ce40"/><path d="M91.35 105.66c-6.09 6.09-15.97 6.09-22.07 0-6.09-6.09-6.09-15.97 0-22.07 2.03-2.03 4.48-3.38 7.06-4.06 0 0-7.09 9.98.09 18.17 7.42 8.47 18.55 2.25 18.55 2.25-.74 2.08-1.96 4.04-3.63 5.71z" fill="#93ad3c"/><path d="M81.11 123.14h-.87c-1.22 0-2.22-1-2.22-2.22V93.6c0-1.22 1-2.22 2.22-2.22h.87c1.22 0 2.22 1 2.22 2.22v27.32c0 1.22-1 2.22-2.22 2.22z" fill="#9a8271"/><path d="M81.84 105.79l-.42.56c-.46.62-1.34.75-1.96.29l-8.56-6.36c-.62-.46-.75-1.34-.29-1.96l.42-.56c.46-.62 1.34-.75 1.96-.29l8.56 6.36c.62.45.75 1.34.29 1.96z" fill="#9a8271"/><path d="M332.29 141.42c-13.66 7.12-31.37 7.88-39.57 1.69s-3.77-16.98 9.89-24.1c12.39-6.46 28.11-7.68 37.05-3.24l9.9-5.16c1.13-.59 2.61-.65 3.29-.14l1.6 1.21c.68.51.31 1.42-.82 2.01l-9.82 5.12c5.83 6.31 1.1 16.03-11.52 22.61z" opacity=".12"/><path d="M352.85 113.7h-2.88c-1.22 0-2.22-1-2.22-2.22V72.16c0-1.22 1-2.22 2.22-2.22h2.88c1.22 0 2.22 1 2.22 2.22v39.32c0 1.22-1 2.22-2.22 2.22z" fill="#9a8271"/><ellipse transform="rotate(-80.781 351.77737831 74.38419846)" cx="351.78" cy="74.39" rx="26.7" ry="26.7" fill="#9ccb40"/><path d="M368 91.6c-9.25 9.25-24.25 9.25-33.5 0s-9.25-24.25 0-33.5c3.08-3.08 6.79-5.13 10.72-6.16 0 0-10.76 15.14.14 27.58 11.27 12.86 28.15 3.41 28.15 3.41-1.14 3.17-2.98 6.13-5.51 8.67z" fill="#76ae42"/><g><path d="M361.91 143.59c-8.33 4.64-18.6 4.49-22.94-.33s-1.11-12.48 7.21-17.12c7.55-4.2 16.69-4.46 21.56-.88l7.92-4.41c1.05-.58 2.35-.56 2.9.04l.39.43c.55.61.14 1.58-.91 2.16l-7.92 4.41c2.68 4.81-.65 11.5-8.21 15.7z" opacity=".12"/><circle cx="376.67" cy="95.32" r="17.59" fill="#c3ce40"/><path d="M387.35 106.66c-6.09 6.09-15.97 6.09-22.07 0-6.09-6.09-6.09-15.97 0-22.07 2.03-2.03 4.48-3.38 7.06-4.06 0 0-7.09 9.98.09 18.17 7.42 8.47 18.55 2.25 18.55 2.25-.74 2.08-1.96 4.04-3.63 5.71z" fill="#93ad3c"/><path d="M377.11 124.14h-.87c-1.22 0-2.22-1-2.22-2.22V94.6c0-1.22 1-2.22 2.22-2.22h.87c1.22 0 2.22 1 2.22 2.22v27.32c0 1.22-1 2.22-2.22 2.22z" fill="#9a8271"/><path d="M375.6 106.79l.42.56c.46.62 1.34.75 1.96.29l8.56-6.36c.62-.46.75-1.34.29-1.96l-.42-.56c-.46-.62-1.34-.75-1.96-.29l-8.56 6.36c-.62.45-.75 1.34-.29 1.96z" fill="#9a8271"/></g><g><path d="M144.16 126.93c-8.33 4.64-32.88 8.38-35.54 5.05-2.83-3.54 11.49-17.86 19.82-22.5 7.55-4.2 16.69-4.46 21.56-.88l7.92-4.41c1.05-.58 2.35-.56 2.9.04l.39.43c.55.61.14 1.58-.91 2.16l-7.92 4.41c2.67 4.81-.66 11.49-8.22 15.7z" opacity=".12"/><path d="M160.36 106.48h-.87c-1.22 0-2.22-1-2.22-2.22V76.94c0-1.22 1-2.22 2.22-2.22h.87c1.22 0 2.22 1 2.22 2.22v27.32c0 1.22-1 2.22-2.22 2.22z" fill="#9a8271"/><path d="M177.51 79.66c0 9.71-7.87 17.59-17.59 17.59s-17.59-7.87-17.59-17.59c0-14.79 11.64-37.27 17.59-37.27s17.59 22.48 17.59 37.27z" fill="#c3ce40"/><path d="M170.6 90.99c-6.09 6.09-16.05 6.17-22.07 0-6.67-6.85-3.98-17.9-1.98-24.6.82-2.75 5.4-12.39 6.98-14.86-3.75 16.78-4.83 24.03 2.16 31.51 7.69 8.23 18.55 2.25 18.55 2.25-.75 2.08-1.97 4.04-3.64 5.7z" fill="#93ad3c"/></g><g><path opacity=".3" d="M257.11 133.08l-20.93 11.28-45.01-9.16 46.92-20.25z"/><path fill="#aa9331" d="M217.06 32.12l37.91-20.16 38.09 22.05-4.5 2.39-33.65-19.48-33.42 17.77z"/><path fill="#cdb13e" d="M217.06 32.12l37.91-20.16-.06 4.96-33.42 17.77z"/><path d="M221.49 34.69l33.41-17.77 33.65 19.48-33.41 17.77-33.65-19.48z" fill="#e9d14d"/><g fill="#fff"><path d="M269.24 32c-.21-.64-.73-1.2-1.56-1.68-.96-.55-1.96-.85-3.03-.91-1.06-.05-2.06.03-2.99.26-.93.22-2 .54-3.18.97-.93.33-1.63.54-2.1.64s-1.36-.86-.22-1.46c1.15-.61 2.7-1.07 4.64-1.38l-1.9-2.58c-1.04.14-2.1.38-3.16.73-1.07.35-2.04.76-2.95 1.24-1.32.7-2.25 1.41-2.77 2.12-.53.71-.69 1.39-.47 2.03.22.64.74 1.2 1.57 1.68.96.55 1.96.86 3.02.92 1.06.06 2.05-.02 2.98-.24.92-.22 2-.54 3.23-.95.95-.33 1.66-.54 2.15-.64.48-.1.86-.07 1.13.08.24.14.29.31.15.52-.14.2-.53.48-1.13.8-.72.38-1.57.71-2.57 1s-1.99.49-2.99.61l1.82 2.64c1.09-.11 2.26-.37 3.54-.78 1.28-.41 2.46-.9 3.56-1.48 1.31-.7 2.23-1.41 2.75-2.13.53-.7.69-1.37.48-2.01zM253.69 36.72l-8.12-4.7-8.85 4.7 3.36 1.95 4.47-2.38 5.02 2.91c.54.31.82.61.86.9.03.29-.18.56-.65.8-.36.19-.82.32-1.37.38-.55.05-1.22.05-2.02-.02l.45 2.9c1.17.09 2.35.01 3.52-.25 1.16-.25 2.26-.64 3.29-1.19 1.78-.94 2.68-1.93 2.7-2.94s-.87-2.02-2.66-3.06z"/></g><path fill="#e9d14d" d="M302.08 34.24l-2.89 76.49-46.92 24.94 2.89-76.49z"/><defs><path id="a" d="M302.08 34.24l-2.89 76.49-46.92 24.94 2.89-76.49z"/></defs><clipPath id="b"><use xlink:href="#a" overflow="visible"/></clipPath><path clip-path="url(#b)" fill="#76663b" d="M269.46 81.27l21.71-11.63v3.85l-21.85 11.7.14-3.92"/><defs><path id="c" d="M302.08 34.24l-2.89 76.49-46.92 24.94 2.89-76.49z"/></defs><clipPath id="d"><use xlink:href="#c" overflow="visible"/></clipPath><path clip-path="url(#d)" fill="#675336" d="M265.6 79.01l3.86 2.26-.14 3.92-3.88-2.28.16-3.9"/><defs><path id="e" d="M302.08 34.24l-2.89 76.49-46.92 24.94 2.89-76.49z"/></defs><clipPath id="f"><use xlink:href="#e" overflow="visible"/></clipPath><path d="M277.74 71.66l2.85-1.53-.08.9-2.47 1.32-.3-.69m-4.09 2.18l3.35-1.79-.08.9-2.96 1.59-.31-.7m-2.04-16.38l12.26-6.57-.66 18.7-1.88 1.01-.31-.69 1.38-.74.59-16.7-.84.45-9.73 5.21-.33 9.38-.17 4.79-.09 2.53 1.4-.75-.08.9-1.56.84-.57-1.29.59-17.07" clip-path="url(#f)" fill="#fae658"/><defs><path id="g" d="M302.08 34.24l-2.89 76.49-46.92 24.94 2.89-76.49z"/></defs><clipPath id="h"><use xlink:href="#g" overflow="visible"/></clipPath><path clip-path="url(#h)" fill="#af862d" d="M282.14 52.91l.84-.45-.58 16.7-1.38.74-.35-.79-.08 1.02-2.85 1.53-.58-1.35-.16 1.74-3.35 1.79-.34-.79-.09 1.03-1.4.74.09-2.53 8.77-4.69.17-4.8.96-.51.33-9.38"/><defs><path id="i" d="M302.08 34.24l-2.89 76.49-46.92 24.94 2.89-76.49z"/></defs><clipPath id="j"><use xlink:href="#i" overflow="visible"/></clipPath><path clip-path="url(#j)" fill="#fae658" d="M272.08 67.5l8.77-4.7-.17 4.8-8.77 4.69.17-4.79"/><defs><path id="k" d="M302.08 34.24l-2.89 76.49-46.92 24.94 2.89-76.49z"/></defs><clipPath id="l"><use xlink:href="#k" overflow="visible"/></clipPath><path clip-path="url(#l)" fill="#59caf4" d="M272.41 58.12l9.73-5.21-.33 9.38-.96.51-8.77 4.7.33-9.38"/><defs><path id="m" d="M302.08 34.24l-2.89 76.49-46.92 24.94 2.89-76.49z"/></defs><clipPath id="n"><use xlink:href="#m" overflow="visible"/></clipPath><path d="M280.49 71.24l-.13 1.55-.65.1.78-1.65m4.98-2.87l.39-.21.66.35-.7.68-.35-.82m-4.14 2.22l1.88-1.01 1.14-.61-.1 1.06-.24.04.08-.19-.22.21-2.06.3 1.08.63-.98.94-.58-1.37m-3.29 1.76l2.47-1.32-.01.1-2.03 1.97-.1.02-.33-.77m-4.08 2.19l2.96-1.59-.1 1.06-.2.03.09-.21-.24.23-2.06.29 1.08.64-.95.91-.45-1.03.07-.16-.1.1-.1-.27m-2.39 1.28l1.56-.84-.07.8-1.06 1.01-.43-.97m-4.89 2.62l3.86-2.07-.11 1.27-2.43.38 2.32 1.33 1.1-.59.91-.49.07.05 3.1-1.81.53-1.19.67.4 1.13-.6 1.1-.59.26-.54.6.38 3.1-1.81.55-1.23.7.41 1.1-.59 1.1-.59.81-1.72 1.94 1.02-19.1 10.25-3.31-1.67m-1.08.57l3.39 1.85.01-.01.46.41 21.71-11.62-21.71 11.62-3.86-2.25" clip-path="url(#n)" fill="#605238"/><defs><path id="o" d="M302.08 34.24l-2.89 76.49-46.92 24.94 2.89-76.49z"/></defs><clipPath id="p"><use xlink:href="#o" overflow="visible"/></clipPath><path d="M290.64 69.25l.08.04-.02.01-.06-.05m-2.98-1.45l2.78 1.35-1.33.71-1.94-1.02.49-1.04m-1.8.37l1.22-.65.31.15-.87.85-.66-.35" clip-path="url(#p)" fill="#937f57"/><g><defs><path id="q" d="M302.08 34.24l-2.89 76.49-46.92 24.94 2.89-76.49z"/></defs><clipPath id="r"><use xlink:href="#q" overflow="visible"/></clipPath><path clip-path="url(#r)" fill="#937f57" d="M265.6 79.01l1.08-.57 3.33 1.67-1.15.62.14.13-.01.01-3.39-1.86"/></g><g><defs><path id="s" d="M302.08 34.24l-2.89 76.49-46.92 24.94 2.89-76.49z"/></defs><clipPath id="t"><use xlink:href="#s" overflow="visible"/></clipPath><path d="M281.83 70.39l2.06-.3-.97.93-1.09-.63m2.76-4.06l.88 2.04.35.82.7-.68.87-.85.6-.58-.33.71-.5 1.05-.81 1.72-1.1.59-1.1.59-.7-.41.57-1.27.24-.04.1-1.06.23-2.63" clip-path="url(#t)" fill="#9ccb40"/></g><g><defs><path id="u" d="M302.08 34.24l-2.89 76.49-46.92 24.94 2.89-76.49z"/></defs><clipPath id="v"><use xlink:href="#u" overflow="visible"/></clipPath><path d="M280.5 71.13l-.01.11-.78 1.66-1.24.2 2.03-1.97m-6.08 3.22l2.06-.29-.98.94-1.08-.65m2.74-4.04l.58 1.35.3.7.33.76-.43.07 1.27.81-.26.54-1.1.59-1.13.6-.67-.4.57-1.29.2-.03.1-1.06.08-.9.16-1.74" clip-path="url(#v)" fill="#9ccb40"/></g><g><defs><path id="w" d="M302.08 34.24l-2.89 76.49-46.92 24.94 2.89-76.49z"/></defs><clipPath id="x"><use xlink:href="#w" overflow="visible"/></clipPath><path d="M274.17 74.72l-.07.16-.03-.06.1-.1m-3.42-.77l.26.58.57 1.29.43.98 1.06-1.01-.09.97-2.41.37 1.77 1.15-.91.49-1.1.59-2.32-1.33 2.43-.38.11-1.27.2-2.43" clip-path="url(#x)" fill="#9ccb40"/></g><g><defs><path id="y" d="M302.08 34.24l-2.89 76.49-46.92 24.94 2.89-76.49z"/></defs><clipPath id="z"><use xlink:href="#y" overflow="visible"/></clipPath><path clip-path="url(#z)" fill="#75ae42" d="M280.67 69.11l.35.79.31.69.6 1.37.98-.94.97-.93.22-.21-.09.19-.56 1.26-.55 1.23-3.1 1.81-.6-.38-1.27-.81.44-.07.1-.01 1.24-.2.65-.1.13-1.56.01-.11.01-.1.08-.9.08-1.02"/></g><g><defs><path id="A" d="M302.08 34.24l-2.89 76.49-46.92 24.94 2.89-76.49z"/></defs><clipPath id="B"><use xlink:href="#A" overflow="visible"/></clipPath><path clip-path="url(#B)" fill="#75ae42" d="M273.31 73.05l.34.79.31.7.11.27.03.07.45 1.03.95-.91.98-.94.23-.23-.09.21-.57 1.29-.54 1.19-3.1 1.8-.07-.04-1.77-1.16 2.41-.37.08-.97.08-.8.08-.9.09-1.03"/></g><g><defs><path id="C" d="M302.08 34.24l-2.89 76.49-46.92 24.94 2.89-76.49z"/></defs><clipPath id="D"><use xlink:href="#C" overflow="visible"/></clipPath><path clip-path="url(#D)" fill="#937f57" d="M290.47 69.13l.17.12.07.05.46.34-21.71 11.63-.46-.41-.14-.13 1.15-.62 19.09-10.25 1.33-.71.04-.02"/></g><g><defs><path id="E" d="M302.08 34.24l-2.89 76.49-46.92 24.94 2.89-76.49z"/></defs><clipPath id="F"><use xlink:href="#E" overflow="visible"/></clipPath><path clip-path="url(#F)" fill="#aa9331" d="M298.42 42.81l3.04-1.64-.11 3.38-3.05 1.63.12-3.37"/></g><g><defs><path id="G" d="M302.08 34.24l-2.89 76.49-46.92 24.94 2.89-76.49z"/></defs><clipPath id="H"><use xlink:href="#G" overflow="visible"/></clipPath><path clip-path="url(#H)" fill="#aa9331" d="M254.7 62.6l3.07-1.64-.12 3.37-3.07 1.65.12-3.38"/></g><g><defs><path id="I" d="M302.08 34.24l-2.89 76.49-46.92 24.94 2.89-76.49z"/></defs><clipPath id="J"><use xlink:href="#I" overflow="visible"/></clipPath><path clip-path="url(#J)" fill="#aa9331" d="M253.77 89.08l6.14-3.29-.11 3.34-6.15 3.29.12-3.34"/></g><g><defs><path id="K" d="M302.08 34.24l-2.89 76.49-46.92 24.94 2.89-76.49z"/></defs><clipPath id="L"><use xlink:href="#K" overflow="visible"/></clipPath><path clip-path="url(#L)" fill="#aa9331" d="M294.73 61.97l6.12-3.28-.12 3.35.01-.3-3.05 1.63-.01.3-3.07 1.64.12-3.34"/></g><g><defs><path id="M" d="M302.08 34.24l-2.89 76.49-46.92 24.94 2.89-76.49z"/></defs><clipPath id="N"><use xlink:href="#M" overflow="visible"/></clipPath><path clip-path="url(#N)" fill="#aa9331" d="M297.69 63.37l3.05-1.63-.01.3-.11 3.04-3.04 1.64.1-3.05.01-.3"/></g><g><defs><path id="O" d="M302.08 34.24l-2.89 76.49-46.92 24.94 2.89-76.49z"/></defs><clipPath id="P"><use xlink:href="#O" overflow="visible"/></clipPath><path clip-path="url(#P)" fill="#aa9331" d="M259.31 103l6.14-3.28-.12 3.34-6.14 3.29.12-3.35"/></g><g><defs><path id="Q" d="M302.08 34.24l-2.89 76.49-46.92 24.94 2.89-76.49z"/></defs><clipPath id="R"><use xlink:href="#Q" overflow="visible"/></clipPath><path clip-path="url(#R)" fill="#aa9331" d="M252.67 120.47l6.14-3.29-.12 3.34-6.14 3.29.12-3.34"/></g><path fill="#aa9331" d="M255.16 59.18l-2.89 76.49-47.12-27.28 2.89-76.49z"/><g><defs><path id="S" d="M255.16 59.18l-2.89 76.49-47.12-27.28 2.89-76.49z"/></defs><clipPath id="T"><use xlink:href="#S" overflow="visible"/></clipPath><path clip-path="url(#T)" fill="#665731" d="M238.17 80.39l-21.63-12.53-.29 3.85 21.78 12.6.14-3.92"/><defs><path id="U" d="M255.16 59.18l-2.89 76.49-47.12-27.28 2.89-76.49z"/></defs><clipPath id="V"><use xlink:href="#U" overflow="visible"/></clipPath><path clip-path="url(#V)" fill="#5a472f" d="M242.34 78.3l-4.17 2.09-.14 3.92 4.18-2.11.13-3.9"/><defs><path id="W" d="M255.16 59.18l-2.89 76.49-47.12-27.28 2.89-76.49z"/></defs><clipPath id="X"><use xlink:href="#W" overflow="visible"/></clipPath><path d="M230.31 70.44l-2.84-1.64.01.9 2.46 1.43.37-.69m4.07 2.35l-3.33-1.93.02.91 2.95 1.71.36-.69m3.34-16.29l-12.22-7.08-.71 18.71 1.88 1.08.37-.68-1.37-.79.63-16.72.84.49 9.7 5.61-.35 9.38-.18 4.8-.1 2.53-1.39-.8.02.91 1.56.9.69-1.26.63-17.08" clip-path="url(#X)" fill="#fae658"/><defs><path id="Y" d="M255.16 59.18l-2.89 76.49-47.12-27.28 2.89-76.49z"/></defs><clipPath id="Z"><use xlink:href="#Y" overflow="visible"/></clipPath><path clip-path="url(#Z)" fill="#826527" d="M227.14 51.52l-.85-.49-.63 16.72 1.37.79.42-.77.02 1.02 2.84 1.65.7-1.32.03 1.74 3.34 1.93.41-.77.02 1.03 1.39.8.1-2.53-8.74-5.06.18-4.8-.96-.56.36-9.38"/><defs><path id="aa" d="M255.16 59.18l-2.89 76.49-47.12-27.28 2.89-76.49z"/></defs><clipPath id="ab"><use xlink:href="#aa" overflow="visible"/></clipPath><path clip-path="url(#ab)" fill="#fae658" d="M236.48 66.52l-8.74-5.06-.18 4.8 8.74 5.06.18-4.8"/><defs><path id="ac" d="M255.16 59.18l-2.89 76.49-47.12-27.28 2.89-76.49z"/></defs><clipPath id="ad"><use xlink:href="#ac" overflow="visible"/></clipPath><path clip-path="url(#ad)" fill="#61ccf5" d="M236.83 57.13l-9.69-5.61-.36 9.38.96.56 8.74 5.06.35-9.39"/><defs><path id="ae" d="M255.16 59.18l-2.89 76.49-47.12-27.28 2.89-76.49z"/></defs><clipPath id="af"><use xlink:href="#ae" overflow="visible"/></clipPath><path d="M227.48 69.91l.02 1.56.67.13-.69-1.69m-4.94-3.08l-.39-.22-.71.32.67.71.43-.81m4.12 2.39l-1.88-1.08-1.14-.66.02 1.06.25.04-.07-.19.21.22 2.11.39-1.17.59.94.98.73-1.35m3.28 1.9l-2.46-1.43v.1l1.96 2.05.11.02.39-.74m4.07 2.36l-2.95-1.71.02 1.06.21.04-.08-.21.23.24 2.11.38-1.17.6.92.95.54-1.01-.07-.16.1.1.14-.28m2.38 1.37l-1.56-.9.02.81 1.02 1.05.52-.96m4.87 2.82l-3.85-2.23.02 1.27 2.49.49-2.51 1.23-1.1-.64-.9-.52-.08.05-3.08-1.94-.46-1.21-.72.37-1.12-.65-1.1-.63-.23-.56-.65.36-3.08-1.94-.48-1.25-.76.38-1.1-.64-1.1-.64-.71-1.75-2.09.94 19.03 11.04 3.58-1.53m1.08.63l-3.65 1.71-.01-.01-.5.39-21.63-12.53 21.63 12.53 4.16-2.09" clip-path="url(#af)" fill="#4c3f2c"/><g><defs><path id="ag" d="M255.16 59.18l-2.89 76.49-47.12-27.28 2.89-76.49z"/></defs><clipPath id="ah"><use xlink:href="#ag" overflow="visible"/></clipPath><path d="M217.11 67.5l-.08.04.02.01.06-.05m3.21-1.34l-2.98 1.24 1.33.77 2.09-.94-.44-1.07m1.83.45l-1.21-.7-.34.14.84.88.71-.32" clip-path="url(#ah)" fill="#836e4c"/></g><g><defs><path id="ai" d="M255.16 59.18l-2.89 76.49-47.12-27.28 2.89-76.49z"/></defs><clipPath id="aj"><use xlink:href="#ai" overflow="visible"/></clipPath><path clip-path="url(#aj)" fill="#836e4c" d="M242.34 78.3l-1.08-.63-3.57 1.54 1.15.67-.16.12.01.01 3.65-1.71"/></g><g><defs><path id="ak" d="M255.16 59.18l-2.89 76.49-47.12-27.28 2.89-76.49z"/></defs><clipPath id="al"><use xlink:href="#ak" overflow="visible"/></clipPath><path d="M226.17 69l-2.11-.39.94.97 1.17-.58m-2.57-4.17l-1.07 2-.42.8-.67-.71-.84-.88-.58-.61.29.72.44 1.07.71 1.75 1.1.64 1.1.64.76-.38-.49-1.29-.25-.04-.02-1.06-.06-2.65" clip-path="url(#al)" fill="#94b83d"/></g><g><defs><path id="am" d="M255.16 59.18l-2.89 76.49-47.12-27.28 2.89-76.49z"/></defs><clipPath id="an"><use xlink:href="#am" overflow="visible"/></clipPath><path d="M227.48 69.79v.11l.69 1.69 1.27.25-1.96-2.05m6.07 3.48l-2.11-.38.94.98 1.17-.6m-2.54-4.15l-.7 1.32-.36.68-.4.74.45.09-1.37.75.23.56 1.1.63 1.12.65.72-.37-.5-1.31-.21-.04-.02-1.06-.02-.91-.04-1.73" clip-path="url(#an)" fill="#94b83d"/></g><g><defs><path id="ao" d="M255.16 59.18l-2.89 76.49-47.12-27.28 2.89-76.49z"/></defs><clipPath id="ap"><use xlink:href="#ao" overflow="visible"/></clipPath><path d="M233.77 73.65l.07.16.03-.06-.1-.1m3.61-.63l-.31.57-.69 1.26-.52.96-1.02-1.05.02.97 2.47.47-1.92 1.08.9.52 1.1.64 2.51-1.23-2.49-.49-.02-1.27-.03-2.43" clip-path="url(#ap)" fill="#94b83d"/></g><g><defs><path id="aq" d="M255.16 59.18l-2.89 76.49-47.12-27.28 2.89-76.49z"/></defs><clipPath id="ar"><use xlink:href="#aq" overflow="visible"/></clipPath><path clip-path="url(#ar)" fill="#62893c" d="M227.45 67.77l-.42.77-.37.68-.72 1.34-.94-.97-.94-.98-.21-.21.07.19.49 1.29.48 1.25 3.08 1.93.65-.35 1.37-.76-.44-.08-.11-.03-1.27-.24-.67-.13-.02-1.56v-.21l-.01-.91-.02-1.02"/></g><g><defs><path id="as" d="M255.16 59.18l-2.89 76.49-47.12-27.28 2.89-76.49z"/></defs><clipPath id="at"><use xlink:href="#as" overflow="visible"/></clipPath><path clip-path="url(#at)" fill="#62893c" d="M234.79 72.02l-.41.77-.37.69-.14.27-.03.06-.54 1.01-.92-.95-.94-.98-.23-.23.08.21.5 1.31.46 1.21 3.08 1.93.08-.04 1.92-1.08-2.47-.47-.01-.97-.02-.81-.02-.9-.02-1.03"/></g><g><defs><path id="au" d="M255.16 59.18l-2.89 76.49-47.12-27.28 2.89-76.49z"/></defs><clipPath id="av"><use xlink:href="#au" overflow="visible"/></clipPath><path clip-path="url(#av)" fill="#836e4c" d="M217.3 67.38l-.19.12-.07.04-.5.32 21.63 12.53.51-.39.16-.12-1.15-.67-19.03-11.04-1.32-.77-.04-.02"/></g><g><defs><path id="aw" d="M255.16 59.18l-2.89 76.49-47.12-27.28 2.89-76.49z"/></defs><clipPath id="ax"><use xlink:href="#aw" overflow="visible"/></clipPath><path clip-path="url(#ax)" fill="#8e7b2e" d="M211.02 40.74l-3.04-1.76-.12 3.38 3.03 1.76.13-3.38"/></g><g><defs><path id="ay" d="M255.16 59.18l-2.89 76.49-47.12-27.28 2.89-76.49z"/></defs><clipPath id="az"><use xlink:href="#ay" overflow="visible"/></clipPath><path clip-path="url(#az)" fill="#8e7b2e" d="M253.85 88.85l-3.06-1.77-.13 3.35 3.07 1.77.12-3.35"/></g><g><defs><path id="aA" d="M255.16 59.18l-2.89 76.49-47.12-27.28 2.89-76.49z"/></defs><clipPath id="aB"><use xlink:href="#aA" overflow="visible"/></clipPath><path clip-path="url(#aB)" fill="#8e7b2e" d="M213.42 60.05l-6.1-3.53-.12 3.34 6.09 3.53.13-3.34"/></g><g><defs><path id="aC" d="M255.16 59.18l-2.89 76.49-47.12-27.28 2.89-76.49z"/></defs><clipPath id="aD"><use xlink:href="#aC" overflow="visible"/></clipPath><path clip-path="url(#aD)" fill="#8e7b2e" d="M249.73 115.14l-6.12-3.54-.13 3.35 6.12 3.54.13-3.35"/></g><g><defs><path id="aE" d="M255.16 59.18l-2.89 76.49-47.12-27.28 2.89-76.49z"/></defs><clipPath id="aF"><use xlink:href="#aE" overflow="visible"/></clipPath><path clip-path="url(#aF)" fill="#8e7b2e" d="M252.66 120.26l-3.06-1.77-.12 3.35 3.06 1.77.12-3.35"/></g><g><defs><path id="aG" d="M255.16 59.18l-2.89 76.49-47.12-27.28 2.89-76.49z"/></defs><clipPath id="aH"><use xlink:href="#aG" overflow="visible"/></clipPath><path clip-path="url(#aH)" fill="#8e7b2e" d="M254.85 62.35l-6.12-3.54-.13 3.38 6.12 3.54.13-3.38"/></g></g><path d="M208.04 31.9l46.91-24.94 47.13 27.28-46.91 24.94-47.13-27.28zm85.02 2.11l-38.08-22.05-37.91 20.16 38.08 22.05 37.91-20.16" fill="#fae658"/><g><path d="M287.93 13.47s.9-1.44 2.38-1.69 2.73.81 4.1.32 2.23-2.03 3.5-2.13c1.28-.1 3.16 1.26 3.16 1.26s-1.25.12-2.72.91c-1.57.84-1.77 2.91-3.31 4.09-1.54 1.19-2.17-.45-4.28.97-2.11 1.42-2.82 4.01-2.82 4.01l-.01-7.74z" opacity=".85" fill="#42bfec"/><path d="M287.43 36.79h-.13c-.28 0-.5-.22-.5-.5V12.32c0-.27.22-.5.5-.5h.13c.28 0 .5.23.5.5v23.97c0 .28-.22.5-.5.5z" fill="#76653a"/></g></g><g><path fill="#bababb" d="M98.18 233.02l-1.47.57 1.09 12.03 1.27.72z"/><defs><path id="aI" d="M85.3 238.46l165.73-87.34 134.33 77.82-165.73 87.34z"/></defs><clipPath id="aJ"><use xlink:href="#aI" overflow="visible"/></clipPath><path clip-path="url(#aJ)" fill="#d3d3d3" d="M383.89 227.22l-164.76 86.01-.49 2.47 165.18-86.94.07-1.54"/><defs><path id="aK" d="M85.3 238.46l165.73-87.34 134.33 77.82-165.73 87.34z"/></defs><clipPath id="aL"><use xlink:href="#aK" overflow="visible"/></clipPath><path clip-path="url(#aL)" fill="#bababb" d="M219.13 313.23l-.27.14-119.9-68.68.11 1.65 119.57 69.36.49-2.47"/><defs><path id="aM" d="M85.3 238.46l165.73-87.34 134.33 77.82-165.73 87.34z"/></defs><clipPath id="aN"><use xlink:href="#aM" overflow="visible"/></clipPath><path d="M189.37 286.22l1.84-.96 31.29 17.92-1.85.96-31.28-17.92m3.33-1.74l1.84-.96 31.29 17.92-1.84.96-31.29-17.92m7.44.61l1.84-.96 27.19 15.58-1.84.96-27.19-15.58m10.23 2.21l1.84-.96 20.29 11.62-1.84.96-20.29-11.62m-96.46-55.48l1.84-.96 31.29 17.92-1.85.96-31.28-17.92m3.33-1.74l1.85-.96 27.2 15.58-1.84.96-27.21-15.58m3.34-1.74l1.84-.96L142.71 239l-1.84.96-20.29-11.62m154.7 15.37l1.84-.96 29.35 16.81-1.84.96-29.35-16.81m7.7.77l1.84-.96 24.98 14.31-1.85.96-24.97-14.31m-86.37-56.03l1.84-.97 22.94 13.05-1.83.96-22.95-13.04m3.33-1.75l1.83-.96 28.9 16.45-1.84.97-28.89-16.46m78.8 8.41c2.03-1.06 4.02-2.1 5.89-3.07l.38.22c-1.87.98-3.86 2.01-5.89 3.07l31.58 18.09c3.43 1.96 3.24 5.11-.43 7.02l-26.96 14.07c.51 2.09.45 4.4-.69 6.81l-.54-.07c1.08-2.28 1.17-4.47.72-6.47l-61.22 31.96v.1c.01 4.73-2.85 10.53-12.34 16.72l-.44-.19c9.29-6.06 12.14-11.71 12.2-16.33l-11.1 5.8c-3.66 1.91-9.41 1.87-12.84-.09l-37.86-21.68c-3.43-1.97-3.25-5.11.41-7.02l13.17-6.87c-3.7-.38-7.73-.44-11.88.06-4.02.49-8.16 1.51-12.24 3.3l-.35-.24c4.14-1.82 8.38-2.87 12.48-3.36 4.11-.5 8.1-.45 11.77-.09.24.02.48.05.72.07l48.17-25.15c-.77-2.61-.98-5.49-.14-8.5l.56.04c-.81 2.89-.63 5.66.08 8.2l38.03-19.85c3.66-1.91 9.42-1.87 12.85.1l5.91 3.35m-.19-9.46l1.45-.75 17.88 10.16-1.43.76-17.9-10.17m-1.86-3.92l1.44-.76 26.96 15.34-1.44.76-26.96-15.34m1.64-1.92l1.43-.76 28.9 16.45-1.43.76-28.9-16.45m2.71-1.42l1.43-.76 28.91 16.44-1.44.76-28.9-16.44m102.85 48.83l-132.86-76.1-153.11 79.93 8.31 2.47-7.26 11.18 119.99 69.61 164.93-87.09" clip-path="url(#aN)" fill="#fdf7e1"/><defs><path id="aO" d="M85.3 238.46l165.73-87.34 134.33 77.82-165.73 87.34z"/></defs><clipPath id="aP"><use xlink:href="#aO" overflow="visible"/></clipPath><path d="M182.27 259.76c-2.14-1.23-2.03-3.2.27-4.39 2.29-1.2 5.89-1.17 8.03.06 2.15 1.23 2.03 3.19-.26 4.39-2.3 1.19-5.9 1.17-8.04-.06m-4.29-21.84c-.12-.02-.24-.04-.36-.07-1.53-.28-3.15-.51-4.84-.69l-13.17 6.87c-3.66 1.91-3.84 5.06-.41 7.02l37.86 21.68c3.43 1.96 9.18 2.01 12.84.09l11.1-5.8v-.19c0-1.31-.23-2.54-.6-3.68l-4.42 2.31-43.3-24.8 5.3-2.74m43.48-26.16l-48.17 25.15c1.81.2 3.53.46 5.16.77l44.12-23.04c-.43-.92-.81-1.88-1.11-2.88m59.98 19.56l-60.54 31.6c.4 1.18.66 2.46.68 3.83l61.22-31.96c-.17-.77-.43-1.52-.74-2.22-.19-.44-.4-.85-.62-1.25m-2.7-36.21l-5.89-3.38c-3.43-1.96-9.19-2.01-12.85-.1l-38.03 19.85c.29 1.01.66 1.98 1.08 2.9l32.25-16.83 8.95 5.12c4.36-2.27 9.55-4.98 14.49-7.56m-1.61 11.27c-.21-.12-.16-.33.1-.46l1.07-.56c.27-.14.64-.15.85-.03l7.77 4.45c.21.12.17.33-.1.47l-1.07.56c-.26.14-.64.15-.85.03l-7.77-4.46m8.83-.35c-.64-.37-.6-.96.08-1.31.69-.36 1.77-.35 2.41.01.65.37.61.95-.08 1.31-.68.37-1.76.36-2.41-.01m24.74 7.39l-31.58-18.09c-4.94 2.58-10.13 5.29-14.5 7.57l33.97 19.46-16.69 8.71c.26.45.5.92.71 1.41.29.65.52 1.33.7 2.03l26.96-14.07c3.67-1.91 3.86-5.05.43-7.02" clip-path="url(#aP)" fill="#d5e5f2"/><defs><path id="aQ" d="M85.3 238.46l165.73-87.34 134.33 77.82-165.73 87.34z"/></defs><clipPath id="aR"><use xlink:href="#aQ" overflow="visible"/></clipPath><path d="M181.96 238.79c-1.24-.31-2.57-.61-3.98-.87l-5.3 2.76 43.3 24.8 4.42-2.31c-.27-.82-.61-1.6-1-2.31l-6.01 3.14-38.02-21.78 6.59-3.43m14.74 2.54c.01-.39-.09-.79-.33-1.17l.81-.17c.27.44.4.89.38 1.33l-.86.01m19.08 10.93l.05-.47c.81.01 1.63.1 2.41.27l-.34.43c-.69-.14-1.4-.21-2.12-.23m-22.11-13.89l.44-.4c.55.17 1.06.4 1.52.66.12.07.24.13.34.21l-.66.3-.3-.18c-.4-.23-.85-.43-1.34-.59m26.06 14.75l.58-.35c.13.06.25.13.37.2.45.26.83.55 1.13.86l-.76.22c-.27-.27-.6-.53-1-.76-.11-.05-.21-.11-.32-.17m-30.26-18.25l20.27-10.58 18.44 10.56-20.26 10.58-18.45-10.56m19.58 11.21l20.27-10.58 18.44 10.56-20.27 10.58-18.44-10.56m21.26-11.09l20.26-10.58 18.44 10.56-20.26 10.58-18.44-10.56m33.93-32.31l-8.95-5.12-32.25 16.83c.37.81.79 1.58 1.23 2.31l6.71-3.5 18.44 10.56-20.26 10.58-18.44-10.57 13.09-6.83c-.45-.73-.87-1.49-1.25-2.3l-44.12 23.04c1.4.27 2.73.57 3.96.88l4.33-2.26 2.7 1.54-.09-.32c.83-.08 1.67-.08 2.47-.01l-.17.46c-.65-.06-1.33-.06-2-.01l31.97 18.31c.13-.36.15-.73.07-1.09l.85-.07c.1.44.07.9-.12 1.35l-.58-.06 2.93 1.68-4.88 2.55c.39.71.75 1.48 1.03 2.3l60.54-31.6c-.36-.64-.75-1.24-1.16-1.8l-5.3 2.76c-1.67.87-4.31.86-5.87-.04l-33.02-18.92c-1.56-.89-1.46-2.33.21-3.21l15.59-8.14c1.67-.87 4.31-.86 5.87.03l3.7 2.12c.86-.45 1.8-.94 2.77-1.45m34.35 19.68l-33.97-19.46c-.97.51-1.9 1-2.78 1.45l28.94 16.57c1.56.9 1.47 2.34-.2 3.21l-9.85 5.14c.41.56.81 1.15 1.18 1.79l16.68-8.7" clip-path="url(#aR)" fill="#fffef6"/><defs><path id="aS" d="M85.3 238.46l165.73-87.34 134.33 77.82-165.73 87.34z"/></defs><clipPath id="aT"><use xlink:href="#aS" overflow="visible"/></clipPath><path d="M286.93 209.78l-7.77-4.45c-.21-.12-.59-.11-.85.03l-1.07.56c-.26.14-.31.34-.1.46l7.77 4.45c.21.12.59.1.85-.03l1.07-.56c.27-.14.31-.34.1-.46" clip-path="url(#aT)" fill="#fffef6"/><defs><path id="aU" d="M85.3 238.46l165.73-87.34 134.33 77.82-165.73 87.34z"/></defs><clipPath id="aV"><use xlink:href="#aU" overflow="visible"/></clipPath><path d="M288.45 204.73c-.64-.37-1.71-.38-2.41-.01-.68.36-.72.95-.08 1.31.64.37 1.72.37 2.41.01.69-.35.73-.94.08-1.31" clip-path="url(#aV)" fill="#fffef6"/><defs><path id="aW" d="M85.3 238.46l165.73-87.34 134.33 77.82-165.73 87.34z"/></defs><clipPath id="aX"><use xlink:href="#aW" overflow="visible"/></clipPath><path d="M190.57 255.43c-2.14-1.23-5.74-1.25-8.03-.06-2.29 1.2-2.41 3.17-.27 4.39 2.15 1.23 5.74 1.25 8.04.06 2.28-1.2 2.4-3.16.26-4.39" clip-path="url(#aX)" fill="#fffef6"/><defs><path id="aY" d="M85.3 238.46l165.73-87.34 134.33 77.82-165.73 87.34z"/></defs><clipPath id="aZ"><use xlink:href="#aY" overflow="visible"/></clipPath><path d="M239.87 212.6c-.62-.36-.59-.93.07-1.27l.08-.04c.66-.34 1.72-.34 2.34.02l12.94 7.41c.62.36.58.93-.08 1.27l-.08.04c-.66.34-1.7.34-2.32-.02l-12.95-7.41m30.73 14.87c-.35-.38-.57-.79-.67-1.22l.85-.07c.09.39.3.78.64 1.13l-.73.21 1.65.95.38-.23c.26.13.54.25.86.36.32.1.64.2.97.27l-.33.43c-.28-.06-.55-.13-.82-.21.46.35.38.86-.22 1.18l-.08.04c-.66.34-1.71.33-2.32-.02l-12.95-7.42c-.61-.35-.58-.93.08-1.27l.08-.04c.66-.34 1.72-.34 2.33.01l10.28 5.9m6.03 2.1l.05-.47c.73.01 1.46-.05 2.15-.17l.25.44c-.79.15-1.62.22-2.45.2m-6.57-4.66c.18-.43.5-.86.97-1.26l.72.25c-.41.35-.69.72-.85 1.1l-.84-.09m-20.84-14.25c-.29-.17-.54-.35-.78-.54l.72-.26c.2.17.43.33.69.47.24.14.51.26.79.38l-.51.38c-.34-.13-.63-.27-.91-.43m32.07 18.08l-.51-.37c.17-.07.33-.15.5-.24.36-.19.7-.41.98-.65l.01-.01.71.25-.01.01c-.32.27-.7.52-1.12.74-.18.1-.37.19-.56.27m-33.8-19.85c-.18-.43-.23-.89-.12-1.35l.85.05c-.09.4-.05.8.11 1.18l-.84.12m26.37 13.35c.34-.1.69-.17 1.05-.24l.25.44c-.69.12-1.35.32-1.94.57l-.26-.19-1.01.52-15.45-8.85 2.01-1.05 15.35 8.8m9.25 4.13c.17-.4.2-.8.11-1.19l.85-.07c.1.44.07.9-.12 1.35l-.84-.09m-35.01-20.12l.01-.01c.38-.41.88-.77 1.46-1.08l.03-.02.58.33-.03.02c-.51.27-.95.58-1.29.95l-.01.01-.75-.2m33.67 16.57l.08-.05c.12.06.25.13.37.2.45.26.83.55 1.13.87l-.76.22c-.11-.12-.23-.23-.37-.34l-1.42.74-20.68-11.85 2.01-1.05 19.64 11.26m-18.06-12.1l2.01-1.05 20.68 11.85-2.01 1.05-20.68-11.85m27.06 10.21l-28.94-16.57c-.86.45-1.68.88-2.43 1.27.17.11.33.22.47.33l.56-.2c.45.38.77.8.94 1.23l-.61.08c.17.4.21.82.11 1.23l.63.04c-.1.44-.35.88-.74 1.3l-.57-.15c-.32.34-.75.65-1.28.93l-.11.05.46.26c-.61.32-1.32.57-2.08.76l-.28-.36c-.7.16-1.43.25-2.17.27l.03.42c-.82.03-1.64-.01-2.44-.14l.24-.44c-.97-.17-1.87-.46-2.62-.89-2.38-1.36-2.25-3.56.32-4.89.53-.28 1.12-.5 1.75-.66l-.33-.42c.77-.18 1.58-.29 2.41-.33l.04.43c.74-.04 1.48-.01 2.2.1l.22-.39c.39.06.78.14 1.15.25.37.1.72.22 1.04.35l-.42.31c.24.09.47.2.69.31.75-.39 1.57-.82 2.43-1.27l-3.7-2.12c-1.56-.89-4.2-.91-5.87-.03l-15.59 8.14c-1.67.87-1.77 2.32-.21 3.21l33.02 18.92c1.56.9 4.2.91 5.87.04l5.3-2.76c-.75-1.03-1.55-1.91-2.26-2.62l-1.6 1.12c.27-.89.09-2.12-.24-3.04 1.36.56 3.28 1.18 4.86 1.42l-2.53.32c.69.69 1.48 1.55 2.23 2.55l9.85-5.14c1.67-.88 1.77-2.32.2-3.22" clip-path="url(#aZ)" fill="#eaeaea"/><defs><path id="ba" d="M85.3 238.46l165.73-87.34 134.33 77.82-165.73 87.34z"/></defs><clipPath id="bb"><use xlink:href="#ba" overflow="visible"/></clipPath><path d="M259.41 205.63c-.9.47-1.71.89-2.42 1.26l2.3.61c-1.65.05-3.82.42-5.42.8.78-.85 1.55-2.02 1.72-2.92l1.01 1.28c.7-.37 1.52-.79 2.42-1.26-.22-.11-.45-.22-.69-.31l-.1.07c-.28-.12-.59-.22-.92-.31-.33-.09-.67-.16-1.01-.21l.04-.06c-.71-.1-1.46-.13-2.2-.1v.03c-.73.03-1.45.12-2.12.28-.63.16-1.22.38-1.75.66-2.56 1.34-2.7 3.53-.32 4.89.75.43 1.65.72 2.62.89l.01-.01c.71.11 1.44.15 2.16.12v.04c.74-.02 1.47-.11 2.17-.27l-.05-.07c.66-.16 1.29-.39 1.83-.67l.12.07.11-.05c.53-.28.96-.59 1.28-.93l-.19-.05c.34-.37.55-.76.65-1.14l.21.01c.1-.41.06-.83-.11-1.23l-.22.03c-.15-.39-.44-.75-.83-1.08l.17-.06c-.14-.1-.3-.21-.47-.31" clip-path="url(#bb)" fill="#f3b1b1"/><defs><path id="bc" d="M85.3 238.46l165.73-87.34 134.33 77.82-165.73 87.34z"/></defs><clipPath id="bd"><use xlink:href="#bc" overflow="visible"/></clipPath><path clip-path="url(#bd)" fill="#c9c9c9" d="M286.4 221.52l-20.68-11.84-2.01 1.04 20.68 11.85 2.01-1.05"/><defs><path id="be" d="M85.3 238.46l165.73-87.34 134.33 77.82-165.73 87.34z"/></defs><clipPath id="bf"><use xlink:href="#be" overflow="visible"/></clipPath><path d="M277.32 222.26l.04-.46c.81.01 1.63.1 2.41.27l-.34.43c-.68-.15-1.39-.23-2.11-.24m4.45.56l-19.66-11.26-2.01 1.05 20.68 11.85 1.42-.74c-.18-.15-.39-.29-.62-.42-.1-.06-.21-.11-.32-.17l.51-.31" clip-path="url(#bf)" fill="#c9c9c9"/><defs><path id="bg" d="M85.3 238.46l165.73-87.34 134.33 77.82-165.73 87.34z"/></defs><clipPath id="bh"><use xlink:href="#bg" overflow="visible"/></clipPath><path d="M273.86 222.24l-15.36-8.8-2.01 1.05 15.45 8.85 1.01-.52-.25-.18c.37-.16.76-.29 1.16-.4" clip-path="url(#bh)" fill="#c9c9c9"/><defs><path id="bi" d="M85.3 238.46l165.73-87.34 134.33 77.82-165.73 87.34z"/></defs><clipPath id="bj"><use xlink:href="#bi" overflow="visible"/></clipPath><path d="M255.31 218.71l-12.94-7.41c-.62-.36-1.68-.36-2.34-.02l-.08.04c-.66.34-.69.92-.07 1.27l12.94 7.41c.62.36 1.66.36 2.32.02l.08-.04c.66-.34.71-.91.09-1.27" clip-path="url(#bj)" fill="#cad2e6"/><defs><path id="bk" d="M85.3 238.46l165.73-87.34 134.33 77.82-165.73 87.34z"/></defs><clipPath id="bl"><use xlink:href="#bk" overflow="visible"/></clipPath><path d="M272.35 228.47l-1.65-.95-.03.01-.06-.06-10.29-5.89c-.61-.35-1.67-.36-2.33-.01l-.08.04c-.66.34-.69.92-.08 1.27l12.95 7.42c.61.35 1.66.36 2.32.02l.08-.04c.6-.31.69-.82.22-1.18-.1-.03-.19-.06-.29-.09-.34-.12-.67-.25-.97-.41l.21-.13" clip-path="url(#bl)" fill="#cad2e6"/><defs><path id="bm" d="M85.3 238.46l165.73-87.34 134.33 77.82-165.73 87.34z"/></defs><clipPath id="bn"><use xlink:href="#bm" overflow="visible"/></clipPath><path d="M224.65 226.46c-.46-.26-.84-.55-1.13-.86l.76-.22c.26.27.59.53 1 .76.1.06.21.12.31.17l-.58.35c-.13-.07-.25-.13-.36-.2m2.43.91l.33-.44c.69.15 1.41.23 2.12.24l-.04.47c-.82-.02-1.63-.1-2.41-.27m-4.29-3.05c-.11-.45-.07-.9.12-1.35l.84.09c-.16.39-.2.79-.1 1.19l-.86.07m9.15 3.12l-.25-.44c.7-.13 1.36-.32 1.94-.57l.52.37c-.67.28-1.42.49-2.21.64m-8.07-5.73l.02-.01c.33-.28.69-.52 1.11-.74.18-.1.38-.18.58-.27l.51.36c-.18.08-.34.15-.51.24-.37.19-.69.41-.98.65l-.01.01-.72-.24m11.25 3.83c.41-.35.69-.72.85-1.1l.84.09c-.18.43-.5.85-.97 1.25l-.72-.24m-7.09-5.04l-.25-.44c.8-.14 1.63-.21 2.45-.2l-.04.47c-.74-.02-1.47.04-2.16.17m8.04 2.74c-.08-.39-.3-.77-.63-1.12l.75-.22c.38.4.62.84.72 1.29l-.84.05m-3.76-2.68l.34-.43c.37.08.74.18 1.09.31.35.12.68.25.97.4l-.58.35c-.26-.13-.55-.25-.86-.35-.31-.12-.64-.2-.96-.28m17.13 3.2L231 213.2l-6.71 3.5c1.49 2.47 3.27 4.48 4.62 5.82l1.63-1.11c-.3.89-.15 2.12.16 3.04-1.35-.57-3.25-1.2-4.82-1.46l2.54-.3c-1.33-1.33-3.09-3.31-4.59-5.75l-13.09 6.83 18.44 10.57 20.26-10.58" clip-path="url(#bn)" fill="#ffe387"/><defs><path id="bo" d="M85.3 238.46l165.73-87.34 134.33 77.82-165.73 87.34z"/></defs><clipPath id="bp"><use xlink:href="#bo" overflow="visible"/></clipPath><path clip-path="url(#bp)" fill="#eaeaea" d="M269.01 234.97l-18.44-10.56-20.26 10.58 18.43 10.56 20.27-10.58"/><g><defs><path id="bq" d="M85.3 238.46l165.73-87.34 134.33 77.82-165.73 87.34z"/></defs><clipPath id="br"><use xlink:href="#bq" overflow="visible"/></clipPath><path clip-path="url(#br)" fill="#eaeaea" d="M228.19 234.85l-18.45-10.56-20.27 10.58 18.45 10.56 20.27-10.58"/></g><g><defs><path id="bs" d="M85.3 238.46l165.73-87.34 134.33 77.82-165.73 87.34z"/></defs><clipPath id="bt"><use xlink:href="#bs" overflow="visible"/></clipPath><path clip-path="url(#bt)" fill="#f9b4b3" d="M247.76 246.06l-18.44-10.56-20.27 10.58 18.44 10.56 20.27-10.58"/></g><g><defs><path id="bu" d="M85.3 238.46l165.73-87.34 134.33 77.82-165.73 87.34z"/></defs><clipPath id="bv"><use xlink:href="#bu" overflow="visible"/></clipPath><path d="M184.89 243.87c-.26-.17-.48-.35-.69-.55-.2-.2-.38-.41-.51-.62l.81-.17c.12.19.27.37.45.54.18.18.39.33.61.49l-.67.31m25.71 14.72l.59-.35c.26.13.54.25.86.36.31.11.64.2.97.27l-.34.43c-.37-.08-.74-.19-1.1-.31-.35-.11-.68-.25-.98-.4m-23.84-13.86l.44-.41c.63.2 1.31.33 2.03.4l-.16.46c-.81-.07-1.6-.23-2.31-.45m22.36 12.81c-.38-.4-.62-.83-.72-1.28l.84-.07c.09.39.31.78.64 1.13l-.76.22m-25.81-16.17c.01-.45.17-.91.47-1.33l.8.16c-.26.37-.4.77-.42 1.17h-.85m31.78 18.2l.04-.46c.74.01 1.47-.05 2.16-.18l.25.44c-.79.15-1.62.22-2.45.2m-23.55-14.4l-.13-.46c.7-.07 1.4-.2 2.06-.41l.42.4c-.76.24-1.55.4-2.35.47m16.98 9.73c.18-.43.5-.86.96-1.26l.71.25c-.4.35-.68.72-.84 1.1l-.83-.09m-23.47-16.03c.16-.11.34-.2.52-.3.42-.22.88-.41 1.4-.58l.03-.01.41.41h-.02c-.45.15-.87.32-1.23.51-.16.08-.31.17-.46.27l-.65-.3m34.69 19.87l-.51-.36c.18-.08.34-.16.5-.24.37-.19.7-.41.98-.65l.01-.01.72.24-.01.01c-.32.28-.7.52-1.12.74-.18.09-.37.19-.57.27m-24.58-15.2c.49-.31.86-.66 1.12-1.03l.8.16c-.3.42-.73.82-1.28 1.17l-.64-.3m16.52 9.46l-.51-.36c.66-.29 1.42-.5 2.21-.64l.25.44c-.7.12-1.35.32-1.95.56m13.07 5.07l-2.93-1.68-.25-.03.04-.09-31.97-18.31-.17.02-.04-.14-2.7-1.54-4.33 2.26c2.63.67 4.83 1.39 6.47 1.99l.77-1.36c.34.88 1.31 1.98 2.23 2.76-1.65-.25-3.87-.45-5.51-.37l2.17-.79c-1.66-.6-3.9-1.33-6.57-2l-6.59 3.44 38.02 21.78 6.01-3.14c-.89-1.64-2-2.99-2.95-3.96l-1.62 1.12c.28-.89.12-2.12-.21-3.04 1.35.57 3.27 1.19 4.84 1.44l-2.53.31c.94.96 2.04 2.28 2.93 3.89l4.89-2.56" clip-path="url(#bv)" fill="#eaeaea"/></g><g><defs><path id="bw" d="M85.3 238.46l165.73-87.34 134.33 77.82-165.73 87.34z"/></defs><clipPath id="bx"><use xlink:href="#bw" overflow="visible"/></clipPath><path clip-path="url(#bx)" fill="#bdc9e7" d="M229.17 299.7l-27.19-15.57-1.84.96 27.19 15.57 1.84-.96"/></g><g><defs><path id="by" d="M85.3 238.46l165.73-87.34 134.33 77.82-165.73 87.34z"/></defs><clipPath id="bz"><use xlink:href="#by" overflow="visible"/></clipPath><path clip-path="url(#bz)" fill="#bdc9e7" d="M225.84 301.44l-31.29-17.92-1.85.96 31.29 17.92 1.85-.96"/></g><g><defs><path id="bA" d="M85.3 238.46l165.73-87.34 134.33 77.82-165.73 87.34z"/></defs><clipPath id="bB"><use xlink:href="#bA" overflow="visible"/></clipPath><path clip-path="url(#bB)" fill="#bdc9e7" d="M222.5 303.18l-31.28-17.92-1.85.96 31.29 17.92 1.84-.96"/></g><g><defs><path id="bC" d="M85.3 238.46l165.73-87.34 134.33 77.82-165.73 87.34z"/></defs><clipPath id="bD"><use xlink:href="#bC" overflow="visible"/></clipPath><path clip-path="url(#bD)" fill="#bdc9e7" d="M232.51 297.96l-20.3-11.63-1.84.97 20.29 11.62 1.85-.96"/></g><g><defs><path id="bE" d="M85.3 238.46l165.73-87.34 134.33 77.82-165.73 87.34z"/></defs><clipPath id="bF"><use xlink:href="#bE" overflow="visible"/></clipPath><path d="M213.02 258.87c-.33-.07-.65-.16-.97-.27-.31-.11-.59-.23-.86-.36l-.59.35c.3.15.63.28.97.4.36.12.73.22 1.1.31l.35-.43m-3.78-2.68l-.84.07c.09.45.34.88.72 1.28l.76-.22c-.33-.36-.55-.74-.64-1.13m8.05 2.74c-.69.12-1.42.18-2.16.18l-.04.46c.83.02 1.66-.05 2.45-.19l-.25-.45m-7.09-5.04l-.71-.25c-.46.4-.78.82-.96 1.26l.84.09c.15-.37.43-.75.83-1.1m11.25 3.83l-.72-.24-.01.01c-.28.24-.62.46-.98.65-.16.08-.33.16-.5.24l.51.36c.2-.08.39-.18.57-.27.42-.22.79-.46 1.12-.74l.01-.01m-8.07-5.72c-.79.14-1.54.36-2.21.64l.51.36c.59-.25 1.25-.44 1.94-.57l-.24-.43m9.15 3.11l-.85.07c.08.36.06.73-.07 1.09l-.04.09.25.03.58.06c.2-.44.23-.9.13-1.34m-4.29-3.04c-.78-.17-1.6-.26-2.41-.27l-.05.47c.72.01 1.43.09 2.12.24l.34-.44m2.43.9c-.12-.07-.24-.14-.37-.2l-.58.35c.11.06.21.11.32.17.4.23.73.48 1 .76l.76-.22c-.29-.31-.67-.6-1.13-.86" clip-path="url(#bF)" fill="#7d90af"/></g><g><defs><path id="bG" d="M85.3 238.46l165.73-87.34 134.33 77.82-165.73 87.34z"/></defs><clipPath id="bH"><use xlink:href="#bG" overflow="visible"/></clipPath><path d="M216.95 256.73l-.3.04-.19.13c.95.98 2.06 2.32 2.95 3.96.39.71.73 1.49 1 2.31.37 1.13.6 2.37.6 3.68v.19c-.06 4.63-2.92 10.27-12.2 16.33l.44.19c9.49-6.19 12.35-11.99 12.34-16.72v-.1c-.02-1.37-.27-2.65-.68-3.83-.28-.82-.63-1.59-1.03-2.3-.9-1.6-2-2.91-2.93-3.88" clip-path="url(#bH)" fill="#ee707a"/></g><g><defs><path id="bI" d="M85.3 238.46l165.73-87.34 134.33 77.82-165.73 87.34z"/></defs><clipPath id="bJ"><use xlink:href="#bI" overflow="visible"/></clipPath><path d="M219.47 256.42c-1.57-.25-3.49-.87-4.84-1.44.32.92.49 2.14.21 3.04l1.62-1.12.19-.13.3-.04 2.52-.31" clip-path="url(#bJ)" fill="#ee707a"/></g><g><defs><path id="bK" d="M85.3 238.46l165.73-87.34 134.33 77.82-165.73 87.34z"/></defs><clipPath id="bL"><use xlink:href="#bK" overflow="visible"/></clipPath><path clip-path="url(#bL)" fill="#e0e4be" d="M146.29 244.7l-27.2-15.58-1.85.96 27.2 15.58 1.85-.96"/></g><g><defs><path id="bM" d="M85.3 238.46l165.73-87.34 134.33 77.82-165.73 87.34z"/></defs><clipPath id="bN"><use xlink:href="#bM" overflow="visible"/></clipPath><path clip-path="url(#bN)" fill="#e0e4be" d="M147.05 248.78l-31.29-17.92-1.85.96 31.3 17.93 1.84-.97"/></g><g><defs><path id="bO" d="M85.3 238.46l165.73-87.34 134.33 77.82-165.73 87.34z"/></defs><clipPath id="bP"><use xlink:href="#bO" overflow="visible"/></clipPath><path clip-path="url(#bP)" fill="#e0e4be" d="M142.72 239l-20.3-11.62-1.84.96 20.3 11.62 1.84-.96"/></g><g><defs><path id="bQ" d="M85.3 238.46l165.73-87.34 134.33 77.82-165.73 87.34z"/></defs><clipPath id="bR"><use xlink:href="#bQ" overflow="visible"/></clipPath><path d="M184.5 242.54l-.81.17c.14.21.31.41.51.62.21.2.43.38.69.55l.67-.3c-.23-.15-.43-.31-.61-.49s-.32-.37-.45-.55m4.73 2.18c-.72-.07-1.4-.2-2.03-.4l-.44.41c.71.22 1.5.38 2.31.45l.16-.46m-4.65-4.52l-.8-.16c-.29.42-.46.88-.47 1.33h.85c.02-.4.16-.8.42-1.17m8.88 4.11c-.65.2-1.35.34-2.06.41l.13.46c.8-.08 1.59-.23 2.34-.47l-.41-.4m-6.46-6.32l-.03.01c-.52.17-.98.36-1.4.58-.18.1-.36.19-.52.3l.65.3c.14-.1.29-.18.46-.27.37-.19.78-.36 1.23-.51h.02l-.41-.41m10.08 4.67l-.8-.16c-.26.37-.64.73-1.12 1.03l.64.3c.55-.35.98-.75 1.28-1.17m-5.27-5.15c-.81-.08-1.64-.07-2.47.01l.09.32.04.14.17-.02c.67-.05 1.34-.05 2 .01l.17-.46m5.36 2.49l-.81.17c.24.38.35.78.33 1.17h.85c.03-.46-.1-.91-.37-1.34m-1.54-1.37c-.45-.26-.96-.48-1.52-.66l-.44.4c.49.16.94.35 1.33.58.11.06.21.12.3.18l.66-.3c-.09-.07-.21-.13-.33-.2" clip-path="url(#bR)" fill="#7d90af"/></g><g><defs><path id="bS" d="M85.3 238.46l165.73-87.34 134.33 77.82-165.73 87.34z"/></defs><clipPath id="bT"><use xlink:href="#bS" overflow="visible"/></clipPath><path d="M188.88 240.54c-1.64-.6-3.84-1.32-6.47-1.99-1.23-.31-2.56-.61-3.96-.88-1.62-.31-3.35-.58-5.16-.77-.24-.03-.48-.05-.72-.07-3.68-.36-7.67-.4-11.77.09-4.1.5-8.34 1.54-12.48 3.36l.35.24c4.08-1.79 8.22-2.81 12.24-3.3 4.15-.5 8.18-.44 11.88-.06 1.69.17 3.31.41 4.84.69.12.02.24.04.36.07 1.41.26 2.74.56 3.98.87 2.67.67 4.92 1.4 6.57 2l.25-.09.09-.16" clip-path="url(#bT)" fill="#ee707a"/></g><g><defs><path id="bU" d="M85.3 238.46l165.73-87.34 134.33 77.82-165.73 87.34z"/></defs><clipPath id="bV"><use xlink:href="#bU" overflow="visible"/></clipPath><path d="M189.65 239.19l-.77 1.36-.09.16-.25.09-2.17.79c1.65-.08 3.87.12 5.51.37-.92-.8-1.9-1.9-2.23-2.77" clip-path="url(#bV)" fill="#ee707a"/></g><g><defs><path id="bW" d="M85.3 238.46l165.73-87.34 134.33 77.82-165.73 87.34z"/></defs><clipPath id="bX"><use xlink:href="#bW" overflow="visible"/></clipPath><path clip-path="url(#bX)" fill="#e5d4bf" d="M306.47 259.57l-29.35-16.82-1.84.96 29.35 16.82 1.84-.96"/></g><g><defs><path id="bY" d="M85.3 238.46l165.73-87.34 134.33 77.82-165.73 87.34z"/></defs><clipPath id="bZ"><use xlink:href="#bY" overflow="visible"/></clipPath><path clip-path="url(#bZ)" fill="#e5d4bf" d="M309.8 257.82l-24.97-14.3-1.85.96 24.98 14.31 1.84-.97"/></g><g><defs><path id="ca" d="M85.3 238.46l165.73-87.34 134.33 77.82-165.73 87.34z"/></defs><clipPath id="cb"><use xlink:href="#ca" overflow="visible"/></clipPath><path d="M274.55 228.87c-.33-.07-.65-.16-.97-.27-.31-.11-.59-.23-.86-.36l-.38.23-.2.12c.3.15.62.29.97.41.1.03.19.06.29.09.27.08.54.15.82.21l.33-.43m-3.77-2.69l-.85.07c.1.42.32.84.67 1.22l.06.06.03-.01.73-.21c-.33-.35-.55-.73-.64-1.13m8.05 2.76c-.69.12-1.42.18-2.15.17l-.05.47c.83.01 1.66-.05 2.45-.19l-.25-.45m-7.08-5.04l-.72-.25c-.46.4-.79.83-.97 1.26l.84.09c.15-.38.44-.75.85-1.1m11.23 3.82l-.71-.25-.01.01c-.28.24-.62.46-.98.65-.16.08-.33.16-.5.24l.51.37c.19-.08.38-.17.57-.27.42-.22.8-.46 1.12-.74v-.01m-8.07-5.72c-.36.06-.71.14-1.05.24-.4.11-.79.25-1.15.4l.25.18.26.19c.59-.25 1.25-.44 1.94-.57l-.25-.44m9.16 3.11l-.85.07c.09.39.06.79-.11 1.19l.83.09c.19-.45.23-.9.13-1.35m-4.3-3.04c-.78-.17-1.6-.26-2.41-.27l-.04.46c.72.01 1.43.09 2.12.24l.33-.43m2.45.9c-.12-.07-.24-.13-.37-.2l-.08.05-.5.3c.11.06.22.11.32.17.23.13.43.27.62.42.14.11.26.22.37.34l.76-.22c-.3-.31-.67-.6-1.12-.86" clip-path="url(#cb)" fill="#7d90af"/></g><g><defs><path id="cc" d="M85.3 238.46l165.73-87.34 134.33 77.82-165.73 87.34z"/></defs><clipPath id="cd"><use xlink:href="#cc" overflow="visible"/></clipPath><path d="M278.5 226.73l-.29.04-.19.14c.71.7 1.51 1.59 2.26 2.62.41.56.8 1.16 1.16 1.8.23.4.44.82.62 1.25.31.71.57 1.45.74 2.22.45 2 .36 4.19-.72 6.47l.54.07c1.14-2.4 1.21-4.72.69-6.81-.17-.71-.41-1.38-.7-2.03-.21-.49-.46-.96-.71-1.41-.36-.64-.76-1.23-1.18-1.79-.74-1.02-1.53-1.89-2.22-2.57" clip-path="url(#cd)" fill="#ee707a"/></g><g><defs><path id="ce" d="M85.3 238.46l165.73-87.34 134.33 77.82-165.73 87.34z"/></defs><clipPath id="cf"><use xlink:href="#ce" overflow="visible"/></clipPath><path d="M281.03 226.41c-1.58-.25-3.5-.86-4.86-1.42.33.92.51 2.14.24 3.04l1.6-1.12.19-.14.29-.04 2.54-.32" clip-path="url(#cf)" fill="#ee707a"/></g><g><defs><path id="cg" d="M85.3 238.46l165.73-87.34 134.33 77.82-165.73 87.34z"/></defs><clipPath id="ch"><use xlink:href="#cg" overflow="visible"/></clipPath><path clip-path="url(#ch)" fill="#bdc9e7" d="M230.68 202.18l-28.9-16.44-1.84.96 28.9 16.45 1.84-.97"/></g><g><defs><path id="ci" d="M85.3 238.46l165.73-87.34 134.33 77.82-165.73 87.34z"/></defs><clipPath id="cj"><use xlink:href="#ci" overflow="visible"/></clipPath><path clip-path="url(#cj)" fill="#bdc9e7" d="M221.39 200.53l-22.94-13.05-1.84.97 22.95 13.05 1.83-.97"/></g><g><defs><path id="ck" d="M85.3 238.46l165.73-87.34 134.33 77.82-165.73 87.34z"/></defs><clipPath id="cl"><use xlink:href="#ck" overflow="visible"/></clipPath><path d="M224.28 225.38l-.76.22c.29.31.67.6 1.13.86.11.06.23.13.36.19l.58-.35c-.11-.05-.21-.11-.31-.17-.41-.22-.74-.48-1-.75m5.26 1.78c-.71-.01-1.43-.09-2.12-.24l-.33.44c.78.17 1.59.25 2.41.27l.04-.47m-5.8-4.1l-.84-.09c-.19.45-.23.91-.12 1.35l.85-.07c-.08-.39-.05-.8.11-1.19m9.89 3.37c-.58.25-1.24.44-1.94.57l.25.44c.79-.15 1.54-.36 2.21-.64l-.52-.37m-8.05-5.74c-.2.08-.4.17-.58.27-.42.22-.78.46-1.11.74l-.02.01.72.24.01-.01c.29-.24.61-.46.98-.65.16-.08.33-.16.51-.24l-.51-.36m11.22 3.84l-.84-.09c-.16.38-.44.75-.85 1.1l.71.25c.47-.41.79-.83.98-1.26m-6.57-4.68c-.83-.01-1.66.06-2.45.2l.25.44c.7-.13 1.43-.18 2.17-.17l.03-.47m5.97 2.04l-.75.22c.33.35.55.73.63 1.12l.85-.06c-.11-.44-.35-.88-.73-1.28m-1.49-1.05c-.29-.15-.62-.28-.97-.4s-.72-.22-1.09-.31l-.34.43c.33.07.66.16.97.27.31.1.59.23.86.35l.57-.34" clip-path="url(#cl)" fill="#7d90af"/></g><g><defs><path id="cm" d="M85.3 238.46l165.73-87.34 134.33 77.82-165.73 87.34z"/></defs><clipPath id="cn"><use xlink:href="#cm" overflow="visible"/></clipPath><path d="M221.88 203.3l-.56-.04c-.84 3-.63 5.88.14 8.5.3 1 .68 1.97 1.11 2.88.38.8.8 1.57 1.25 2.3 1.5 2.44 3.26 4.42 4.59 5.75l.29-.03.2-.13c-1.34-1.34-3.12-3.35-4.62-5.82-.44-.73-.86-1.5-1.23-2.31-.43-.92-.8-1.89-1.08-2.9-.72-2.54-.9-5.31-.09-8.2" clip-path="url(#cn)" fill="#ee707a"/></g><g><defs><path id="co" d="M85.3 238.46l165.73-87.34 134.33 77.82-165.73 87.34z"/></defs><clipPath id="cp"><use xlink:href="#co" overflow="visible"/></clipPath><path d="M230.53 221.41l-1.63 1.11-.2.13-.29.03-2.54.3c1.57.26 3.47.89 4.82 1.46-.31-.91-.46-2.14-.16-3.03" clip-path="url(#cp)" fill="#ee707a"/></g><g><defs><path id="cq" d="M85.3 238.46l165.73-87.34 134.33 77.82-165.73 87.34z"/></defs><clipPath id="cr"><use xlink:href="#cq" overflow="visible"/></clipPath><path clip-path="url(#cr)" fill="#ddd" d="M297.88 195.05L280 184.89l-1.45.76 17.9 10.16 1.43-.76"/></g><g><defs><path id="cs" d="M85.3 238.46l165.73-87.34 134.33 77.82-165.73 87.34z"/></defs><clipPath id="ct"><use xlink:href="#cs" overflow="visible"/></clipPath><path clip-path="url(#ct)" fill="#ddd" d="M305.08 196.3l-26.95-15.33-1.44.76 26.96 15.33 1.43-.76"/></g><g><defs><path id="cu" d="M85.3 238.46l165.73-87.34 134.33 77.82-165.73 87.34z"/></defs><clipPath id="cv"><use xlink:href="#cu" overflow="visible"/></clipPath><path clip-path="url(#cv)" fill="#ddd" d="M308.67 195.5l-28.9-16.45-1.44.76 28.91 16.44 1.43-.75"/></g><g><defs><path id="cw" d="M85.3 238.46l165.73-87.34 134.33 77.82-165.73 87.34z"/></defs><clipPath id="cx"><use xlink:href="#cw" overflow="visible"/></clipPath><path clip-path="url(#cx)" fill="#ddd" d="M311.38 194.08l-28.91-16.44-1.43.75 28.9 16.45 1.44-.76"/></g><g><defs><path id="cy" d="M85.3 238.46l165.73-87.34 134.33 77.82-165.73 87.34z"/></defs><clipPath id="cz"><use xlink:href="#cy" overflow="visible"/></clipPath><path d="M249.16 209.86l-.72.26c.23.19.49.37.78.54.27.16.57.3.9.43l.51-.38c-.28-.12-.55-.24-.79-.38-.25-.14-.47-.3-.68-.47m5.58 1.49c-.71.03-1.44-.01-2.16-.12l-.01.01-.24.44c.8.12 1.63.17 2.44.14l-.03-.42v-.05m-6.52-3.76l-.85-.05c-.1.46-.06.92.12 1.35l.83-.12c-.15-.38-.19-.78-.1-1.18m11.04 3.14l-.46-.26-.12-.07c-.54.28-1.17.5-1.83.67l.05.07.28.36c.77-.2 1.47-.45 2.08-.77m-9.07-5.26l-.58-.33-.03.02c-.58.3-1.08.67-1.46 1.08l-.01.01.76.2.01-.01c.34-.36.78-.68 1.29-.95l.02-.02m11.31 2.87l-.63-.04-.21-.01c-.1.38-.31.77-.65 1.14l.19.05.57.15c.38-.41.63-.85.73-1.29m-7.4-4.28c-.83.03-1.64.14-2.41.33l.33.42c.67-.16 1.39-.26 2.12-.28v-.03l-.04-.44m6.33 1.7l-.56.2-.17.06c.39.33.68.7.83 1.08l.22-.03.61-.08c-.16-.44-.48-.85-.93-1.23m-1.68-.97c-.33-.13-.67-.25-1.04-.35-.38-.1-.77-.18-1.15-.25l-.22.39-.04.06c.34.05.68.13 1.01.21.33.09.64.19.92.31l.1-.07.42-.3" clip-path="url(#cz)" fill="#7d90af"/></g><g><defs><path id="cA" d="M85.3 238.46l165.73-87.34 134.33 77.82-165.73 87.34z"/></defs><clipPath id="cB"><use xlink:href="#cA" overflow="visible"/></clipPath><path d="M285.01 192.26l-.38-.22c-1.87.98-3.86 2.01-5.89 3.07-4.94 2.58-10.13 5.29-14.5 7.57-.97.51-1.9.99-2.78 1.45-.87.45-1.68.88-2.43 1.27-.9.47-1.71.9-2.42 1.26l.12.15.27.07c.7-.37 1.52-.79 2.42-1.26.75-.39 1.57-.82 2.43-1.27.88-.46 1.81-.95 2.78-1.45 4.37-2.28 9.57-4.99 14.5-7.57 2.03-1.06 4.01-2.09 5.88-3.07" clip-path="url(#cB)" fill="#ee707a"/></g><g><defs><path id="cC" d="M85.3 238.46l165.73-87.34 134.33 77.82-165.73 87.34z"/></defs><clipPath id="cD"><use xlink:href="#cC" overflow="visible"/></clipPath><path d="M259.29 207.5l-2.3-.61-.27-.07-.12-.15-1.01-1.28c-.17.9-.94 2.07-1.72 2.92 1.6-.39 3.77-.75 5.42-.81" clip-path="url(#cD)" fill="#ee707a"/></g><path fill="#e8d9c1" d="M97.92 231.05l10.46 1.24-9.42 12.4z"/></g><g><path opacity=".1" d="M268.1 142.26l-44.92 25.01 46.63 26.34 45.04-23.71-15.71-24.15z"/><path fill="#2d888c" d="M276.98 89.73l37.91-20.16 38.09 22.05-4.5 2.39-33.65-19.48-33.41 17.77z"/><path fill="#3ca4b5" d="M276.98 89.73l37.91-20.16-.06 4.96-33.41 17.77z"/><path d="M267.96 89.51l46.91-24.94L362 91.85l-46.91 24.94-47.13-27.28zm85.02 2.11l-38.09-22.05-37.91 20.16 38.09 22.05 37.91-20.16" fill="#61ccf5"/><path d="M281.42 92.3l33.41-17.77 33.65 19.48-33.41 17.77-33.65-19.48z" fill="#50badc"/><g fill="#fff"><path d="M309.25 97.34c.17.82-.18 1.47-1.07 1.94-.74.39-1.58.58-2.51.53-.94-.03-1.8-.29-2.6-.75-.81-.47-1.23-.96-1.25-1.48-.03-.52.33-.97 1.08-1.37.88-.47 2.06-.64 3.54-.51l.23-2.36c-1.2-.12-2.39-.07-3.55.15-1.17.22-2.27.6-3.29 1.14-1.12.59-1.88 1.26-2.31 2.01s-.47 1.5-.14 2.25c.33.76 1.04 1.45 2.11 2.07s2.28 1.04 3.63 1.26 2.7.23 4.06.02c1.37-.2 2.6-.6 3.72-1.19 1.02-.54 1.75-1.14 2.19-1.78.44-.63.58-1.29.41-1.97l-4.25.04zM332.91 87.39c-.17-.51-.58-.96-1.25-1.35-.76-.44-1.57-.69-2.42-.72-.85-.04-1.65.03-2.4.21s-1.6.44-2.55.78c-.74.26-1.31.43-1.68.52-.38.08-.68.06-.89-.06-.45-.26-.21-.63.7-1.12.93-.49 2.17-.86 3.73-1.1l-1.52-2.07c-.83.11-1.68.3-2.54.58s-1.65.61-2.37 1c-1.05.56-1.79 1.13-2.21 1.7-.43.58-.56 1.12-.39 1.63.18.51.6.96 1.26 1.35.77.45 1.57.69 2.42.74.86.05 1.65-.02 2.39-.19s1.6-.43 2.58-.76c.76-.26 1.33-.43 1.73-.52.38-.08.69-.06.91.07.19.11.23.25.12.42s-.42.38-.91.64c-.57.3-1.26.57-2.05.8-.81.23-1.6.39-2.4.49l1.46 2.12c.87-.09 1.81-.3 2.83-.63 1.03-.33 1.98-.72 2.85-1.18 1.05-.56 1.79-1.13 2.21-1.71.43-.59.56-1.13.39-1.64zM321.76 91.3c-.77-.44-1.57-.69-2.42-.72-.85-.04-1.65.03-2.4.21s-1.6.44-2.55.78c-.75.26-1.31.43-1.68.52-.38.08-.67.06-.88-.06-.45-.26-.21-.63.7-1.12.93-.49 2.17-.86 3.73-1.1l-1.52-2.07c-.83.11-1.68.3-2.54.58s-1.64.61-2.37 1c-1.05.56-1.79 1.13-2.22 1.7-.42.57-.55 1.11-.38 1.63.18.51.6.97 1.26 1.35.77.45 1.58.69 2.43.73.85.05 1.65-.02 2.38-.19.74-.18 1.61-.43 2.59-.76.76-.26 1.33-.43 1.72-.51.39-.09.69-.06.92.07.19.11.23.25.12.42s-.42.38-.91.64c-.57.3-1.26.57-2.06.8-.8.23-1.59.39-2.39.48l1.46 2.12c.86-.09 1.8-.3 2.83-.63 1.02-.32 1.97-.72 2.85-1.18 1.05-.56 1.79-1.13 2.21-1.71.42-.58.54-1.12.38-1.63-.18-.51-.59-.96-1.26-1.35z"/></g><path fill="#50badc" d="M361.99 91.96L359.95 146l-46.91 24.94 2.04-54.04z"/><defs><path id="cE" d="M361.99 91.85l-2.04 54.04-46.9 24.94 2.04-54.04z"/></defs><clipPath id="cF"><use xlink:href="#cE" overflow="visible"/></clipPath><path clip-path="url(#cF)" fill="#2d888c" d="M332.38 131.21l-6.19 3.29-.11 2.86 6.19-3.29.11-2.86"/><defs><path id="cG" d="M361.99 91.85l-2.04 54.04-46.9 24.94 2.04-54.04z"/></defs><clipPath id="cH"><use xlink:href="#cG" overflow="visible"/></clipPath><path clip-path="url(#cH)" fill="#2d888c" d="M317.65 124.52l-3.07 1.64-.11 2.86 3.07-1.63.11-2.87"/><defs><path id="cI" d="M361.99 91.85l-2.04 54.04-46.9 24.94 2.04-54.04z"/></defs><clipPath id="cJ"><use xlink:href="#cI" overflow="visible"/></clipPath><path clip-path="url(#cJ)" fill="#2d888c" d="M320.85 120.02l-6.16 3.27-.11 2.87 6.17-3.28.1-2.86"/><g><defs><path id="cK" d="M361.99 91.85l-2.04 54.04-46.9 24.94 2.04-54.04z"/></defs><clipPath id="cL"><use xlink:href="#cK" overflow="visible"/></clipPath><path clip-path="url(#cL)" fill="#2d888c" d="M346.5 143.42l-6.19 3.29-.11 2.86 6.19-3.29.11-2.86"/></g><g><defs><path id="cM" d="M361.99 91.85l-2.04 54.04-46.9 24.94 2.04-54.04z"/></defs><clipPath id="cN"><use xlink:href="#cM" overflow="visible"/></clipPath><path clip-path="url(#cN)" fill="#2d888c" d="M361.99 96.73l-3.09 1.64-.11 2.89 3.09-1.64.11-2.89"/></g><g><defs><path id="cO" d="M361.99 91.85l-2.04 54.04-46.9 24.94 2.04-54.04z"/></defs><clipPath id="cP"><use xlink:href="#cO" overflow="visible"/></clipPath><path clip-path="url(#cP)" fill="#2d888c" d="M360.72 130.42l-6.19 3.29-.11 2.87 6.19-3.29.11-2.87"/></g><g><defs><path id="cQ" d="M361.99 91.85l-2.04 54.04-46.9 24.94 2.04-54.04z"/></defs><clipPath id="cR"><use xlink:href="#cQ" overflow="visible"/></clipPath><path clip-path="url(#cR)" fill="#2d888c" d="M319.7 150.61l-6.17 3.28-.1 2.87 6.16-3.28.11-2.87"/></g><g><defs><path id="cS" d="M361.99 91.85l-2.04 54.04-46.9 24.94 2.04-54.04z"/></defs><clipPath id="cT"><use xlink:href="#cS" overflow="visible"/></clipPath><path clip-path="url(#cT)" fill="#2d888c" d="M350.74 111.53l-6.19 3.3-.11 2.86 6.19-3.29.11-2.87"/></g><path fill="#2d888c" d="M315.08 116.9l-2.04 54.04-47.12-27.28 2.04-54.04z"/><g><defs><path id="cU" d="M315.09 116.79l-2.05 54.15-47.12-27.39 2.04-54.04z"/></defs><clipPath id="cV"><use xlink:href="#cU" overflow="visible"/></clipPath><path d="M278.14 117.91c.46.12.94.31 1.44.6 3.04 1.76 5.39 6.2 5.25 9.89-.14 3.72-2.72 5.3-5.76 3.55s-5.39-6.2-5.25-9.92c.12-3.09 1.95-4.7 4.32-4.12m1.5-.88c-3.7-2.14-6.85-.22-7.02 4.3-.17 4.54 2.7 9.96 6.4 12.1s6.85.22 7.02-4.32c.17-4.52-2.7-9.93-6.4-12.08" clip-path="url(#cV)" fill="#61ccf5"/><defs><path id="cW" d="M315.09 116.79l-2.05 54.15-47.12-27.39 2.04-54.04z"/></defs><clipPath id="cX"><use xlink:href="#cW" overflow="visible"/></clipPath><path d="M278.14 117.91c-2.37-.59-4.2 1.02-4.32 4.12-.14 3.72 2.21 8.16 5.25 9.92s5.62.18 5.76-3.55c-.1 2.54-1.33 4.08-3.06 4.25-.44-.12-.9-.31-1.37-.58-3.04-1.76-5.39-6.2-5.25-9.92.1-2.5 1.3-4.03 2.99-4.24" clip-path="url(#cX)" fill="#3288a5"/><defs><path id="cY" d="M315.09 116.79l-2.05 54.15-47.12-27.39 2.04-54.04z"/></defs><clipPath id="cZ"><use xlink:href="#cY" overflow="visible"/></clipPath><g clip-path="url(#cZ)"><defs><path id="da" d="M286.16 128.53c-.14 3.72-2.72 5.31-5.76 3.55-3.04-1.76-5.39-6.2-5.25-9.92s2.72-5.3 5.76-3.55c3.04 1.75 5.39 6.19 5.25 9.92"/></defs><clipPath id="db"><use xlink:href="#da" overflow="visible"/></clipPath><path d="M279.58 118.51c-.49-.29-.98-.48-1.44-.6-1.7.2-2.9 1.74-2.99 4.24-.14 3.72 2.21 8.16 5.25 9.92.47.27.93.46 1.37.58 1.74-.17 2.97-1.71 3.06-4.25.14-3.69-2.21-8.13-5.25-9.89" clip-path="url(#db)" fill="#fae658"/></g><defs><path id="dc" d="M315.09 116.79l-2.05 54.15-47.12-27.39 2.04-54.04z"/></defs><clipPath id="dd"><use xlink:href="#dc" overflow="visible"/></clipPath><path d="M300.55 123.07c-4.22-2.45-7.85-.2-8.27 4.01l-1.2 31.15 5.65 3.27-3.99-2.31 1.17-30.43c.32-3.51 2.72-5.31 5.6-4.18.31.11.63.26.96.45 3.37 1.95 6 6.84 6.03 11.1l-.5 13.55v.11l-.03.85-.52 13.92v.11l-.03.84-.04 1-1.71-.99 3.37 1.95 1.15-31.17c-.09-4.51-3.4-10.77-7.64-13.23" clip-path="url(#dd)" fill="#61ccf5"/><defs><path id="de" d="M315.09 116.79l-2.05 54.15-47.12-27.39 2.04-54.04z"/></defs><clipPath id="df"><use xlink:href="#de" overflow="visible"/></clipPath><path d="M296.78 160.04l-2.4-1.39c-.02.64-.05 1.41-.05 1.41l.83.48 1.56.95.06-1.45m4.46 2.58l-2.06-1.2-.04 1.47 2.06 1.2.04-1.47m4.2 2.43l-1.71-.99-.04 1 1.71.99.04-1m-8.1-19.88l-2.4-1.39c-.21 5.5-.42 11.06-.53 13.92l2.4 1.39.53-13.92m4.46 2.58l-2.06-1.2-.53 13.92 2.06 1.2.53-13.92m4.19 2.43l-1.7-.98-.53 13.92 1.71.99.52-13.93m-8.01-19.97l-2.46-1.42c-.01.13-.02.28-.02.42-.07 1.84-.29 7.6-.51 13.62l2.4 1.39.03-.83c-.18-.07-.37-.07-.55-.06-.12.09-.28.09-.46 0l-.02-.01-.05-.03-.02-.01c-.2-.11-.36-.33-.43-.54-.08-.17-.12-.34-.11-.5.02-.4.31-.55.67-.34.33.19.6.67.59 1.07l-.01.08c.11 0 .25 0 .41.07l.49-12.93.05.02m4.53 2.63l-2.32-1.35-.53 14.05.53-14.05.12.07-.53 14.05 2.06 1.2.53-14.05.14.08m-2.02-8.27c-.33-.19-.65-.34-.96-.45l.26.11c.23.09.46.2.7.34m0 0c.74.43 1.46 1.03 2.12 1.74-.3-.23-.63-.46-.99-.67-1.51-.84-2.76-.9-3.67-.42l6.64 3.84.13.24-6.91-4c-.48.29-.85.74-1.1 1.3l9.14 5.29.06.2-9.26-5.36c-.19.46-.3.98-.33 1.56l.02-.01 10.04 5.81.02.15c.04.31.08.61.09.92l-1.79-1.04-.53 14.05.53-14.02.14.08-.53 14.02 1.7.98.5-13.55c-.02-4.26-2.65-9.16-6.02-11.11" clip-path="url(#df)" fill="#76663b"/><defs><path id="dg" d="M315.09 116.79l-2.05 54.15-47.12-27.39 2.04-54.04z"/></defs><clipPath id="dh"><use xlink:href="#dg" overflow="visible"/></clipPath><path d="M303.59 163.98l-2.21-1.28-.05 1.44 2.21 1.28.05-1.44m.56-14.87l-2.21-1.28-.53 13.92 2.21 1.28.53-13.92m.57-15l-2.21-1.28-.53 14.05 2.21 1.28.53-14.05" clip-path="url(#dh)" fill="#7d6a47"/><defs><path id="di" d="M315.09 116.79l-2.05 54.15-47.12-27.39 2.04-54.04z"/></defs><clipPath id="dj"><use xlink:href="#di" overflow="visible"/></clipPath><path d="M299.05 161.36l-2.14-1.24-.06 1.43 2.14 1.24.06-1.43m.57-14.87l-2.14-1.24-.53 13.92 2.13 1.24.54-13.92m.56-15l-2.21-1.28.07.04-.49 12.93.05.03c.38.3.8.76.8.76h-.06l.15.26-.22.14-.2-.39s-.19-.33-.51-.54l-.03.84 2.14 1.24.51-14.03" clip-path="url(#dj)" fill="#7d6a47"/><defs><path id="dk" d="M315.09 116.79l-2.05 54.15-47.12-27.39 2.04-54.04z"/></defs><clipPath id="dl"><use xlink:href="#dk" overflow="visible"/></clipPath><path d="M299.17 161.42l-.12-.07-.06 1.43.14.07v-.03l.04-1.4m.56-14.86l-.12-.07-.53 13.92.12.07.53-13.92m.57-15l-.12-.07-.53 14.05.12.07.53-14.05" clip-path="url(#dl)" fill="#594d34"/><g><defs><path id="dm" d="M315.09 116.79l-2.05 54.15-47.12-27.39 2.04-54.04z"/></defs><clipPath id="dn"><use xlink:href="#dm" overflow="visible"/></clipPath><path d="M301.38 162.7l-.14-.08-.05 1.41v.03l.14.08v-.03l.05-1.41m.56-14.87l-.14-.08-.53 13.92.14.08.53-13.92m.57-14.99l-.14-.08-.53 14.05.14.08.53-14.05" clip-path="url(#dn)" fill="#594d34"/></g><g><defs><path id="do" d="M315.09 116.79l-2.05 54.15-47.12-27.39 2.04-54.04z"/></defs><clipPath id="dp"><use xlink:href="#do" overflow="visible"/></clipPath><path d="M303.73 164.06l-.14-.08-.04 1.06.14.08v-.05l.04-1.01m.56-14.86l-.14-.08-.53 13.92.14.08.53-13.92m.57-14.98l-.14-.08-.53 14.02.14.08.53-14.02" clip-path="url(#dp)" fill="#594d34"/></g><g><defs><path id="dq" d="M315.09 116.79l-2.05 54.15-47.12-27.39 2.04-54.04z"/></defs><clipPath id="dr"><use xlink:href="#dq" overflow="visible"/></clipPath><path d="M296.92 160.12l-.14-.08-.06 1.39v.03l.14.08v-.03l.06-1.39m.56-14.87l-.14-.08-.53 13.92.14.08.53-13.92m.02-1.82l-.09-.04-.03.83.14.08.03-.84-.05-.03m.55-13.17l-.07-.04-.07-.04-.49 12.93.07.03.07.05.49-12.93" clip-path="url(#dr)" fill="#594d34"/></g><g><defs><path id="ds" d="M315.09 116.79l-2.05 54.15-47.12-27.39 2.04-54.04z"/></defs><clipPath id="dt"><use xlink:href="#ds" overflow="visible"/></clipPath><path d="M299.79 124.23l-.26-.11c-2.88-1.13-5.28.67-5.6 4.18l-1.19 30.88 1.59.88s.03-.77.05-1.41l-.12-.07v-.13l.03-.71.12-.04c.11-2.85.32-8.41.53-13.92l-.12-.07v-.13l.03-.71.12-.04c.23-6.03.45-11.79.51-13.62 0-.14.01-.28.02-.42l-.29-.17c.04-.27.08-.54.13-.79l.26.15-.26-.15c.58-2.89 2.08-4.56 4.45-3.6" clip-path="url(#dt)" fill="#2f8096"/></g><g><defs><path id="du" d="M315.09 116.79l-2.05 54.15-47.12-27.39 2.04-54.04z"/></defs><clipPath id="dv"><use xlink:href="#du" overflow="visible"/></clipPath><g clip-path="url(#dv)"><defs><path id="dw" d="M305.4 166.05l-12.03-6.96 1.78-29.84c.35-4.04 2.16-6.52 5.34-4.68 3.2 1.85 6 6.84 6.03 11.1l-1.12 30.38"/></defs><clipPath id="dx"><use xlink:href="#dw" overflow="visible"/></clipPath><path clip-path="url(#dx)" fill="#594d34" d="M306.39 134.09l-10.04-5.81h-.02l-.01.11-.11-.07 10.2 5.91-.02-.14"/><defs><path id="dy" d="M305.4 166.05l-12.03-6.96 1.78-29.84c.35-4.04 2.16-6.52 5.34-4.68 3.2 1.85 6 6.84 6.03 11.1l-1.12 30.38"/></defs><clipPath id="dz"><use xlink:href="#dy" overflow="visible"/></clipPath><path clip-path="url(#dz)" fill="#594d34" d="M305.47 164.1l-1.71-.99-.14-.08-2.2-1.28-.15-.08-2.06-1.2-.12-.07-2.13-1.23-.15-.08-2.39-1.39-.13.04 11.18 6.47v-.11"/><defs><path id="dA" d="M305.4 166.05l-12.03-6.96 1.78-29.84c.35-4.04 2.16-6.52 5.34-4.68 3.2 1.85 6 6.84 6.03 11.1l-1.12 30.38"/></defs><clipPath id="dB"><use xlink:href="#dA" overflow="visible"/></clipPath><path clip-path="url(#dB)" fill="#594d34" d="M306.02 149.23l-1.69-.99-.15-.08-2.2-1.27-.14-.09-2.07-1.19-.12-.07-2.13-1.24-.14-.08-2.4-1.39-.12.04 11.16 6.46v-.1"/><defs><path id="dC" d="M305.4 166.05l-12.03-6.96 1.78-29.84c.35-4.04 2.16-6.52 5.34-4.68 3.2 1.85 6 6.84 6.03 11.1l-1.12 30.38"/></defs><clipPath id="dD"><use xlink:href="#dC" overflow="visible"/></clipPath><path clip-path="url(#dD)" fill="#937b43" d="M305.47 164.21l-11.18-6.47-.02.71-.01.13.12.07 2.4 1.39.14.08 2.13 1.24.12.06 2.07 1.2.14.08 2.21 1.28.14.08 1.71.99.03-.84"/><g><defs><path id="dE" d="M305.4 166.05l-12.03-6.96 1.78-29.84c.35-4.04 2.16-6.52 5.34-4.68 3.2 1.85 6 6.84 6.03 11.1l-1.12 30.38"/></defs><clipPath id="dF"><use xlink:href="#dE" overflow="visible"/></clipPath><path d="M306.41 134.23l-10.21-5.91-.6-.35-.26-.15c-.05.25-.09.52-.13.79l.29.17 2.46 1.42 2.21 1.28 2.32 1.35 2.21 1.28 1.79 1.04c0-.3-.04-.61-.08-.92" clip-path="url(#dF)" fill="#937b43"/></g><g><defs><path id="dG" d="M305.4 166.05l-12.03-6.96 1.78-29.84c.35-4.04 2.16-6.52 5.34-4.68 3.2 1.85 6 6.84 6.03 11.1l-1.12 30.38"/></defs><clipPath id="dH"><use xlink:href="#dG" overflow="visible"/></clipPath><path clip-path="url(#dH)" fill="#937b43" d="M306.02 149.33l-11.16-6.46-.03.71-.01.13.12.07 2.4 1.39.14.08 2.14 1.24.11.07 2.07 1.19.14.08 2.21 1.28.14.09 1.7.98.03-.85"/></g><g><defs><path id="dI" d="M305.4 166.05l-12.03-6.96 1.78-29.84c.35-4.04 2.16-6.52 5.34-4.68 3.2 1.85 6 6.84 6.03 11.1l-1.12 30.38"/></defs><clipPath id="dJ"><use xlink:href="#dI" overflow="visible"/></clipPath><path d="M301.47 125.55c-3.25-1.88-5.16-.1-5.27 2.78-.19-.11-.55-.32-.86-.5l.26.15c.21.12.44.25.6.35l.12.07.01-.11c.03-.58.14-1.1.33-1.56l-.05-.03.01-.16.1.06c.25-.57.63-1.01 1.1-1.3l-.14-.08.15-.08.13.08c.91-.47 2.16-.41 3.67.42l-.16-.09" clip-path="url(#dJ)" fill="#594d34"/></g><g><defs><path id="dK" d="M305.4 166.05l-12.03-6.96 1.78-29.84c.35-4.04 2.16-6.52 5.34-4.68 3.2 1.85 6 6.84 6.03 11.1l-1.12 30.38"/></defs><clipPath id="dL"><use xlink:href="#dK" overflow="visible"/></clipPath><path d="M300.49 124.57c-.24-.14-.47-.25-.7-.34-2.38-.96-3.88.71-4.45 3.6.3.18.67.39.86.5.11-2.88 2.02-4.66 5.27-2.78l.16.09c.36.21.68.44.99.67-.67-.71-1.39-1.31-2.13-1.74" clip-path="url(#dL)" fill="#937b43"/></g><g><defs><path id="dM" d="M305.4 166.05l-12.03-6.96 1.78-29.84c.35-4.04 2.16-6.52 5.34-4.68 3.2 1.85 6 6.84 6.03 11.1l-1.12 30.38"/></defs><clipPath id="dN"><use xlink:href="#dM" overflow="visible"/></clipPath><path clip-path="url(#dN)" fill="#594d34" d="M305.86 131.89l-9.14-5.29-.11-.06v.16l.05.03 9.26 5.36-.06-.2"/></g><g><defs><path id="dO" d="M305.4 166.05l-12.03-6.96 1.78-29.84c.35-4.04 2.16-6.52 5.34-4.68 3.2 1.85 6 6.84 6.03 11.1l-1.12 30.38"/></defs><clipPath id="dP"><use xlink:href="#dO" overflow="visible"/></clipPath><path clip-path="url(#dP)" fill="#594d34" d="M304.6 129.06l-6.64-3.84-.13-.08-.15.07.14.09 6.92 4-.14-.24"/></g></g></g><g><defs><path id="dQ" d="M315.09 116.79l-2.05 54.15-47.12-27.39 2.04-54.04z"/></defs><clipPath id="dR"><use xlink:href="#dQ" overflow="visible"/></clipPath><path clip-path="url(#dR)" fill="#217070" d="M284.96 145.48l-6.21-3.6-.11 2.93 6.21 3.6.11-2.93"/></g><g><defs><path id="dS" d="M315.09 116.79l-2.05 54.15-47.12-27.39 2.04-54.04z"/></defs><clipPath id="dT"><use xlink:href="#dS" overflow="visible"/></clipPath><path clip-path="url(#dT)" fill="#217070" d="M315.07 123.19l-3.11-1.8-.11 2.93 3.11 1.8.11-2.93"/></g><g><defs><path id="dU" d="M315.09 116.79l-2.05 54.15-47.12-27.39 2.04-54.04z"/></defs><clipPath id="dV"><use xlink:href="#dU" overflow="visible"/></clipPath><path clip-path="url(#dV)" fill="#217070" d="M314.96 126.12l-3.11-1.8-3.11-1.8-.11 2.93 6.22 3.6.11-2.93"/></g><g><defs><path id="dW" d="M315.09 116.79l-2.05 54.15-47.12-27.39 2.04-54.04z"/></defs><clipPath id="dX"><use xlink:href="#dW" overflow="visible"/></clipPath><path clip-path="url(#dX)" fill="#217070" d="M293.87 113.91l-6.22-3.6-.11 2.93 6.22 3.6.11-2.93"/></g><g><defs><path id="dY" d="M315.09 116.79l-2.05 54.15-47.12-27.39 2.04-54.04z"/></defs><clipPath id="dZ"><use xlink:href="#dY" overflow="visible"/></clipPath><path clip-path="url(#dZ)" fill="#217070" d="M270.76 96.05l-3.09-1.78-.11 2.93 3.09 1.78.11-2.93"/></g><g><defs><path id="ea" d="M315.09 116.79l-2.05 54.15-47.12-27.39 2.04-54.04z"/></defs><clipPath id="eb"><use xlink:href="#ea" overflow="visible"/></clipPath><path clip-path="url(#eb)" fill="#217070" d="M272.56 132.31l-6.19-3.58-.11 2.93 6.19 3.58.11-2.93"/></g><g><defs><path id="ec" d="M315.09 116.79l-2.05 54.15-47.12-27.39 2.04-54.04z"/></defs><clipPath id="ed"><use xlink:href="#ec" overflow="visible"/></clipPath><path clip-path="url(#ed)" fill="#217070" d="M313.91 153.87l-3.11-1.8-.11 2.93 3.11 1.8.11-2.93"/></g><g><defs><path id="ee" d="M315.09 116.79l-2.05 54.15-47.12-27.39 2.04-54.04z"/></defs><clipPath id="ef"><use xlink:href="#ee" overflow="visible"/></clipPath><path d="M296.39 143.32l-.07-.03.05.03.02.01v-.01m.46.01c-.18.01-.34.03-.46 0 .18.09.35.09.46 0m-.43-1.44c-.36-.21-.65-.05-.67.34-.01.16.04.34.11.5-.03-.09-.05-.19-.05-.28.01-.32.23-.43.52-.27.26.15.46.51.45.83.04.03.12.02.21.02l.01-.08c.02-.39-.25-.87-.58-1.06" clip-path="url(#ef)" fill="#c2ab47"/></g><g><defs><path id="eg" d="M315.09 116.79l-2.05 54.15-47.12-27.39 2.04-54.04z"/></defs><clipPath id="eh"><use xlink:href="#eg" overflow="visible"/></clipPath><path d="M296.34 142.19c-.28-.16-.51-.05-.52.27 0 .09.01.18.05.28.08.21.23.43.43.54l.02.01.07.03-.05-.66.45.37c.01-.33-.19-.69-.45-.84" clip-path="url(#eh)" fill="#fae658"/></g><g><defs><path id="ei" d="M315.09 116.79l-2.05 54.15-47.12-27.39 2.04-54.04z"/></defs><clipPath id="ej"><use xlink:href="#ei" overflow="visible"/></clipPath><path clip-path="url(#ej)" fill="#fae658" d="M298.34 143.98l-.28.02.21.39.22-.15-.15-.26"/></g><g><defs><path id="ek" d="M315.09 116.79l-2.05 54.15-47.12-27.39 2.04-54.04z"/></defs><clipPath id="el"><use xlink:href="#ek" overflow="visible"/></clipPath><path d="M297.49 143.14l-.07-.03c-.16-.07-.3-.08-.41-.07-.09 0-.17.01-.21-.02l-.45-.37.05.66v.01c.12.03.28.01.46 0s.37-.01.55.06l.09.04.05.03c.33.21.51.54.51.54l.28-.02h.06s-.42-.46-.8-.76l-.05-.03-.06-.04" clip-path="url(#el)" fill="#fae658"/></g></g><g><path d="M373.61 185.3c-8.33 4.64-18.6 4.49-22.94-.33s-1.11-12.48 7.21-17.12c7.55-4.2 16.69-4.46 21.56-.88l7.92-4.41c1.05-.58 2.35-.56 2.9.04l.39.43c.55.61.14 1.58-.91 2.16l-7.92 4.41c2.68 4.81-.66 11.5-8.21 15.7z" opacity=".12"/><circle cx="389.37" cy="136.04" r="17.59" fill="#c3ce40"/><path d="M400.05 147.37c-6.09 6.09-15.97 6.09-22.07 0-6.09-6.09-6.09-15.97 0-22.07 2.03-2.03 4.48-3.38 7.06-4.06 0 0-7.09 9.98.09 18.17 7.42 8.47 18.55 2.25 18.55 2.25-.75 2.09-1.96 4.04-3.63 5.71z" fill="#93ad3c"/><path d="M389.8 164.86h-.87c-1.22 0-2.22-1-2.22-2.22v-27.32c0-1.22 1-2.22 2.22-2.22h.87c1.22 0 2.22 1 2.22 2.22v27.32c0 1.22-1 2.22-2.22 2.22z" fill="#76653a"/><path d="M390.53 147.5l-.42.56c-.46.62-1.34.75-1.96.29l-8.56-6.36c-.62-.46-.75-1.34-.29-1.96l.42-.56c.46-.62 1.34-.75 1.96-.29l8.56 6.36c.62.46.75 1.34.29 1.96z" fill="#76653a"/></g><g><path fill="#76653a" d="M364.03 196.18l1.12.04 2.4-50.07-1.11-.04z"/><path fill="#3cc6f4" d="M318.74 120.83l1.82 11.31 3.67-5.91z"/><path fill="#d85b30" d="M326.87 128.27l1.92 10.43 4.23-5.84z"/><path fill="#3cc6f4" d="M335.98 134.36l2.11 10.55 4.28-6.86z"/><path fill="#d85b30" d="M345.72 139.72l2.6 10.29 4.16-7.64z"/><path fill="#3cc6f4" d="M355.75 143.35l3.19 10.66 3.98-8.83z"/><path d="M315.21 116.95c10.37 12.3 27.6 25.33 52.34 29.2" fill="none" stroke="#000" stroke-width=".25" stroke-miterlimit="10"/></g><g><path d="M307.18 172.73c-1.86 1.04-7.36 1.88-7.96 1.13-.63-.79 2.57-4 4.44-5.04 1.69-.94 3.74-1 4.83-.2l.53.59c.6 1.08-.14 2.58-1.84 3.52z" opacity=".15"/><path d="M310.07 168.47c0 2.18-1.76 3.94-3.94 3.94s-3.94-1.76-3.94-3.94c0-3.31 2.61-8.34 3.94-8.34s3.94 5.03 3.94 8.34z" fill="#9ccb40"/><path d="M308.53 171.01c-1.36 1.36-3.6 1.38-4.94 0-1.49-1.53-.89-4.01-.44-5.51.18-.62 1.21-2.77 1.56-3.33-.84 3.76-1.08 5.38.48 7.06 1.72 1.84 4.15.5 4.15.5-.17.46-.44.9-.81 1.28z" fill="#76ae42"/></g><g><path d="M287.18 162.73c-1.86 1.04-7.36 1.88-7.96 1.13-.63-.79 2.57-4 4.44-5.04 1.69-.94 3.74-1 4.83-.2l.53.59c.6 1.08-.14 2.58-1.84 3.52z" opacity=".15"/><path d="M290.07 158.47c0 2.18-1.76 3.94-3.94 3.94s-3.94-1.76-3.94-3.94c0-3.31 2.61-8.34 3.94-8.34s3.94 5.03 3.94 8.34z" fill="#9ccb40"/><path d="M288.53 161.01c-1.36 1.36-3.6 1.38-4.94 0-1.49-1.53-.89-4.01-.44-5.51.18-.62 1.21-2.77 1.56-3.33-.84 3.76-1.08 5.38.48 7.06 1.72 1.84 4.15.5 4.15.5-.17.46-.44.9-.81 1.28z" fill="#76ae42"/></g><g><path d="M339.17 164.77s-12.11 5.98-12.3 8.78.69 4.2 5.63 7.03c4.95 2.82 10.78 5.71 14.72 4.57 3.93-1.13 12.16-5.7 12.16-5.7l-.93-8.29-19.28-6.39z" opacity=".15"/><path fill="#7f6a5b" d="M357.51 175.51h1.87v3.95l-1.02.52-.85-.49zM351.8 178.34H353.66v3.96l-1.01.52-.85-.49zM329.51 166.64h1.87v3.96l-1.02.52-.85-.49z"/><path fill="#9b806d" d="M337.19 160.75l-8.88 4.46 24.03 12.8 8.88-4.45z"/><path fill="#776557" d="M328.31 165.21l.02 1.71 24.03 12.8-.02-1.71z"/><path fill="#af9685" d="M352.34 178.01l.02 1.71 8.88-4.45-.02-1.71z"/><path fill="#846d5e" d="M335.96 150.77l.09 10.86 23.69 12.61-.09-10.86z"/><path fill="#af9685" d="M359.74 174.24l1.51-.63-.09-10.85-1.51.62z"/><path fill="#a89283" d="M359.65 163.38l1.51-.62-23.69-12.61-1.51.62z"/><defs><path id="em" d="M361.25 173.61l-.09-10.85-23.69-12.61-1.51.62.09 10.56-7.74 3.88.02 1.71 24.03 12.8 8.88-4.45-.02-1.65z"/></defs><clipPath id="en"><use xlink:href="#em" overflow="visible"/></clipPath><path opacity=".15" clip-path="url(#en)" d="M361.25 158.44l-2.66 2.95-.87.96 1.93 1.03.09 10.86-3.33-1.77-6.21 4.4v1.7l.58 5.22 7.66.82 4.48-4.89v-11.65z"/></g></g><g><path fill="#fff" d="M100.02 142.91l4.25-4.61 5.31-1.53 5.42 1.71 55.79 32.2 2.47 2.67-1.85 2.4-32.63 17.1z"/><path d="M9.34 191.18s-4.01 2.28-1 4.54c2.31 1.74 56.08 32.6 58.03 33.94s5.19.94 9.81-1.48c1.85-.97-2.38.31-5.12-.47-4.1-1.16-7.95-4.17-7.95-4.17l-46.55-26.33-7.22-6.03z" opacity=".15"/><path d="M137.55 156.99c.45.26.43.68-.06.94-.49.25-1.25.25-1.7-.01-.46-.26-.43-.68.06-.94.49-.26 1.25-.25 1.7.01z" fill="#d8e3e9"/><path d="M137.74 156.89c.55.32.52.83-.07 1.13-.58.31-1.51.3-2.06-.02s-.51-.83.07-1.13 1.51-.29 2.06.02zm-1.95 1.02c.45.26 1.22.27 1.7.01.49-.25.51-.67.06-.94-.45-.26-1.22-.27-1.7-.01-.49.26-.51.68-.06.94" fill="#93acc0"/><defs><path id="eo" d="M173.26 173.35l.04 2.51c.01.87-.61 1.75-1.86 2.4l-.04-2.51c1.25-.65 1.88-1.53 1.86-2.4z"/></defs><clipPath id="ep"><use xlink:href="#eo" overflow="visible"/></clipPath><path clip-path="url(#ep)" fill="#99b3c0" d="M173.26 173.35l.04 2.51v.01l-.04-2.51v-.01"/><defs><path id="eq" d="M173.26 173.35l.04 2.51c.01.87-.61 1.75-1.86 2.4l-.04-2.51c1.25-.65 1.88-1.53 1.86-2.4z"/></defs><clipPath id="er"><use xlink:href="#eq" overflow="visible"/></clipPath><path d="M173.26 173.36l.04 2.51c0 .1-.01.2-.02.3l-.04-2.51c.02-.1.02-.2.02-.3" clip-path="url(#er)" fill="#9cb7c4"/><defs><path id="es" d="M173.26 173.35l.04 2.51c.01.87-.61 1.75-1.86 2.4l-.04-2.51c1.25-.65 1.88-1.53 1.86-2.4z"/></defs><clipPath id="et"><use xlink:href="#es" overflow="visible"/></clipPath><path d="M173.24 173.66l.04 2.51c-.02.1-.04.19-.07.29l-.04-2.51c.03-.1.06-.2.07-.29" clip-path="url(#et)" fill="#a0bbc8"/><defs><path id="eu" d="M173.26 173.35l.04 2.51c.01.87-.61 1.75-1.86 2.4l-.04-2.51c1.25-.65 1.88-1.53 1.86-2.4z"/></defs><clipPath id="ev"><use xlink:href="#eu" overflow="visible"/></clipPath><path d="M173.17 173.95l.04 2.51c-.03.1-.07.19-.12.29l-.04-2.51c.05-.1.09-.2.12-.29" clip-path="url(#ev)" fill="#a3becc"/><defs><path id="ew" d="M173.26 173.35l.04 2.51c.01.87-.61 1.75-1.86 2.4l-.04-2.51c1.25-.65 1.88-1.53 1.86-2.4z"/></defs><clipPath id="ex"><use xlink:href="#ew" overflow="visible"/></clipPath><path d="M173.06 174.23l.04 2.51c-.05.1-.11.2-.17.29l-.04-2.51c.06-.09.12-.19.17-.29" clip-path="url(#ex)" fill="#a6c2cf"/><defs><path id="ey" d="M173.26 173.35l.04 2.51c.01.87-.61 1.75-1.86 2.4l-.04-2.51c1.25-.65 1.88-1.53 1.86-2.4z"/></defs><clipPath id="ez"><use xlink:href="#ey" overflow="visible"/></clipPath><path d="M172.88 174.53l.04 2.51c-.07.11-.16.21-.25.31l-.04-2.51c.1-.1.18-.21.25-.31" clip-path="url(#ez)" fill="#a9c5d3"/><g><defs><path id="eA" d="M173.26 173.35l.04 2.51c.01.87-.61 1.75-1.86 2.4l-.04-2.51c1.25-.65 1.88-1.53 1.86-2.4z"/></defs><clipPath id="eB"><use xlink:href="#eA" overflow="visible"/></clipPath><path d="M172.63 174.84l.04 2.51c-.11.12-.24.24-.37.35l-.04-2.51c.14-.11.26-.23.37-.35" clip-path="url(#eB)" fill="#acc9d7"/></g><g><defs><path id="eC" d="M173.26 173.35l.04 2.51c.01.87-.61 1.75-1.86 2.4l-.04-2.51c1.25-.65 1.88-1.53 1.86-2.4z"/></defs><clipPath id="eD"><use xlink:href="#eC" overflow="visible"/></clipPath><path d="M172.26 175.19l.04 2.51c-.22.18-.48.36-.78.52l-.04-2.51c.3-.16.56-.33.78-.52" clip-path="url(#eD)" fill="#afccdb"/></g><g><defs><path id="eE" d="M173.26 173.35l.04 2.51c.01.87-.61 1.75-1.86 2.4l-.04-2.51c1.25-.65 1.88-1.53 1.86-2.4z"/></defs><clipPath id="eF"><use xlink:href="#eE" overflow="visible"/></clipPath><path clip-path="url(#eF)" fill="#b2d0de" d="M171.48 175.71l.04 2.51-.07.04-.04-2.51.07-.04"/></g><path fill="#95b5c4" d="M159.74 176.14L156 178.1l-51.73-29.87.19-4z"/><g><defs><path id="eG" d="M8.39 192.5l-.04-2.51c.01.78.53 1.55 1.57 2.15l.04 2.51c-1.04-.6-1.56-1.38-1.57-2.15z"/></defs><clipPath id="eH"><use xlink:href="#eG" overflow="visible"/></clipPath><g clip-path="url(#eH)"><defs><path id="eI" d="M8.35 189.99h1.61v4.65H8.35z"/></defs><clipPath id="eJ"><use xlink:href="#eI" overflow="visible"/></clipPath><path d="M9.92 192.14l.04 2.51c-1.04-.6-1.56-1.37-1.57-2.15l-.04-2.51c.01.78.53 1.55 1.57 2.15" clip-path="url(#eJ)" fill="#90a8b5"/></g></g><path fill="#57b3e1" d="M156 178.1l-25.18 13.2-27.94-16.14 1.38-26.92z"/><path fill="#42bfec" d="M104.26 148.24l-1.38 26.92 27.94 16.14-27.94-16.14-53.34 27.96-23.79-13.74z"/><path fill="#b9cbd3" d="M104.46 144.23l-.2 4.01-78.51 41.14 23.79 13.74-27.34-15.78z"/><path d="M47.64 204.46c1.39.8 1.31 2.09-.18 2.87s-3.83.76-5.22-.04c-1.39-.8-1.31-2.09.18-2.87 1.49-.78 3.83-.77 5.22.04zm-5.22 2.73c1.3.75 3.48.77 4.87.04 1.39-.73 1.46-1.93.17-2.68-1.3-.75-3.48-.77-4.87-.04-1.39.73-1.47 1.93-.17 2.68" fill="#93acc0"/><path d="M47.45 204.55c1.3.75 1.22 1.95-.17 2.68-1.39.73-3.58.71-4.87-.04-1.3-.75-1.22-1.95.17-2.68 1.39-.72 3.58-.71 4.87.04z" fill="#d8e3e9"/><path d="M171.7 171.21c2.2 1.27 2.07 3.31-.29 4.54l-95.26 49.92c-2.35 1.23-6.06 1.21-8.25-.06L9.93 192.14c-2.2-1.27-2.08-3.31.28-4.54l95.26-49.92c2.35-1.23 6.07-1.21 8.27.06l57.96 33.47zm-96.24 54.07l95.26-49.92c1.95-1.02 2.06-2.71.24-3.77l-57.97-33.47c-1.82-1.05-4.9-1.08-6.86-.05l-95.26 49.92c-1.95 1.02-2.05 2.71-.23 3.77l57.97 33.47c1.84 1.05 4.91 1.07 6.85.05" fill="#e0eef3"/><path fill="#52c8eb" d="M102.88 175.16l-53.34 27.96 27.94 16.13 53.34-27.95z"/><path fill="#92abb7" d="M67.89 225.61l.04 2.51-57.97-33.47-.04-2.51z"/><path fill="#b0d0de" d="M171.41 175.75l.04 2.51-95.26 49.92-.04-2.51z"/><g><defs><path id="eK" d="M76.15 225.67l.04 2.51c-2.35 1.23-6.06 1.21-8.25-.06l-.04-2.51c2.19 1.27 5.89 1.3 8.25.06z"/></defs><clipPath id="eL"><use xlink:href="#eK" overflow="visible"/></clipPath><path d="M76.15 225.67l.04 2.51c-.33.17-.68.32-1.06.44l-.04-2.51c.37-.12.73-.26 1.06-.44" clip-path="url(#eL)" fill="#b2d0de"/><defs><path id="eM" d="M76.15 225.67l.04 2.51c-2.35 1.23-6.06 1.21-8.25-.06l-.04-2.51c2.19 1.27 5.89 1.3 8.25.06z"/></defs><clipPath id="eN"><use xlink:href="#eM" overflow="visible"/></clipPath><path d="M75.09 226.12l.04 2.51c-.35.12-.72.21-1.09.28L74 226.4c.37-.07.74-.17 1.09-.28" clip-path="url(#eN)" fill="#afccdb"/><defs><path id="eO" d="M76.15 225.67l.04 2.51c-2.35 1.23-6.06 1.21-8.25-.06l-.04-2.51c2.19 1.27 5.89 1.3 8.25.06z"/></defs><clipPath id="eP"><use xlink:href="#eO" overflow="visible"/></clipPath><path d="M73.99 226.4l.04 2.51c-.24.05-.48.08-.72.11l-.04-2.51c.25-.03.49-.07.72-.11" clip-path="url(#eP)" fill="#acc9d7"/><defs><path id="eQ" d="M76.15 225.67l.04 2.51c-2.35 1.23-6.06 1.21-8.25-.06l-.04-2.51c2.19 1.27 5.89 1.3 8.25.06z"/></defs><clipPath id="eR"><use xlink:href="#eQ" overflow="visible"/></clipPath><path d="M73.27 226.51l.04 2.51c-.2.02-.4.04-.61.05l-.04-2.51c.21-.01.41-.03.61-.05" clip-path="url(#eR)" fill="#a9c5d3"/><g><defs><path id="eS" d="M76.15 225.67l.04 2.51c-2.35 1.23-6.06 1.21-8.25-.06l-.04-2.51c2.19 1.27 5.89 1.3 8.25.06z"/></defs><clipPath id="eT"><use xlink:href="#eS" overflow="visible"/></clipPath><path d="M72.67 226.56l.04 2.51c-.19.01-.38.02-.56.02l-.04-2.51c.18 0 .37-.01.56-.02" clip-path="url(#eT)" fill="#a6c2cf"/></g><g><defs><path id="eU" d="M76.15 225.67l.04 2.51c-2.35 1.23-6.06 1.21-8.25-.06l-.04-2.51c2.19 1.27 5.89 1.3 8.25.06z"/></defs><clipPath id="eV"><use xlink:href="#eU" overflow="visible"/></clipPath><path d="M72.1 226.58l.04 2.51c-.18 0-.36 0-.54-.01l-.04-2.51c.19.01.36.01.54.01" clip-path="url(#eV)" fill="#a3becc"/></g><g><defs><path id="eW" d="M76.15 225.67l.04 2.51c-2.35 1.23-6.06 1.21-8.25-.06l-.04-2.51c2.19 1.27 5.89 1.3 8.25.06z"/></defs><clipPath id="eX"><use xlink:href="#eW" overflow="visible"/></clipPath><path d="M71.57 226.57l.04 2.51c-.17-.01-.35-.02-.52-.04l-.04-2.51c.17.02.34.03.52.04" clip-path="url(#eX)" fill="#a0bbc8"/></g><g><defs><path id="eY" d="M76.15 225.67l.04 2.51c-2.35 1.23-6.06 1.21-8.25-.06l-.04-2.51c2.19 1.27 5.89 1.3 8.25.06z"/></defs><clipPath id="eZ"><use xlink:href="#eY" overflow="visible"/></clipPath><path d="M71.05 226.53l.04 2.51c-.18-.02-.35-.04-.52-.06l-.04-2.51c.17.03.34.05.52.06" clip-path="url(#eZ)" fill="#9cb7c4"/></g><g><defs><path id="fa" d="M76.15 225.67l.04 2.51c-2.35 1.23-6.06 1.21-8.25-.06l-.04-2.51c2.19 1.27 5.89 1.3 8.25.06z"/></defs><clipPath id="fb"><use xlink:href="#fa" overflow="visible"/></clipPath><path d="M70.52 226.47l.04 2.51c-.18-.03-.36-.06-.54-.1l-.04-2.51c.18.04.36.07.54.1" clip-path="url(#fb)" fill="#99b3c0"/></g><g><defs><path id="fc" d="M76.15 225.67l.04 2.51c-2.35 1.23-6.06 1.21-8.25-.06l-.04-2.51c2.19 1.27 5.89 1.3 8.25.06z"/></defs><clipPath id="fd"><use xlink:href="#fc" overflow="visible"/></clipPath><path d="M69.99 226.38l.04 2.51c-.19-.04-.38-.09-.57-.14l-.04-2.51c.19.05.38.1.57.14" clip-path="url(#fd)" fill="#96b0bd"/></g><g><defs><path id="fe" d="M76.15 225.67l.04 2.51c-2.35 1.23-6.06 1.21-8.25-.06l-.04-2.51c2.19 1.27 5.89 1.3 8.25.06z"/></defs><clipPath id="ff"><use xlink:href="#fe" overflow="visible"/></clipPath><path d="M69.42 226.24l.04 2.51c-.23-.06-.45-.14-.66-.22l-.04-2.51c.21.08.43.15.66.22" clip-path="url(#ff)" fill="#93acb9"/></g><g><defs><path id="fg" d="M76.15 225.67l.04 2.51c-2.35 1.23-6.06 1.21-8.25-.06l-.04-2.51c2.19 1.27 5.89 1.3 8.25.06z"/></defs><clipPath id="fh"><use xlink:href="#fg" overflow="visible"/></clipPath><path d="M68.76 226.02l.04 2.51c-.31-.12-.6-.25-.87-.41l-.04-2.51c.27.15.56.29.87.41" clip-path="url(#fh)" fill="#90a8b5"/></g></g><path d="M49.37 168.02c-.64-2.21-1.82-3.84-3.78-4.78-.43-.21-.87-.33-1.31-.33-.53 0-1.06.19-1.5.57-.67.58-1.18 1.55-1.54 2.99-.08.32-.15.66-.21 1.03-.48-.44-1.02-.82-1.65-1.12-.44-.21-.89-.34-1.34-.34-.54 0-1.08.19-1.54.58-.69.59-1.21 1.58-1.58 3.06-.33 1.32-.53 3.04-.57 5.24l.76-.4c.08-2.74.42-4.66.92-5.88.28-.7.61-1.17.95-1.45.34-.29.67-.4 1.05-.4.31 0 .65.09 1.01.26.74.36 1.34.82 1.85 1.37-.11.92-.19 1.97-.21 3.17l.74-.39c.02-.7.06-1.35.11-1.95.41.63.73 1.37.98 2.22.63 2.13.8 4.96.8 8.49v13.29c0 .21.17.38.38.38s.38-.17.38-.38v-2.72l5.37-2.85v1.82c0 .2.16.37.37.37.2 0 .37-.16.37-.37v-12.99c0-3.46-.16-6.28-.81-8.49zm.08 18.54l-5.37 2.85v-2.87l5.37-2.85v2.87zm0-4l-5.37 2.85v-2.87l5.37-2.85v2.87zm0-6.03v2.03l-5.37 2.85v-1.44c0-.49 0-.96-.01-1.42l5.38-2.86v.84zm-6.21-5.26c-.35-1.21-.87-2.25-1.57-3.1.16-1.13.39-2.04.66-2.71.28-.68.6-1.14.93-1.42s.66-.39 1.02-.39c.3 0 .63.08.99.26 1.76.86 2.77 2.24 3.39 4.32.49 1.67.7 3.79.76 6.35l-5.39 2.86c-.07-2.42-.29-4.47-.79-6.17z" fill="#595a5a"/><path d="M104.26 148.24l-1.38 26.92 27.95 16.13-27.95-16.13-53.34 27.96-23.79-13.73 17.58-9.21v1.57s.08.01.38-.11.36-.22.36-.22l-.01-1.63 5.38-2.82v1.48s.17-.02.38-.09.36-.2.36-.2v-1.57l54.08-28.35z" opacity=".85" fill="#42bfec"/><g><path d="M109.12 184.65c-4.66 1.72-15.2 4.96-17.07 3.24-1.64-1.52 6.18-7.62 10.83-9.33 4.65-1.72 10.89 4.38 6.24 6.09z" opacity=".05"/><circle cx="104.8" cy="176.77" r="8.98" fill="#fae658"/><path d="M112.59 179.84c.23.04.55.11.65 0 0 0-.06.16-.07.18-.18.45-.39.89-.63 1.3-.01.02-.09.17-.22.36.06-.27.02-.57-.24-.8-.2-.68.29-1.08.51-1.04zM111.43 181.21c-.16.47-2.31 4.4-6.63 4.55-4.96.17-8.98-4.02-8.98-8.98 0-.62.06-1.23.18-1.81 2.97 6.16 12.05 5.72 15.26 5.04 1.16-.25.36.65.17 1.2zM112.65 179.1c-.3-.14-.3-.01-.73-.25-2.09-6.49-9.45-10.35-12.92-8.93.57-.5 1.28-.92 1.55-1.06 1.27-.68 2.72-1.07 4.26-1.07 2.67 0 5.07 1.17 6.72 3.02 1.27 1.43 2.09 3.27 2.24 5.29.01.22-.36 2-1.12 3z" fill="#f0717a"/><path d="M109.12 184.65c-1.28.7-2.75 1.1-4.32 1.1-4.96 0-8.98-4.02-8.98-8.98 0-3.72 2.26-6.91 5.48-8.27-4.37 5.71-1.3 15.87 7.82 16.15z" opacity=".1"/><ellipse transform="matrix(.3626 -.932 .932 .3626 -96.3249 219.019)" cx="111.95" cy="179.93" rx="1.35" ry=".61" fill="#fff"/></g></g><g><path opacity=".12" d="M143.78 140.47l-23.91 12.66 39.87 23.01-21.65 11.35 7.47 4.33 45.75-24.28-9.24-29.55z"/><path fill="#a83f5a" d="M154.84 86.65l37.92-20.16 38.08 22.05-4.5 2.39-33.65-19.48-33.41 17.77z"/><path fill="#c64f63" d="M154.84 86.65l37.92-20.16-.07 4.96-33.41 17.77z"/><path d="M159.28 89.22l33.41-17.77 33.65 19.48-33.41 17.77-33.65-19.48z" fill="#dc6170"/><g fill="#fff"><path d="M208.75 82.31l-3.19 1.7-5.25-3.04-2.38 1.27 7.11 4.11 5.58-2.96zM194.79 83.9l1.55 3.39-6.09-.97-1.96 1.04 7.11 4.12 2.17-1.16-3.13-1.81 4.02.62 1.05-.56-1.06-2.31 3.26 1.86 2.17-1.15-7.13-4.11zM189.53 88.76l-1.86-1.07-6.53 3.47 1.86 1.08 2.07-1.11 5.26 3.04 2.38-1.26-5.26-3.04zM178.14 92.76l2.52 1.46-2.2 1.17-2.52-1.46-2.39 1.27 7.11 4.11 2.39-1.27-2.62-1.51 2.2-1.17 2.62 1.51 2.38-1.27-7.1-4.11z"/></g><path fill="#dc6170" d="M239.86 88.77l-2.05 54.39-46.9 24.59 2.04-54.04z"/><defs><path id="fi" d="M239.86 88.77l-2.04 54.04-46.91 24.94 2.04-54.04z"/></defs><clipPath id="fj"><use xlink:href="#fi" overflow="visible"/></clipPath><path clip-path="url(#fj)" fill="#a83f5a" d="M233.67 99.47l5.99-3.18-.1 2.84-3.47 1.84-2.52 1.34.1-2.84"/><defs><path id="fk" d="M239.86 88.77l-2.04 54.04-46.91 24.94 2.04-54.04z"/></defs><clipPath id="fl"><use xlink:href="#fk" overflow="visible"/></clipPath><path clip-path="url(#fl)" fill="#a83f5a" d="M191.03 160.45l5.49-2.93-.1 2.87-5.5 2.92.11-2.86"/><defs><path id="fm" d="M239.86 88.77l-2.04 54.04-46.91 24.94 2.04-54.04z"/></defs><clipPath id="fn"><use xlink:href="#fm" overflow="visible"/></clipPath><path clip-path="url(#fn)" fill="#a83f5a" d="M235.43 137.44l2.73-1.45-.1 2.84-2.74 1.45.11-2.84"/><g><defs><path id="fo" d="M239.86 88.77l-2.04 54.04-46.91 24.94 2.04-54.04z"/></defs><clipPath id="fp"><use xlink:href="#fo" overflow="visible"/></clipPath><path clip-path="url(#fp)" fill="#a83f5a" d="M192.51 121.36l5.51-2.93-.1 2.84-5.52 2.93.11-2.84"/></g><g><defs><path id="fq" d="M239.86 88.77l-2.04 54.04-46.91 24.94 2.04-54.04z"/></defs><clipPath id="fr"><use xlink:href="#fq" overflow="visible"/></clipPath><path clip-path="url(#fr)" fill="#a83f5a" d="M205.49 142.71l1.48.68 18.53-9.85v1.92l-18.86 10.02-1.25-.56.1-2.21"/></g><g><defs><path id="fs" d="M239.86 88.77l-2.04 54.04-46.91 24.94 2.04-54.04z"/></defs><clipPath id="ft"><use xlink:href="#fs" overflow="visible"/></clipPath><path clip-path="url(#ft)" fill="#a83f5a" d="M222.36 113.31l1.2-.64-.78 20.77-15.18 8.07.12-3.16 12.59-6.69.22-5.97 1.39-.74.44-11.64"/></g><g><defs><path id="fu" d="M239.86 88.77l-2.04 54.04-46.91 24.94 2.04-54.04z"/></defs><clipPath id="fv"><use xlink:href="#fu" overflow="visible"/></clipPath><path clip-path="url(#fv)" fill="#fae658" d="M207.94 132.38l12.59-6.69-.22 5.97-12.59 6.69.22-5.97"/></g><g><defs><path id="fw" d="M239.86 88.77l-2.04 54.04-46.91 24.94 2.04-54.04z"/></defs><clipPath id="fx"><use xlink:href="#fw" overflow="visible"/></clipPath><path clip-path="url(#fx)" fill="#61ccf5" d="M208.38 120.74l13.98-7.43-.44 11.64-1.39.74-12.59 6.69.44-11.64"/></g><g><defs><path id="fy" d="M239.86 88.77l-2.04 54.04-46.91 24.94 2.04-54.04z"/></defs><clipPath id="fz"><use xlink:href="#fy" overflow="visible"/></clipPath><path clip-path="url(#fz)" fill="#a83f5a" d="M230.57 103.9l3-1.59 2.52-1.34-.11 2.86-5.52 2.94.11-2.87"/></g><path d="M145.82 86.43l46.91-24.94 47.13 27.28-46.91 24.94-47.13-27.28zm85.02 2.11l-38.09-22.05-37.91 20.16 38.08 22.05 37.92-20.16" fill="#f0717a"/><path fill="#a83f5a" d="M192.95 113.71l-2.04 54.04-47.13-27.28 2.04-54.04z"/><g><defs><path id="fA" d="M192.95 113.71l-2.04 54.04-47.13-27.28 2.04-54.04z"/></defs><clipPath id="fB"><use xlink:href="#fA" overflow="visible"/></clipPath><path d="M153.63 107.75l10.2 5.9-.59 15.63-.08 2.05-12.55-7.26.67-17.68 2.35 1.36m11.5 5.04l-15.04-8.71-.79 20.83 15.04 8.71.79-20.83" clip-path="url(#fB)" fill="#f0717a"/><defs><path id="fC" d="M192.95 113.71l-2.04 54.04-47.13-27.28 2.04-54.04z"/></defs><clipPath id="fD"><use xlink:href="#fC" overflow="visible"/></clipPath><path d="M172.65 137.71c-.4-.23-.7-.83-.68-1.32.02-.47.34-.71.75-.47.38.22.67.81.65 1.28-.02.49-.34.73-.72.51m13.66-12.69l-15.49-8.97-1.52 40.28 15.49 8.97.06-1.67-14-8.1.7-18.46 14 8.1.07-1.84-13.99-8.1.69-18.26 14 8.1-.01-.05" clip-path="url(#fD)" fill="#686e78"/><defs><path id="fE" d="M192.95 113.71l-2.04 54.04-47.13-27.28 2.04-54.04z"/></defs><clipPath id="fF"><use xlink:href="#fE" overflow="visible"/></clipPath><path clip-path="url(#fF)" fill="#76253f" d="M191.5 117.98l-6.05-3.5-.11 2.75 4.58 2.65 1.47.86.11-2.76"/><defs><path id="fG" d="M192.95 113.71l-2.04 54.04-47.13-27.28 2.04-54.04z"/></defs><clipPath id="fH"><use xlink:href="#fG" overflow="visible"/></clipPath><path clip-path="url(#fH)" fill="#76253f" d="M191.34 160.49l-2.89-1.67-.1 2.75 2.89 1.68.1-2.76"/><defs><path id="fI" d="M192.95 113.71l-2.04 54.04-47.13-27.28 2.04-54.04z"/></defs><clipPath id="fJ"><use xlink:href="#fI" overflow="visible"/></clipPath><path clip-path="url(#fJ)" fill="#76253f" d="M192.84 121.57l-1.45-.83-1.47-.86-.1 2.79 2.91 1.69.11-2.79"/><g><defs><path id="fK" d="M192.95 113.71l-2.04 54.04-47.13-27.28 2.04-54.04z"/></defs><clipPath id="fL"><use xlink:href="#fK" overflow="visible"/></clipPath><path clip-path="url(#fL)" fill="#822b43" d="M153.63 107.75l-2.34-1.36-.67 17.69 12.54 7.26.08-2.05-10.2-5.91.59-15.63"/></g><g><defs><path id="fM" d="M192.95 113.71l-2.04 54.04-47.13-27.28 2.04-54.04z"/></defs><clipPath id="fN"><use xlink:href="#fM" overflow="visible"/></clipPath><path clip-path="url(#fN)" fill="#76253f" d="M148.16 96.16l-2.78-1.61-.1 2.76 2.77 1.6.11-2.75"/></g><g><defs><path id="fO" d="M192.95 113.71l-2.04 54.04-47.13-27.28 2.04-54.04z"/></defs><clipPath id="fP"><use xlink:href="#fO" overflow="visible"/></clipPath><path clip-path="url(#fP)" fill="#fae658" d="M163.83 113.66l-10.2-5.91-.59 15.63 10.2 5.91.59-15.63"/></g><g><defs><path id="fQ" d="M192.95 113.71l-2.04 54.04-47.13-27.28 2.04-54.04z"/></defs><clipPath id="fR"><use xlink:href="#fQ" overflow="visible"/></clipPath><path clip-path="url(#fR)" fill="#76253f" d="M156.43 139.69l-5.53-3.2-.1 2.76 5.52 3.2.11-2.76"/></g><g><defs><path id="fS" d="M192.95 113.71l-2.04 54.04-47.13-27.28 2.04-54.04z"/></defs><clipPath id="fT"><use xlink:href="#fS" overflow="visible"/></clipPath><path clip-path="url(#fT)" fill="#86939f" d="M185.55 145.18l-14-8.11-.69 18.47 13.99 8.1.3-7.83-4.3-2.48.06-1.41 4.29 2.49.35-9.23"/></g><g><defs><path id="fU" d="M192.95 113.71l-2.04 54.04-47.13-27.28 2.04-54.04z"/></defs><clipPath id="fV"><use xlink:href="#fU" overflow="visible"/></clipPath><path clip-path="url(#fV)" fill="#86939f" d="M186.31 125.07l-14-8.1-.69 18.26 14 8.1.34-9.13-4.29-2.48.05-1.41 4.3 2.49.29-7.73"/></g><g><defs><path id="fW" d="M192.95 113.71l-2.04 54.04-47.13-27.28 2.04-54.04z"/></defs><clipPath id="fX"><use xlink:href="#fW" overflow="visible"/></clipPath><path clip-path="url(#fX)" fill="#686e78" d="M186.02 132.8l-4.3-2.49-.05 1.41 4.29 2.48.06-1.4"/></g><g><defs><path id="fY" d="M192.95 113.71l-2.04 54.04-47.13-27.28 2.04-54.04z"/></defs><clipPath id="fZ"><use xlink:href="#fY" overflow="visible"/></clipPath><path clip-path="url(#fZ)" fill="#686e78" d="M185.2 154.41l-4.29-2.49-.06 1.41 4.3 2.48.05-1.4"/></g><g><defs><path id="ga" d="M192.95 113.71l-2.04 54.04-47.13-27.28 2.04-54.04z"/></defs><clipPath id="gb"><use xlink:href="#ga" overflow="visible"/></clipPath><path d="M172.71 135.91c-.4-.23-.73 0-.75.47-.02.49.27 1.09.68 1.32.38.22.7-.02.72-.51.02-.47-.27-1.06-.65-1.28" clip-path="url(#gb)" fill="#383d3d"/></g></g><g><path d="M187.5 123.89l-17.05-9.27-4.82 9.9c-.08.11-.14.24-.18.37l-.07.13.02.01c-.03.13-.05.26-.05.4.02.87.74 1.57 1.62 1.55.43-.01.82-.2 1.1-.49l.04.02c-.04.14-.07.29-.07.45.02.87.74 1.57 1.62 1.55.45-.01.85-.22 1.13-.53l.06.03c-.04.15-.07.31-.07.48.02.87.74 1.57 1.62 1.55.46-.01.86-.22 1.14-.53-.05.16-.08.33-.08.51.02.87.74 1.57 1.62 1.55.48-.01.91-.24 1.19-.59l.04.02c-.06.17-.09.35-.09.54.02.87.74 1.57 1.62 1.55.46-.01.86-.22 1.14-.53-.05.16-.08.33-.08.51.02.87.74 1.57 1.62 1.55.51-.01.95-.27 1.23-.64l.05.03 5.7-10.12z" fill="#ebf7f9"/><path fill="#c6d2d3" d="M187.5 123.89l-5.69 10.09 5.27-2.97z"/><path fill="#d5dfe0" d="M168.11 126.51l5.21-10.32.56.3zM170.79 127.97l5.27-10.29.56.3zM173.54 129.5l5.25-10.34.57.31zM176.3 130.97l5.21-10.33.56.31zM178.99 132.54l5.23-10.43.57.31z"/></g><g><path d="M184.49 170.02c-1.86 1.04-7.36 1.88-7.96 1.13-.63-.79 2.57-4 4.44-5.04 1.69-.94 3.74-1 4.83-.2l.53.59c.6 1.08-.15 2.58-1.84 3.52z" opacity=".15"/><path d="M187.38 165.75c0 2.18-1.76 3.94-3.94 3.94s-3.94-1.76-3.94-3.94c0-3.31 2.61-8.34 3.94-8.34s3.94 5.03 3.94 8.34z" fill="#9ccb40"/><path d="M185.83 168.29c-1.36 1.36-3.6 1.38-4.94 0-1.49-1.53-.89-4.01-.44-5.51.18-.62 1.21-2.77 1.56-3.33-.84 3.76-1.08 5.38.48 7.06 1.72 1.84 4.15.5 4.15.5-.16.47-.43.91-.81 1.28z" fill="#76ae42"/></g><g><path d="M164.49 159.02c-1.86 1.04-7.36 1.88-7.96 1.13-.63-.79 2.57-4 4.44-5.04 1.69-.94 3.74-1 4.83-.2l.53.59c.6 1.08-.15 2.58-1.84 3.52z" opacity=".15"/><path d="M167.38 154.75c0 2.18-1.76 3.94-3.94 3.94s-3.94-1.76-3.94-3.94c0-3.31 2.61-8.34 3.94-8.34s3.94 5.03 3.94 8.34z" fill="#9ccb40"/><path d="M165.83 157.29c-1.36 1.36-3.6 1.38-4.94 0-1.49-1.53-.89-4.01-.44-5.51.18-.62 1.21-2.77 1.56-3.33-.84 3.76-1.08 5.38.48 7.06 1.72 1.84 4.15.5 4.15.5-.16.47-.43.91-.81 1.28z" fill="#76ae42"/></g><g><path opacity=".12" d="M242.04 149.77l-32.21 17.88 2.05 1.25 32.29-17.85z"/><path fill="#695a33" d="M222.86 159.45l-.08 3.5-1.2.67.08-3.5z"/><path fill="#5c4f2b" d="M221.58 163.62l-1.54-.64.08-3.5 1.54.64z"/><path fill="#695a33" d="M239.32 150.25l-.08 3.5-1.19.66.08-3.49z"/><path fill="#5c4f2b" d="M238.05 154.41l-1.54-.64.08-3.49 1.54.64z"/><path d="M216.05 149.74l29.51-16.5-.31 13.69-5.93 3.32-1.19.66-15.27 8.54-1.19.67-5.93 3.31.31-13.69z" fill="#22325c"/><g fill="#fff"><path d="M232.51 144.76c-.34-.04-.74.06-1.19.31l-1.95 1.09-.13 5.69 1.95-1.09c.45-.25.85-.59 1.21-1.03.36-.42.63-.91.84-1.44s.31-1.09.32-1.66c.01-.58-.07-1.02-.25-1.34-.19-.31-.45-.49-.8-.53zm-.48 3.86c-.22.4-.51.69-.87.89l-.73.41.07-3.11.73-.41c.36-.2.64-.22.85-.07.21.16.31.48.29.97 0 .49-.12.93-.34 1.32zM220.42 152.58c.17-.23.38-.41.6-.53.38-.21.7-.17.96.12l.76-1.34c-.19-.24-.44-.36-.74-.37-.29-.02-.64.08-1.01.29-.44.24-.82.58-1.17 1.03s-.63.94-.83 1.5c-.21.56-.32 1.12-.33 1.69s.07 1.02.26 1.36c.18.34.45.54.79.6s.72-.03 1.16-.27c.37-.21.72-.5 1.02-.84.31-.35.57-.76.78-1.22l-.72-.51c-.28.59-.61 1.01-.99 1.22-.22.12-.42.17-.59.13-.17-.04-.3-.15-.39-.35-.09-.19-.13-.45-.12-.77.01-.32.06-.63.16-.93s.22-.58.4-.81zM240.86 140.55l-.1 4.22 2.18-3.3zM238.04 142.56l.03-1.25-3.24 1.81-.13 5.69 3.31-1.85.03-1.25-2.16 1.2.03-1.03 1.83-1.03.03-1.2-1.84 1.03.03-.96zM227.04 147.74c-.34-.06-.73.03-1.17.28-.44.24-.83.59-1.19 1.04-.35.45-.63.96-.84 1.51-.21.56-.32 1.12-.33 1.68s.07 1.01.26 1.35.45.54.79.6c.34.06.73-.04 1.17-.28s.83-.59 1.19-1.04.63-.96.85-1.52c.21-.56.32-1.12.33-1.68s-.07-1.01-.26-1.35c-.2-.33-.46-.54-.8-.59zm-.29 3.54c-.1.31-.25.57-.42.8-.17.23-.36.4-.57.52s-.39.15-.56.11-.3-.15-.39-.35c-.09-.19-.14-.45-.13-.76.01-.32.07-.63.17-.93s.24-.57.42-.8c.17-.23.36-.4.57-.51.21-.12.4-.16.56-.12s.3.16.39.35.14.45.13.76c-.01.31-.06.63-.17.93z"/></g><path fill="#19284e" d="M215.74 163.43l-1.54-.63.31-13.69 1.54.63z"/><path fill="#23345e" d="M216.05 149.74l-1.54-.63 29.52-16.5 1.54.64z"/></g></g></svg>