<svg xmlns="http://www.w3.org/2000/svg" viewBox="0 0 650.81 455.34"><linearGradient id="a" gradientUnits="userSpaceOnUse" x1="241.5991" y1="315.727" x2="351.9824" y2="205.3438"><stop offset="0" stop-opacity="0"/><stop offset=".2125"/><stop offset=".8045"/><stop offset=".9987" stop-opacity="0"/></linearGradient><path fill="url(#a)" d="M14.28 88.41l564.89 344.46.13-.21L14.41 88.2"/><linearGradient id="b" gradientUnits="userSpaceOnUse" x1="163.5038" y1="368.2073" x2="233.4058" y2="298.3053"><stop offset="0" stop-opacity="0"/><stop offset=".2125"/><stop offset=".8045"/><stop offset=".9987" stop-opacity="0"/></linearGradient><path fill="url(#b)" d="M19.69 224.39l357.4 217.94.13-.21-357.4-217.94"/><linearGradient id="c" gradientUnits="userSpaceOnUse" x1="361.8527" y1="232.9634" x2="444.0965" y2="150.7196"><stop offset="0" stop-opacity="0"/><stop offset=".2125"/><stop offset=".8045"/><stop offset=".9987" stop-opacity="0"/></linearGradient><path fill="url(#c)" d="M192.58 63.69l420.66 256.52.13-.22L192.71 63.48"/><linearGradient id="d" gradientUnits="userSpaceOnUse" x1="386.79" y1="289.6387" x2="478.2339" y2="381.0825"><stop offset="0" stop-opacity="0"/><stop offset=".2125"/><stop offset=".8045"/><stop offset=".9987" stop-opacity="0"/></linearGradient><path fill="url(#d)" d="M631.05 228.1l-.06-.11-397.08 214.52.12.22 397.08-214.52-.12-.22.06.11-.06-.11-397.08 214.52.12.22 397.08-214.52-.12-.22z"/><linearGradient id="e" gradientUnits="userSpaceOnUse" x1="260.3046" y1="191.2428" x2="401.588" y2="332.5262"><stop offset="0" stop-opacity="0"/><stop offset=".2125"/><stop offset=".8045"/><stop offset=".9987" stop-opacity="0"/></linearGradient><path fill="url(#e)" d="M637.89 96.05l-.05-.11-613.9 331.67.12.22L637.95 96.16l-.11-.22.05.11-.05-.11-613.9 331.67.12.22L637.95 96.16l-.11-.22z"/><linearGradient id="f" gradientUnits="userSpaceOnUse" x1="183.124" y1="136.502" x2="280.8686" y2="234.2465"><stop offset="0" stop-opacity="0"/><stop offset=".2125"/><stop offset=".8045"/><stop offset=".9987" stop-opacity="0"/></linearGradient><path fill="url(#f)" d="M444.24 70.71l-.06-.11L19.69 299.93l.12.22L444.3 70.82l-.12-.22.06.11-.06-.11L19.69 299.93l.12.22L444.3 70.82l-.12-.22z"/><g><path d="M556.91 119.95l-5.55 3.64c-4.84 2.59-12.65 2.4-17.34-.43l-21.75-13.15c-4.69-2.83-4.56-7.28.28-9.87l2.43-1.47 41.93 21.28z" opacity=".15"/><path d="M537.02 84.44c4.98-2.7 13.01-2.5 17.84.45l26.5 15.4s.09 1.99.08 3.82c-.02 1.89-1.29 3.76-3.82 5.13l-23.79 12.9c-4.99 2.7-13.02 2.5-17.85-.45l-23.04-14.08c-2.31-1.41-3.48-3.2-3.54-4.98-.06-1.95.18-4.34.18-4.34l27.44-13.85z" fill="#a691ae"/><path d="M537.02 81.44c4.98-2.7 13.01-2.5 17.84.45l23.04 14.08c4.83 2.95 4.7 7.57-.29 10.27l-23.79 12.9c-4.99 2.7-13.02 2.5-17.85-.45l-23.04-14.08c-4.83-2.95-4.7-7.58.29-10.28l23.8-12.89z" fill="#caaed3"/><path d="M538.05 82.5c4.42-2.39 11.46-2.22 15.73.39l22.32 13.64c4.28 2.61 4.16 6.67-.26 9.06l-23.05 12.49c-4.41 2.39-11.45 2.22-15.73-.4l-22.32-13.64c-4.28-2.61-4.16-6.66.25-9.06l23.06-12.48z" fill="#251b4f"/><path d="M531.93 95.72l24.89 9.64-4.11 2.23-5.84-2.3-5.16 2.8 3.59 3.51-4.1 2.22-14.7-15.16 5.43-2.94zm7.64 10.69l4.51-2.45-5.65-2.4c-1.59-.65-4.16-1.8-5.54-2.42l-.33-.14-.71.38.23.2c.35.31.76.68 1.2 1.05.93.81 1.98 1.73 2.62 2.33l3.67 3.45M561.25 93.85c.85.52 1.35.85 1.67 1.1l-7.45 4.04.36.21c2.33 1.35 4.88 1.41 7.18.16 1.07-.58 1.81-1.2 2.29-1.7l2.66 1.12c-.73.79-1.98 1.71-3.34 2.45-4 2.17-8.7 1.84-13.24-.93-4.59-2.8-5.31-5.97-1.79-7.88 3.18-1.73 7.33-1.22 11.66 1.43zm-3.49 1.43l-.34-.21c-2.39-1.46-4.53-1.88-5.86-1.16-1.53.83-.37 2.37 1.46 3.54l.34.21 4.4-2.38" fill="#caaed3"/><path d="M513.56 227.19l-5.55 3.64c-4.84 2.59-12.65 2.4-17.34-.43l-21.75-13.15c-4.69-2.83-4.56-7.28.28-9.87l2.43-1.47 41.93 21.28z" opacity=".15"/><path d="M493.91 191.5c4.98-2.7 13.01-2.5 17.84.45l26.5 15.4s.11 2.01.08 3.85c-.03 1.88-1.3 3.74-3.82 5.1l-23.79 12.9c-4.99 2.7-13.02 2.5-17.85-.45l-23.04-14.08c-2.22-1.35-3.39-3.06-3.53-4.77-.16-2.02.04-3.92.04-3.92l27.57-14.48z" fill="#cd7128"/><path d="M493.91 188.5c4.98-2.7 13.01-2.5 17.84.45l23.04 14.08c4.83 2.95 4.7 7.57-.29 10.27l-23.79 12.9c-4.99 2.7-13.02 2.5-17.85-.45l-23.04-14.08c-4.83-2.95-4.71-7.58.29-10.28l23.8-12.89z" fill="#f68927"/><path d="M494.76 189.65c4.51-2.45 11.71-2.27 16.08.4l21.99 13.43c4.37 2.67 4.25 6.81-.26 9.26l-22.69 12.3c-4.51 2.45-11.71 2.27-16.08-.4l-21.99-13.43c-4.37-2.67-4.25-6.81.26-9.26l22.69-12.3z" fill="#311c11"/><path d="M491.6 202.38l22.71 8.79-3.65 1.98-5.37-2.11-4.83 2.62 3.3 3.23-3.65 1.98-13.4-13.84 4.89-2.65zm6.99 9.82l4.28-2.32-5.27-2.24c-1.47-.6-3.81-1.65-5.08-2.21l-.37-.16-.74.4.24.22c.32.28.7.62 1.09.96.85.75 1.82 1.6 2.4 2.15l3.45 3.2M517.68 209.29l-13-7.94 3.07-1.66 13 7.93zM502.22 199.43c-.6-.02-1.18-.19-1.63-.48-.5-.29-.75-.62-.75-.96s.25-.65.69-.9c.96-.52 2.22-.46 3.2.14.49.28.74.61.74.95 0 .34-.27.67-.75.93-.41.23-.94.34-1.5.32z" fill="#f68927"/><path d="M438.54 184.48c-5.13 2.67-8.83 4.51-9.91 4.85-6.6 2.09-11.69 2.59-16.53-.37l-59.8-37.42c-4.83-2.95-4.37-6.67-.37-9.9.84-.68 4.09-2.71 8.69-5.49 17.26-10.42 96.58 38.62 77.92 48.33z" opacity=".15"/><path d="M422.67 100.2c4.98-2.7 13.01-2.5 17.85.45l66.62 34.03s.07 7.87.03 9.72c-.04 1.87-1.32 3.72-3.82 5.07l-65.17 35.32c-4.99 2.7-13.02 2.5-17.85-.45l-63.11-38.55c-2.35-1.44-3.53-3.27-3.54-5.09-.01-1.91.1-10.21.1-10.21l68.89-30.29z" fill="#3faabc"/><path d="M422.67 90.2c4.98-2.7 13.01-2.5 17.85.45l63.11 38.55c4.83 2.95 4.7 7.58-.28 10.28l-65.17 35.32c-4.99 2.7-13.02 2.5-17.85-.45l-63.11-38.55c-4.83-2.95-4.7-7.58.29-10.28l65.16-35.32z" fill="#4ac7f0"/><path d="M425.45 91.9c3.41-1.85 8.88-1.71 12.2.31l63.11 38.55c3.31 2.02 3.22 5.17-.19 7.02L435.4 173.1c-3.41 1.85-8.88 1.72-12.19-.31l-63.11-38.55c-3.31-2.02-3.22-5.17.19-7.02l65.16-35.32z" fill="#072730"/><path d="M414.43 122.72c4.21-.19 8.61.93 12.1 3.06 3.85 2.35 5.65 4.86 5.49 7.65-.27 3.21-4.01 6.33-7.14 8.02l-2.6 1.41 13.5 8.25-7.46 4.04-36.95-22.57c2.09-1.61 4.97-3.44 8.02-5.1 5.96-3.21 10.45-4.64 15.04-4.76zm5.21 15.94c4.65-2.52 4.72-5.69.17-8.47-4.43-2.71-9.4-2.94-13.64-.64-.9.49-1.71 1.07-2.15 1.56l-.35.38 13.42 8.19.7-.2c.68-.19 1.25-.5 1.85-.82M437.44 117.22c2.09-1.13 4.31-1.96 6.93-2.58l3.12 3.28c-1.97.41-3.65.99-5.02 1.73-2.88 1.56-2.53 3.28-.98 4.23 1.73 1.06 3.75.98 8.58.24 6.47-1.05 11.28-.54 14.7 1.55 5.33 3.26 4.35 7.46-2.64 11.25-2.5 1.36-5.84 2.54-8.12 2.91l-3.12-3.37c2.16-.43 4.83-1.23 6.77-2.27 2.84-1.54 3.25-3.16 1.14-4.45-1.98-1.21-4.66-1.09-8.88-.43-6.54 1.08-11.08.67-14.29-1.29-5.02-3.06-4.27-7.5 1.81-10.8z" fill="#4ac7f0"/><g><path d="M435.65 316.03c-5.13 2.67-8.83 4.51-9.91 4.85-6.6 2.09-11.69 2.59-16.53-.37l-59.8-37.42c-4.83-2.95-4.37-6.67-.37-9.9.84-.68 4.09-2.71 8.69-5.49 17.25-10.42 96.58 38.61 77.92 48.33z" opacity=".15"/><path d="M419.76 231.7c4.98-2.7 13.01-2.5 17.84.45l66.65 33.33s-.06 8.43 0 10.21c.06 1.95-1.22 3.88-3.82 5.29l-65.17 35.32c-4.98 2.7-13.02 2.5-17.85-.45L354.3 277.3c-2.21-1.35-3.38-3.05-3.53-4.76-.17-2.03-.01-10.48-.01-10.48l69-30.36z" fill="#47658a"/><path d="M419.76 221.7c4.98-2.7 13.01-2.5 17.84.45l63.11 38.55c4.83 2.95 4.7 7.58-.28 10.28l-65.17 35.32c-4.98 2.7-13.02 2.5-17.85-.45L354.3 267.3c-4.83-2.95-4.7-7.58.29-10.28l65.17-35.32z" fill="#5e81bd"/><g fill="#fff"><path d="M408.99 266.26c2.84.27 5.39 1.34 7.66 3.23 1.07.84 1.91 1.79 2.52 2.83.63 1.03.94 2.1.9 3.22.01 1.39-.5 2.56-1.55 3.5-1.05.95-2.31 1.82-3.78 2.61L410.4 284l5.28 4.8-5.02 2.72-19.92-18.12 9.68-5.25c2.88-1.52 5.73-2.15 8.57-1.89zm2.39 6.04c-2.01-1.73-3.86-2.36-5.53-1.88-1.55.44-3.21 1.13-4.97 2.09-.12.06-.24.13-.35.2-.27.17-.53.33-.8.48-.23.13-.48.26-.73.4l8.3 7.56c.16-.07.32-.14.46-.22.17-.09.34-.18.5-.27.12-.06.24-.13.35-.19 2.16-1.17 3.75-2.28 4.76-3.35 1.07-1.15.4-2.75-1.99-4.82M411.9 254.24l5.27 4.84 4.48-2.43c2.51-1.3 4.82-1.99 6.96-2.08 2.16-.1 4.29.79 6.4 2.66l9.23 8.43-5.05 2.74-8.81-8.05c-.93-.84-1.82-1.31-2.71-1.4-.88-.09-1.95.21-3.23.9L420.4 262l11.42 10.39-4.98 2.7-19.92-18.16 4.98-2.69zM451.81 243.05c2.84.26 5.4 1.34 7.67 3.23 1.07.84 1.9 1.79 2.52 2.83.63 1.03.93 2.1.9 3.22.01 1.39-.51 2.56-1.56 3.51-1.04.94-2.3 1.81-3.77 2.61l-4.34 2.35 5.28 4.8-5.02 2.72-19.92-18.12 9.68-5.25c2.87-1.53 5.73-2.17 8.56-1.9zm2.4 6.04c-2.01-1.73-3.86-2.36-5.54-1.88-1.55.43-3.21 1.13-4.97 2.09-.12.06-.24.13-.35.19-.27.17-.52.33-.79.47-.24.13-.48.26-.73.4l8.3 7.56c.17-.07.32-.14.47-.22.17-.09.34-.18.5-.27.12-.06.24-.13.35-.19 2.15-1.17 3.74-2.28 4.76-3.35 1.05-1.13.39-2.73-2-4.8"/></g></g><g><path d="M138.44 347.52l-5.4 3.58c-4.71 2.56-12.31 2.37-16.88-.42l-21.17-12.95c-4.57-2.79-4.44-7.17.28-9.72l2.36-1.44 40.81 20.95z" opacity=".15"/><path d="M118.59 314.36c4.98-2.7 13.01-2.5 17.84.45l24.55 14.21s.05 1.99 0 3.86-1.33 3.69-3.82 5.04l-21.69 11.76c-4.99 2.7-13.02 2.5-17.85-.45L96.6 336.39c-2.2-1.34-3.37-3.04-3.52-4.74-.18-2.03.07-4.22.07-4.22l25.44-13.07z" fill="#ba6628"/><path d="M118.59 311.36c4.98-2.7 13.01-2.5 17.84.45l21.01 12.83c4.83 2.95 4.7 7.58-.28 10.28l-21.69 11.76c-4.99 2.7-13.02 2.5-17.85-.45L96.6 333.39c-4.83-2.95-4.7-7.57.29-10.28l21.7-11.75z" fill="#f68925"/><g fill="#fff"><path d="M108.69 334.7c.3-.16.6-.31.9-.48.4-.22.8-.44 1.22-.66.77.47 1.51.93 2.28 1.39.74-.4 1.45-.79 2.2-1.19-.76-.46-1.49-.91-2.25-1.38.79-.43 1.57-.85 2.37-1.29 2.3 1.4 4.59 2.81 6.9 4.21-.79.43-1.56.85-2.36 1.28-.76-.47-1.51-.92-2.29-1.4-.74.4-1.45.79-2.2 1.19.75.46 1.5.92 2.27 1.39-.8.43-1.58.86-2.39 1.3l-.27-.14c-2.12-1.3-4.25-2.6-6.38-3.89-.21-.12-.23-.2 0-.33zM123.06 326.95c.75.46 1.49.91 2.26 1.38-.68.37-1.36.74-2.07 1.12 1.56.95 3.08 1.88 4.63 2.83-.81.44-1.6.87-2.4 1.3-1.52-.93-3.05-1.86-4.61-2.82-.72.39-1.4.76-2.09 1.13-.76-.47-1.5-.92-2.27-1.39 2.17-1.18 4.35-2.36 6.55-3.55zM124.4 326.18l.03-.01c.32-.16.63-.33.94-.5s.62-.34.92-.51c.25-.13.45-.15.75-.09 1.01.18 2.04.34 3.07.51.13.02.26.04.48.07-.28-.72-.53-1.4-.81-2.07-.08-.18-.02-.29.21-.42.34-.17.66-.34.99-.52.32-.18.65-.35.97-.53.14-.08.25-.12.43 0 2.2 1.35 4.41 2.69 6.6 4.04l.09.08c-.78.42-1.54.84-2.35 1.27-1.11-.68-2.2-1.35-3.31-2.02l-.08.02c.25.77.52 1.53.79 2.34-1.37-.2-2.68-.4-4-.6l-.04.04c1.1.67 2.19 1.34 3.31 2.02-.79.43-1.56.84-2.35 1.28-.09-.06-.2-.11-.29-.17-2.1-1.29-4.2-2.57-6.32-3.85-.27-.16-.27-.25-.03-.38zM133.65 321.18l.03-.02c.3-.15.6-.31.89-.47.29-.16.58-.32.86-.49l.03-.02c.23-.12.38-.13.62.03 1.32.82 2.67 1.64 4 2.45.1.06.19.12.31.19 1.12-.61 2.22-1.2 3.33-1.81.77.47 1.52.93 2.28 1.39-1.89 1.03-3.8 2.06-5.74 3.11-.1-.06-.19-.12-.29-.18-2.11-1.29-4.21-2.58-6.33-3.86-.22-.12-.22-.2.01-.32z"/></g></g><g><path d="M208.36 390.43l-5.4 3.58c-4.71 2.56-12.31 2.37-16.88-.42l-21.17-12.95c-4.57-2.79-4.44-7.17.28-9.72l2.36-1.44 40.81 20.95z" opacity=".15"/><path d="M188.47 357.05c4.98-2.7 13.01-2.5 17.85.45l24.52 14.66s-.04 1.35.02 3.13c.07 1.96-1.21 3.9-3.82 5.32l-21.69 11.76c-4.99 2.7-13.02 2.5-17.85-.45l-21.01-12.83c-2.36-1.44-3.54-3.28-3.54-5.1-.01-1.91.04-3.51.04-3.51l25.48-13.43z" fill="#3789a0"/><path d="M188.47 354.05c4.98-2.7 13.01-2.5 17.85.45l21.01 12.83c4.83 2.95 4.7 7.57-.29 10.27l-21.69 11.76c-4.99 2.7-13.02 2.5-17.85-.45l-21.01-12.83c-4.83-2.95-4.7-7.58.29-10.28l21.69-11.75z" fill="#4dc7f0"/><g fill="#fff"><path d="M178.75 376.5c1.35-.73 2.71-1.46 4.05-2.18.95-.52 1.9-1.03 2.85-1.55.23-.12.36-.13.58.01.67.42 1.35.84 2.05 1.25.2.12.19.2-.01.3-1.28.69-2.55 1.38-3.83 2.06-.23.13-.25.21-.02.36 1.12.67 2.23 1.35 3.32 2.03.24.15.38.14.62.01 1.25-.69 2.53-1.37 3.78-2.06.22-.12.35-.13.57.01.68.43 1.36.84 2.05 1.25.19.12.2.19-.01.3-1.17.63-2.33 1.26-3.5 1.89-1.16.63-2.33 1.26-3.49 1.89-.22.12-.35.1-.55-.02-1.41-.87-2.84-1.74-4.25-2.6-1.4-.86-2.8-1.72-4.21-2.57-.24-.15-.27-.23 0-.38zM195.9 367.21c.21-.11.33-.11.53.01.64.41 1.28.8 1.95 1.19.24.14.19.22-.03.33-.38.2-.76.41-1.13.61l-2.25 1.23c-.1.05-.19.1-.29.16l.04.06c.77.04 1.54.08 2.32.12 1.99.1 4 .19 5.99.3.16.01.35.07.47.14.56.33 1.1.67 1.65 1 .21.12.2.2 0 .3-1.37.74-2.74 1.48-4.1 2.22-1.37.74-2.73 1.48-4.09 2.22-.21.11-.33.12-.53-.01-.63-.4-1.26-.79-1.92-1.17-.24-.14-.25-.22 0-.35.6-.32 1.19-.64 1.78-.96l1.77-.96c.1-.05.19-.11.35-.19-.19-.03-.29-.04-.38-.05-2.6-.13-5.19-.26-7.79-.38-.34-.02-.59-.08-.83-.23-.49-.32-1.01-.63-1.54-.94-.21-.12-.19-.2.01-.3 1.34-.72 2.68-1.45 4.02-2.17 1.32-.72 2.66-1.45 4-2.18zM206.22 361.61c.2-.11.32-.09.5.02.65.41 1.3.81 1.97 1.2.21.12.2.19-.01.3-1.14.61-2.28 1.23-3.42 1.85-.1.05-.19.11-.37.2.22.02.35.04.48.05 2.61.13 5.22.25 7.83.39.22.01.47.08.63.17.55.31 1.06.65 1.61.97.18.11.23.19.01.3-1.37.74-2.74 1.48-4.1 2.22-1.37.74-2.73 1.48-4.09 2.22-.22.12-.35.1-.56-.02-.63-.4-1.26-.79-1.92-1.17-.24-.14-.2-.22.02-.34 1.17-.63 2.34-1.26 3.5-1.89.1-.06.21-.12.32-.17l-.03-.07-.93-.06c-2.4-.12-4.79-.23-7.19-.35-.31-.01-.54-.08-.75-.21-.51-.32-1.02-.64-1.55-.94-.19-.11-.22-.19-.01-.3 1.35-.73 2.69-1.45 4.03-2.18 1.35-.73 2.69-1.46 4.03-2.19z"/></g></g><g><path d="M319.3 378.62c-5.13 2.67-8.83 4.51-9.91 4.85-6.6 2.09-11.69 2.59-16.53-.37l-59.8-37.42c-4.83-2.95-4.37-6.67-.37-9.9.84-.68 4.09-2.71 8.69-5.49 17.25-10.42 96.58 38.62 77.92 48.33z" opacity=".15"/><path d="M303.83 294.16c4.98-2.7 13.01-2.5 17.84.45l66.63 33.28s-.09 8.39.01 10.13c.12 1.99-1.16 3.98-3.81 5.42l-65.17 35.32c-4.98 2.7-13.01 2.5-17.84-.45l-63.11-38.55c-2.17-1.33-3.34-2.99-3.52-4.67-.22-2.05-.02-10.61-.02-10.61l68.99-30.32z" fill="#cccccb"/><path d="M303.83 284.16c4.98-2.7 13.01-2.5 17.84.45l63.11 38.55c4.83 2.95 4.7 7.58-.28 10.28l-65.17 35.32c-4.98 2.7-13.01 2.5-17.84-.45l-63.11-38.55c-4.83-2.95-4.7-7.58.28-10.28l65.17-35.32z" fill="#fff"/><path d="M308.78 304.6c3.41 7.92 6.81 15.84 10.22 23.75.38.89.75 1.77 1.15 2.71-.29-.02-.48-.02-.65-.05-14.89-2.67-29.77-5.34-44.67-8.01 3.48-1.89 6.97-3.78 10.46-5.67 5.75 1.03 11.48 2.05 17.38 3.11-1.49-3.46-2.92-6.82-4.36-10.17 3.5-1.89 6.98-3.78 10.47-5.67z" fill="#37495f"/><path d="M308.78 304.6c3.59-1.94 7.17-3.88 10.76-5.83.19-.1.46-.15.69-.22.04.17.05.33.13.49 6.16 14.35 12.32 28.7 18.48 43.06.08.17.25.33.37.5-.1.05-.19.1-.28.15-.34-.1-.67-.21-1.03-.28-24.43-4.38-48.87-8.76-73.31-13.14-.31-.06-.63-.07-.95-.12.14-.13.24-.28.43-.38 3.58-1.95 7.16-3.89 10.75-5.83l44.67 8.01c.18.03.36.03.65.05-.41-.94-.78-1.82-1.15-2.71-3.39-7.91-6.8-15.83-10.21-23.75z" fill="#3eb882"/></g><g><path d="M208.17 310.3c-5.13 2.67-8.83 4.51-9.91 4.85-6.6 2.09-11.69 2.59-16.53-.37l-59.8-37.42c-4.83-2.95-4.37-6.67-.37-9.9.84-.68 4.09-2.71 8.69-5.49 17.26-10.41 96.58 38.62 77.92 48.33z" opacity=".15"/><path d="M192.11 225.97c4.98-2.7 13.01-2.5 17.85.45l66.63 33.46s.05 8.43.02 10.28c-.03 1.88-1.31 3.72-3.82 5.08l-65.17 35.32c-4.98 2.7-13.01 2.5-17.85-.45l-63.11-38.55c-2.38-1.45-3.56-3.31-3.54-5.15.01-1.89.04-9.43.04-9.43l68.95-31.01z" fill="#b7a03a"/><path d="M192.11 215.97c4.98-2.7 13.01-2.5 17.85.45l63.11 38.55c4.83 2.95 4.7 7.58-.28 10.28l-65.17 35.32c-4.98 2.7-13.01 2.5-17.85-.45l-63.11-38.55c-4.83-2.95-4.7-7.58.28-10.28l65.17-35.32z" fill="#f1dd3f"/><path d="M225.21 248.22c1.3-.71 2.82-1.26 4.59-1.64 2.48-.53 5.01-.41 7.53.05l.13.05c-.55 1.34-1.1 2.67-1.65 4.02-.49-.07-.94-.14-1.4-.19-1.8-.22-3.33.06-4.43.66-.37.2-.69.43-.96.7-1.52 1.48.84 2.93 2.83 2.95.78.01 1.59-.05 2.33-.18 1.74-.3 3.44-.66 5.17-.99 2.16-.42 4.36-.75 6.68-.78 2.99-.03 5.52.61 7.68 1.81 1.44.79 2.6 1.69 3.22 2.79.94 1.68.47 3.25-.9 4.75-.88.96-2.02 1.79-3.36 2.52-.57.31-1.18.6-1.83.88-2.27.98-4.78 1.62-7.63 1.8-2.08.13-4.12-.02-6.13-.41-.12-.02-.23-.05-.37-.09.67-1.35 1.34-2.7 2.02-4.06.55.07 1.07.14 1.59.2 2.17.23 4.23.09 6.06-.63.46-.18.89-.37 1.29-.59.67-.36 1.22-.78 1.61-1.28.51-.65.65-1.34-.03-2-.77-.76-1.94-1.16-3.46-1.1-.77.04-1.55.12-2.29.25-1.86.33-3.68.72-5.53 1.07-2.04.38-4.13.66-6.33.6-2.68-.08-4.96-.7-6.92-1.77-1.48-.8-2.63-1.72-3.21-2.84-.91-1.78-.37-3.42 1.31-4.91.7-.59 1.49-1.15 2.39-1.64zM212.37 255.6c.11.06.23.12.33.19 6.07 3.7 12.13 7.4 18.19 11.11 1.28.78 2.41 1.63 3.16 2.62 1.22 1.6 1.24 3.19-.11 4.71-.82.92-1.85 1.73-3.09 2.4-1.41.76-3.1 1.36-5.06 1.75-2.8.56-5.61.4-8.44-.25.64-1.4 1.27-2.77 1.91-4.15.18.03.32.05.46.08.63.1 1.26.21 1.9.28 1.68.2 2.99-.01 4.06-.6.4-.21.76-.48 1.11-.8.8-.75.4-1.48-.42-2.17-.39-.32-.84-.63-1.31-.91-5.96-3.65-11.93-7.3-17.9-10.94-.13-.08-.27-.16-.43-.26 1.88-1.03 3.74-2.04 5.64-3.06z" fill="#333"/></g><g><path d="M324.38 247.26c-5.13 2.67-8.83 4.51-9.91 4.85-6.6 2.09-11.69 2.59-16.53-.37l-59.8-37.42c-4.83-2.95-4.37-6.67-.37-9.9.84-.68 4.09-2.71 8.69-5.49 17.25-10.41 96.58 38.62 77.92 48.33z" opacity=".15"/><path d="M307.7 163.3c4.98-2.7 13.01-2.5 17.84.45l66.64 33.67s.06 8.25.01 10.11-1.33 3.69-3.82 5.04L323.2 247.9c-4.98 2.7-13.02 2.5-17.85-.45l-63.11-38.55c-2.41-1.47-3.58-3.36-3.54-5.22.04-1.87 0-9.5 0-9.5l69-30.88z" fill="#a6537e"/><path d="M307.7 153.3c4.98-2.7 13.01-2.5 17.84.45l63.11 38.55c4.83 2.95 4.71 7.58-.28 10.28L323.2 237.9c-4.98 2.7-13.02 2.5-17.85-.45l-63.11-38.55c-4.83-2.95-4.7-7.58.29-10.28l65.17-35.32z" fill="#d0669a"/><path d="M354.17 183.47c1.24.65 1.93 1.43 1.95 2.39.02.58-.17 1.14-.69 1.65l-.16.11c-.21.09-.35.1-.45.09-.13-.01-.23-.08-.22-.17.02-.11.05-.21.09-.32.19-.44.26-.88.13-1.32-.24-.86-1.12-1.45-2.45-1.83-1.52-.44-3.12-.5-4.73-.3-1.43.18-2.71.54-3.92.99-.9.34-1.73.72-2.52 1.14-1.37.74-2.51 1.59-3.31 2.59-.08.09-.05.14.12.19.85.24 1.63.53 2.32.91 1.02.55 1.49 1.25 1.58 2.03.12 1.08-.24 2.11-1.08 3.06-.28.31-.55.62-.89.89l-.24.16c-.71.38-1.87.38-2.63-.03-.85-.45-1.37-1.02-1.73-1.64-.55-.93-.71-1.9-.66-2.87.01-.27.06-.54.11-.81.01-.08-.03-.11-.16-.14-.85-.19-1.73-.38-2.56-.61-1.24-.35-2.39-.8-3.51-1.28v.13c.9 1.67 1.65 3.36 2.14 5.08.07.25.24.38.64.48 1.06.27 2.04.63 2.85 1.12 1.53.91 2.04 2 1.64 3.21-.36 1.07-1.12 2.03-2.35 2.85-.2.13-.4.26-.62.38-.24.13-.5.25-.78.34-.54.18-1.14.16-1.57-.05-.31-.15-.51-.37-.58-.6-.11-.46-.21-.93-.28-1.39-.16-1.06-.29-2.12-.45-3.19-.04-.26-.13-.52-.2-.79l-.17-.11c-.96-.23-1.93-.43-2.87-.68-1.33-.35-2.53-.83-3.71-1.32.06.24.24.51.43.78 1.78 2.55 3.26 5.16 4.47 7.81.23.51.51 1.02.58 1.55.05.39.07.78-.1 1.16-.1.23-.3.42-.56.57-.49.27-1.22.35-1.97.2-.74-.15-1.34-.42-1.92-.72-.76-.4-1.41-.85-2.01-1.33l-.19-.09c.1.16.21.31.31.47.65.96 1.26 1.93 1.7 2.93.16.35.26.7.2 1.06-.07.42-.41.73-.91.99-.09.05-.19.1-.29.15-.87.4-1.85.35-2.85.18-1.44-.23-2.75-.65-3.93-1.17-.63-.28-1.27-.59-1.8-.94-1.32-.87-2.46-1.8-3.29-2.85l-.12-.14c-.58.99-1.03 1.98-1.51 2.95.45.13.9.25 1.33.39.89.28 1.67.65 2.42 1.05 1.4.76 2.51 1.63 3.35 2.62.88 1.03 1.32 2.12 1.35 3.26.05 1.42-.48 2.75-1.66 3.97-.57.59-1.27 1.13-2.12 1.58-.2.11-.42.22-.64.32-.59.28-1.24.51-1.91.73-.7.23-1.48.2-2.26.12-1.19-.13-2.23-.44-3.14-.92-1.79-.95-2.76-2.13-3-3.5-.19-1.05.01-2.09.32-3.12.45-1.51 1.17-2.98 2.04-4.42.09-.15.17-.3.25-.44-.37-.04-.76-.04-1.13-.01-1.94.14-3.88.28-5.82.43-1.99.15-3.98.28-5.99.31-2.2.03-4.39-.04-6.53-.39-1.34-.22-2.58-.55-3.71-1.03l-.25-.1c-.28-.17-.54-.33-.81-.5-.21-.18-.44-.36-.63-.54-.74-.67-1.25-1.41-1.63-2.17-.6-1.23-.85-2.47-.89-3.73-.05-2.01.44-3.97 1.25-5.91.91-2.17 2.21-4.26 3.78-6.28.73-.95 1.51-1.88 2.43-2.77.8-.78 1.68-1.53 2.68-2.23.7-.49 1.44-.97 2.22-1.41l.6-.33c.62-.34 1.27-.66 1.94-.97 1.8-.82 3.78-1.47 6-1.85 1.78-.31 3.59-.41 5.45-.14 1.24.18 2.33.53 3.31 1 2.33 1.12 3.7 2.57 4.46 4.21 1.18 2.54.93 5.04-.59 7.47-.74 1.17-1.8 2.25-3 3.29-.95.82-2.01 1.59-3.22 2.29-.27.16-.55.32-.83.47-1.01.55-2.11 1.04-3.36 1.42-1.66.49-3.44.7-5.34.53-.63-.05-1.22-.18-1.73-.41-.09-.04-.17-.1-.22-.16-.07-.1-.03-.19.08-.25.06-.03.14-.05.24-.06.18-.01.36-.01.54 0 1.04.07 2.01-.05 2.96-.25 1.17-.25 2.19-.63 3.15-1.09.18-.09.36-.18.53-.27 1.08-.58 1.98-1.26 2.83-1.96 1.38-1.15 2.47-2.4 3.23-3.74.79-1.37 1.22-2.77 1.17-4.23-.04-1.2-.38-2.37-1.28-3.48-.38-.46-.85-.89-1.47-1.26-1.35-.83-2.97-1.1-4.84-.83-1.25.19-2.36.51-3.41.91-.9.34-1.73.73-2.51 1.15-.15.08-.3.17-.45.25-1.31.76-2.46 1.59-3.51 2.48-1.83 1.57-3.27 3.26-4.41 5.04-1.07 1.67-1.95 3.38-2.56 5.14-.42 1.24-.69 2.49-.67 3.76.04.94.23 1.87.75 2.77.41.72 1.03 1.38 1.86 1.96 1.25.89 2.88 1.39 4.77 1.63 1.34.17 2.71.23 4.06.19 2.2-.07 4.4-.17 6.6-.26 1.49-.06 2.97-.1 4.46-.04.13.01.27.01.41.02.16-.3.32-.59.48-.89.68-1.25 1.36-2.51 2.04-3.76.23-.33.25-.64.2-.98-.2-1.17-.01-2.32.69-3.42.25-.39.59-.76 1.09-1.07 1.13-.62 2.33-.64 3.51-.17.87.35 1.53.81 2.1 1.31.12-.03.14-.11.16-.2.06-.15.17-.29.37-.39.34-.18.73-.28 1.16-.32.52-.05.91.08 1.21.39.72.74 1.42 1.5 2.15 2.24.69.7 1.41 1.39 2.15 2.07.38.37.88.69 1.47.96l.21-.12c-.16-.34-.28-.69-.47-1.02-.92-1.55-1.85-3.1-2.8-4.64-.84-1.36-1.72-2.7-2.58-4.06-.34-.55-.84-1.06-1.35-1.56-.25-.24-.27-.46-.02-.67.29-.25.57-.5.91-.72.2-.14.41-.27.64-.39.26-.14.55-.27.88-.37.15-.05.33-.08.5-.11.43-.05.64.02.84.25.47.53.93 1.07 1.45 1.58.46.46 1.16.81 1.85 1.16 1 .52 2.19.82 3.43 1.07-.52-1.59-1.17-3.12-2-4.62-.28-.5-.62-.99-.99-1.47-.35-.45-.8-.87-1.21-1.31-.11-.11-.13-.23-.03-.33.24-.25.47-.51.78-.72.29-.2.61-.38.94-.56.17-.09.33-.18.5-.26.29-.15.66-.25 1.07-.25.28 0 .47.07.6.22.44.51.88 1.03 1.37 1.53.48.5 1.18.89 1.95 1.24.54.24 1.03.52 1.67.66.97.23 1.94.44 2.92.66.2-.17.32-.35.45-.52.66-.87 1.52-1.66 2.58-2.38.43-.29.89-.57 1.36-.83 1.18-.64 2.5-1.17 4.02-1.55 1.78-.45 3.65-.63 5.6-.48 1.71.14 3.24.51 4.53 1.19zm-42.41 28.14c-.67-.85-1.69-1.55-2.95-2.14-.42-.19-.86-.36-1.33-.56l-.06.13-.05.12c-.76 1.52-1.35 3.06-1.59 4.66-.12.8-.05 1.6.38 2.39.35.61.81 1.19 1.63 1.64.88.48 1.76.57 2.74.07l.12-.06c.77-.42 1.25-.94 1.58-1.51.93-1.61.74-3.19-.47-4.74m1.81-13.25c-.25-.21-.54-.22-.83-.06l-.05.03c-.15.09-.28.21-.37.33-.34.45-.41.94-.35 1.44.07.55.3 1.08.55 1.62.68 1.47 1.9 2.78 3.7 3.92.44.22.87.46 1.34.68.38.18.79.33 1.28.41.27.04.47.04.59-.03.1-.05.14-.14.13-.28-.03-.26-.09-.53-.23-.78-.43-.71-.87-1.42-1.36-2.11-.97-1.39-1.97-2.77-3.21-4.08-.36-.38-.77-.74-1.19-1.09m24.56-7.25c-.37-.27-.82-.48-1.41-.66.01.31 0 .59.01.88.06.93.55 1.79 1.32 2.6.08.08.21.16.33.22l.21.02.04-.04c.41-.5.66-1.01.58-1.57-.08-.54-.47-1.02-1.08-1.45m-5.81 6.06c-.2-.31-.49-.58-.95-.8l.02.04c.27 1.16.35 2.32.39 3.49l.05.14.08.02c.09-.07.22-.13.27-.22.13-.24.25-.48.34-.72.2-.66.21-1.31-.2-1.95m-11.34 6.51l-.03-.03-.01.01.04.02" fill="#fff"/></g><g><path d="M143.73 134.43l-5.49 3.64c-4.79 2.59-12.51 2.4-17.14-.43l-21.5-13.15c-4.64-2.83-4.51-7.28.28-9.87l2.4-1.47 41.45 21.28z" opacity=".15"/><path d="M124.17 99.71c4.99-2.7 13.02-2.5 17.85.45l25.84 15.22s.02 1.69.04 3.5c.02 1.92-1.26 3.82-3.83 5.21l-23.06 12.5c-4.98 2.7-13.02 2.5-17.85-.45l-22.34-13.64c-2.27-1.39-3.44-3.14-3.53-4.9-.1-1.98.05-3.82.05-3.82l26.83-14.07z" fill="#47658a"/><path d="M124.17 96.71c4.99-2.7 13.02-2.5 17.85.45l22.34 13.64c4.83 2.95 4.7 7.58-.29 10.28l-23.06 12.5c-4.98 2.7-13.02 2.5-17.85-.45l-22.34-13.64c-4.83-2.95-4.7-7.58.29-10.28l23.06-12.5z" fill="#5e81bd"/><g fill="#fff"><path d="M124.05 108.85c.57-.26 1.15-.52 1.7-.79 1.61-.77 3.28-1.46 5.07-2.03.98-.31 1.96-.57 2.99-.65.55-.04.99.03 1.31.23 1.01.63 2.01 1.27 3.08 1.87.49.29.6.64.35 1.1-.11.21-.26.43-.44.64-1.37 1.58-3.43 2.93-5.62 4.22-.31.18-.63.36-.96.54-.83.45-1.7.89-2.56 1.32-1.43.73-2.95 1.37-4.56 1.94-1.22.42-2.46.81-3.78.96-.66.07-1.18 0-1.58-.25-.99-.63-2-1.26-3.04-1.86-.51-.29-.59-.66-.31-1.1.21-.35.47-.7.79-1.03 1.28-1.31 3.01-2.45 4.84-3.57.29-.18.57-.36.85-.54.62-.33 1.24-.66 1.87-1zM140.7 109.03c.11.07.2.12.29.18.99.6 1.96 1.22 2.97 1.81.46.26.54.59.35 1.01-.31.66-.95 1.27-1.66 1.88-1.17.99-2.51 1.93-4.02 2.79-.71.4-1.41.8-2.14 1.19-.63.34-1.27.68-1.92 1-2.1 1.04-4.33 1.97-6.83 2.59-.34.08-.7.15-1.05.2-.84.13-1.5.07-2-.26-.93-.61-1.93-1.19-2.9-1.78-.09-.05-.17-.1-.29-.18 4.23-.93 7.74-2.55 11.03-4.33 3.29-1.82 6.32-3.73 8.17-6.1zM146.42 112.52c.12.07.21.13.29.18.98.6 1.95 1.21 2.96 1.79.5.29.6.66.31 1.11-.23.35-.48.71-.82 1.05-1.28 1.3-3 2.44-4.82 3.54-.29.18-.56.36-.84.54-.63.34-1.25.68-1.87 1.01-.57.26-1.14.52-1.71.8-1.6.77-3.27 1.46-5.07 2.03-.97.31-1.96.57-2.99.65-.55.04-.98-.03-1.3-.24-1.01-.63-2.05-1.25-3.07-1.88l-.24-.17c4.17-.94 7.67-2.54 10.98-4.34 3.32-1.8 6.31-3.72 8.19-6.07z"/></g></g><g><path d="M141.46 216.84l-5.49 3.64c-4.79 2.59-12.51 2.4-17.14-.43l-21.5-13.15c-4.64-2.83-4.51-7.28.28-9.87l2.4-1.47 41.45 21.28z" opacity=".15"/><path d="M121.89 181.94c4.99-2.7 13.02-2.5 17.85.45l25.87 15.7s.06 1.32.01 3.18-1.33 3.69-3.83 5.05l-23.06 12.5c-4.99 2.7-13.02 2.5-17.85-.45l-22.34-13.65c-2.3-1.41-3.48-3.19-3.53-4.97-.06-1.95.01-3.41.01-3.41l26.87-14.4z" fill="#aa3b3b"/><path d="M121.89 178.94c4.99-2.7 13.02-2.5 17.85.45l22.34 13.65c4.83 2.95 4.7 7.57-.29 10.28l-23.06 12.5c-4.99 2.7-13.02 2.5-17.85-.45l-22.34-13.65c-4.83-2.95-4.7-7.57.29-10.28l23.06-12.5z" fill="#dc4644"/><path d="M121.12 187.59c.6.58 1.18 1.17 1.77 1.76l.11.09.19-.06c1.14-.49 2.27-.99 3.43-1.46.46-.18.98-.31 1.48-.44.19-.05.46-.12.64.01.18.11.07.26-.04.36-.41.39-.78.78-1.26 1.14-1.62 1.21-3.46 2.31-5.39 3.36-.42.23-.85.45-1.27.68-1.31.68-2.69 1.33-4.07 1.97-.96.45-1.99.86-3.11 1.18-.22.06-.48.12-.74.15-.35.05-.53-.06-.41-.27.11-.18.24-.38.44-.53.68-.53 1.35-1.07 2.09-1.57 1.4-.96 2.93-1.84 4.51-2.69.52-.28 1.04-.56 1.57-.84l.12-.06c.25-.14.23-.17.01-.39-.69-.71-1.39-1.43-2.08-2.15l-.1-.23c-.03-1.59-.05-3.19-.09-4.78 0-.1.04-.17.13-.22.06-.03.13-.05.22-.07.51-.09.99-.06 1.5.03l.07.04c.02 1.29.06 2.59.08 3.88 0 .21.03.42.01.62-.04.18.04.34.19.49z" fill="#fff"/><path d="M129.27 187.91c.49.38.98.74 1.47 1.11.7.53 1.41 1.07 2.11 1.6.72.54 1.43 1.08 2.14 1.62.69.52 1.38 1.04 2.08 1.56.12.09.25.18.37.28l.07.13c-.08.46-.17.93-.26 1.39l-.11.2-.21.09-.12-.13c-.04-.21-.04-.43-.09-.64-.06-.27-.14-.54-.23-.81l-.05-.11c-.15-.21-.34-.41-.78-.43-.32-.02-.58.04-.78.15l-.23.16c-.31.28-.35.6-.37.92l-.02.16c-.09-.08-.16-.14-.24-.19-.13-.09-.28-.18-.51-.12l-.14.05c-.11.06-.14.14-.08.24.13.23.26.46.44.68.12.15.2.29.17.45-.09.39-.16.78-.26 1.17-.03.09-.17.18-.27.27-.13-.08-.31-.15-.39-.24-.45-.61-.89-1.22-1.31-1.84-.4-.57-.76-1.14-1.15-1.72l-.14-.18c-.13-.07-.29-.14-.45-.15-.12-.01-.22.01-.3.06l-.13.13c-.03.1-.04.22.02.31.85 1.21 1.69 2.43 2.6 3.62.23.32.12.56-.12.82l-.09.07c-.12.07-.27.05-.38-.06-.25-.25-.48-.5-.69-.76-.2-.25-.34-.51-.53-.75-.07-.09-.22-.18-.36-.23-.17-.06-.35-.04-.47.03l-.11.19c.03.14.13.29.22.42.33.41.56.83.65 1.27.03.15.02.3 0 .45-.01.09-.06.19-.13.27l-.17.14c-.17.09-.37.06-.54-.12-.27-.3-.49-.61-.71-.92-.13-.19-.21-.39-.31-.57-.06-.1-.18-.19-.39-.19-.14 0-.27.02-.36.07l-.11.1c-.05.09-.07.2-.02.29.34.63.74 1.24 1.33 1.82.07.07.16.14.26.2.42.25.91.25 1.33.02l.21-.14c.37-.29.48-.64.43-1-.01-.07-.03-.15-.04-.24.14.1.26.19.39.27.33.19.66.22.92.08l.18-.14c.2-.21.31-.45.44-.65.22.01.49.07.67.02.12-.03.23-.07.32-.13.11-.06.21-.13.28-.2.27-.26.33-.56.37-.87l.06-.16c.16.26.33.53.49.8.23.35.44.71.67 1.06.05.09.14.18.24.27.11.1.26.19.48.17.12-.01.22-.04.3-.08l.13-.17c.01-.14-.04-.3-.12-.44-.12-.21-.32-.4-.46-.62-.41-.62-.82-1.25-1.19-1.87-.21-.36-.27-.74-.2-1.11.03-.15.1-.29.21-.43l.07-.05.26-.11.21.21c.05.14.07.28.1.42.06.3.11.61.17.92l.08.21c.2.39.76.48 1.28.22l.09-.05c.33-.18.53-.4.61-.66.09-.29.13-.6.2-.9l.03-.15c.17.13.32.24.46.34 1.22.93 2.44 1.87 3.65 2.8.47.36.94.73 1.42 1.09.13.09.15.18.08.28-.28.34-.54.69-.88 1.02-.99.93-2.21 1.77-3.56 2.54-.2.11-.4.23-.61.34-1.56.85-3.26 1.59-5.17 2.19-.57.17-1.2.3-1.8.44-.18.04-.34.02-.5-.06-.85-.44-1.7-.87-2.56-1.3-.89-.44-1.76-.89-2.64-1.34-.19-.09-.37-.19-.57-.3.28-.04.51-.11.68-.21.26-.14.41-.33.48-.55.12-.34.15-.69.22-1.04l-.03-.14.08-.01c.14.16.27.33.43.49.28.29.57.57.88.84.1.09.27.17.48.11l.11-.04c.12-.07.12-.17.09-.27-.05-.12-.12-.24-.21-.35-.71-.83-1.41-1.67-2.14-2.5-.18-.22-.44-.42-.68-.61-.12-.1-.31-.15-.53-.1l-.13.05c-.11.06-.18.16-.15.26l.1.2c.14.18.28.34.42.52.59.71.54 1.45.26 2.18-.04.12-.13.21-.23.26-.23.12-.58.1-.91-.1-.36-.21-.71-.45-.96-.71-.78-.8-1.25-1.67-1.34-2.59-.02-.22.01-.45.09-.66.06-.15.16-.27.3-.35.23-.12.57-.15 1-.08.21.04.41.08.62.1.17.01.31-.01.41-.06.12-.07.15-.17.04-.29-.12-.12-.32-.26-.53-.3-.77-.15-1.52-.15-2.18.16l-.08.04c-.3.16-.49.37-.6.6-.29.54-.24 1.09-.09 1.64.18.64.53 1.26 1.02 1.84l.07.1c-3.15-1.56-6.26-3.1-9.34-4.62.64-.21 1.29-.39 1.88-.62.88-.34 1.74-.71 2.59-1.09 1.39-.62 2.73-1.28 4.01-1.98.39-.21.77-.42 1.14-.64 1.27-.73 2.5-1.48 3.72-2.25.85-.53 1.63-1.1 2.26-1.73.14-.07.27-.22.4-.37z" fill="#fff"/><path d="M144.25 199.74l.07.13c.13.29.28.57.36.86.11.37.45.66.87.94 1.51 1.02 3 2.05 4.5 3.07.17.12.18.27.09.39-.21.3-.42.61-.73.88-.73.64-1.61 1.21-2.58 1.73-.36.19-.73.38-1.11.57-.85.42-1.75.8-2.76 1.08-.35.1-.74.17-1.12.23-.29.05-.53-.01-.78-.14-1.08-.58-2.18-1.15-3.27-1.73-.74-.39-1.48-.79-2.23-1.19-.12-.07-.27-.11-.42-.14-.72-.14-1.45-.26-2.19-.39l-.24-.04c2.47-.71 4.67-1.59 6.59-2.63 1.93-1.03 3.58-2.24 4.95-3.62z" fill="#fff"/></g><g><path d="M214.1 177.45l-5.49 3.64c-4.79 2.59-12.51 2.4-17.14-.43l-21.5-13.15c-4.64-2.83-4.51-7.28.28-9.87l2.4-1.47 41.45 21.28z" opacity=".15"/><path d="M194.43 142.62c4.99-2.7 13.02-2.5 17.85.45l25.75 14.75s.18 2.26.13 4.13-1.33 3.69-3.83 5.05l-23.06 12.5c-4.98 2.7-13.02 2.5-17.85-.45l-22.34-13.65c-2.26-1.38-3.43-3.13-3.53-4.88-.11-1.98.05-3.92.05-3.92l26.83-13.98z"/><path d="M194.43 139.62c4.99-2.7 13.02-2.5 17.85.45l22.34 13.65c4.83 2.95 4.7 7.57-.29 10.28l-23.06 12.5c-4.98 2.7-13.02 2.5-17.85-.45l-22.34-13.65c-4.83-2.95-4.69-7.58.29-10.28l23.06-12.5z" fill="#282828"/><path d="M208.04 148.21c3.89 2.39 7.8 4.77 11.71 7.15.18.11.22.2.15.34-1.63 3.13-3.24 6.26-4.85 9.4l-.14.15c-.07.04-.15.06-.27.07-5.55.74-11.11 1.49-16.66 2.23-.19.02-.33.02-.48-.07-3.96-2.43-7.92-4.85-11.89-7.27l-.1-.07c1.01-1.95 2.01-3.91 3.01-5.86.64-1.24 1.29-2.48 1.93-3.72l.14-.15c.06-.03.14-.06.26-.07 5.53-.74 11.06-1.48 16.58-2.23.27-.05.43-.01.61.1z" fill="#fff"/><path d="M205.85 153.09l.21.11c1.74 1.06 3.49 2.13 5.23 3.2.14.09.24.15.16.29-.79 1.44-1.56 2.88-2.34 4.33l-.15.19c-1.28-.78-2.54-1.55-3.79-2.31-.26-.16-.52-.32-.78-.47-.26-.16-.51-.32-.77-.48l-.11-.23c.75-1.52 1.5-3.03 2.27-4.55l.07-.08zM196.59 154.05l.07-.03.07-.02c2.63-.38 5.27-.75 7.9-1.12l.17-.02c-.49.98-.96 1.92-1.43 2.87-.29.58-.58 1.17-.88 1.76l-.14.12-.18.06c-2.65.35-5.3.69-7.95 1.03-.06.01-.12.01-.24.02.28-.52.54-1.01.81-1.5.54-1.01 1.09-2.02 1.64-3.02l.16-.15zM194.28 159.33c1.57-.2 3.05-.39 4.54-.58 1.2-.15 2.4-.31 3.6-.46.14-.02.35 0 .44.05.9.54 1.79 1.08 2.69 1.63s1.8 1.1 2.71 1.66c-.52.07-1 .15-1.48.22-2.18.31-4.35.61-6.52.91-.13.02-.33.01-.41-.04-.92-.56-1.84-1.12-2.77-1.68-.93-.57-1.86-1.14-2.8-1.71z" fill="#2177bd"/><path d="M192.65 151.21c4.64-.62 9.24-1.24 13.92-1.87-.46.92-.9 1.81-1.35 2.68l-.04.05-.07.05-.22.07c-2.15.31-4.3.61-6.46.92-.63.09-1.25.19-1.89.26-.15.02-.4-.02-.51-.08-.55-.33-1.09-.66-1.63-.99l-1.62-.99-.13-.1zM207.61 149.57c3.33 2.03 6.64 4.05 10 6.11-.64.09-1.24.17-1.85.24-.91.12-1.82.23-2.73.35-.27.04-.45.01-.65-.12-.99-.61-1.98-1.21-2.97-1.82-.99-.6-1.98-1.21-2.98-1.81-.15-.09-.27-.17-.19-.32l1.26-2.52.11-.11zM212.5 157.03l.18-.06c1.5-.21 3.01-.4 4.51-.59.1-.02.2-.01.37-.02-1.33 2.56-2.63 5.09-3.97 7.68-.46-.28-.85-.52-1.25-.76-.37-.23-.74-.46-1.12-.68s-.75-.45-1.13-.68c-.19-.11-.22-.22-.15-.37.8-1.45 1.58-2.9 2.37-4.35l.19-.17zM200.79 163.38l.05-.02.15-.05c2.6-.38 5.21-.75 7.82-1.11.14-.02.36.01.45.06 1.18.71 2.36 1.43 3.6 2.18-4.56.61-9.04 1.21-13.6 1.82.09-.19.16-.34.24-.48.37-.76.74-1.51 1.13-2.26l.16-.14zM188.08 160.12c1.6-.2 3.15-.41 4.71-.6.14-.02.37.03.47.09l2.28 1.38c1.26.77 2.52 1.54 3.78 2.32l.14.21c-.43.9-.88 1.79-1.34 2.72-3.36-2.04-6.68-4.07-10.04-6.12zM191.86 151.61c.86.53 1.67 1.02 2.46 1.5.18.11.36.23.54.34.11.07.22.13.34.19l.04.02c.19.11.21.23.13.38-.5.9-.97 1.8-1.46 2.69-.36.66-.71 1.31-1.08 1.96l-.04.06-.12.09-.13.05c-1.56.21-3.12.41-4.76.62 1.37-2.63 2.71-5.23 4.08-7.9z" fill="#91d1f3"/></g><g><path d="M329.5 114.82l-5.49 3.64c-4.79 2.59-12.51 2.4-17.14-.43l-21.5-13.15c-4.64-2.83-4.51-7.28.28-9.87l2.4-1.47 41.45 21.28z" opacity=".15"/><path d="M310.05 79.95c4.99-2.7 13.02-2.5 17.85.45l25.78 14.99s.09 1.93.1 3.74c.01 1.91-1.27 3.81-3.83 5.19l-23.06 12.5c-4.99 2.7-13.02 2.5-17.85-.45l-22.34-13.65c-2.37-1.45-3.54-3.29-3.54-5.12 0-1.9.1-3.9.1-3.9l26.79-13.75z" fill="#4a9bad"/><path d="M310.05 76.95c4.99-2.7 13.02-2.5 17.85.45l22.34 13.65c4.83 2.95 4.7 7.57-.29 10.28l-23.06 12.5c-4.99 2.7-13.02 2.5-17.85-.45L286.7 99.73c-4.83-2.95-4.7-7.57.29-10.28l23.06-12.5z" fill="#57bceb"/><path d="M331.8 84.98c.71.31 1.39.64 2.08.97.63.39 1.26.77 1.9 1.16l.24.22c.7.58 1.46 1.14 2.08 1.75 4.57 4.48 4.08 10.23-1.19 14.29-.52.4-1.08.78-1.62 1.17-.65.35-1.31.71-1.96 1.06-.12.04-.25.09-.37.14-.99.38-1.94.81-2.98 1.15-7.65 2.51-17.63 2.07-24.83-1.08-.71-.31-1.38-.64-2.07-.96-.63-.39-1.26-.77-1.9-1.16l-.24-.22c-.7-.58-1.46-1.14-2.08-1.75-4.57-4.49-4.08-10.23 1.19-14.29.52-.4 1.08-.78 1.61-1.17.65-.35 1.31-.71 1.97-1.06.13-.04.26-.08.38-.13.98-.38 1.92-.79 2.94-1.13 7.65-2.55 17.64-2.12 24.85 1.04zm2.61 11.69c-.07-.1-.09-.14-.12-.16-1.64-1.85-3.27-3.7-4.91-5.54-.88-.98-2.08-1.79-3.73-2.37-1.32-.47-2.79-.71-4.24-.98-.97-.17-1.96-.38-2.82-.68-1.77-.62-2.38-1.88-1.47-2.81.18-.18.43-.34.7-.56-5.34.1-9.85 1.08-13.45 3.04-.81.44-1.57.92-2.28 1.46-3.57 2.68-4.71 5.76-3.74 9.22.42-.23.81-.43 1.19-.64.25-.13.49-.27.72-.41.94-.56 1.85-1.13 2.79-1.69.42-.23.81-.23 1.16-.05.4.2.43.44.1.7-.08.07-.19.13-.29.19-.39.25-.78.51-1.22.8 6.91 2.17 13.78 4.32 20.75 6.51-.08-.12-.1-.15-.13-.19-1.95-2.37-3.9-4.75-5.86-7.13-.07-.08-.23-.16-.38-.21-2.58-.77-5.18-1.53-7.76-2.3-.27-.08-.44-.06-.65.03-.48.22-.95.45-1.46.65-.44.17-.93.07-1.17-.21-.2-.23-.14-.38.25-.6.08-.04.17-.09.28-.13 1.31-.6 2.59-1.23 3.81-1.89.86-.47 1.69-.95 2.48-1.46.39-.25.79-.49 1.2-.73.34-.19.77-.18 1.1-.01.35.18.42.41.16.63-.1.09-.24.17-.37.26-.4.26-.78.51-1.21.79 6.84 2.17 13.65 4.31 20.57 6.47m-35.14 2.46c3.6 5.91 15.06 9.43 25.57 7.55-8.56-2.53-17.03-5.03-25.57-7.55m38.89-.28c3.19-6.29-3.68-12.74-13.44-14.57.18.11.26.17.36.22 2.08 1.06 3.51 2.37 4.64 3.81 2.72 3.43 5.46 6.86 8.19 10.29.07.08.15.15.25.25m-5.42 5.23c1.62-.88 2.97-1.92 4.04-3.11-5.58-1.65-11.11-3.29-16.65-4.91l-.1.05c2.64 3.29 5.28 6.58 7.94 9.89 1.8-.54 3.39-1.17 4.77-1.92" fill="#fff"/></g><g><path d="M511.44 357.97l-5.71 3.79c-4.98 2.7-13.02 2.5-17.85-.45l-22.38-13.69c-4.83-2.95-4.69-7.58.29-10.28l2.5-1.53 43.15 22.16z" opacity=".15"/><path d="M491.09 322.13c4.98-2.7 13.02-2.5 17.85.45l27.22 15.83s.14 2.06.08 3.93-1.33 3.69-3.82 5.05l-24.54 13.3c-4.98 2.7-13.02 2.5-17.85-.45l-23.78-14.52c-2.02-1.23-3.17-2.76-3.46-4.32-.4-2.16-.01-4.48-.01-4.48l28.31-14.79z" fill="#cccccb"/><path d="M491.09 319.13c4.98-2.7 13.02-2.5 17.85.45l23.78 14.52c4.83 2.95 4.69 7.58-.29 10.28l-24.54 13.3c-4.98 2.7-13.02 2.5-17.85-.45l-23.78-14.52c-4.83-2.95-4.69-7.58.29-10.28l24.54-13.3z" fill="#fff"/><path fill="#fcd235" d="M486.4 330.41l9.86-4.29 9.49 5.23z"/><path fill="#faad1b" d="M496.26 326.12l15.92 1.75-6.43 3.48z"/><path fill="#fcd235" d="M486.4 330.41l.48 11.17-8.51-5.77z"/><path fill="#feeeb8" d="M486.4 330.41l19.35.94-18.87 10.23z"/><path fill="#faad1b" d="M478.37 335.81l8.51 5.77-6.42 3.48z"/><path fill="#e96d24" d="M505.75 331.35l6.43-3.48 2.03 19.52z"/><path fill="#faad1b" d="M505.75 331.35l8.46 16.04-27.33-5.81z"/><path fill="#e96d24" d="M486.88 341.58l27.33 5.81-33.75-2.33z"/></g><g><path d="M445.94 51.72l-5.49 3.64c-4.79 2.59-12.51 2.4-17.14-.43l-21.5-13.15c-4.64-2.83-4.51-7.28.28-9.87l2.4-1.47 41.45 21.28z" opacity=".15"/><path d="M426.04 17.08c4.99-2.7 13.02-2.5 17.85.45l25.84 15.21s.09 1.8.04 3.67-1.33 3.7-3.83 5.05l-23.06 12.5c-4.98 2.7-13.01 2.5-17.84-.45L402.7 39.86c-2.24-1.37-3.42-3.1-3.53-4.83-.13-2 .03-3.76.03-3.76l26.84-14.19z" fill="#cccccb"/><path d="M426.04 14.08c4.99-2.7 13.02-2.5 17.85.45l22.34 13.64c4.83 2.95 4.71 7.58-.29 10.28l-23.06 12.5c-4.98 2.7-13.01 2.5-17.84-.45L402.7 36.86c-4.83-2.95-4.7-7.57.29-10.27l23.05-12.51z" fill="#fff"/><path d="M420.09 22.88c.17-.07.35-.15.52-.21 1.18-.45 2.29-.96 3.53-1.34 4.13-1.25 8.58-1.67 13.27-1.28 4 .33 7.64 1.21 10.84 2.68.49.23.97.45 1.46.68.71.43 1.42.86 2.12 1.3.11.09.2.18.32.27 1.08.77 2.03 1.59 2.73 2.49 2.68 3.42 3.01 6.85.68 10.3-.29.43-.65.85-.98 1.28-.14.08-.29.16-.44.24-.62.13-1.1.01-1.55-.27-1.28-.79-2.57-1.58-3.88-2.36-.48-.28-.99-.55-1.53-.79-.75-.33-1.62-.5-2.58-.51.09-.09.15-.14.22-.19l.16-.12c.9-.64 1.69-1.32 2.22-2.1.79-1.18.94-2.36.07-3.58-.51-.71-1.2-1.36-2.03-1.97-1.68-1.24-3.73-2.11-6.51-2.3-.14-.01-.34-.09-.4-.16-.83-1.02-2.22-1.71-3.93-2.19-.13-.04-.38-.02-.47.02-.34.2-.69.4-.93.65-.73.74-1.19 1.55-1.55 2.38-.04.09-.15.2-.28.27l-.14.06c-1.55.49-2.94 1.07-4.18 1.74-1.23.67-2.32 1.43-3.26 2.28l-.12.08c-.13.07-.3.12-.47.15-1.15.2-2.32.36-3.47.57-.62.12-1.23.27-1.71.53l-.25.15-.11.23c.74 1 1.81 1.85 3.52 2.37.27.08.37.17.38.35.08.85.53 1.64 1.35 2.37.7.62 1.6 1.14 2.58 1.62 1.37.68 2.89 1.21 4.65 1.46 2.39.33 4.55-.05 6.6-.69.75-.23 1.45-.53 2.23-.81-.02.64.33 1.19.94 1.69l.03.21c-.32.44-.77.84-1.36 1.16-.25.13-.51.25-.81.36-1.02.37-2.17.37-3.32.17-1.06-.18-2.11-.24-3.16-.05-.49.08-.95.2-1.31.39-.13.07-.25.15-.35.25-.18.17-.13.29.25.31.36.02.71.02 1.07.02.59 0 1.2-.05 1.76.02.82.1 1.6.3 2.4.46.34.07.68.15 1.03.18 1.53.15 2.77-.22 3.86-.76.19-.1.38-.19.57-.3.55-.3 1.08-.61 1.64-.93.06.03.18.09.28.16.79.47 1.56.94 2.36 1.4.48.28.67.58.38.95-.15.08-.29.16-.44.24l-.2.03c-2.3.58-4.69.97-7.22 1.05-5.58.19-10.71-.61-15.29-2.58-.66-.28-1.29-.6-1.95-.9-.73-.44-1.45-.89-2.18-1.33l-.19-.19c-.48-.38-1-.75-1.43-1.15-2.86-2.61-3.99-5.43-3.41-8.44.45-2.35 1.91-4.45 4.45-6.28.47-.33.95-.65 1.42-.98l1.5-.81z" fill="#1f1f1f"/></g></g></svg>