<?xml version="1.0" encoding="utf-8"?>
<!-- Generator: Adobe Illustrator 24.0.3, SVG Export Plug-In . SVG Version: 6.00 Build 0)  -->
<svg version="1.1" id="Layer_1" xmlns="http://www.w3.org/2000/svg" xmlns:xlink="http://www.w3.org/1999/xlink" x="0px" y="0px"
	 viewBox="0 0 772.7 522.5" style="enable-background:new 0 0 772.7 522.5;" xml:space="preserve">
<linearGradient id="SVGID_1_" gradientUnits="userSpaceOnUse" x1="395.7349" y1="234.8749" x2="499.8651" y2="339.0051" gradientTransform="matrix(1 0 0 -1 0 522)">
	<stop  offset="0" style="stop-color:#000000;stop-opacity:0"/>
	<stop  offset="0.2125" style="stop-color:#000000"/>
	<stop  offset="0.8045" style="stop-color:#000000"/>
	<stop  offset="0.9987" style="stop-color:#000000;stop-opacity:0"/>
</linearGradient>
<path style="fill:url(#SVGID_1_);" d="M181,72.4L714.5,398l0.1-0.2L181.1,72.2"/>
<linearGradient id="SVGID_2_" gradientUnits="userSpaceOnUse" x1="289.0776" y1="144.1126" x2="421.6074" y2="276.6425" gradientTransform="matrix(1 0 0 -1 0 522)">
	<stop  offset="0" style="stop-color:#000000;stop-opacity:0"/>
	<stop  offset="0.2125" style="stop-color:#000000"/>
	<stop  offset="0.8045" style="stop-color:#000000"/>
	<stop  offset="0.9987" style="stop-color:#000000;stop-opacity:0"/>
</linearGradient>
<path style="fill:url(#SVGID_2_);" d="M15.9,104.8l678.7,414l0.1-0.2l-678.7-414"/>
<linearGradient id="SVGID_3_" gradientUnits="userSpaceOnUse" x1="533.085" y1="312.9449" x2="602.3801" y2="382.24" gradientTransform="matrix(1 0 0 -1 0 522)">
	<stop  offset="0" style="stop-color:#000000;stop-opacity:0"/>
	<stop  offset="0.2125" style="stop-color:#000000"/>
	<stop  offset="0.8045" style="stop-color:#000000"/>
	<stop  offset="0.9987" style="stop-color:#000000;stop-opacity:0"/>
</linearGradient>
<path style="fill:url(#SVGID_3_);" d="M390.5,66.5l354.3,216l0.1-0.2l-354.2-216"/>
<linearGradient id="SVGID_4_" gradientUnits="userSpaceOnUse" x1="464.9276" y1="235.6374" x2="567.3124" y2="133.2526" gradientTransform="matrix(1 0 0 -1 0 522)">
	<stop  offset="0" style="stop-color:#000000;stop-opacity:0"/>
	<stop  offset="0.1439" style="stop-color:#000000"/>
	<stop  offset="0.8873" style="stop-color:#000000"/>
	<stop  offset="0.9987" style="stop-color:#000000;stop-opacity:0"/>
</linearGradient>
<path style="fill:url(#SVGID_4_);" d="M738.8,217.1l-0.1-0.1l-445.4,241l0.1,0.2l445.4-241l-0.1-0.2L738.8,217.1l-0.1-0.1
	l-445.4,241l0.1,0.2l445.4-241l-0.1-0.2L738.8,217.1z"/>
<linearGradient id="SVGID_5_" gradientUnits="userSpaceOnUse" x1="330.585" y1="321.815" x2="474.495" y2="177.905" gradientTransform="matrix(1 0 0 -1 0 522)">
	<stop  offset="0" style="stop-color:#000000;stop-opacity:0"/>
	<stop  offset="6.470000e-02" style="stop-color:#000000"/>
	<stop  offset="0.8807" style="stop-color:#000000"/>
	<stop  offset="0.9987" style="stop-color:#000000;stop-opacity:0"/>
</linearGradient>
<path style="fill:url(#SVGID_5_);" d="M714.6,103.8l-0.1-0.1L90.4,440.4l624.3-336.5l-0.1-0.2L714.6,103.8l-0.1-0.1L90.4,440.4
	l624.3-336.5l-0.1-0.2L714.6,103.8z"/>
<linearGradient id="SVGID_6_" gradientUnits="userSpaceOnUse" x1="250.005" y1="380.665" x2="356.605" y2="274.065" gradientTransform="matrix(1 0 0 -1 0 522)">
	<stop  offset="0" style="stop-color:#000000;stop-opacity:0"/>
	<stop  offset="0.1439" style="stop-color:#000000"/>
	<stop  offset="0.8873" style="stop-color:#000000"/>
	<stop  offset="0.9987" style="stop-color:#000000;stop-opacity:0"/>
</linearGradient>
<path style="fill:url(#SVGID_6_);" d="M534.8,69.6l-0.1-0.1l-462.9,250l0.1,0.2l462.9-250l-0.1-0.2L534.8,69.6l-0.1-0.1l-462.9,250
	l0.1,0.2l462.9-250l-0.1-0.2L534.8,69.6z"/>
<g>
	<path style="opacity:0.15;enable-background:new    ;" d="M246.9,425l-5.6,3.6c-4.8,2.6-12.6,2.4-17.3-0.4L202.3,415
		c-4.7-2.8-4.6-7.3,0.3-9.9l2.4-1.5L246.9,425L246.9,425z"/>
	<path style="fill:#A691AE;" d="M227,389.4c5-2.7,13-2.5,17.8,0.5l26.5,15.4c0,0,0.1,2,0.1,3.8c0,1.9-1.3,3.8-3.8,5.1l-23.8,12.9
		c-5,2.7-13,2.5-17.9-0.5l-23-14.1c-2.3-1.4-3.5-3.2-3.5-5c-0.1-2,0.2-4.3,0.2-4.3L227,389.4L227,389.4z"/>
	<path style="fill:#CAAED3;" d="M227,386.4c5-2.7,13-2.5,17.8,0.5l23,14.1c4.8,3,4.7,7.6-0.3,10.3l-23.8,12.9
		c-5,2.7-13,2.5-17.9-0.5l-23-14.1c-4.8-3-4.7-7.6,0.3-10.3L227,386.4L227,386.4z"/>
	<path style="fill:#2A3C66;" d="M228.1,387.5c4.4-2.4,11.5-2.2,15.7,0.4l22.3,13.6c4.3,2.6,4.2,6.7-0.3,9.1l-23.1,12.5
		c-4.4,2.4-11.4,2.2-15.7-0.4L204.7,409c-4.3-2.6-4.2-6.7,0.2-9.1L228.1,387.5L228.1,387.5z"/>
	<path style="fill:#CAAED3;" d="M221.9,400.7l24.9,9.6l-4.1,2.2l-5.8-2.3l-5.2,2.8l3.6,3.5l-4.1,2.2l-14.7-15.2L221.9,400.7
		L221.9,400.7z M229.6,411.4l4.5-2.5l-5.6-2.4c-1.6-0.6-4.2-1.8-5.5-2.4l-0.3-0.1l-0.7,0.4l0.2,0.2c0.4,0.3,0.8,0.7,1.2,1
		c0.9,0.8,2,1.7,2.6,2.3L229.6,411.4 M251.2,398.9c0.9,0.5,1.4,0.9,1.7,1.1l-7.4,4l0.4,0.2c2.3,1.4,4.9,1.4,7.2,0.2
		c1.1-0.6,1.8-1.2,2.3-1.7l2.7,1.1c-0.7,0.8-2,1.7-3.3,2.5c-4,2.2-8.7,1.8-13.2-0.9c-4.6-2.8-5.3-6-1.8-7.9
		C242.8,395.7,246.9,396.2,251.2,398.9z M247.8,400.3l-0.3-0.2c-2.4-1.5-4.5-1.9-5.9-1.2c-1.5,0.8-0.4,2.4,1.5,3.5l0.3,0.2
		L247.8,400.3"/>
	<path style="opacity:0.15;enable-background:new    ;" d="M657.6,197.2l-5.5,3.6c-4.8,2.6-12.7,2.4-17.3-0.4l-21.8-13.1
		c-4.7-2.8-4.6-7.3,0.3-9.9l2.4-1.5L657.6,197.2L657.6,197.2z"/>
	<path style="fill:#D99050;" d="M637.9,161.5c5-2.7,13-2.5,17.8,0.4l26.5,15.4c0,0,0.1,2,0.1,3.9c0,1.9-1.3,3.7-3.8,5.1l-23.8,12.9
		c-5,2.7-13,2.5-17.8-0.4l-23-14.1c-2.2-1.4-3.4-3.1-3.5-4.8c-0.2-2,0-3.9,0-3.9L637.9,161.5L637.9,161.5z"/>
	<path style="fill:#FAB14E;" d="M637.9,158.5c5-2.7,13-2.5,17.8,0.4l23,14.1c4.8,2.9,4.7,7.6-0.3,10.3l-23.8,12.9
		c-5,2.7-13,2.5-17.8-0.4l-23-14.1c-4.8-2.9-4.7-7.6,0.3-10.3L637.9,158.5L637.9,158.5z"/>
	<path style="fill:#2A3C66;" d="M638.8,159.6c4.5-2.4,11.7-2.3,16.1,0.4l22,13.4c4.4,2.7,4.2,6.8-0.3,9.3L653.9,195
		c-4.5,2.4-11.7,2.3-16.1-0.4l-22-13.4c-4.4-2.7-4.2-6.8,0.3-9.3L638.8,159.6z"/>
	<path style="fill:#FAB14E;" d="M635.6,172.4l22.7,8.8l-3.7,2l-5.4-2.1l-4.8,2.6l3.3,3.2l-3.7,2L630.7,175L635.6,172.4L635.6,172.4z
		 M642.6,182.2l4.3-2.3l-5.3-2.2c-1.5-0.6-3.8-1.6-5.1-2.2l-0.4-0.2l-0.7,0.4l0.2,0.2c0.3,0.3,0.7,0.6,1.1,1
		c0.8,0.8,1.8,1.6,2.4,2.1L642.6,182.2 M661.7,179.3l-13-7.9l3.1-1.7l13,7.9L661.7,179.3z M646.2,169.4c-0.6,0-1.2-0.2-1.6-0.5
		c-0.5-0.3-0.8-0.6-0.8-1s0.2-0.6,0.7-0.9c1-0.5,2.2-0.5,3.2,0.1c0.5,0.3,0.7,0.6,0.7,0.9s-0.3,0.7-0.8,0.9
		C647.3,169.3,646.8,169.4,646.2,169.4z"/>
	<path style="opacity:0.15;enable-background:new    ;" d="M576.5,417.5c-5.1,2.7-8.8,4.5-9.9,4.9c-6.6,2.1-11.7,2.6-16.5-0.4
		l-59.8-37.4c-4.8-3-4.4-6.7-0.4-9.9c0.8-0.7,4.1-2.7,8.7-5.5C515.9,358.7,595.2,407.8,576.5,417.5L576.5,417.5z"/>
	<path style="fill:#42A4B4;" d="M560.7,333.2c5-2.7,13-2.5,17.8,0.5l66.6,34c0,0,0.1,7.9,0,9.7c0,1.9-1.3,3.7-3.8,5.1l-65.2,35.3
		c-5,2.7-13,2.5-17.8-0.5l-63.1-38.5c-2.4-1.4-3.5-3.3-3.5-5.1c0-1.9,0.1-10.2,0.1-10.2L560.7,333.2L560.7,333.2z"/>
	<path style="fill:#67CCF2;" d="M560.7,323.2c5-2.7,13-2.5,17.8,0.5l63.1,38.5c4.8,3,4.7,7.6-0.3,10.3l-65.2,35.3
		c-5,2.7-13,2.5-17.8-0.5l-63.1-38.5c-4.8-3-4.7-7.6,0.3-10.3L560.7,323.2z"/>
	<path style="fill:#2A3C66;" d="M563.5,324.9c3.4-1.9,8.9-1.7,12.2,0.3l63.1,38.5c3.3,2,3.2,5.2-0.2,7l-65.2,35.3
		c-3.4,1.9-8.9,1.7-12.2-0.3l-63.1-38.5c-3.3-2-3.2-5.2,0.2-7L563.5,324.9L563.5,324.9z"/>
	<path style="fill:#67CCF2;" d="M552.4,355.7c4.2-0.2,8.6,0.9,12.1,3.1c3.8,2.4,5.7,4.9,5.5,7.6c-0.3,3.2-4,6.3-7.1,8l-2.6,1.4
		l13.5,8.2l-7.5,4l-37-22.6c2.1-1.6,5-3.4,8-5.1C543.3,357.3,547.8,355.8,552.4,355.7L552.4,355.7z M557.6,371.7
		c4.7-2.5,4.7-5.7,0.2-8.5c-4.4-2.7-9.4-2.9-13.6-0.6c-0.9,0.5-1.7,1.1-2.2,1.6l-0.3,0.4l13.4,8.2l0.7-0.2
		C556.5,372.3,557,372,557.6,371.7 M575.4,350.2c2.1-1.1,4.3-2,6.9-2.6l3.1,3.3c-2,0.4-3.7,1-5,1.7c-2.9,1.6-2.5,3.3-1,4.2
		c1.7,1.1,3.8,1,8.6,0.2c6.5-1,11.3-0.5,14.7,1.5c5.3,3.3,4.3,7.5-2.6,11.2c-2.5,1.4-5.8,2.5-8.1,2.9l-3.1-3.4
		c2.2-0.4,4.8-1.2,6.8-2.3c2.8-1.5,3.2-3.2,1.1-4.5c-2-1.2-4.7-1.1-8.9-0.4c-6.5,1.1-11.1,0.7-14.3-1.3
		C568.6,358,569.4,353.5,575.4,350.2L575.4,350.2z"/>
	<g>
		<path style="opacity:0.15;enable-background:new    ;" d="M579.7,286c-5.1,2.7-8.8,4.5-9.9,4.9c-6.6,2.1-11.7,2.6-16.5-0.4
			l-59.8-37.4c-4.8-2.9-4.4-6.7-0.4-9.9c0.8-0.7,4.1-2.7,8.7-5.5C519,227.3,598.3,276.3,579.7,286L579.7,286z"/>
		<path style="fill:#42A4B4;" d="M563.8,201.7c5-2.7,13-2.5,17.8,0.4l66.7,33.3c0,0-0.1,8.4,0,10.2c0.1,1.9-1.2,3.9-3.8,5.3
			l-65.2,35.3c-5,2.7-13,2.5-17.8-0.5l-63.1-38.5c-2.2-1.4-3.4-3.1-3.5-4.8c-0.2-2,0-10.5,0-10.5L563.8,201.7L563.8,201.7z"/>
		<path style="fill:#67CCF2;" d="M563.8,191.7c5-2.7,13-2.5,17.8,0.4l63.1,38.6c4.8,2.9,4.7,7.6-0.3,10.3l-65.2,35.3
			c-5,2.7-13,2.5-17.8-0.5l-63.1-38.5c-4.8-2.9-4.7-7.6,0.3-10.3L563.8,191.7L563.8,191.7z"/>
		<g>
			<path style="fill:#FFFFFF;" d="M584.7,245.1c-2.3-0.4-4.5-0.8-6.8-1.2c2.3-1.2,4.4-2.4,6.7-3.6
				C584.6,241.9,584.6,243.4,584.7,245.1 M578.9,256.5c-1,0.5-2.3,0.6-3.5,0.1c-1.1-0.4-2.1-1-3-1.6c-2.6-1.8-4.4-4-6-6.3l0-0.2
				c1.3-0.5,2.6-0.9,3.8-1.4c1.4-0.5,2.8-1.1,4.2-1.7c0.2-0.1,0.4-0.1,0.6-0.1c3.1,0.6,6.2,1.2,9.4,1.8l0,0.1
				c-0.4,2.4-1.1,4.8-2.8,6.9c-0.6,0.8-1.5,1.5-2.4,2.1C579.1,256.4,579,256.4,578.9,256.5 M601.9,244.2c-0.2,0.1-0.5,0.2-0.9,0.4
				c-1.3,0.4-2.7,0.7-4.1,0.9c-2.9,0.4-5.9,0.2-8.9,0c-0.1,0-0.2,0-0.3-0.1c0-1,0-1.9,0-2.8c-0.1-1.2-0.2-2.4-0.3-3.7
				c0-0.2,0.1-0.4,0.2-0.6c2.1-1.5,4.2-3.1,6.4-4.7c1,0.6,2.1,1.3,3.1,2c2,1.3,3.7,2.8,4.9,4.6c0.3,0.5,0.6,0.9,0.8,1.4
				C603.3,242.7,603,243.6,601.9,244.2 M570.8,244.4c-2,0.7-3.9,1.4-5.9,2.2c-0.8-1.6-1.6-3.1-2.4-4.7
				C565.4,242.8,568,243.6,570.8,244.4 M586.9,235.7c-0.5-2.1-1-4-1.6-6.2c2.1,0.9,4,1.7,6.1,2.7
				C589.9,233.4,588.5,234.5,586.9,235.7 M593.1,230.6c-0.4-0.2-0.8-0.4-1.2-0.6c-2.3-1-4.6-1.9-7-2.9c-0.4-0.2-0.6-0.3-0.7-0.6
				c-0.9-1.9-1.8-3.9-2.7-5.8c-0.1-0.2-0.2-0.3,0-0.5l0.2-0.1c3-0.7,6.2-1.3,9.5-1.3c1.1,0,2.2,0.1,3.3,0.3c2.3,0.4,3.3,1.3,3.4,2.9
				c0,0.3,0,0.7-0.1,1C597.5,225.1,595.2,228.9,593.1,230.6 M562.2,247.3c-3.9,1-7.9,1.7-12.3,1.2c-3.5-0.4-4.8-1.6-4.5-4
				c0.3-2,1.4-3.8,2.8-5.4c0.6-0.8,1.3-1.5,2.1-2.3c0.5,0.2,0.9,0.4,1.3,0.6c2.3,1,4.6,2,6.9,3c0.3,0.1,0.5,0.3,0.6,0.5
				c1,2.1,2,4.2,3,6.2C562.1,247.2,562.1,247.2,562.2,247.3 M580.8,225.6c-2.8-0.8-5.4-1.6-8.2-2.5c2-0.7,3.9-1.4,5.9-2.1
				C579.3,222.5,580,224,580.8,225.6 M557.9,237.8c-2-0.9-3.9-1.7-5.9-2.7c1.5-1.2,2.9-2.2,4.4-3.4
				C556.9,233.8,557.4,235.8,557.9,237.8 M579.4,240.3c-1.6,0.8-3.3,1.6-5,2.5c-0.2,0.1-0.6,0.1-0.8,0.1c-4-1-7.8-2.1-11.6-3.5
				c-0.2-0.1-0.5-0.3-0.6-0.5c-1-2.8-1.7-5.6-2.2-8.5c0-0.3,0.1-0.5,0.4-0.6c1.5-0.9,3-1.8,4.5-2.6c1.5-0.8,3.1-1.6,4.7-2.4
				c0.3-0.2,0.7-0.2,1.1-0.1c3.8,1.2,7.6,2.3,11.4,3.5c0.2,0.1,0.5,0.3,0.6,0.5c0.8,2.9,1.5,5.7,2.2,8.6c0,0.2-0.1,0.4-0.3,0.5
				C582.4,238.6,581,239.4,579.4,240.3 M558.9,227.1c0-1.6,0-3.1,0-4.7c2.2,0.4,4.4,0.8,6.5,1.1l0,0.1
				C563.2,224.8,561.1,225.9,558.9,227.1 M549.8,233.6c-0.2,0.1-0.4,0.1-0.7-0.1c-2.6-1.5-5.1-3.1-7-5.2c-0.6-0.6-1.1-1.3-1.5-2
				c-0.8-1.4-0.5-2.4,0.8-3.1c0.3-0.2,0.7-0.3,1.1-0.5c0.7-0.2,1.5-0.4,2.2-0.6c3.6-0.6,7.2-0.5,10.9-0.2c0.1,2.3,0.2,4.5,0.3,6.7
				c0,0.1-0.1,0.3-0.3,0.4c-1.9,1.4-3.9,2.9-5.8,4.3L549.8,233.6 M576.9,219.1l-0.2,0.1c-2.5,0.9-5.1,1.9-7.6,2.8
				c-0.2,0.1-0.4,0.1-0.6,0.1c-3.1-0.6-6.2-1.2-9.4-1.9c0.2-0.9,0.4-1.8,0.6-2.7c0.5-1.7,1.2-3.4,2.5-4.9c0.5-0.6,1.1-1.1,1.8-1.5
				c0.2-0.1,0.5-0.2,0.7-0.3c0.9-0.3,1.8-0.3,2.7,0c1.6,0.5,2.9,1.3,4,2.2c2.2,1.7,3.9,3.6,5.4,5.7
				C577.1,218.9,577.1,219,576.9,219.1 M562.1,209.4c-1.1,0.6-2,1.4-2.7,2.3c-1.9,2.3-2.7,4.9-3.2,7.6c0,0.2-0.1,0.4-0.1,0.7
				c-0.3,0-0.5,0-0.7-0.1c-2.5-0.1-5-0.2-7.4-0.1c-2.6,0-5,0.4-7.2,1.3c-0.4,0.2-0.8,0.3-1.1,0.5c-2.2,1.2-2.9,2.9-2,5
				c0.2,0.4,0.4,0.8,0.6,1.2c1.5,2.2,3.8,4.1,6.3,5.8c1,0.7,2.1,1.3,3.2,2c-0.1,0.2-0.3,0.3-0.4,0.4c-1.5,1.5-2.8,3.1-3.7,4.8
				c-0.8,1.4-1.3,2.9-1.3,4.5c0.1,2.7,2,4.4,5.8,5.2c1.7,0.3,3.3,0.4,5,0.4c3.4-0.1,6.6-0.6,9.8-1.4c0.4-0.1,0.6-0.1,0.9,0.2
				c1.2,1.4,2.3,2.9,3.6,4.3c1.5,1.6,3.4,3,5.7,4c2.9,1.3,5.7,1.3,8,0c0.4-0.2,0.8-0.5,1.2-0.8c2-1.6,3.1-3.4,3.9-5.4
				c0.5-1.4,0.9-2.8,1.3-4.3c1.9,0.1,3.9,0.2,5.9,0.2c3.1,0,6.1-0.2,8.8-1.2c0.6-0.2,1-0.4,1.5-0.6c2.2-1.2,2.9-3,2-5.2
				c-0.6-1.3-1.5-2.4-2.6-3.5c-1.9-1.9-4.2-3.5-6.7-5c-0.5-0.3-0.6-0.5-0.2-0.9c1.2-1.4,2.4-2.9,3.4-4.4c1-1.5,1.5-3,1.5-4.7
				c0-2.8-2.1-4.7-6.1-5.3c-1.6-0.3-3.3-0.3-5-0.3c-2.9,0-5.7,0.6-8.4,1.2c-0.4,0.1-0.9,0.2-1.4,0.3c-0.1-0.2-0.2-0.3-0.3-0.4
				c-1.7-2.4-3.8-4.7-6.5-6.6c-1.3-0.9-2.8-1.8-4.5-2.3c-2-0.6-3.9-0.6-5.7,0.1C562.6,209.2,562.4,209.3,562.1,209.4"/>
			<path style="fill:#FFFFFF;" d="M567.5,230l-0.1,0.1c-2.7,1.5-3,4.3-0.7,6.3c2.3,2,6.4,2.4,9,1l0.1,0c2.7-1.5,3-4.4,0.7-6.3
				C574.2,229,570.2,228.6,567.5,230"/>
		</g>
	</g>
	<g>
		<path style="opacity:0.15;enable-background:new    ;" d="M172.4,248.5l-5.4,3.6c-4.7,2.6-12.3,2.4-16.9-0.4L129,238.7
			c-4.6-2.8-4.4-7.2,0.3-9.7l2.4-1.4L172.4,248.5z"/>
		<path style="fill:#D99050;" d="M152.6,215.4c5-2.7,13-2.5,17.8,0.4L195,230c0,0,0.1,2,0,3.9s-1.3,3.7-3.8,5l-21.7,11.8
			c-5,2.7-13,2.5-17.9-0.4l-21-12.8c-2.2-1.3-3.4-3-3.5-4.7c-0.2-2,0.1-4.2,0.1-4.2L152.6,215.4L152.6,215.4z"/>
		<path style="fill:#FAB14E;" d="M152.6,212.4c5-2.7,13-2.5,17.8,0.4l21,12.8c4.8,2.9,4.7,7.6-0.3,10.3l-21.7,11.8
			c-5,2.7-13,2.5-17.9-0.4l-21-12.8c-4.8-2.9-4.7-7.6,0.3-10.3L152.6,212.4L152.6,212.4z"/>
		<g>
			<path style="fill:#FFFFFF;" d="M142.7,235.7c0.3-0.2,0.6-0.3,0.9-0.5c0.4-0.2,0.8-0.4,1.2-0.7c0.8,0.5,1.5,0.9,2.3,1.4
				c0.7-0.4,1.4-0.8,2.2-1.2c-0.8-0.5-1.5-0.9-2.2-1.4c0.8-0.4,1.6-0.9,2.4-1.3c2.3,1.4,4.6,2.8,6.9,4.2c-0.8,0.4-1.6,0.9-2.4,1.3
				c-0.8-0.5-1.5-0.9-2.3-1.4c-0.7,0.4-1.4,0.8-2.2,1.2c0.8,0.5,1.5,0.9,2.3,1.4c-0.8,0.4-1.6,0.9-2.4,1.3l-0.3-0.1
				c-2.1-1.3-4.2-2.6-6.4-3.9C142.5,235.9,142.5,235.8,142.7,235.7L142.7,235.7z M157.1,227.9c0.8,0.5,1.5,0.9,2.3,1.4
				c-0.7,0.4-1.4,0.7-2.1,1.1c1.6,0.9,3.1,1.9,4.6,2.8c-0.8,0.4-1.6,0.9-2.4,1.3c-1.5-0.9-3.1-1.9-4.6-2.8c-0.7,0.4-1.4,0.8-2.1,1.1
				c-0.8-0.5-1.5-0.9-2.3-1.4C152.7,230.3,154.9,229.1,157.1,227.9z M158.4,227.2L158.4,227.2c0.4-0.2,0.7-0.3,1-0.5
				s0.6-0.3,0.9-0.5c0.2-0.1,0.4-0.1,0.8-0.1c1,0.2,2,0.3,3.1,0.5c0.1,0,0.3,0,0.5,0.1c-0.3-0.7-0.5-1.4-0.8-2.1
				c-0.1-0.2,0-0.3,0.2-0.4c0.3-0.2,0.7-0.3,1-0.5c0.3-0.2,0.6-0.4,1-0.5c0.1-0.1,0.2-0.1,0.4,0c2.2,1.4,4.4,2.7,6.6,4l0.1,0.1
				c-0.8,0.4-1.5,0.8-2.4,1.3c-1.1-0.7-2.2-1.4-3.3-2l-0.1,0c0.2,0.8,0.5,1.5,0.8,2.3c-1.4-0.2-2.7-0.4-4-0.6l0,0
				c1.1,0.7,2.2,1.3,3.3,2c-0.8,0.4-1.6,0.8-2.4,1.3c-0.1-0.1-0.2-0.1-0.3-0.2c-2.1-1.3-4.2-2.6-6.3-3.9
				C158.2,227.4,158.2,227.3,158.4,227.2L158.4,227.2z M167.6,222.2L167.6,222.2c0.3-0.2,0.6-0.3,0.9-0.5s0.6-0.3,0.9-0.5l0,0
				c0.2-0.1,0.4-0.1,0.6,0c1.3,0.8,2.7,1.6,4,2.4c0.1,0.1,0.2,0.1,0.3,0.2c1.1-0.6,2.2-1.2,3.3-1.8c0.8,0.5,1.5,0.9,2.3,1.4
				c-1.9,1-3.8,2.1-5.7,3.1c-0.1-0.1-0.2-0.1-0.3-0.2c-2.1-1.3-4.2-2.6-6.3-3.9C167.4,222.4,167.4,222.3,167.6,222.2L167.6,222.2z"
				/>
		</g>
	</g>
	<g>
		<path style="opacity:0.15;enable-background:new    ;" d="M466.4,428.4L461,432c-4.7,2.6-12.3,2.4-16.9-0.4l-21.2-13
			c-4.6-2.8-4.4-7.2,0.3-9.7l2.4-1.4L466.4,428.4L466.4,428.4z"/>
		<path style="fill:#42A4B4;" d="M446.5,395c5-2.7,13-2.5,17.9,0.5l24.5,14.7c0,0,0,1.4,0,3.1c0.1,2-1.2,3.9-3.8,5.3l-21.7,11.8
			c-5,2.7-13,2.5-17.9-0.5l-21-12.8c-2.4-1.4-3.5-3.3-3.5-5.1c0-1.9,0-3.5,0-3.5L446.5,395L446.5,395z"/>
		<path style="fill:#67CCF2;" d="M446.5,392c5-2.7,13-2.5,17.9,0.5l21,12.8c4.8,3,4.7,7.6-0.3,10.3l-21.7,11.8
			c-5,2.7-13,2.5-17.9-0.5l-21-12.8c-4.8-3-4.7-7.6,0.3-10.3L446.5,392z"/>
		<g>
			<path style="fill:#FFFFFF;" d="M436.8,414.5c1.4-0.7,2.7-1.5,4-2.2c1-0.5,1.9-1,2.9-1.5c0.2-0.1,0.4-0.1,0.6,0
				c0.7,0.4,1.4,0.8,2,1.2c0.2,0.1,0.2,0.2,0,0.3c-1.3,0.7-2.5,1.4-3.8,2.1c-0.2,0.1-0.2,0.2,0,0.4c1.1,0.7,2.2,1.4,3.3,2
				c0.2,0.1,0.4,0.1,0.6,0c1.2-0.7,2.5-1.4,3.8-2.1c0.2-0.1,0.4-0.1,0.6,0c0.7,0.4,1.4,0.8,2,1.2c0.2,0.1,0.2,0.2,0,0.3
				c-1.2,0.6-2.3,1.3-3.5,1.9c-1.2,0.6-2.3,1.3-3.5,1.9c-0.2,0.1-0.4,0.1-0.5,0c-1.4-0.9-2.8-1.7-4.2-2.6c-1.4-0.9-2.8-1.7-4.2-2.6
				C436.5,414.7,436.5,414.7,436.8,414.5L436.8,414.5z M453.9,405.2c0.2-0.1,0.3-0.1,0.5,0c0.6,0.4,1.3,0.8,2,1.2
				c0.2,0.1,0.2,0.2,0,0.3c-0.4,0.2-0.8,0.4-1.1,0.6l-2.2,1.2c-0.1,0-0.2,0.1-0.3,0.2l0,0.1c0.8,0,1.5,0.1,2.3,0.1
				c2,0.1,4,0.2,6,0.3c0.2,0,0.4,0.1,0.5,0.1c0.6,0.3,1.1,0.7,1.6,1c0.2,0.1,0.2,0.2,0,0.3c-1.4,0.7-2.7,1.5-4.1,2.2
				c-1.4,0.7-2.7,1.5-4.1,2.2c-0.2,0.1-0.3,0.1-0.5,0c-0.6-0.4-1.3-0.8-1.9-1.2c-0.2-0.1-0.2-0.2,0-0.4c0.6-0.3,1.2-0.6,1.8-1l1.8-1
				c0.1,0,0.2-0.1,0.4-0.2c-0.2,0-0.3,0-0.4,0c-2.6-0.1-5.2-0.3-7.8-0.4c-0.3,0-0.6-0.1-0.8-0.2c-0.5-0.3-1-0.6-1.5-0.9
				c-0.2-0.1-0.2-0.2,0-0.3c1.3-0.7,2.7-1.5,4-2.2C451.2,406.7,452.6,405.9,453.9,405.2L453.9,405.2z M464.2,399.6
				c0.2-0.1,0.3-0.1,0.5,0c0.6,0.4,1.3,0.8,2,1.2c0.2,0.1,0.2,0.2,0,0.3c-1.1,0.6-2.3,1.2-3.4,1.9c-0.1,0-0.2,0.1-0.4,0.2
				c0.2,0,0.4,0,0.5,0c2.6,0.1,5.2,0.2,7.8,0.4c0.2,0,0.5,0.1,0.6,0.2c0.5,0.3,1.1,0.6,1.6,1c0.2,0.1,0.2,0.2,0,0.3
				c-1.4,0.7-2.7,1.5-4.1,2.2c-1.4,0.7-2.7,1.5-4.1,2.2c-0.2,0.1-0.4,0.1-0.6,0c-0.6-0.4-1.3-0.8-1.9-1.2c-0.2-0.1-0.2-0.2,0-0.3
				c1.2-0.6,2.3-1.3,3.5-1.9c0.1-0.1,0.2-0.1,0.3-0.2l0-0.1l-0.9-0.1c-2.4-0.1-4.8-0.2-7.2-0.4c-0.3,0-0.5-0.1-0.8-0.2
				c-0.5-0.3-1-0.6-1.5-0.9c-0.2-0.1-0.2-0.2,0-0.3c1.4-0.7,2.7-1.5,4-2.2C461.5,401.1,462.9,400.3,464.2,399.6L464.2,399.6z"/>
		</g>
	</g>
	<g>
		<path style="opacity:0.15;enable-background:new    ;" d="M463.3,348.6c-5.1,2.7-8.8,4.5-9.9,4.9c-6.6,2.1-11.7,2.6-16.5-0.4
			l-59.8-37.4c-4.8-3-4.4-6.7-0.4-9.9c0.8-0.7,4.1-2.7,8.7-5.5C402.6,289.9,482,338.9,463.3,348.6z"/>
		<path style="fill:#CCCCCB;" d="M447.8,264.2c5-2.7,13-2.5,17.8,0.5l66.6,33.3c0,0-0.1,8.4,0,10.1c0.1,2-1.2,4-3.8,5.4l-65.2,35.3
			c-5,2.7-13,2.5-17.8-0.5l-63.1-38.5c-2.2-1.3-3.3-3-3.5-4.7c-0.2-2,0-10.6,0-10.6L447.8,264.2L447.8,264.2z"/>
		<path style="fill:#FFFFFF;" d="M447.8,254.2c5-2.7,13-2.5,17.8,0.4l63.1,38.6c4.8,3,4.7,7.6-0.3,10.3l-65.2,35.3
			c-5,2.7-13,2.5-17.8-0.5l-63.1-38.5c-4.8-3-4.7-7.6,0.3-10.3L447.8,254.2L447.8,254.2z"/>
		<path style="fill:#2A3C66;" d="M452.8,274.6c3.4,7.9,6.8,15.8,10.2,23.8c0.4,0.9,0.8,1.8,1.1,2.7c-0.3,0-0.5,0-0.6,0
			c-14.9-2.7-29.8-5.3-44.7-8c3.5-1.9,7-3.8,10.5-5.7c5.8,1,11.5,2,17.4,3.1c-1.5-3.5-2.9-6.8-4.4-10.2
			C445.8,278.4,449.3,276.5,452.8,274.6L452.8,274.6z"/>
		<path style="fill:#9DC849;" d="M452.8,274.6c3.6-1.9,7.2-3.9,10.8-5.8c0.2-0.1,0.5-0.1,0.7-0.2c0,0.2,0,0.3,0.1,0.5
			c6.2,14.4,12.3,28.7,18.5,43.1c0.1,0.2,0.2,0.3,0.4,0.5c-0.1,0-0.2,0.1-0.3,0.1c-0.3-0.1-0.7-0.2-1-0.3
			c-24.4-4.4-48.9-8.8-73.3-13.1c-0.3-0.1-0.6-0.1-1-0.1c0.1-0.1,0.2-0.3,0.4-0.4c3.6-2,7.2-3.9,10.8-5.8l44.7,8c0.2,0,0.4,0,0.6,0
			c-0.4-0.9-0.8-1.8-1.1-2.7C459.6,290.4,456.2,282.5,452.8,274.6z"/>
	</g>
	<g>
		<path style="opacity:0.15;enable-background:new    ;" d="M352.2,280.3c-5.1,2.7-8.8,4.5-9.9,4.9c-6.6,2.1-11.7,2.6-16.5-0.4
			l-59.8-37.4c-4.8-2.9-4.4-6.7-0.4-9.9c0.8-0.7,4.1-2.7,8.7-5.5C291.5,221.6,370.8,270.6,352.2,280.3L352.2,280.3z"/>
		<path style="fill:#CCB048;" d="M336.1,196c5-2.7,13-2.5,17.9,0.4l66.6,33.5c0,0,0,8.4,0,10.3c0,1.9-1.3,3.7-3.8,5.1l-65.2,35.3
			c-5,2.7-13,2.5-17.9-0.5l-63.1-38.6c-2.4-1.4-3.6-3.3-3.5-5.1c0-1.9,0-9.4,0-9.4L336.1,196L336.1,196z"/>
		<path style="fill:#E9D158;" d="M336.1,186c5-2.7,13-2.5,17.9,0.4l63.1,38.6c4.8,2.9,4.7,7.6-0.3,10.3l-65.2,35.3
			c-5,2.7-13,2.5-17.9-0.5l-63.1-38.6c-4.8-2.9-4.7-7.6,0.3-10.3L336.1,186z"/>
		<path style="fill:#2A3C66;" d="M369.2,218.2c1.3-0.7,2.8-1.3,4.6-1.6c2.5-0.5,5-0.4,7.5,0.1l0.1,0.1c-0.5,1.3-1.1,2.7-1.6,4
			c-0.5-0.1-0.9-0.1-1.4-0.2c-1.8-0.2-3.3,0.1-4.4,0.7c-0.4,0.2-0.7,0.4-1,0.7c-1.5,1.5,0.8,2.9,2.8,2.9c0.8,0,1.6-0.1,2.3-0.2
			c1.7-0.3,3.4-0.7,5.2-1c2.2-0.4,4.4-0.8,6.7-0.8c3,0,5.5,0.6,7.7,1.8c1.4,0.8,2.6,1.7,3.2,2.8c0.9,1.7,0.5,3.2-0.9,4.8
			c-0.9,1-2,1.8-3.4,2.5c-0.6,0.3-1.2,0.6-1.8,0.9c-2.3,1-4.8,1.6-7.6,1.8c-2.1,0.1-4.1,0-6.1-0.4c-0.1,0-0.2-0.1-0.4-0.1
			c0.7-1.4,1.3-2.7,2-4.1c0.5,0.1,1.1,0.1,1.6,0.2c2.2,0.2,4.2,0.1,6.1-0.6c0.5-0.2,0.9-0.4,1.3-0.6c0.7-0.4,1.2-0.8,1.6-1.3
			c0.5-0.6,0.6-1.3,0-2c-0.8-0.8-1.9-1.2-3.5-1.1c-0.8,0-1.5,0.1-2.3,0.2c-1.9,0.3-3.7,0.7-5.5,1.1c-2,0.4-4.1,0.7-6.3,0.6
			c-2.7-0.1-5-0.7-6.9-1.8c-1.5-0.8-2.6-1.7-3.2-2.8c-0.9-1.8-0.4-3.4,1.3-4.9C367.5,219.3,368.3,218.7,369.2,218.2L369.2,218.2z
			 M356.4,225.6c0.1,0.1,0.2,0.1,0.3,0.2c6.1,3.7,12.1,7.4,18.2,11.1c1.3,0.8,2.4,1.6,3.2,2.6c1.2,1.6,1.2,3.2-0.1,4.7
			c-0.8,0.9-1.9,1.7-3.1,2.4c-1.4,0.8-3.1,1.4-5.1,1.8c-2.8,0.6-5.6,0.4-8.4-0.2c0.6-1.4,1.3-2.8,1.9-4.1c0.2,0,0.3,0.1,0.5,0.1
			c0.6,0.1,1.3,0.2,1.9,0.3c1.7,0.2,3,0,4.1-0.6c0.4-0.2,0.8-0.5,1.1-0.8c0.8-0.8,0.4-1.5-0.4-2.2c-0.4-0.3-0.8-0.6-1.3-0.9
			c-6-3.6-11.9-7.3-17.9-10.9c-0.1-0.1-0.3-0.2-0.4-0.3C352.6,227.6,354.5,226.6,356.4,225.6z"/>
	</g>
	<g>
		<path style="opacity:0.15;enable-background:new    ;" d="M236.4,343.9c-5.1,2.7-8.8,4.5-9.9,4.9c-6.6,2.1-11.7,2.6-16.5-0.4
			L150.1,311c-4.8-3-4.4-6.7-0.4-9.9c0.8-0.7,4.1-2.7,8.7-5.5C175.7,285.2,255,334.2,236.4,343.9L236.4,343.9z"/>
		<path style="fill:#C45064;" d="M220.3,259.6c5-2.7,13-2.5,17.9,0.5l66.6,33.5c0,0,0,8.4,0,10.3c0,1.9-1.3,3.7-3.8,5.1l-65.2,35.3
			c-5,2.7-13,2.5-17.9-0.5l-63.1-38.5c-2.4-1.5-3.6-3.3-3.5-5.1c0-1.9,0-9.4,0-9.4L220.3,259.6L220.3,259.6z"/>
		<path style="fill:#F0717A;" d="M220.3,249.6c5-2.7,13-2.5,17.9,0.4l63.1,38.6c4.8,3,4.7,7.6-0.3,10.3l-65.2,35.3
			c-5,2.7-13,2.5-17.9-0.5l-63.1-38.5c-4.8-3-4.7-7.6,0.3-10.3L220.3,249.6z"/>
		<g>
			<path style="fill:#FFFFFF;" d="M233.5,297.9c-2,1-4,2.1-5.9,3.1l-0.1,0c-5-2.8-9.9-5.6-14.9-8.5c0.1,0,0.2-0.1,0.3-0.1
				c3.9-2,7.9-4.1,11.8-6.1c0.3-0.1,0.3-0.1,0.6,0l11.4,6.5c0.1,0,0.2,0.1,0.3,0.2c-2.1,1.1-4.1,2.1-6.2,3.2
				c0.1,0.1,0.2,0.1,0.3,0.2c0.8,0.5,1.6,0.9,2.5,1.4C233.5,297.7,233.6,297.8,233.5,297.9 M239.9,291.3c-4-2.3-7.9-4.5-11.9-6.8
				c0.1,0,0.2-0.1,0.3-0.1c6-3.1,12-6.2,17.9-9.4c0.3-0.2,0.3-0.2,0.6,0c3.8,2.1,7.6,4.3,11.3,6.5c0.3,0.2,0.3,0.2,0,0.3
				c-0.8,0.4-1.7,0.9-2.5,1.3c-0.3,0.2-0.3,0.2-0.6,0c-2.8-1.6-5.5-3.1-8.3-4.7c-0.1-0.1-0.2-0.1-0.3-0.2c-1,0.5-2,1-3.1,1.6
				c3,1.7,5.9,3.4,8.9,5.1c-1.1,0.5-2.1,1.1-3.1,1.6c-3-1.7-5.9-3.4-8.9-5.1c-1,0.5-2,1-3.1,1.6c3,1.7,5.9,3.4,8.9,5.1
				C244,289.1,241.9,290.2,239.9,291.3 M203.3,297.3c2-1,4-2.1,5.9-3.1c0.2-0.1,0.3-0.1,0.5,0c3.8,2.2,7.6,4.4,11.4,6.5
				c0.2,0.1,0.2,0.2,0,0.3l0,0c-0.4,0.2-0.9,0.5-1.3,0.7c-0.4,0.2-0.9,0.5-1.3,0.7l0,0c-0.2,0.1-0.3,0.1-0.5,0
				c-2.8-1.6-5.6-3.2-8.4-4.8c-0.1,0-0.2-0.1-0.3-0.2c-1,0.5-2,1.1-3.1,1.6c3,1.7,5.9,3.4,8.9,5.1c-0.1,0-0.2,0.1-0.3,0.1
				c-1.9,1-3.8,2-5.7,3c-0.2,0.1-0.4,0.1-0.6,0c-3.8-2.2-7.6-4.3-11.4-6.5c-0.2-0.1-0.2-0.2,0-0.3
				C199.3,299.4,201.3,298.4,203.3,297.3 M191,300.5c5.9,3.4,11.9,6.8,17.8,10.2c5.1-2.7,10.3-5.4,15.4-8l0.2,0.1
				c0.9,0.5,1.8,1,2.7,1.5l0.1,0.1c4.1-2.1,8.2-4.3,12.4-6.4c-1-0.6-2-1.1-3-1.7c9.3-4.8,18.5-9.6,27.8-14.5
				c-5.9-3.4-11.9-6.8-17.8-10.2c-0.1,0-0.2,0.1-0.3,0.2c-18.3,9.5-36.6,19.1-54.9,28.6C191.3,300.4,191.2,300.4,191,300.5"/>
			<path style="fill:#FFFFFF;" d="M224.8,289.4c-1,0.5-2,1-3,1.6c2,1.1,3.9,2.2,5.9,3.4c1-0.5,2-1,3-1.6
				C228.7,291.7,226.8,290.5,224.8,289.4"/>
		</g>
	</g>
	<g>
		<path style="opacity:0.15;enable-background:new    ;" d="M347.4,412.9c-5.1,2.7-8.8,4.5-9.9,4.9c-6.6,2.1-11.7,2.6-16.5-0.4
			L261.1,380c-4.8-3-4.4-6.7-0.4-9.9c0.8-0.7,4.1-2.7,8.7-5.5C286.7,354.2,366,403.2,347.4,412.9L347.4,412.9z"/>
		<path style="fill:#152033;" d="M331.3,328.6c5-2.7,13-2.5,17.9,0.5l66.6,33.5c0,0,0,8.4,0,10.3c0,1.9-1.3,3.7-3.8,5.1l-65.2,35.3
			c-5,2.7-13,2.5-17.9-0.5l-63.1-38.5c-2.4-1.5-3.6-3.3-3.5-5.1c0-1.9,0-9.4,0-9.4L331.3,328.6z"/>
		<path style="fill:#2A3C66;" d="M331.3,318.6c5-2.7,13-2.5,17.9,0.5l63.1,38.5c4.8,3,4.7,7.6-0.3,10.3l-65.2,35.3
			c-5,2.7-13,2.5-17.9-0.5l-63.1-38.5c-4.8-3-4.7-7.6,0.3-10.3L331.3,318.6z"/>
		<g>
			<defs>
				<polygon id="SVGID_7_" points="345.7,395.9 293.1,364 333.4,330.5 386,362.4 				"/>
			</defs>
			<clipPath id="SVGID_8_">
				<use xlink:href="#SVGID_7_"  style="overflow:visible;"/>
			</clipPath>
			<g style="clip-path:url(#SVGID_8_);">
				<path style="fill:#67CCF2;" d="M323.3,338.9c15.1,9.1,30.1,18.2,45.2,27.4c-12,7.2-24,14.4-36,21.5c1.1-0.4,2.2-0.8,3.2-1.2
					c6.6-2.6,13.2-5.2,19.8-7.8l19.4-7.6c0.3-0.1,0.6-0.2,0.9-0.3l0.1-0.1l0-0.2c1.5-3.8,3-7.5,4.5-11.3c0.1-0.1,0-0.2-0.2-0.4
					c-13.7-8.3-27.5-16.6-41.2-25c-0.2-0.1-0.3-0.1-0.5-0.1c-5,1.6-10,3.3-15.1,4.9C323.4,338.8,323.4,338.9,323.3,338.9"/>
				<path style="fill:#67CCF2;" d="M341.4,365.1c-4.2,0.5-8.4,1-12.6,1.5c0-3,0.1-6,0.1-9.1C333.1,360.1,337.2,362.6,341.4,365.1
					 M320.4,352.4c-0.1,0.1-0.1,0.1-0.1,0.3c0.9,4.9,1.7,9.7,2.6,14.5l0,0.1l-0.3,0c-3.5,0.4-7,0.9-10.5,1.3c-0.1,0-0.2,0-0.2,0.1
					c0,0,0,0-0.1,0.1c-0.4,0.7-0.8,1.5-1.1,2.2l0,0.1c4.3-0.1,8.6-0.2,13-0.3c0.5,3.1,1.1,6.1,1.6,9.2c1-0.4,2.1-0.8,3.1-1.2
					c0.1,0,0.1,0,0.1-0.1c0.1,0,0.1-0.1,0.1-0.2c0-1.8,0-3.5,0.1-5.2c0-0.8,0-1.7,0-2.5c0.1,0,0.2,0,0.3,0
					c6.9-0.2,13.8-0.3,20.6-0.5c0.1,0,0.2,0,0.3-0.1c0,0,0.1-0.1,0.1-0.1c0.8-2,1.5-4.1,2.3-6.1c0-0.1,0-0.2-0.2-0.4
					c-7.7-4.6-15.3-9.3-23-13.9c-0.2-0.1-0.3-0.1-0.5-0.1c-2.7,0.9-5.4,1.7-8.1,2.6C320.6,352.3,320.5,352.4,320.4,352.4"/>
			</g>
		</g>
	</g>
	<g>
		<path style="opacity:0.15;enable-background:new    ;" d="M468.4,217.3c-5.1,2.7-8.8,4.5-9.9,4.9c-6.6,2.1-11.7,2.6-16.5-0.4
			l-59.8-37.4c-4.8-2.9-4.4-6.7-0.4-9.9c0.8-0.7,4.1-2.7,8.7-5.5C407.7,158.5,487,207.6,468.4,217.3L468.4,217.3z"/>
		<path style="fill:#C45064;" d="M451.7,133.3c5-2.7,13-2.5,17.8,0.4l66.6,33.7c0,0,0.1,8.2,0,10.1s-1.3,3.7-3.8,5l-65.2,35.3
			c-5,2.7-13,2.5-17.9-0.4l-63.1-38.6c-2.4-1.5-3.6-3.4-3.5-5.2c0-1.9,0-9.5,0-9.5L451.7,133.3L451.7,133.3z"/>
		<path style="fill:#F0717A;" d="M451.7,123.3c5-2.7,13-2.5,17.8,0.4l63.1,38.6c4.8,2.9,4.7,7.6-0.3,10.3l-65.2,35.3
			c-5,2.7-13,2.5-17.9-0.4l-63.1-38.6c-4.8-2.9-4.7-7.6,0.3-10.3C386.5,158.6,451.7,123.3,451.7,123.3z"/>
		<path style="fill:#FFFFFF;" d="M498.2,153.5c1.2,0.6,1.9,1.4,2,2.4c0,0.6-0.2,1.1-0.7,1.6l-0.2,0.1c-0.2,0.1-0.4,0.1-0.5,0.1
			c-0.1,0-0.2-0.1-0.2-0.2c0-0.1,0-0.2,0.1-0.3c0.2-0.4,0.3-0.9,0.1-1.3c-0.2-0.9-1.1-1.4-2.5-1.8c-1.5-0.4-3.1-0.5-4.7-0.3
			c-1.4,0.2-2.7,0.5-3.9,1c-0.9,0.3-1.7,0.7-2.5,1.1c-1.4,0.7-2.5,1.6-3.3,2.6c-0.1,0.1,0,0.1,0.1,0.2c0.9,0.2,1.6,0.5,2.3,0.9
			c1,0.6,1.5,1.2,1.6,2c0.1,1.1-0.2,2.1-1.1,3.1c-0.3,0.3-0.5,0.6-0.9,0.9l-0.2,0.2c-0.7,0.4-1.9,0.4-2.6,0c-0.9-0.4-1.4-1-1.7-1.6
			c-0.5-0.9-0.7-1.9-0.7-2.9c0-0.3,0.1-0.5,0.1-0.8c0-0.1,0-0.1-0.2-0.1c-0.9-0.2-1.7-0.4-2.6-0.6c-1.2-0.4-2.4-0.8-3.5-1.3v0.1
			c0.9,1.7,1.6,3.4,2.1,5.1c0.1,0.2,0.2,0.4,0.6,0.5c1.1,0.3,2,0.6,2.9,1.1c1.5,0.9,2,2,1.6,3.2c-0.4,1.1-1.1,2-2.4,2.9
			c-0.2,0.1-0.4,0.3-0.6,0.4c-0.2,0.1-0.5,0.2-0.8,0.3c-0.5,0.2-1.1,0.2-1.6-0.1c-0.3-0.1-0.5-0.4-0.6-0.6c-0.1-0.5-0.2-0.9-0.3-1.4
			c-0.2-1.1-0.3-2.1-0.5-3.2c0-0.3-0.1-0.5-0.2-0.8l-0.2-0.1c-1-0.2-1.9-0.4-2.9-0.7c-1.3-0.4-2.5-0.8-3.7-1.3
			c0.1,0.2,0.2,0.5,0.4,0.8c1.8,2.6,3.3,5.2,4.5,7.8c0.2,0.5,0.5,1,0.6,1.6c0,0.4,0.1,0.8-0.1,1.2c-0.1,0.2-0.3,0.4-0.6,0.6
			c-0.5,0.3-1.2,0.4-2,0.2c-0.7-0.1-1.3-0.4-1.9-0.7c-0.8-0.4-1.4-0.9-2-1.3l-0.2-0.1c0.1,0.2,0.2,0.3,0.3,0.5
			c0.6,1,1.3,1.9,1.7,2.9c0.2,0.4,0.3,0.7,0.2,1.1c-0.1,0.4-0.4,0.7-0.9,1c-0.1,0.1-0.2,0.1-0.3,0.1c-0.9,0.4-1.9,0.4-2.9,0.2
			c-1.4-0.2-2.8-0.6-3.9-1.2c-0.6-0.3-1.3-0.6-1.8-0.9c-1.3-0.9-2.5-1.8-3.3-2.9l-0.1-0.1c-0.6,1-1,2-1.5,2.9
			c0.5,0.1,0.9,0.2,1.3,0.4c0.9,0.3,1.7,0.6,2.4,1.1c1.4,0.8,2.5,1.6,3.4,2.6c0.9,1,1.3,2.1,1.4,3.3c0,1.4-0.5,2.8-1.7,4
			c-0.6,0.6-1.3,1.1-2.1,1.6c-0.2,0.1-0.4,0.2-0.6,0.3c-0.6,0.3-1.2,0.5-1.9,0.7c-0.7,0.2-1.5,0.2-2.3,0.1c-1.2-0.1-2.2-0.4-3.1-0.9
			c-1.8-0.9-2.8-2.1-3-3.5c-0.2-1.1,0-2.1,0.3-3.1c0.5-1.5,1.2-3,2-4.4c0.1-0.1,0.2-0.3,0.2-0.4c-0.4,0-0.8,0-1.1,0
			c-1.9,0.1-3.9,0.3-5.8,0.4c-2,0.1-4,0.3-6,0.3c-2.2,0-4.4,0-6.5-0.4c-1.3-0.2-2.6-0.6-3.7-1l-0.2-0.1c-0.3-0.2-0.5-0.3-0.8-0.5
			c-0.2-0.2-0.4-0.4-0.6-0.5c-0.7-0.7-1.2-1.4-1.6-2.2c-0.6-1.2-0.9-2.5-0.9-3.7c0-2,0.4-4,1.2-5.9c0.9-2.2,2.2-4.3,3.8-6.3
			c0.7-0.9,1.5-1.9,2.4-2.8c0.8-0.8,1.7-1.5,2.7-2.2c0.7-0.5,1.4-1,2.2-1.4l0.6-0.3c0.6-0.3,1.3-0.7,1.9-1c1.8-0.8,3.8-1.5,6-1.9
			c1.8-0.3,3.6-0.4,5.5-0.1c1.2,0.2,2.3,0.5,3.3,1c2.3,1.1,3.7,2.6,4.5,4.2c1.2,2.5,0.9,5-0.6,7.5c-0.7,1.2-1.8,2.2-3,3.3
			c-1,0.8-2,1.6-3.2,2.3c-0.3,0.2-0.5,0.3-0.8,0.5c-1,0.6-2.1,1-3.4,1.4c-1.7,0.5-3.4,0.7-5.3,0.5c-0.6-0.1-1.2-0.2-1.7-0.4
			c-0.1,0-0.2-0.1-0.2-0.2c-0.1-0.1,0-0.2,0.1-0.2c0.1,0,0.1-0.1,0.2-0.1c0.2,0,0.4,0,0.5,0c1,0.1,2-0.1,3-0.2
			c1.2-0.2,2.2-0.6,3.1-1.1c0.2-0.1,0.4-0.2,0.5-0.3c1.1-0.6,2-1.3,2.8-2c1.4-1.1,2.5-2.4,3.2-3.7c0.8-1.4,1.2-2.8,1.2-4.2
			c0-1.2-0.4-2.4-1.3-3.5c-0.4-0.5-0.9-0.9-1.5-1.3c-1.4-0.8-3-1.1-4.8-0.8c-1.2,0.2-2.4,0.5-3.4,0.9c-0.9,0.3-1.7,0.7-2.5,1.1
			c-0.1,0.1-0.3,0.2-0.5,0.2c-1.3,0.8-2.5,1.6-3.5,2.5c-1.8,1.6-3.3,3.3-4.4,5c-1.1,1.7-2,3.4-2.6,5.1c-0.4,1.2-0.7,2.5-0.7,3.8
			c0,0.9,0.2,1.9,0.8,2.8c0.4,0.7,1,1.4,1.9,2c1.2,0.9,2.9,1.4,4.8,1.6c1.3,0.2,2.7,0.2,4.1,0.2c2.2-0.1,4.4-0.2,6.6-0.3
			c1.5-0.1,3-0.1,4.5,0c0.1,0,0.3,0,0.4,0c0.2-0.3,0.3-0.6,0.5-0.9c0.7-1.2,1.4-2.5,2-3.8c0.2-0.3,0.2-0.6,0.2-1
			c-0.2-1.2,0-2.3,0.7-3.4c0.2-0.4,0.6-0.8,1.1-1.1c1.1-0.6,2.3-0.6,3.5-0.2c0.9,0.4,1.5,0.8,2.1,1.3c0.1,0,0.1-0.1,0.2-0.2
			c0.1-0.1,0.2-0.3,0.4-0.4c0.3-0.2,0.7-0.3,1.2-0.3c0.5-0.1,0.9,0.1,1.2,0.4c0.7,0.7,1.4,1.5,2.1,2.2c0.7,0.7,1.4,1.4,2.1,2.1
			c0.4,0.4,0.9,0.7,1.5,1l0.2-0.1c-0.2-0.3-0.3-0.7-0.5-1c-0.9-1.6-1.9-3.1-2.8-4.6c-0.8-1.4-1.7-2.7-2.6-4.1
			c-0.3-0.6-0.8-1.1-1.4-1.6c-0.2-0.2-0.3-0.5,0-0.7c0.3-0.2,0.6-0.5,0.9-0.7c0.2-0.1,0.4-0.3,0.6-0.4c0.3-0.1,0.5-0.3,0.9-0.4
			c0.1-0.1,0.3-0.1,0.5-0.1c0.4-0.1,0.6,0,0.8,0.2c0.5,0.5,0.9,1.1,1.5,1.6c0.5,0.5,1.2,0.8,1.9,1.2c1,0.5,2.2,0.8,3.4,1.1
			c-0.5-1.6-1.2-3.1-2-4.6c-0.3-0.5-0.6-1-1-1.5c-0.4-0.4-0.8-0.9-1.2-1.3c-0.1-0.1-0.1-0.2,0-0.3c0.2-0.2,0.5-0.5,0.8-0.7
			c0.3-0.2,0.6-0.4,0.9-0.6c0.2-0.1,0.3-0.2,0.5-0.3c0.3-0.1,0.7-0.2,1.1-0.2c0.3,0,0.5,0.1,0.6,0.2c0.4,0.5,0.9,1,1.4,1.5
			c0.5,0.5,1.2,0.9,2,1.2c0.5,0.2,1,0.5,1.7,0.7c1,0.2,1.9,0.4,2.9,0.7c0.2-0.2,0.3-0.4,0.5-0.5c0.7-0.9,1.5-1.7,2.6-2.4
			c0.4-0.3,0.9-0.6,1.4-0.8c1.2-0.6,2.5-1.2,4-1.6c1.8-0.4,3.6-0.6,5.6-0.5C495.3,152.4,496.9,152.8,498.2,153.5L498.2,153.5z
			 M455.8,181.6c-0.7-0.9-1.7-1.6-3-2.1c-0.4-0.2-0.9-0.4-1.3-0.6l-0.1,0.1l0,0.1c-0.8,1.5-1.4,3.1-1.6,4.7c-0.1,0.8,0,1.6,0.4,2.4
			c0.4,0.6,0.8,1.2,1.6,1.6c0.9,0.5,1.8,0.6,2.7,0.1l0.1-0.1c0.8-0.4,1.2-0.9,1.6-1.5C457.2,184.7,457,183.2,455.8,181.6
			 M457.6,168.4c-0.2-0.2-0.5-0.2-0.8-0.1l0,0c-0.1,0.1-0.3,0.2-0.4,0.3c-0.3,0.4-0.4,0.9-0.4,1.4c0.1,0.6,0.3,1.1,0.5,1.6
			c0.7,1.5,1.9,2.8,3.7,3.9c0.4,0.2,0.9,0.5,1.3,0.7c0.4,0.2,0.8,0.3,1.3,0.4c0.3,0,0.5,0,0.6,0c0.1-0.1,0.1-0.1,0.1-0.3
			c0-0.3-0.1-0.5-0.2-0.8c-0.4-0.7-0.9-1.4-1.4-2.1c-1-1.4-2-2.8-3.2-4.1C458.4,169.1,458,168.7,457.6,168.4 M482.1,161.1
			c-0.4-0.3-0.8-0.5-1.4-0.7c0,0.3,0,0.6,0,0.9c0.1,0.9,0.5,1.8,1.3,2.6c0.1,0.1,0.2,0.2,0.3,0.2l0.2,0l0,0c0.4-0.5,0.7-1,0.6-1.6
			C483.1,162,482.7,161.5,482.1,161.1 M476.3,167.2c-0.2-0.3-0.5-0.6-1-0.8l0,0c0.3,1.2,0.4,2.3,0.4,3.5l0,0.1l0.1,0
			c0.1-0.1,0.2-0.1,0.3-0.2c0.1-0.2,0.2-0.5,0.3-0.7C476.7,168.5,476.7,167.8,476.3,167.2 M465,173.7L465,173.7L465,173.7L465,173.7
			"/>
	</g>
	<g>
		<path style="opacity:0.15;enable-background:new    ;" d="M178.7,166.4l-5.5,3.6c-4.8,2.6-12.5,2.4-17.1-0.4l-21.5-13.1
			c-4.6-2.8-4.5-7.3,0.3-9.9l2.4-1.5L178.7,166.4L178.7,166.4z"/>
		<path style="fill:#76AD47;" d="M159.2,131.7c5-2.7,13-2.5,17.9,0.4l25.8,15.2c0,0,0,1.7,0,3.5c0,1.9-1.3,3.8-3.8,5.2L176,168.6
			c-5,2.7-13,2.5-17.9-0.4l-22.3-13.6c-2.3-1.4-3.4-3.1-3.5-4.9c-0.1-2,0.1-3.8,0.1-3.8L159.2,131.7L159.2,131.7z"/>
		<path style="fill:#9DC849;" d="M159.2,128.7c5-2.7,13-2.5,17.9,0.4l22.3,13.6c4.8,2.9,4.7,7.6-0.3,10.3L176,165.6
			c-5,2.7-13,2.5-17.9-0.4l-22.3-13.6c-4.8-2.9-4.7-7.6,0.3-10.3L159.2,128.7z"/>
		<g>
			<path style="fill:#FFFFFF;" d="M159.1,140.9c0.6-0.3,1.1-0.5,1.7-0.8c1.6-0.8,3.3-1.5,5.1-2c1-0.3,2-0.6,3-0.6c0.6,0,1,0,1.3,0.2
				c1,0.6,2,1.3,3.1,1.9c0.5,0.3,0.6,0.6,0.4,1.1c-0.1,0.2-0.3,0.4-0.4,0.6c-1.4,1.6-3.4,2.9-5.6,4.2c-0.3,0.2-0.6,0.4-1,0.5
				c-0.8,0.4-1.7,0.9-2.6,1.3c-1.4,0.7-2.9,1.4-4.6,1.9c-1.2,0.4-2.5,0.8-3.8,1c-0.7,0.1-1.2,0-1.6-0.2c-1-0.6-2-1.3-3-1.9
				c-0.5-0.3-0.6-0.7-0.3-1.1c0.2-0.4,0.5-0.7,0.8-1c1.3-1.3,3-2.4,4.8-3.6c0.3-0.2,0.6-0.4,0.9-0.5
				C157.8,141.5,158.4,141.2,159.1,140.9L159.1,140.9z M175.7,141c0.1,0.1,0.2,0.1,0.3,0.2c1,0.6,2,1.2,3,1.8c0.5,0.3,0.5,0.6,0.4,1
				c-0.3,0.7-0.9,1.3-1.7,1.9c-1.2,1-2.5,1.9-4,2.8c-0.7,0.4-1.4,0.8-2.1,1.2c-0.6,0.3-1.3,0.7-1.9,1c-2.1,1-4.3,2-6.8,2.6
				c-0.3,0.1-0.7,0.1-1.1,0.2c-0.8,0.1-1.5,0.1-2-0.3c-0.9-0.6-1.9-1.2-2.9-1.8c-0.1-0.1-0.2-0.1-0.3-0.2c4.2-0.9,7.7-2.6,11-4.3
				C170.8,145.3,173.9,143.4,175.7,141L175.7,141z M181.4,144.5c0.1,0.1,0.2,0.1,0.3,0.2c1,0.6,1.9,1.2,3,1.8
				c0.5,0.3,0.6,0.7,0.3,1.1c-0.2,0.4-0.5,0.7-0.8,1.1c-1.3,1.3-3,2.4-4.8,3.5c-0.3,0.2-0.6,0.4-0.8,0.5c-0.6,0.3-1.2,0.7-1.9,1
				c-0.6,0.3-1.1,0.5-1.7,0.8c-1.6,0.8-3.3,1.5-5.1,2c-1,0.3-2,0.6-3,0.6c-0.6,0-1,0-1.3-0.2c-1-0.6-2.1-1.2-3.1-1.9l-0.2-0.2
				c4.2-0.9,7.7-2.5,11-4.3C176.5,148.8,179.5,146.9,181.4,144.5L181.4,144.5z"/>
		</g>
	</g>
	<g>
		<path style="opacity:0.15;enable-background:new    ;" d="M285.5,186.8l-5.5,3.6c-4.8,2.6-12.5,2.4-17.1-0.4l-21.5-13.1
			c-4.6-2.8-4.5-7.3,0.3-9.9l2.4-1.5L285.5,186.8L285.5,186.8z"/>
		<path style="fill:#C45064;" d="M265.9,151.9c5-2.7,13-2.5,17.9,0.4l25.9,15.7c0,0,0.1,1.3,0,3.2s-1.3,3.7-3.8,5.1l-23.1,12.5
			c-5,2.7-13,2.5-17.9-0.4l-22.3-13.6c-2.3-1.4-3.5-3.2-3.5-5c-0.1-1.9,0-3.4,0-3.4L265.9,151.9L265.9,151.9z"/>
		<path style="fill:#F0717A;" d="M265.9,148.9c5-2.7,13-2.5,17.9,0.4l22.3,13.6c4.8,2.9,4.7,7.6-0.3,10.3l-23.1,12.5
			c-5,2.7-13,2.5-17.9-0.4l-22.3-13.6c-4.8-2.9-4.7-7.6,0.3-10.3L265.9,148.9z"/>
		<path style="fill:#FFFFFF;" d="M265.1,157.6c0.6,0.6,1.2,1.2,1.8,1.8l0.1,0.1l0.2-0.1c1.1-0.5,2.3-1,3.4-1.5
			c0.5-0.2,1-0.3,1.5-0.4c0.2-0.1,0.5-0.1,0.6,0c0.2,0.1,0.1,0.3,0,0.4c-0.4,0.4-0.8,0.8-1.3,1.1c-1.6,1.2-3.5,2.3-5.4,3.4
			c-0.4,0.2-0.9,0.4-1.3,0.7c-1.3,0.7-2.7,1.3-4.1,2c-1,0.4-2,0.9-3.1,1.2c-0.2,0.1-0.5,0.1-0.7,0.1c-0.4,0.1-0.5-0.1-0.4-0.3
			c0.1-0.2,0.2-0.4,0.4-0.5c0.7-0.5,1.4-1.1,2.1-1.6c1.4-1,2.9-1.8,4.5-2.7c0.5-0.3,1-0.6,1.6-0.8l0.1-0.1c0.2-0.1,0.2-0.2,0-0.4
			c-0.7-0.7-1.4-1.4-2.1-2.1l-0.1-0.2c0-1.6,0-3.2-0.1-4.8c0-0.1,0-0.2,0.1-0.2c0.1,0,0.1-0.1,0.2-0.1c0.5-0.1,1-0.1,1.5,0l0.1,0
			c0,1.3,0.1,2.6,0.1,3.9c0,0.2,0,0.4,0,0.6C264.9,157.3,265,157.4,265.1,157.6L265.1,157.6z"/>
		<path style="fill:#FFFFFF;" d="M273.3,157.9c0.5,0.4,1,0.7,1.5,1.1c0.7,0.5,1.4,1.1,2.1,1.6c0.7,0.5,1.4,1.1,2.1,1.6
			c0.7,0.5,1.4,1,2.1,1.6c0.1,0.1,0.2,0.2,0.4,0.3l0.1,0.1c-0.1,0.5-0.2,0.9-0.3,1.4l-0.1,0.2l-0.2,0.1l-0.1-0.1
			c0-0.2,0-0.4-0.1-0.6c-0.1-0.3-0.1-0.5-0.2-0.8l0-0.1c-0.1-0.2-0.3-0.4-0.8-0.4c-0.3,0-0.6,0-0.8,0.1l-0.2,0.2
			c-0.3,0.3-0.4,0.6-0.4,0.9l0,0.2c-0.1-0.1-0.2-0.1-0.2-0.2c-0.1-0.1-0.3-0.2-0.5-0.1l-0.1,0.1c-0.1,0.1-0.1,0.1-0.1,0.2
			c0.1,0.2,0.3,0.5,0.4,0.7c0.1,0.1,0.2,0.3,0.2,0.4c-0.1,0.4-0.2,0.8-0.3,1.2c0,0.1-0.2,0.2-0.3,0.3c-0.1-0.1-0.3-0.1-0.4-0.2
			c-0.5-0.6-0.9-1.2-1.3-1.8c-0.4-0.6-0.8-1.1-1.1-1.7l-0.1-0.2c-0.1-0.1-0.3-0.1-0.5-0.1c-0.1,0-0.2,0-0.3,0.1l-0.1,0.1
			c0,0.1,0,0.2,0,0.3c0.9,1.2,1.7,2.4,2.6,3.6c0.2,0.3,0.1,0.6-0.1,0.8l-0.1,0.1c-0.1,0.1-0.3,0.1-0.4-0.1c-0.2-0.2-0.5-0.5-0.7-0.8
			c-0.2-0.2-0.3-0.5-0.5-0.8c-0.1-0.1-0.2-0.2-0.4-0.2c-0.2-0.1-0.4,0-0.5,0l-0.1,0.2c0,0.1,0.1,0.3,0.2,0.4
			c0.3,0.4,0.6,0.8,0.6,1.3c0,0.1,0,0.3,0,0.4c0,0.1-0.1,0.2-0.1,0.3l-0.2,0.1c-0.2,0.1-0.4,0.1-0.5-0.1c-0.3-0.3-0.5-0.6-0.7-0.9
			c-0.1-0.2-0.2-0.4-0.3-0.6c-0.1-0.1-0.2-0.2-0.4-0.2c-0.1,0-0.3,0-0.4,0.1l-0.1,0.1c0,0.1-0.1,0.2,0,0.3c0.3,0.6,0.7,1.2,1.3,1.8
			c0.1,0.1,0.2,0.1,0.3,0.2c0.4,0.2,0.9,0.2,1.3,0l0.2-0.1c0.4-0.3,0.5-0.6,0.4-1c0-0.1,0-0.1,0-0.2c0.1,0.1,0.3,0.2,0.4,0.3
			c0.3,0.2,0.7,0.2,0.9,0.1l0.2-0.1c0.2-0.2,0.3-0.4,0.4-0.6c0.2,0,0.5,0.1,0.7,0c0.1,0,0.2-0.1,0.3-0.1c0.1-0.1,0.2-0.1,0.3-0.2
			c0.3-0.3,0.3-0.6,0.4-0.9l0.1-0.2c0.2,0.3,0.3,0.5,0.5,0.8c0.2,0.4,0.4,0.7,0.7,1.1c0,0.1,0.1,0.2,0.2,0.3
			c0.1,0.1,0.3,0.2,0.5,0.2c0.1,0,0.2,0,0.3-0.1l0.1-0.2c0-0.1,0-0.3-0.1-0.4c-0.1-0.2-0.3-0.4-0.5-0.6c-0.4-0.6-0.8-1.2-1.2-1.9
			c-0.2-0.4-0.3-0.7-0.2-1.1c0-0.1,0.1-0.3,0.2-0.4l0.1-0.1l0.3-0.1l0.2,0.2c0,0.1,0.1,0.3,0.1,0.4c0.1,0.3,0.1,0.6,0.2,0.9l0.1,0.2
			c0.2,0.4,0.8,0.5,1.3,0.2l0.1-0.1c0.3-0.2,0.5-0.4,0.6-0.7c0.1-0.3,0.1-0.6,0.2-0.9l0-0.1c0.2,0.1,0.3,0.2,0.5,0.3
			c1.2,0.9,2.4,1.9,3.6,2.8c0.5,0.4,0.9,0.7,1.4,1.1c0.1,0.1,0.1,0.2,0.1,0.3c-0.3,0.3-0.5,0.7-0.9,1c-1,0.9-2.2,1.8-3.6,2.5
			c-0.2,0.1-0.4,0.2-0.6,0.3c-1.6,0.9-3.3,1.6-5.2,2.2c-0.6,0.2-1.2,0.3-1.8,0.4c-0.2,0-0.3,0-0.5-0.1c-0.9-0.4-1.7-0.9-2.6-1.3
			c-0.9-0.4-1.8-0.9-2.6-1.3c-0.2-0.1-0.4-0.2-0.6-0.3c0.3,0,0.5-0.1,0.7-0.2c0.3-0.1,0.4-0.3,0.5-0.6c0.1-0.3,0.1-0.7,0.2-1l0-0.1
			l0.1,0c0.1,0.2,0.3,0.3,0.4,0.5c0.3,0.3,0.6,0.6,0.9,0.8c0.1,0.1,0.3,0.2,0.5,0.1l0.1,0c0.1-0.1,0.1-0.2,0.1-0.3
			c0-0.1-0.1-0.2-0.2-0.4c-0.7-0.8-1.4-1.7-2.1-2.5c-0.2-0.2-0.4-0.4-0.7-0.6c-0.1-0.1-0.3-0.1-0.5-0.1l-0.1,0.1
			c-0.1,0.1-0.2,0.2-0.1,0.3l0.1,0.2c0.1,0.2,0.3,0.3,0.4,0.5c0.6,0.7,0.5,1.4,0.3,2.2c0,0.1-0.1,0.2-0.2,0.3
			c-0.2,0.1-0.6,0.1-0.9-0.1c-0.4-0.2-0.7-0.4-1-0.7c-0.8-0.8-1.2-1.7-1.3-2.6c0-0.2,0-0.4,0.1-0.7c0.1-0.1,0.2-0.3,0.3-0.4
			c0.2-0.1,0.6-0.1,1-0.1c0.2,0,0.4,0.1,0.6,0.1c0.2,0,0.3,0,0.4-0.1c0.1-0.1,0.1-0.2,0-0.3c-0.1-0.1-0.3-0.3-0.5-0.3
			c-0.8-0.1-1.5-0.1-2.2,0.2l-0.1,0c-0.3,0.2-0.5,0.4-0.6,0.6c-0.3,0.5-0.2,1.1-0.1,1.6c0.2,0.6,0.5,1.3,1,1.8l0.1,0.1
			c-3.1-1.6-6.3-3.1-9.3-4.6c0.6-0.2,1.3-0.4,1.9-0.6c0.9-0.3,1.7-0.7,2.6-1.1c1.4-0.6,2.7-1.3,4-2c0.4-0.2,0.8-0.4,1.1-0.6
			c1.3-0.7,2.5-1.5,3.7-2.2c0.9-0.5,1.6-1.1,2.3-1.7C273,158.2,273.1,158.1,273.3,157.9L273.3,157.9z"/>
		<path style="fill:#FFFFFF;" d="M288.2,169.7l0.1,0.1c0.1,0.3,0.3,0.6,0.4,0.9c0.1,0.4,0.5,0.7,0.9,0.9c1.5,1,3,2.1,4.5,3.1
			c0.2,0.1,0.2,0.3,0.1,0.4c-0.2,0.3-0.4,0.6-0.7,0.9c-0.7,0.6-1.6,1.2-2.6,1.7c-0.4,0.2-0.7,0.4-1.1,0.6c-0.9,0.4-1.8,0.8-2.8,1.1
			c-0.4,0.1-0.7,0.2-1.1,0.2c-0.3,0.1-0.5,0-0.8-0.1c-1.1-0.6-2.2-1.1-3.3-1.7c-0.7-0.4-1.5-0.8-2.2-1.2c-0.1-0.1-0.3-0.1-0.4-0.1
			c-0.7-0.1-1.5-0.3-2.2-0.4l-0.2,0c2.5-0.7,4.7-1.6,6.6-2.6C285.2,172.3,286.9,171.1,288.2,169.7L288.2,169.7z"/>
	</g>
	<g>
		<path style="opacity:0.15;enable-background:new    ;" d="M358.1,147.4l-5.5,3.6c-4.8,2.6-12.5,2.4-17.1-0.4L314,137.5
			c-4.6-2.8-4.5-7.3,0.3-9.9l2.4-1.5L358.1,147.4L358.1,147.4z"/>
		<path style="fill:#152033;" d="M338.4,112.6c5-2.7,13-2.5,17.9,0.4l25.8,14.8c0,0,0.2,2.3,0.1,4.1s-1.3,3.7-3.8,5.1l-23.1,12.5
			c-5,2.7-13,2.5-17.9-0.4l-22.3-13.6c-2.3-1.4-3.4-3.1-3.5-4.9c-0.1-2,0-3.9,0-3.9S338.4,112.6,338.4,112.6z"/>
		<path style="fill:#2A3C66;" d="M338.4,109.6c5-2.7,13-2.5,17.9,0.4l22.3,13.7c4.8,2.9,4.7,7.6-0.3,10.3l-23.1,12.5
			c-5,2.7-13,2.5-17.9-0.4l-22.3-13.6c-4.8-2.9-4.7-7.6,0.3-10.3C315.4,122.1,338.4,109.6,338.4,109.6z"/>
		<path style="fill:#FFFFFF;" d="M352,118.2c3.9,2.4,7.8,4.8,11.7,7.2c0.2,0.1,0.2,0.2,0.1,0.3c-1.6,3.1-3.2,6.3-4.9,9.4l-0.1,0.1
			c-0.1,0-0.1,0.1-0.3,0.1c-5.5,0.7-11.1,1.5-16.7,2.2c-0.2,0-0.3,0-0.5-0.1c-4-2.4-7.9-4.9-11.9-7.3l-0.1-0.1c1-1.9,2-3.9,3-5.9
			c0.6-1.2,1.3-2.5,1.9-3.7l0.1-0.2c0.1,0,0.1-0.1,0.3-0.1c5.5-0.7,11.1-1.5,16.6-2.2C351.7,118.1,351.9,118.1,352,118.2L352,118.2z
			"/>
		<path style="fill:#42A4B4;" d="M349.9,123.1l0.2,0.1c1.7,1.1,3.5,2.1,5.2,3.2c0.1,0.1,0.2,0.2,0.2,0.3c-0.8,1.4-1.6,2.9-2.3,4.3
			l-0.1,0.2c-1.3-0.8-2.5-1.6-3.8-2.3c-0.3-0.2-0.5-0.3-0.8-0.5c-0.3-0.2-0.5-0.3-0.8-0.5l-0.1-0.2
			C348.3,126.2,349,124.7,349.9,123.1L349.9,123.1L349.9,123.1z M340.6,124.1L340.6,124.1l0.1,0c2.6-0.4,5.3-0.8,7.9-1.1l0.2,0
			c-0.5,1-1,1.9-1.4,2.9c-0.3,0.6-0.6,1.2-0.9,1.8l-0.1,0.1l-0.2,0.1c-2.6,0.4-5.3,0.7-8,1c-0.1,0-0.1,0-0.2,0
			c0.3-0.5,0.5-1,0.8-1.5c0.5-1,1.1-2,1.6-3L340.6,124.1L340.6,124.1z M338.3,129.3c1.6-0.2,3-0.4,4.5-0.6c1.2-0.1,2.4-0.3,3.6-0.5
			c0.1,0,0.4,0,0.4,0.1c0.9,0.5,1.8,1.1,2.7,1.6s1.8,1.1,2.7,1.7c-0.5,0.1-1,0.1-1.5,0.2c-2.2,0.3-4.4,0.6-6.5,0.9
			c-0.1,0-0.3,0-0.4,0c-0.9-0.6-1.8-1.1-2.8-1.7C340.2,130.5,339.2,129.9,338.3,129.3L338.3,129.3z"/>
		<path style="fill:#67CCF2;" d="M336.6,121.2c4.6-0.6,9.2-1.2,13.9-1.9c-0.5,0.9-0.9,1.8-1.4,2.7l0,0.1l-0.1,0.1l-0.2,0.1
			c-2.1,0.3-4.3,0.6-6.5,0.9c-0.6,0.1-1.2,0.2-1.9,0.3c-0.1,0-0.4,0-0.5-0.1c-0.5-0.3-1.1-0.7-1.6-1l-1.6-1L336.6,121.2L336.6,121.2
			z M351.6,119.6c3.3,2,6.6,4.1,10,6.1c-0.6,0.1-1.2,0.2-1.9,0.2c-0.9,0.1-1.8,0.2-2.7,0.3c-0.3,0-0.5,0-0.6-0.1c-1-0.6-2-1.2-3-1.8
			c-1-0.6-2-1.2-3-1.8c-0.1-0.1-0.3-0.2-0.2-0.3l1.3-2.5L351.6,119.6L351.6,119.6z M356.5,127l0.2-0.1c1.5-0.2,3-0.4,4.5-0.6
			c0.1,0,0.2,0,0.4,0c-1.3,2.6-2.6,5.1-4,7.7c-0.5-0.3-0.9-0.5-1.2-0.8c-0.4-0.2-0.7-0.5-1.1-0.7s-0.8-0.4-1.1-0.7
			c-0.2-0.1-0.2-0.2-0.1-0.4c0.8-1.4,1.6-2.9,2.4-4.3L356.5,127L356.5,127z M344.8,133.4L344.8,133.4l0.2-0.1
			c2.6-0.4,5.2-0.8,7.8-1.1c0.1,0,0.4,0,0.5,0.1c1.2,0.7,2.4,1.4,3.6,2.2c-4.6,0.6-9,1.2-13.6,1.8c0.1-0.2,0.2-0.3,0.2-0.5
			c0.4-0.8,0.7-1.5,1.1-2.3L344.8,133.4z M332.1,130.1c1.6-0.2,3.1-0.4,4.7-0.6c0.1,0,0.4,0,0.5,0.1l2.3,1.4
			c1.3,0.8,2.5,1.5,3.8,2.3l0.1,0.2c-0.4,0.9-0.9,1.8-1.3,2.7C338.8,134.2,335.4,132.2,332.1,130.1L332.1,130.1z M335.9,121.6
			c0.9,0.5,1.7,1,2.5,1.5c0.2,0.1,0.4,0.2,0.5,0.3c0.1,0.1,0.2,0.1,0.3,0.2l0,0c0.2,0.1,0.2,0.2,0.1,0.4c-0.5,0.9-1,1.8-1.5,2.7
			c-0.4,0.7-0.7,1.3-1.1,2l0,0.1l-0.1,0.1l-0.1,0.1c-1.6,0.2-3.1,0.4-4.8,0.6C333.1,126.9,334.5,124.3,335.9,121.6z"/>
	</g>
	<g>
		<path style="opacity:0.15;enable-background:new    ;" d="M288.5,104.8l-5.5,3.6c-4.8,2.6-12.5,2.4-17.1-0.4l-21.5-13.2
			c-4.6-2.8-4.5-7.3,0.3-9.9l2.4-1.5C247,83.5,288.5,104.8,288.5,104.8z"/>
		<path style="fill:#42A4B4;" d="M269,69.9c5-2.7,13-2.5,17.9,0.4l25.8,15c0,0,0.1,1.9,0.1,3.7c0,1.9-1.3,3.8-3.8,5.2l-23.1,12.5
			c-5,2.7-13,2.5-17.9-0.4l-22.3-13.6c-2.4-1.4-3.5-3.3-3.5-5.1c0-1.9,0.1-3.9,0.1-3.9L269,69.9L269,69.9z"/>
		<path style="fill:#67CCF2;" d="M269,66.9c5-2.7,13-2.5,17.9,0.4L309.2,81c4.8,2.9,4.7,7.6-0.3,10.3l-23.1,12.5
			c-5,2.7-13,2.5-17.9-0.4l-22.3-13.6c-4.8-2.9-4.7-7.6,0.3-10.3C246,79.5,269,67,269,66.9z"/>
		<path style="fill:#FFFFFF;" d="M290.8,75c0.7,0.3,1.4,0.6,2.1,1c0.6,0.4,1.3,0.8,1.9,1.2l0.2,0.2c0.7,0.6,1.5,1.1,2.1,1.8
			c4.6,4.5,4.1,10.2-1.2,14.3c-0.5,0.4-1.1,0.8-1.6,1.2c-0.6,0.3-1.3,0.7-2,1.1c-0.1,0-0.2,0.1-0.4,0.1c-1,0.4-1.9,0.8-3,1.2
			c-7.6,2.5-17.6,2.1-24.8-1.1c-0.7-0.3-1.4-0.6-2.1-1c-0.6-0.4-1.3-0.8-1.9-1.2l-0.2-0.2c-0.7-0.6-1.5-1.1-2.1-1.8
			c-4.6-4.5-4.1-10.2,1.2-14.3c0.5-0.4,1.1-0.8,1.6-1.2c0.6-0.3,1.3-0.7,2-1.1c0.1,0,0.3-0.1,0.4-0.1c1-0.4,1.9-0.8,2.9-1.1
			C273.6,71.4,283.6,71.8,290.8,75z M293.4,86.7c-0.1-0.1-0.1-0.1-0.1-0.2c-1.6-1.8-3.3-3.7-4.9-5.5c-0.9-1-2.1-1.8-3.7-2.4
			c-1.3-0.5-2.8-0.7-4.2-1c-1-0.2-2-0.4-2.8-0.7c-1.8-0.6-2.4-1.9-1.5-2.8c0.2-0.2,0.4-0.3,0.7-0.6c-5.3,0.1-9.9,1.1-13.5,3
			c-0.8,0.4-1.6,0.9-2.3,1.5c-3.6,2.7-4.7,5.8-3.7,9.2c0.4-0.2,0.8-0.4,1.2-0.6c0.2-0.1,0.5-0.3,0.7-0.4c0.9-0.6,1.9-1.1,2.8-1.7
			c0.4-0.2,0.8-0.2,1.2-0.1c0.4,0.2,0.4,0.4,0.1,0.7c-0.1,0.1-0.2,0.1-0.3,0.2c-0.4,0.2-0.8,0.5-1.2,0.8c6.9,2.2,13.8,4.3,20.8,6.5
			c-0.1-0.1-0.1-0.2-0.1-0.2c-2-2.4-3.9-4.8-5.9-7.1c-0.1-0.1-0.2-0.2-0.4-0.2c-2.6-0.8-5.2-1.5-7.8-2.3c-0.3-0.1-0.4-0.1-0.6,0
			c-0.5,0.2-1,0.4-1.5,0.7c-0.4,0.2-0.9,0.1-1.2-0.2c-0.2-0.2-0.1-0.4,0.2-0.6c0.1,0,0.2-0.1,0.3-0.1c1.3-0.6,2.6-1.2,3.8-1.9
			c0.9-0.5,1.7-0.9,2.5-1.5c0.4-0.2,0.8-0.5,1.2-0.7c0.3-0.2,0.8-0.2,1.1,0c0.4,0.2,0.4,0.4,0.2,0.6c-0.1,0.1-0.2,0.2-0.4,0.3
			c-0.4,0.3-0.8,0.5-1.2,0.8C279.7,82.4,286.5,84.5,293.4,86.7 M258.3,89.1c3.6,5.9,15.1,9.4,25.6,7.6
			C275.3,94.2,266.8,91.7,258.3,89.1 M297.2,88.8c3.2-6.3-3.7-12.7-13.4-14.6c0.2,0.1,0.3,0.2,0.4,0.2c2.1,1.1,3.5,2.4,4.6,3.8
			c2.7,3.4,5.5,6.9,8.2,10.3C297,88.7,297.1,88.8,297.2,88.8 M291.7,94.1c1.6-0.9,3-1.9,4-3.1c-5.6-1.7-11.1-3.3-16.6-4.9l-0.1,0.1
			c2.6,3.3,5.3,6.6,7.9,9.9C288.8,95.5,290.4,94.8,291.7,94.1"/>
	</g>
	<g>
		<path style="opacity:0.15;enable-background:new    ;" d="M655.4,328l-5.7,3.8c-5,2.7-13,2.5-17.8-0.5l-22.4-13.7
			c-4.8-3-4.7-7.6,0.3-10.3l2.5-1.5L655.4,328z"/>
		<path style="fill:#CCCCCB;" d="M635.1,292.1c5-2.7,13-2.5,17.8,0.5l27.2,15.8c0,0,0.1,2.1,0.1,3.9s-1.3,3.7-3.8,5l-24.5,13.3
			c-5,2.7-13,2.5-17.8-0.5l-23.8-14.5c-2-1.2-3.2-2.8-3.5-4.3c-0.4-2.2,0-4.5,0-4.5L635.1,292.1L635.1,292.1z"/>
		<path style="fill:#FFFFFF;" d="M635.1,289.1c5-2.7,13-2.5,17.8,0.5l23.8,14.5c4.8,3,4.7,7.6-0.3,10.3l-24.5,13.3
			c-5,2.7-13,2.5-17.8-0.5l-23.8-14.5c-4.8-3-4.7-7.6,0.3-10.3L635.1,289.1z"/>
		<g>
			<path style="fill:#67CCF2;" d="M635.8,309.6c1.3,0.1,2.5,0.5,3.7,1.3c0.5,0.4,0.9,0.8,1.2,1.3c0.3,0.5,0.5,1,0.5,1.5
				c0,0.6-0.2,1.2-0.6,1.7c-0.5,0.5-1,0.9-1.7,1.3l-2,1.2l2.6,2.1l-2.3,1.4l-9.8-7.9l4.4-2.7C633.2,310,634.5,309.6,635.8,309.6
				L635.8,309.6z M637.1,312.4c-1-0.8-1.9-1-2.6-0.7c-0.7,0.2-1.5,0.6-2.3,1.1c-0.1,0-0.1,0.1-0.2,0.1c-0.1,0.1-0.2,0.2-0.4,0.2
				c-0.1,0.1-0.2,0.1-0.3,0.2l4.1,3.3c0.1,0,0.1-0.1,0.2-0.1c0.1,0,0.2-0.1,0.2-0.1c0.1,0,0.1-0.1,0.2-0.1c1-0.6,1.7-1.2,2.1-1.7
				C638.6,314,638.3,313.3,637.1,312.4 M636.9,304l2.6,2.1l2-1.2c1.1-0.7,2.2-1.1,3.2-1.2c1-0.1,2,0.3,3.1,1.1l4.5,3.7l-2.3,1.4
				l-4.3-3.5c-0.5-0.4-0.9-0.6-1.3-0.6c-0.4,0-0.9,0.1-1.5,0.5l-1.8,1.1l5.6,4.5l-2.3,1.4l-9.8-8L636.9,304L636.9,304z M655.2,297.7
				c1.3,0,2.6,0.5,3.7,1.3c0.5,0.4,0.9,0.8,1.2,1.3c0.3,0.5,0.5,1,0.5,1.5c0,0.6-0.2,1.2-0.6,1.7c-0.5,0.5-1,0.9-1.7,1.3l-2,1.2
				l2.6,2.1l-2.3,1.4l-9.8-7.9l4.4-2.7C652.5,298,653.9,297.7,655.2,297.7L655.2,297.7z M656.5,300.5c-1-0.8-1.9-1-2.6-0.7
				c-0.7,0.2-1.5,0.6-2.3,1.1c-0.1,0-0.1,0.1-0.2,0.1c-0.1,0.1-0.2,0.2-0.4,0.2c-0.1,0.1-0.2,0.1-0.3,0.2l4.1,3.3
				c0.1,0,0.1-0.1,0.2-0.1c0.1,0,0.2-0.1,0.2-0.1c0.1,0,0.1-0.1,0.2-0.1c1-0.6,1.7-1.2,2.1-1.7C658,302.1,657.6,301.4,656.5,300.5"
				/>
		</g>
	</g>
	<g>
		<path style="opacity:0.15;enable-background:new    ;" d="M589.9,153.7l-5.5,3.6c-4.8,2.6-12.5,2.4-17.1-0.4l-21.5-13.1
			c-4.6-2.8-4.5-7.3,0.3-9.9l2.4-1.5L589.9,153.7L589.9,153.7z"/>
		<path style="fill:#CCCCCB;" d="M570,119.1c5-2.7,13-2.5,17.8,0.4l25.8,15.2c0,0,0.1,1.8,0,3.7s-1.3,3.7-3.8,5.1L586.9,156
			c-5,2.7-13,2.5-17.8-0.4l-22.3-13.6c-2.2-1.4-3.4-3.1-3.5-4.8c-0.1-2,0-3.8,0-3.8L570,119.1L570,119.1z"/>
		<path style="fill:#FFFFFF;" d="M570,116.1c5-2.7,13-2.5,17.8,0.4l22.3,13.6c4.8,2.9,4.7,7.6-0.3,10.3l-23.1,12.5
			c-5,2.7-13,2.5-17.8-0.4l-22.3-13.6c-4.8-2.9-4.7-7.6,0.3-10.3L570,116.1L570,116.1z"/>
		<path style="fill:#2A3C66;" d="M564.1,124.9c0.2-0.1,0.3-0.2,0.5-0.2c1.2-0.4,2.3-1,3.5-1.3c4.1-1.2,8.6-1.7,13.3-1.3
			c4,0.3,7.6,1.2,10.8,2.7c0.5,0.2,1,0.4,1.5,0.7c0.7,0.4,1.4,0.9,2.1,1.3c0.1,0.1,0.2,0.2,0.3,0.3c1.1,0.8,2,1.6,2.7,2.5
			c2.7,3.4,3,6.9,0.7,10.3c-0.3,0.4-0.7,0.9-1,1.3c-0.1,0.1-0.3,0.2-0.4,0.2c-0.6,0.1-1.1,0-1.5-0.3c-1.3-0.8-2.6-1.6-3.9-2.4
			c-0.5-0.3-1-0.6-1.5-0.8c-0.8-0.3-1.6-0.5-2.6-0.5c0.1-0.1,0.2-0.1,0.2-0.2l0.2-0.1c0.9-0.6,1.7-1.3,2.2-2.1
			c0.8-1.2,0.9-2.4,0.1-3.6c-0.5-0.7-1.2-1.4-2-2c-1.7-1.2-3.7-2.1-6.5-2.3c-0.1,0-0.3-0.1-0.4-0.2c-0.8-1-2.2-1.7-3.9-2.2
			c-0.1,0-0.4,0-0.5,0c-0.3,0.2-0.7,0.4-0.9,0.7c-0.7,0.7-1.2,1.6-1.5,2.4c0,0.1-0.2,0.2-0.3,0.3l-0.1,0.1c-1.5,0.5-2.9,1.1-4.2,1.7
			c-1.2,0.7-2.3,1.4-3.3,2.3l-0.1,0.1c-0.1,0.1-0.3,0.1-0.5,0.1c-1.2,0.2-2.3,0.4-3.5,0.6c-0.6,0.1-1.2,0.3-1.7,0.5l-0.2,0.1
			l-0.1,0.2c0.7,1,1.8,1.9,3.5,2.4c0.3,0.1,0.4,0.2,0.4,0.4c0.1,0.9,0.5,1.6,1.3,2.4c0.7,0.6,1.6,1.1,2.6,1.6
			c1.4,0.7,2.9,1.2,4.7,1.5c2.4,0.3,4.5-0.1,6.6-0.7c0.8-0.2,1.5-0.5,2.2-0.8c0,0.6,0.3,1.2,0.9,1.7l0,0.2c-0.3,0.4-0.8,0.8-1.4,1.2
			c-0.2,0.1-0.5,0.2-0.8,0.4c-1,0.4-2.2,0.4-3.3,0.2c-1.1-0.2-2.1-0.2-3.2-0.1c-0.5,0.1-1,0.2-1.3,0.4c-0.1,0.1-0.2,0.1-0.3,0.2
			c-0.2,0.2-0.1,0.3,0.2,0.3c0.4,0,0.7,0,1.1,0c0.6,0,1.2-0.1,1.8,0c0.8,0.1,1.6,0.3,2.4,0.5c0.3,0.1,0.7,0.1,1,0.2
			c1.5,0.1,2.8-0.2,3.9-0.8c0.2-0.1,0.4-0.2,0.6-0.3c0.5-0.3,1.1-0.6,1.6-0.9c0.1,0,0.2,0.1,0.3,0.2c0.8,0.5,1.6,0.9,2.4,1.4
			c0.5,0.3,0.7,0.6,0.4,0.9c-0.2,0.1-0.3,0.2-0.4,0.2l-0.2,0c-2.3,0.6-4.7,1-7.2,1.1c-5.6,0.2-10.7-0.6-15.3-2.6
			c-0.7-0.3-1.3-0.6-2-0.9c-0.7-0.4-1.5-0.9-2.2-1.3l-0.2-0.2c-0.5-0.4-1-0.8-1.4-1.1c-2.9-2.6-4-5.4-3.4-8.4
			c0.5-2.4,1.9-4.4,4.5-6.3c0.5-0.3,1-0.7,1.4-1L564.1,124.9L564.1,124.9z"/>
	</g>
</g>
<g>
	<path style="opacity:0.15;fill:#010101;enable-background:new    ;" d="M675.9,396.2c2.1,6.2,1.5,9.6-8,14.1
		c-9.2,4.4-19.2,1.8-22.4-3.9c-3-5.4,1-13.1,10.7-16.4C665.9,386.7,673.8,390,675.9,396.2L675.9,396.2z"/>
	<path style="opacity:0.15;fill:#010101;enable-background:new    ;" d="M648.1,413.6c-5,4.4-15.6,7.1-18.9,1.6
		c-2.7-4.5,5.2-11.4,11.5-14.4S653.9,408.6,648.1,413.6z"/>
	<circle style="fill:#9DCB41;" cx="662.2" cy="391.9" r="18.5"/>
	<path style="fill:#75AE42;" d="M673.4,403.8c-6.4,6.4-16.8,6.4-23.2,0s-6.4-16.8,0-23.2c2.1-2.1,4.7-3.6,7.4-4.3
		c0,0-7.5,10.5,0.1,19.1c7.8,8.9,19.5,2.4,19.5,2.4C676.5,400,675.2,402,673.4,403.8L673.4,403.8z"/>
	<circle style="fill:#9DCB41;" cx="642.1" cy="405.2" r="9.6"/>
	<path style="fill:#75AE42;" d="M648,411.4c-3.3,3.3-8.7,3.3-12.1,0c-3.3-3.3-3.3-8.7,0-12.1c1.1-1.1,2.5-1.9,3.9-2.2
		c0,0-3.9,5.5,0,9.9c4.1,4.6,10.1,1.2,10.1,1.2C649.5,409.4,648.9,410.5,648,411.4z"/>
	<path style="opacity:0.12;fill:#010101;enable-background:new    ;" d="M210.5,186.3c-7.1,3.9-27.9,7.1-30.2,4.3
		c-2.4-3,9.8-15.2,16.8-19.1c6.4-3.6,14.2-3.8,18.3-0.8l6.7-3.7c0.9-0.5,2-0.5,2.5,0l0.3,0.4c0.5,0.5,0.1,1.3-0.8,1.8l-6.7,3.7
		C219.7,177,216.9,182.7,210.5,186.3L210.5,186.3z"/>
	<path style="fill:#9A8272;" d="M224.2,168.9h-0.7c-1,0-1.9-0.9-1.9-1.9v-23.2c0-1,0.9-1.9,1.9-1.9h0.7c1,0,1.9,0.9,1.9,1.9v23.2
		C226.1,168.1,225.3,168.9,224.2,168.9z"/>
	<path style="fill:#9DCB41;" d="M238.8,146.2c0,8.2-6.7,14.9-14.9,14.9c-8.2,0-14.9-6.7-14.9-14.9c0-12.6,9.9-31.6,14.9-31.6
		S238.8,133.6,238.8,146.2L238.8,146.2z"/>
	<path style="fill:#75AE42;" d="M232.9,155.8c-5.2,5.2-13.6,5.2-18.7,0c-5.7-5.8-3.4-15.2-1.7-20.9c0.7-2.3,4.6-10.5,5.9-12.6
		c-3.2,14.2-4.1,20.4,1.8,26.8c6.5,7,15.8,1.9,15.8,1.9C235.4,152.7,234.4,154.4,232.9,155.8L232.9,155.8z"/>
	<path style="opacity:0.12;fill:#010101;enable-background:new    ;" d="M194.1,97.3c-13.7,7.1-31.4,7.9-39.6,1.7s-3.8-17,9.9-24.1
		c12.4-6.5,28.1-7.7,37.1-3.2l9.9-5.2c1.1-0.6,2.6-0.7,3.3-0.1l1.6,1.2c0.7,0.5,0.3,1.4-0.8,2l-9.8,5.1
		C211.4,81,206.7,90.8,194.1,97.3L194.1,97.3z"/>
	<path style="fill:#9A8272;" d="M214.6,69.6h-2.9c-1.2,0-2.2-1-2.2-2.2V28.1c0-1.2,1-2.2,2.2-2.2h2.9c1.2,0,2.2,1,2.2,2.2v39.3
		C216.9,68.6,215.9,69.6,214.6,69.6z"/>
	<ellipse style="fill:#9DCB41;" cx="213.6" cy="30.3" rx="26.7" ry="26.7"/>
	<path style="fill:#75AE42;" d="M229.8,47.5c-9.2,9.2-24.2,9.2-33.5,0s-9.2-24.2,0-33.5c3.1-3.1,6.8-5.1,10.7-6.2
		c0,0-10.8,15.1,0.1,27.6c11.3,12.9,28.1,3.4,28.1,3.4C234.1,42,232.3,45,229.8,47.5z"/>
	<g>
		<path style="opacity:0.12;fill:#010101;enable-background:new    ;" d="M495.6,462.7c-10.3,5.4-41.5,10-41.5,10
			s13.6-19.8,23.9-25.2c9.4-4.9,19.5-6.8,26.2-3.4l7.5-3.9c0.8-0.5,2-0.5,2.5-0.1l1.2,0.9c0.5,0.4,0.2,1.1-0.6,1.5l-7.4,3.9
			C511.7,451.1,505.1,457.7,495.6,462.7L495.6,462.7z"/>
		<path style="fill:#9A8272;" d="M513.7,442.7h-1.3c-1.2,0-2.2-1-2.2-2.2v-29.9c0-1.2,1-2.2,2.2-2.2h1.3c1.2,0,2.2,1,2.2,2.2v29.9
			C515.9,441.7,514.9,442.7,513.7,442.7z"/>
		<path style="fill:#C3CE41;" d="M529.8,421.7c0,4.7-7.3,8.5-16.3,8.5s-16.3-3.8-16.3-8.5c0-1.9,0.8-3.4,2.1-4.5
			c1.3-1.2,3.2-2.1,5.2-2.7c7.3-2.5,12.2-1.4,18.8,1.1C526.2,416.6,529.8,417.8,529.8,421.7z"/>
		<path style="fill:#93AD3C;" d="M524,428.3c-2.8,1.2-6.4,2-10.4,2c-9,0-16.3-3.8-16.3-8.5c0-1.9,0.8-3.4,2.1-4.5
			c1.3-1.2,3.2-2.1,5.2-2.7C496.4,422.7,508.9,430.7,524,428.3z"/>
		<path style="fill:#818F42;" d="M512,424.6c8.2,0,13.2-5.8,14.3-7.7l-8.2-2.2l-17.6,1.7l-0.2,0.2
			C498.8,418.1,500.9,424.6,512,424.6z"/>
		<path style="fill:#C3CE41;" d="M528.6,414.7c0,4.7-6.8,8.5-15.2,8.5s-15.1-3.8-15.1-8.5c0-1.9,0.8-3.4,1.9-4.5
			c1.2-1.2,3-2.1,4.8-2.7c6.8-2.5,11.3-1.4,17.5,1.1C525.3,409.6,528.6,410.8,528.6,414.7z"/>
		<path style="fill:#93AD3C;" d="M523.1,421.3c-2.6,1.2-6,2-9.7,2c-8.4,0-15.1-3.8-15.1-8.5c0-1.9,0.8-3.4,1.9-4.5
			c1.2-1.2,3-2.1,4.8-2.7C497.5,415.7,509.2,423.7,523.1,421.3L523.1,421.3z"/>
		<path style="fill:#818F42;" d="M512,417.6c7.6,0,12.3-5.8,13.3-7.7l-7.7-2.2l-16.4,1.7l-0.2,0.2
			C499.7,411.1,501.7,417.6,512,417.6z"/>
		<path style="fill:#C3CE41;" d="M528.6,402.6c0,7.7-6.5,13.9-14.5,13.9s-14.5-6.2-14.5-13.9s14.5-31.1,14.5-31.1
			S528.6,394.9,528.6,402.6z"/>
		<path style="fill:#93AD3C;" d="M527,409c-0.3,0.6-0.7,1.2-1.2,1.8c-0.3,0.4-0.7,0.8-1,1.2c-2.7,2.8-6.5,4.5-10.7,4.5
			c-8,0-14.5-6.2-14.5-13.9c0-4.6,5.2-14.8,9.3-22.2c0.6-1,1.1-2,1.7-3C501.5,404.8,509.4,415.8,527,409z"/>
	</g>
	<g>
		<g>
			<defs>
				<polygon id="SVGID_9_" points="283.8,422.2 283.8,418 301.6,428.4 301.6,432.7 				"/>
			</defs>
			<clipPath id="SVGID_10_">
				<use xlink:href="#SVGID_9_"  style="overflow:visible;"/>
			</clipPath>
			<path style="clip-path:url(#SVGID_10_);fill:#9DCB41;" d="M299.3,427.1l-2.2,2.8l-2.2-5.4l-2.2,2.8l-2.2-5.4l-2.2,2.8l-2.2-5.4
				l-2.3,2.9l4.4,2.6l0.2,0.1l4.3,2.5l0.2,0.1l4.2,2.5l0.2,0.1l4.4,2.6L299.3,427.1"/>
		</g>
	</g>
	<g>
		<g>
			<defs>
				<polygon id="SVGID_11_" points="234.8,192.2 234.8,188 252.6,198.4 252.6,202.7 				"/>
			</defs>
			<clipPath id="SVGID_12_">
				<use xlink:href="#SVGID_11_"  style="overflow:visible;"/>
			</clipPath>
			<path style="clip-path:url(#SVGID_12_);fill:#9DCB41;" d="M250.3,197.1l-2.2,2.8l-2.2-5.4l-2.2,2.8l-2.2-5.4l-2.2,2.8l-2.2-5.4
				l-2.3,2.9l4.4,2.6l0.2,0.1l4.3,2.5l0.2,0.1l4.2,2.5l0.2,0.1l4.4,2.6L250.3,197.1"/>
		</g>
	</g>
	<g>
		<g>
			<defs>
				<polygon id="SVGID_13_" points="674.1,336.4 674.2,332.3 693.7,321.9 693.6,326 				"/>
			</defs>
			<clipPath id="SVGID_14_">
				<use xlink:href="#SVGID_13_"  style="overflow:visible;"/>
			</clipPath>
			<path style="clip-path:url(#SVGID_14_);fill:#9DCB41;" d="M690.8,324l-2.1,4.5l-2.7-1.9l-2.1,4.5l-2.7-1.9l-2.1,4.5l-2.7-1.9
				l-2.2,4.7l4.8-2.6l0.2-0.1l4.6-2.5l0.2-0.1l4.6-2.5l0.2-0.1l4.8-2.6l-2.4-2.8"/>
		</g>
	</g>
	<g>
		<g>
			<defs>
				<polygon id="SVGID_15_" points="398.1,124.4 398.2,120.3 417.7,110 417.6,114.1 				"/>
			</defs>
			<clipPath id="SVGID_16_">
				<use xlink:href="#SVGID_15_"  style="overflow:visible;"/>
			</clipPath>
			<path style="clip-path:url(#SVGID_16_);fill:#9DCB41;" d="M414.8,112l-2.1,4.5l-2.7-1.9l-2.1,4.5l-2.7-1.9l-2.1,4.5l-2.7-1.9
				l-2.2,4.7l4.8-2.6l0.2-0.1l4.6-2.5l0.2-0.1l4.6-2.5l0.2-0.1l4.8-2.6l-2.4-2.8"/>
		</g>
	</g>
	<g>
		<path style="opacity:0.12;fill:#010101;enable-background:new    ;" d="M173.5,383.5c-8.3,4.6-18.6,4.5-22.9-0.3
			s-1.1-12.5,7.2-17.1c7.6-4.2,16.7-4.5,21.6-0.9l7.9-4.4c1.1-0.6,2.4-0.6,2.9,0l0.4,0.4c0.6,0.6,0.1,1.6-0.9,2.2l-7.9,4.4
			C184.4,372.7,181.1,379.3,173.5,383.5L173.5,383.5z"/>
		<circle style="fill:#C3CE41;" cx="188.6" cy="334.7" r="17.6"/>
		<path style="fill:#93AD3C;" d="M199.2,346c-6.1,6.1-16,6.1-22.1,0c-6.1-6.1-6.1-16,0-22.1c2-2,4.5-3.4,7.1-4.1
			c0,0-7.1,10,0.1,18.2c7.4,8.5,18.6,2.2,18.6,2.2C202.1,342.4,200.9,344.4,199.2,346z"/>
		<path style="fill:#9A8272;" d="M189,363.5h-0.9c-1.2,0-2.2-1-2.2-2.2V334c0-1.2,1-2.2,2.2-2.2h0.9c1.2,0,2.2,1,2.2,2.2v27.3
			C191.2,362.5,190.2,363.5,189,363.5z"/>
		<path style="fill:#9A8272;" d="M189.7,346.2l-0.4,0.6c-0.5,0.6-1.3,0.8-2,0.3l-8.6-6.4c-0.6-0.5-0.8-1.3-0.3-2l0.4-0.6
			c0.5-0.6,1.3-0.8,2-0.3l8.6,6.4C190.1,344.7,190.2,345.5,189.7,346.2z"/>
	</g>
	<g>
		<path style="opacity:0.15;fill:#010101;enable-background:new    ;" d="M525.4,125.4c-1.9,1-7.4,1.9-8,1.1c-0.6-0.8,2.6-4,4.4-5
			c1.7-0.9,3.7-1,4.8-0.2l0.5,0.6C527.8,122.9,527.1,124.4,525.4,125.4z"/>
		<path style="fill:#9DCB41;" d="M528.3,121.1c0,2.2-1.8,3.9-3.9,3.9s-3.9-1.8-3.9-3.9c0-3.3,2.6-8.3,3.9-8.3
			S528.3,117.8,528.3,121.1z"/>
		<path style="fill:#75AE42;" d="M526.7,123.7c-1.4,1.4-3.6,1.4-4.9,0c-1.5-1.5-0.9-4-0.4-5.5c0.2-0.6,1.2-2.8,1.6-3.3
			c-0.8,3.8-1.1,5.4,0.5,7.1c1.7,1.8,4.2,0.5,4.2,0.5C527.4,122.8,527.1,123.3,526.7,123.7z"/>
	</g>
	<g>
		<path style="opacity:0.15;fill:#010101;enable-background:new    ;" d="M505.4,114.4c-1.9,1-7.4,1.9-8,1.1c-0.6-0.8,2.6-4,4.4-5
			c1.7-0.9,3.7-1,4.8-0.2l0.5,0.6C507.8,111.9,507.1,113.4,505.4,114.4z"/>
		<path style="fill:#9DCB41;" d="M508.3,110.1c0,2.2-1.8,3.9-3.9,3.9s-3.9-1.8-3.9-3.9c0-3.3,2.6-8.3,3.9-8.3
			S508.3,106.8,508.3,110.1z"/>
		<path style="fill:#75AE42;" d="M506.7,112.7c-1.4,1.4-3.6,1.4-4.9,0c-1.5-1.5-0.9-4-0.4-5.5c0.2-0.6,1.2-2.8,1.6-3.3
			c-0.8,3.8-1.1,5.4,0.5,7.1c1.7,1.8,4.1,0.5,4.1,0.5C507.4,111.8,507.1,112.3,506.7,112.7z"/>
	</g>
	<g>
		<path style="opacity:0.12;fill:#010101;enable-background:new    ;" d="M711.5,378.5c-8.3,4.6-18.6,4.5-22.9-0.3
			s-1.1-12.5,7.2-17.1c7.5-4.2,16.7-4.5,21.6-0.9l7.9-4.4c1-0.6,2.3-0.6,2.9,0l0.4,0.4c0.5,0.6,0.1,1.6-0.9,2.2l-7.9,4.4
			C722.4,367.7,719.1,374.3,711.5,378.5L711.5,378.5z"/>
		<circle style="fill:#C3CE41;" cx="726.5" cy="329.7" r="17.6"/>
		<path style="fill:#93AD3C;" d="M737.2,341c-6.1,6.1-16,6.1-22.1,0c-6.1-6.1-6.1-16,0-22.1c2-2,4.5-3.4,7.1-4.1
			c0,0-7.1,10,0.1,18.2c7.4,8.5,18.5,2.2,18.5,2.2C740.1,337.4,738.9,339.4,737.2,341z"/>
		<path style="fill:#9A8272;" d="M727,358.5h-0.9c-1.2,0-2.2-1-2.2-2.2V329c0-1.2,1-2.2,2.2-2.2h0.9c1.2,0,2.2,1,2.2,2.2v27.3
			C729.2,357.5,728.2,358.5,727,358.5z"/>
		<path style="fill:#9A8272;" d="M727.7,341.2l-0.4,0.6c-0.5,0.6-1.3,0.8-2,0.3l-8.6-6.4c-0.6-0.5-0.8-1.3-0.3-2l0.4-0.6
			c0.5-0.6,1.3-0.8,2-0.3l8.6,6.4C728,339.7,728.2,340.5,727.7,341.2z"/>
	</g>
</g>
</svg>
