<svg version="1" xmlns="http://www.w3.org/2000/svg" width="400" height="400" viewBox="0 0 300.000000 300.000000"><path d="M137.9 8.4c-.2.2-3.1.6-6.4 1-13.1 1.4-33.5 7.7-45.9 14.4-35.1 18.6-60.2 49.3-71 86.3-4.3 14.9-5.6 25.8-5.1 43.4.5 17.4.9 20.2 5 34.5 10.2 35.6 32.6 64.6 64.5 83.4 13.5 8 26.8 13 45.5 17.2 11.3 2.6 40.1 2.5 52 0 33.7-7.1 59.6-22.2 82.2-47.8 12.1-13.7 26.8-43 29.7-59.3.3-1.7.8-4.1 1.1-5.5 2.2-10.2 2.7-35.7.9-47.5-1.4-9-5.3-24.2-7.8-29.9-4.7-11-6.6-14.9-10.9-21.9-20.6-34.2-53.9-57.7-93-65.8-9.2-1.9-39.4-3.8-40.8-2.5zM171 49.1c15.7 2.2 31.8 8.2 43.1 15.9 7.2 4.9 6.7 4.5 14.3 12l5.6 5.4-4.2 3.9c-6.8 6.2-14.9 13.7-20 18.5l-4.7 4.5-5.5-5c-9-8.2-19.2-14-28.1-15.9C137 81 106.3 97.1 96 128c-3 9-3.8 25.8-1.6 35.9 4.8 22.8 21.2 39.9 43.8 45.7 6.4 1.7 22.5 2.4 28.8 1.2 11.2-2 22.9-8.1 32-16.5 3.3-3.1 6.4-5.2 6.8-4.8.7.7 15.2 14.1 23.8 22l4.4 4.1-6.2 6.2c-19 18.9-44.1 28.4-74.8 28.5-32 .1-59.7-11.3-79.8-32.9-12.2-13-19.6-27-23.7-44.7-1.9-8.7-2.3-12.4-2-25.2.1-8.3.5-16.1.8-17.5.4-1.4.9-3.9 1.3-5.5.9-4.7 5.1-15.9 8-21.7 14-27.7 41.5-47.4 73.9-53.2 9.1-1.6 29.9-1.8 39.5-.5z"/></svg>